<svg xmlns="http://www.w3.org/2000/svg" viewBox="0 0 420.12 299.52"><g id="Layer_2" data-name="Layer 2"><g id="Layer_1-2" data-name="Layer 1"><path d="M42.31,0H377.8a42.43,42.43,0,0,1,42.32,42.32V257.2a42.43,42.43,0,0,1-42.32,42.32H42.31A42.42,42.42,0,0,1,0,257.2V42.32A42.42,42.42,0,0,1,42.31,0ZM383.59,280.72,267,186l-33.89,31.13a33.62,33.62,0,0,1-46,0l-33.73-31L36.77,280.78a24.2,24.2,0,0,0,5.54.64H377.8A24,24,0,0,0,383.59,280.72Zm18-242.92a24.35,24.35,0,0,0-23.8-19.7H42.31A24.34,24.34,0,0,0,18.52,37.8L199.27,203.87a15.64,15.64,0,0,0,21.57,0L401.6,37.8ZM280.38,173.68l118.18,96A24,24,0,0,0,402,257.2V61.93ZM21.67,269.82l118.22-96L18.09,61.93V257.2A24,24,0,0,0,21.67,269.82Z"/></g></g></svg>