<svg xmlns="http://www.w3.org/2000/svg" viewBox="0 0 100 100"><g id="Layer_2" data-name="Layer 2"><g id="Layer_1-2" data-name="Layer 1"><path d="M50,0a50,50,0,1,0,50,50A50,50,0,0,0,50,0ZM27.5,32a7.17,7.17,0,0,1,1.31-.11H71.16a4.82,4.82,0,0,1,1.41.21c2.07.68,2.7,2.16,1.28,4a4.91,4.91,0,0,1-.7.74c-6,5.41-12,10.85-18,16.22a8,8,0,0,1-10.38,0c-2.7-2.32-5.31-4.75-7.94-7.16q-5-4.58-10-9.2a5.33,5.33,0,0,1-1.09-1.41,2.23,2.23,0,0,1,.84-3.05A2.16,2.16,0,0,1,27.5,32ZM75,64.44a3.41,3.41,0,0,1-3.1,3.7H29a4.43,4.43,0,0,1-3-1.06,3,3,0,0,1-1-2.4V40.42a3.64,3.64,0,0,1,0-.66.65.65,0,0,1,.61-.67.67.67,0,0,1,.5.21,4.06,4.06,0,0,1,.49.44l6.8,6.71a3.09,3.09,0,0,1,.74,3.77L29.25,61.79c-.15.36-.28.74-.42,1.11L29,63c.24-.28.5-.55.73-.84l6.92-8.85a2,2,0,0,1,2.74-.7,2.15,2.15,0,0,1,.41.32,47.42,47.42,0,0,0,5.2,3.8,11.32,11.32,0,0,0,8,1.13,6.17,6.17,0,0,0,2.72-1.46q2.12-1.78,4.24-3.54a1.86,1.86,0,0,1,2.63-.11,1.92,1.92,0,0,1,.37.48l7.47,9.86c.2.26.42.49.64.74l.14-.09c-.11-.31-.2-.63-.32-.94L65.71,50.27a3.12,3.12,0,0,1,.74-3.67l7-6.9a1.12,1.12,0,0,1,1.16-.57A1.07,1.07,0,0,1,75,40.34Z"/></g></g></svg>