<svg xmlns="http://www.w3.org/2000/svg" viewBox="0 0 171 171"><defs><style>.cls-1{fill:#ff4500;}</style></defs><g id="Layer_2" data-name="Layer 2"><g id="Layer_1-2" data-name="Layer 1"><g id="Artwork"><path class="cls-1" d="M103.6,114.6c-3.9,3.8-12,5.2-17.9,5.2s-14.1-1.4-17.9-5.2a2.33,2.33,0,0,0-3.3,3.3c6,6,17.7,6.5,21.1,6.5s15-.4,21.1-6.5a2.57,2.57,0,0,0,.2-3.3A2.35,2.35,0,0,0,103.6,114.6Z"/><circle class="cls-1" cx="65.9" cy="94.4" r="8.9" transform="matrix(0.97, -0.23, 0.23, 0.97, -19.93, 17.67)"/><circle class="cls-1" cx="105.1" cy="94.4" r="8.9" transform="translate(-35.97 101.97) rotate(-45)"/><path class="cls-1" d="M85.5,0A85.5,85.5,0,1,0,171,85.5,85.5,85.5,0,0,0,85.5,0Zm49.8,97a22.18,22.18,0,0,1,.3,3.7c0,19.2-22.3,34.7-49.9,34.7s-49.9-15.5-49.9-34.7a23.4,23.4,0,0,1,.3-3.8A12.49,12.49,0,0,1,41.2,73a12.62,12.62,0,0,1,8.6,3.5c8.6-6.3,20.5-10.2,33.8-10.6l6.3-29.8a2.43,2.43,0,0,1,1-1.4,2.49,2.49,0,0,1,1.7-.3l20.7,4.4a8.65,8.65,0,0,1,7.9-5,8.9,8.9,0,1,1-8.9,9.3L93.8,39.2,88.1,65.9c13,.5,24.8,4.5,33.3,10.6A12,12,0,0,1,130,73a12.5,12.5,0,0,1,12.5,12.5A12.94,12.94,0,0,1,135.3,97Z"/></g></g></g></svg>