<svg xmlns="http://www.w3.org/2000/svg" viewBox="0 0 347.39 119.35"><defs><style>.cls-1,.cls-2,.cls-3,.cls-4{fill:#fff;}.cls-2{opacity:0.51;}.cls-3{opacity:0.6;}.cls-4{opacity:0.65;}</style></defs><g id="Layer_2" data-name="Layer 2"><g id="Layer_1-2" data-name="Layer 1"><path class="cls-1" d="M151.62,83.35V35.89c8.21.38,16.23,0,24,1.28,11.29,1.85,17.71,11,17.59,23.17-.12,11.67-7,20.31-18,22.49a38.38,38.38,0,0,1-6.95.5C162.8,83.4,157.35,83.35,151.62,83.35ZM159.47,76c8.69.07,17.5,2,23.22-6.77,3.63-5.54,3.49-14-.37-19.3-5.9-8.1-14.44-6.36-22.85-6.37Z"/><path class="cls-1" d="M232.31,69.45H206.75c1,8.25,8.93,10.22,20.07,4.92l3.32,3.84c-3.37,6.39-17,7.93-24,3.58s-9.88-14.2-6.34-22.52c3.33-7.82,12-11.52,21.41-9.1C229.17,52.24,233.49,59.36,232.31,69.45Zm-25.92-6.22h18.94c-1.57-5.54-5.15-7.24-9.94-7.12S207.72,58.39,206.39,63.23Z"/><path class="cls-1" d="M312.09,66.67c0-10.25,7.48-17.46,17.89-17.32,10.23.13,17.36,7.23,17.41,17.31,0,10.39-7.13,17.5-17.65,17.49S312.05,77.08,312.09,66.67Zm17.55,10.54A10.12,10.12,0,0,0,340,66.77a10.24,10.24,0,1,0-20.47-.24A10.13,10.13,0,0,0,329.64,77.21Z"/><path class="cls-1" d="M310.85,82.81c-6,1.38-10.3.68-13.68-4.13-2.26-3.22-5.24-5.93-8.7-9.75V83h-7.69V36.48h7.41V63c7.26-4.2,8.85-16,20.65-12.28L295.54,66.1Z"/><path class="cls-1" d="M239.79,50.47c5.7-.48,5.7-.48,6.64,2.39,3.57-1.15,7.06-2.92,10.7-3.3C264.79,48.76,271,54,271.78,62c.63,6.88.13,13.88.13,21.07h-7.54c0-6.31.07-12.55,0-18.78-.06-4.13-2.06-7.1-6.24-7.88s-7.7.74-9.66,4.54a15.17,15.17,0,0,0-1.26,6.24c-.17,5.13-.05,10.27-.05,15.76h-7.34Z"/><path class="cls-1" d="M0,59.23a59.67,59.67,0,1,1,59.22,60.12A59.52,59.52,0,0,1,0,59.23Zm93.2,1.5c-.08-23.67-21.42-39.4-43.3-33.29a14.91,14.91,0,0,1-6.73.37c-8.17-1.69-15.7,1-20.09,7.68s-4,14.71.7,21.53a14.16,14.16,0,0,1,2.39,6.21A33.88,33.88,0,0,0,70.71,91.45a16.28,16.28,0,0,1,8.37,0c4.72,1.12,8.64.12,11.85-3.28C94,85,95.55,80.73,93.3,76.76s-1.62-7.45-.61-11.33A24.62,24.62,0,0,0,93.2,60.73Z"/><path class="cls-1" d="M53.33,45.82A14.84,14.84,0,0,1,38.41,60.65a15,15,0,1,1,.27-29.91A14.78,14.78,0,0,1,53.33,45.82Z"/><path class="cls-1" d="M82.41,88.4a8.1,8.1,0,0,1-8.12-8.26,8.31,8.31,0,0,1,8.5-7.94,8.12,8.12,0,0,1,7.79,8.07A8,8,0,0,1,82.41,88.4Z"/><circle class="cls-2" cx="38.35" cy="45.7" r="14.98"/><path class="cls-3" d="M59.66.57A59.39,59.39,0,1,0,119.05,60,59.39,59.39,0,0,0,59.66.57ZM82.43,92.23a11.85,11.85,0,0,1-7.13-2.39A33.73,33.73,0,0,1,25.94,60v-.12a18.81,18.81,0,0,1,20.74-31,33.73,33.73,0,0,1,44.44,43.3,11.92,11.92,0,0,1-8.69,20.1Z"/><circle class="cls-4" cx="82.43" cy="80.3" r="8.15"/></g></g></svg>