<?xml version="1.0" encoding="utf-8"?>
<!-- Generator: Adobe Illustrator 25.2.3, SVG Export Plug-In . SVG Version: 6.00 Build 0)  -->
<svg version="1.1" id="Layer_1" xmlns="http://www.w3.org/2000/svg" xmlns:xlink="http://www.w3.org/1999/xlink" x="0px" y="0px"
	 viewBox="0 0 532.1 66" style="enable-background:new 0 0 532.1 66;" xml:space="preserve">
<style type="text/css">
	.st0{fill:#FFFFFF;}
</style>
<g id="Layer_2_1_">
	<g id="Blue">
		<path class="st0" d="M19.4,30.1c-0.6-0.8-1.8-1-2.6-0.3c-0.2,0.2-0.4,0.4-0.6,0.7l-16,32c-0.5,0.9-0.1,2.1,0.9,2.6
			c0.3,0.1,0.6,0.2,0.9,0.2h22.3c0.7,0,1.4-0.4,1.7-1.1C30.7,54.2,27.8,39.1,19.4,30.1z"/>
		<path class="st0" d="M31.1,1c-8.1,12.5-9,28.3-2.5,41.7l10.7,21.5c0.3,0.6,1,1.1,1.7,1.1h22.3c1.1,0,1.9-0.9,1.9-1.9
			c0-0.3-0.1-0.6-0.2-0.9c0,0-30-59.9-30.7-61.4c-0.4-0.9-1.5-1.3-2.4-0.8C31.6,0.4,31.3,0.7,31.1,1z"/>
		<path class="st0" d="M292.3,26.7c0,7.9,3.7,14.2,18,17c8.6,1.8,10.4,3.2,10.4,6c0,2.8-1.8,4.6-7.8,4.6c-7.3-0.1-14.5-2.1-20.8-5.6
			v12.9c4.3,2.1,10,4.5,20.7,4.5c15,0,21-6.7,21-16.7 M333.7,49.4c0-9.4-5-13.8-19-16.8c-7.8-1.7-9.6-3.4-9.6-5.9
			c0-3.1,2.8-4.4,7.9-4.4c6.2,0,12.3,1.9,18.1,4.5V14.4c-5.6-2.5-11.6-3.8-17.7-3.7c-13.9,0-21.1,6-21.1,15.9"/>
		<polygon class="st0" points="485.3,11.6 485.3,65.2 496.8,65.2 496.8,24.3 501.6,35.2 517.7,65.2 532.1,65.2 532.1,11.6 
			520.7,11.6 520.7,46.2 516.4,36.1 503.4,11.6 		"/>
		<rect x="400.1" y="11.6" class="st0" width="12.5" height="53.6"/>
		<path class="st0" d="M385.7,49.4c0-9.4-5-13.8-19-16.8c-7.8-1.7-9.6-3.4-9.6-5.9c0-3.1,2.8-4.4,7.9-4.4c6.2,0,12.3,1.9,18.1,4.5
			V14.4c-5.6-2.5-11.6-3.8-17.7-3.7c-13.9,0-21.1,6-21.1,15.9c0,7.9,3.7,14.2,18,17c8.6,1.8,10.4,3.2,10.4,6c0,2.8-1.8,4.6-7.8,4.6
			c-7.3-0.1-14.5-2.1-20.8-5.6v12.9c4.3,2.1,10,4.5,20.7,4.5C379.8,66,385.7,59.3,385.7,49.4"/>
		<polygon class="st0" points="195.3,11.6 195.3,65.2 220.9,65.2 225,53.6 207.8,53.6 207.8,11.6 		"/>
		<polygon class="st0" points="144.5,11.6 144.5,23.2 158.4,23.2 158.4,65.2 171,65.2 171,23.2 185.8,23.2 185.8,11.6 		"/>
		<path class="st0" d="M126.3,11.6h-16.5L91.1,65.2h14.3l2.7-9c6.5,1.9,13.5,1.9,20,0l2.7,9H145L126.3,11.6z M118.1,46.5
			c-2.3,0-4.6-0.3-6.9-1l6.9-23.4l6.9,23.4C122.7,46.2,120.4,46.5,118.1,46.5z"/>
		<path class="st0" d="M265.2,11.6h-16.5L230,65.2h14.3l2.7-9c6.5,1.9,13.5,1.9,20,0l2.7,9h14.3L265.2,11.6z M257,46.5
			c-2.3,0-4.6-0.3-6.9-1l6.9-23.4l6.9,23.4C261.6,46.2,259.3,46.5,257,46.5z"/>
		<path class="st0" d="M457.6,11.6h-16.5l-18.7,53.6h14.3l2.7-9c6.5,1.9,13.5,1.9,20,0l2.7,9h14.3L457.6,11.6z M449.4,46.5
			c-2.3,0-4.6-0.3-6.9-1l6.9-23.4l6.9,23.4C454,46.2,451.7,46.5,449.4,46.5z"/>
	</g>
</g>
</svg>
