<svg xmlns="http://www.w3.org/2000/svg" viewBox="0 0 159.9 29.4"><defs><style>.cls-1{fill:#fff;}</style></defs><title>Asset 1</title><g id="Layer_2" data-name="Layer 2"><g id="Layer_1-2" data-name="Layer 1"><path class="cls-1" d="M.1.2.5,1.5V27.9l-.5.9H9.9c6.9,0,12.7-5.6,12.7-15.1C22.6,6.8,19.2.6,12,.1L.1.2ZM5.6,3H8.8C13.6,3,17,5.8,17,13.7c0,9.7-4,11.7-8.6,11.7H5.6Zm48.9-.2h6.1l.9.7,1-3.2H42.2l-.7,3.4L43.1,3h5.8V28.1l-.4,1h6.6l-.4-1V2.8Zm46,21.4A7,7,0,0,1,95,26.9c-5.2,0-8-4.6-8-11.8,0-6.2,2.2-12.7,7.7-12.7a6.21,6.21,0,0,1,5.5,3.7h.4V1.8A10.17,10.17,0,0,0,94.5,0C87.3,0,81.2,4.9,81.2,15.8c0,8.6,5.5,13.6,12.5,13.6,2.2,0,4.6,0,6.6-1.3V24.2Zm26.9-9.7C127.4,8,124.6,0,115,0c-8.3,0-13.1,6.3-13.1,14.6,0,9.4,5,14.8,12.4,14.8,8.1,0,13.1-6.7,13.1-14.9m-12.6-12c5,0,6.9,5.8,6.9,11.2,0,6.9-2.2,13.3-7.4,13.3-5,0-6.9-5.6-6.9-10.9.1-9.7,2.9-13.6,7.4-13.6m29.4,18.2L135.8.2h-4.6l.4.9-1.9,26.4-.4,1.3h3.5l1.3-17.9,8,17.9H144l7.8-17.7,1.5,17.7h6.6l-.4-1.2L157,.9l.1-.7h-4.6Zm-107-.3L40,29h6.5l-.7-.7L35.9.3H30.3l.6,1.6L21.7,28l-.4.7h4l2.8-8.6h9.2v.3Zm-8-3.4L32.6,7l3.5,10Zm43.9,3.4L75.9,29h6.5l-.7-.9L71.7.2H66.1l.6,1.6L57.5,27.9l-.4.7h4L63.9,20h9.2ZM64.9,17,68.3,7l3.5,10Z"/></g></g></svg>