<?xml version="1.0" encoding="utf-8"?>
<!-- Generator: Adobe Illustrator 25.2.3, SVG Export Plug-In . SVG Version: 6.00 Build 0)  -->
<svg version="1.1" id="Layer_1" xmlns="http://www.w3.org/2000/svg" xmlns:xlink="http://www.w3.org/1999/xlink" x="0px" y="0px"
	 viewBox="0 0 110.9 20.2" style="enable-background:new 0 0 110.9 20.2;" xml:space="preserve">
<style type="text/css">
	.st0{fill:#FFFFFF;}
</style>
<g id="Layer_2_1_">
	<g id="Layer_1-2">
		<g id="Layer_2-2">
			<g id="Layer_1-2-2">
				<path class="st0" d="M110.2,14.1c-1.1,1.7-3,2.7-5,2.7c-2.3-0.1-4.3-2-5.2-5.1c-1.1-3.9-0.2-6.6,2.4-7.7c1.7-0.7,3.6-0.3,4.9,1
					c-0.8,0.4-1.1,1.4-0.8,2.2c0.4,1,1.5,1.6,2.6,1.2c0.2-0.1,0.4-0.2,0.5-0.3c0.6-0.5,0.9-1.4,0.7-2.2c-0.3-0.9-0.9-1.7-1.8-2.1
					c-1.3-0.8-2.7-1.2-4.2-1.2c-4.4,0.1-7.9,3.7-7.9,8.1c0,4.3,3.5,7.8,7.8,7.8c2.8,0,5.4-1.4,6.8-3.9
					C110.9,14.6,110.2,14.2,110.2,14.1"/>
				<path class="st0" d="M93.3,16.3v-8c0.1-1.4-0.2-2.7-1-3.9c-0.9-1.2-2.3-1.9-3.7-1.8c-2.1,0.1-4,1.2-5.2,2.9
					c-0.1-0.4-0.3-0.8-0.6-1.1c-0.9-1.2-2.3-1.9-3.8-1.8c-1.9,0-3.6,0.9-4.8,2.4V2.9h-4.8v0.5h0.3c0.7,0,1.1,0.4,1.1,1.2v11.7
					c0,0.8-0.4,1.2-1.1,1.2h-0.3V18h6.2v-0.5h-0.3c-0.7,0-1.1-0.4-1.1-1.2V6.8c0.8-1.2,2-2,3.5-2.2c0.8,0,1.6,0.3,2.1,1
					c0.4,0.6,0.6,1.2,0.5,1.9v8.7c0,0.8-0.4,1.2-1.1,1.2h-0.3V18h6.2v-0.5h-0.3c-0.7,0-1.1-0.4-1.1-1.2v-8c0-0.4,0-0.9,0-1.3
					c0.8-1.1,2.1-2.3,3.6-2.3c0.8,0,1.6,0.3,2.1,1c0.4,0.6,0.6,1.2,0.5,1.9v8.7c0,0.8-0.4,1.2-1.1,1.2h-0.3V18h6.2v-0.5h-0.3
					C93.7,17.5,93.3,17.1,93.3,16.3"/>
				<path class="st0" d="M60.6,3.4h0.3c0.7,0,1.1,0.4,1.1,1.2v11.6c0,0.8-0.4,1.3-1.1,1.3h-0.3V18h6.2v-0.5h-0.3
					c-0.7,0-1.1-0.4-1.1-1.2V4.6c0-0.8,0.4-1.2,1.1-1.2h0.3V2.9h-6.2L60.6,3.4z"/>
				<path class="st0" d="M50.6,6.7c-1.9,0-3.4-1.5-3.4-3.4c0-1.9,1.5-3.4,3.4-3.4c1.9,0,3.4,1.5,3.4,3.4v0
					C53.9,5.2,52.4,6.7,50.6,6.7z M50.6,4.7c0.7,0,1.3-0.6,1.3-1.3s-0.6-1.3-1.3-1.3s-1.3,0.6-1.3,1.3l0,0v0
					C49.2,4.1,49.8,4.7,50.6,4.7L50.6,4.7z"/>
				<path class="st0" d="M43.8,6.7c-1.9,0-3.4-1.5-3.4-3.4c0-1.9,1.5-3.4,3.4-3.4c1.9,0,3.4,1.5,3.4,3.4v0
					C47.2,5.2,45.7,6.7,43.8,6.7z M43.8,4.7c0.7,0,1.3-0.6,1.3-1.3s-0.6-1.3-1.3-1.3s-1.3,0.6-1.3,1.3l0,0v0
					C42.5,4.1,43.1,4.7,43.8,4.7L43.8,4.7z"/>
				<path class="st0" d="M37.1,6.7c-1.9,0-3.4-1.5-3.4-3.4c0-1.9,1.5-3.4,3.4-3.4c1.9,0,3.4,1.5,3.4,3.4v0
					C40.4,5.2,38.9,6.7,37.1,6.7z M37.1,4.7c0.7,0,1.3-0.6,1.3-1.3s-0.6-1.3-1.3-1.3s-1.3,0.6-1.3,1.3l0,0v0
					C35.8,4.1,36.4,4.7,37.1,4.7L37.1,4.7z"/>
				<path class="st0" d="M30.3,6.7c-1.9,0-3.4-1.5-3.4-3.4C27,1.5,28.5,0,30.3,0c1.9,0,3.4,1.5,3.4,3.4v0
					C33.7,5.2,32.2,6.7,30.3,6.7z M30.3,4.7c0.7,0,1.3-0.6,1.3-1.3s-0.6-1.3-1.3-1.3S29,2.7,29,3.4l0,0v0C29,4.1,29.6,4.7,30.3,4.7
					L30.3,4.7z"/>
				<path class="st0" d="M23.6,6.7c-1.9,0-3.4-1.5-3.4-3.4S21.7,0,23.6,0C25.4,0,27,1.5,27,3.4v0C27,5.2,25.5,6.7,23.6,6.7z
					 M23.6,4.7c0.7,0,1.3-0.6,1.3-1.3s-0.6-1.3-1.3-1.3s-1.3,0.6-1.3,1.3l0,0v0C22.3,4.1,22.9,4.7,23.6,4.7L23.6,4.7z"/>
				<path class="st0" d="M16.9,6.7c-1.9,0-3.4-1.5-3.4-3.4S15,0,16.8,0c1.9,0,3.4,1.5,3.4,3.4v0C20.2,5.2,18.7,6.7,16.9,6.7z
					 M16.9,4.7c0.7,0,1.3-0.6,1.3-1.3s-0.6-1.3-1.3-1.3c-0.7,0-1.3,0.6-1.3,1.3v0l0,0v0C15.5,4.1,16.1,4.7,16.9,4.7L16.9,4.7z"/>
				<path class="st0" d="M10.1,6.7c-1.9,0-3.4-1.5-3.4-3.4C6.7,1.5,8.2,0,10.1,0c1.9,0,3.4,1.5,3.4,3.4v0C13.5,5.2,12,6.7,10.1,6.7z
					 M10.1,4.7c0.7,0,1.3-0.6,1.3-1.3s-0.6-1.3-1.3-1.3S8.8,2.7,8.8,3.4v0l0,0v0C8.8,4.1,9.4,4.7,10.1,4.7L10.1,4.7z"/>
				<path class="st0" d="M3.4,6.7C1.5,6.7,0,5.2,0,3.4S1.5,0,3.4,0c1.9,0,3.4,1.5,3.4,3.4v0C6.7,5.2,5.2,6.7,3.4,6.7z M3.4,4.7
					c0.7,0,1.3-0.6,1.3-1.3c0-0.7-0.6-1.3-1.3-1.3S2,2.7,2,3.4v0l0,0v0C2.1,4.1,2.7,4.7,3.4,4.7L3.4,4.7z"/>
				<path class="st0" d="M50.6,13.5c-1.9,0-3.4-1.5-3.4-3.4c0-1.9,1.5-3.4,3.4-3.4c1.9,0,3.4,1.5,3.4,3.4v0
					C53.9,12,52.4,13.5,50.6,13.5z M50.6,11.5c0.7,0,1.3-0.6,1.3-1.3s-0.6-1.3-1.3-1.3s-1.3,0.6-1.3,1.3l0,0v0
					C49.2,10.9,49.8,11.4,50.6,11.5L50.6,11.5z"/>
				<path class="st0" d="M43.8,13.5c-1.9,0-3.4-1.5-3.4-3.4c0-1.9,1.5-3.4,3.4-3.4c1.9,0,3.4,1.5,3.4,3.4v0
					C47.2,12,45.7,13.5,43.8,13.5z M43.8,11.5c0.7,0,1.3-0.6,1.3-1.3s-0.6-1.3-1.3-1.3s-1.3,0.6-1.3,1.3l0,0v0
					C42.5,10.9,43.1,11.4,43.8,11.5L43.8,11.5z"/>
				<path class="st0" d="M37.1,13.5c-1.9,0-3.4-1.5-3.4-3.4c0-1.9,1.5-3.4,3.4-3.4c1.9,0,3.4,1.5,3.4,3.4v0
					C40.4,12,38.9,13.5,37.1,13.5z M37.1,11.5c0.7,0,1.3-0.6,1.3-1.3s-0.6-1.3-1.3-1.3s-1.3,0.6-1.3,1.3l0,0v0
					C35.8,10.9,36.4,11.4,37.1,11.5L37.1,11.5z"/>
				<path class="st0" d="M30.3,13.5c-1.9,0-3.4-1.5-3.4-3.4c0-1.9,1.5-3.4,3.4-3.4c1.9,0,3.4,1.5,3.4,3.4v0
					C33.7,12,32.2,13.5,30.3,13.5z M30.3,11.5c0.7,0,1.3-0.6,1.3-1.3s-0.6-1.3-1.3-1.3S29,9.4,29,10.1l0,0v0
					C29,10.9,29.6,11.4,30.3,11.5L30.3,11.5z"/>
				<path class="st0" d="M23.6,13.5c-1.9,0-3.4-1.5-3.4-3.4s1.5-3.4,3.4-3.4c1.9,0,3.4,1.5,3.4,3.4v0C27,12,25.5,13.5,23.6,13.5z
					 M23.6,11.5c0.7,0,1.3-0.6,1.3-1.3s-0.6-1.3-1.3-1.3s-1.3,0.6-1.3,1.3l0,0v0C22.3,10.9,22.9,11.4,23.6,11.5L23.6,11.5z"/>
				<path class="st0" d="M16.9,13.5c-1.9,0-3.4-1.5-3.4-3.4s1.5-3.4,3.4-3.4c1.9,0,3.4,1.5,3.4,3.4v0C20.2,12,18.7,13.5,16.9,13.5z
					 M16.9,11.5c0.7,0,1.3-0.6,1.3-1.3s-0.6-1.3-1.3-1.3s-1.3,0.6-1.3,1.3l0,0v0C15.5,10.9,16.1,11.4,16.9,11.5L16.9,11.5z"/>
				<path class="st0" d="M10.1,13.5c-1.9,0-3.4-1.5-3.4-3.4c0-1.9,1.5-3.4,3.4-3.4c1.9,0,3.4,1.5,3.4,3.4v0
					C13.5,12,12,13.5,10.1,13.5z M10.1,11.5c0.7,0,1.3-0.6,1.3-1.3s-0.6-1.3-1.3-1.3s-1.3,0.6-1.3,1.3l0,0v0
					C8.8,10.9,9.4,11.4,10.1,11.5L10.1,11.5z"/>
				<path class="st0" d="M3.4,13.5C1.5,13.5,0,12,0,10.1s1.5-3.4,3.4-3.4c1.9,0,3.4,1.5,3.4,3.4v0C6.7,12,5.2,13.5,3.4,13.5z
					 M3.4,11.5c0.7,0,1.3-0.6,1.3-1.3c0-0.7-0.6-1.3-1.3-1.3S2,9.4,2,10.1l0,0v0C2.1,10.9,2.7,11.4,3.4,11.5L3.4,11.5z"/>
				<path class="st0" d="M50.6,20.2c-1.9,0-3.4-1.5-3.4-3.4c0-1.9,1.5-3.4,3.4-3.4c1.9,0,3.4,1.5,3.4,3.4v0
					C53.9,18.7,52.4,20.2,50.6,20.2z M50.6,18.2c0.7,0,1.3-0.6,1.3-1.3s-0.6-1.3-1.3-1.3s-1.3,0.6-1.3,1.3l0,0v0
					C49.2,17.6,49.8,18.2,50.6,18.2L50.6,18.2z"/>
				<path class="st0" d="M43.8,20.2c-1.9,0-3.4-1.5-3.4-3.4c0-1.9,1.5-3.4,3.4-3.4c1.9,0,3.4,1.5,3.4,3.4v0
					C47.2,18.7,45.7,20.2,43.8,20.2z M43.8,18.2c0.7,0,1.3-0.6,1.3-1.3s-0.6-1.3-1.3-1.3s-1.3,0.6-1.3,1.3l0,0v0
					C42.5,17.6,43.1,18.2,43.8,18.2L43.8,18.2z"/>
				<path class="st0" d="M37.1,20.2c-1.9,0-3.4-1.5-3.4-3.4c0-1.9,1.5-3.4,3.4-3.4c1.9,0,3.4,1.5,3.4,3.4v0
					C40.4,18.7,38.9,20.2,37.1,20.2z M37.1,18.2c0.7,0,1.3-0.6,1.3-1.3s-0.6-1.3-1.3-1.3s-1.3,0.6-1.3,1.3l0,0v0
					C35.8,17.6,36.4,18.2,37.1,18.2L37.1,18.2z"/>
				<path class="st0" d="M30.3,20.2c-1.9,0-3.4-1.5-3.4-3.4c0-1.9,1.5-3.4,3.4-3.4c1.9,0,3.4,1.5,3.4,3.4v0
					C33.7,18.7,32.2,20.2,30.3,20.2z M30.3,18.2c0.7,0,1.3-0.6,1.3-1.3s-0.6-1.3-1.3-1.3S29,16.1,29,16.9l0,0v0
					C29,17.6,29.6,18.2,30.3,18.2L30.3,18.2z"/>
				<path class="st0" d="M23.6,20.2c-1.9,0-3.4-1.5-3.4-3.4s1.5-3.4,3.4-3.4c1.9,0,3.4,1.5,3.4,3.4v0C27,18.7,25.5,20.2,23.6,20.2z
					 M23.6,18.2c0.7,0,1.3-0.6,1.3-1.3s-0.6-1.3-1.3-1.3s-1.3,0.6-1.3,1.3l0,0v0C22.3,17.6,22.9,18.2,23.6,18.2L23.6,18.2z"/>
				<path class="st0" d="M16.9,20.2c-1.9,0-3.4-1.5-3.4-3.4s1.5-3.4,3.4-3.4c1.9,0,3.4,1.5,3.4,3.4v0C20.2,18.7,18.7,20.2,16.9,20.2
					z M16.9,18.2c0.7,0,1.3-0.6,1.3-1.3s-0.6-1.3-1.3-1.3s-1.3,0.6-1.3,1.3l0,0v0C15.5,17.6,16.1,18.2,16.9,18.2L16.9,18.2z"/>
				<path class="st0" d="M10.1,20.2c-1.9,0-3.4-1.5-3.4-3.4c0-1.9,1.5-3.4,3.4-3.4c1.9,0,3.4,1.5,3.4,3.4v0
					C13.5,18.7,12,20.2,10.1,20.2z M10.1,18.2c0.7,0,1.3-0.6,1.3-1.3s-0.6-1.3-1.3-1.3s-1.3,0.6-1.3,1.3l0,0v0
					C8.8,17.6,9.4,18.2,10.1,18.2L10.1,18.2z"/>
				<path class="st0" d="M3.4,20.2c-1.9,0-3.4-1.5-3.4-3.4c0-1.9,1.5-3.4,3.4-3.4c1.9,0,3.4,1.5,3.4,3.4v0
					C6.7,18.7,5.2,20.2,3.4,20.2z M3.4,18.2c0.7,0,1.3-0.6,1.3-1.3c0-0.7-0.6-1.3-1.3-1.3S2,16.1,2,16.9l0,0v0
					C2.1,17.6,2.7,18.2,3.4,18.2L3.4,18.2z"/>
			</g>
		</g>
	</g>
</g>
</svg>
