<?xml version="1.0" encoding="utf-8"?>
<!-- Generator: Adobe Illustrator 25.2.3, SVG Export Plug-In . SVG Version: 6.00 Build 0)  -->
<svg version="1.1" id="Layer_1" xmlns="http://www.w3.org/2000/svg" xmlns:xlink="http://www.w3.org/1999/xlink" x="0px" y="0px"
	 viewBox="0 0 789.5 227.7" style="enable-background:new 0 0 789.5 227.7;" xml:space="preserve">
<style type="text/css">
	.st0{fill:#FFFFFF;}
	.st1{fill:#EAEAEA;}
</style>
<g id="Layer_2_1_">
	<g id="Layer_1-2">
		<path class="st0" d="M416.5,65.2v40.8h8.3c0-7.9-0.3-15.5,0.1-23.1c0.2-3.1,1.2-6,2.9-8.6c2-3,5.6-3.6,9.1-2.6
			c3.4,1,4.6,3.7,4.8,6.9s0.2,6.5,0.2,9.7c0,5.8,0,11.7,0,17.7h8.5c0-7.9-0.3-15.7,0.2-23.3c0.3-3.2,1.5-6.2,3.4-8.8
			c1.9-2.7,5.3-3.1,8.5-2.3s4.6,3.3,4.9,6.4c0.3,3.3,0.3,6.7,0.3,10.1c0,6,0,11.9,0,17.8h8.2c0-10,0.3-19.8-0.1-29.5
			c-0.4-8.6-7.6-13.9-15.7-12.5c-4.7,0.8-8.2,3.2-11.1,7.6c-1.9-4.6-6.4-7.7-11.4-7.8c-5-0.3-9.1,2-12.6,6.2
			c-0.2-1.9-0.3-3.2-0.4-4.8L416.5,65.2z"/>
		<path class="st0" d="M409.2,106c0-10.5,0.5-20.9-0.2-31.2c-0.5-7.6-7.6-12-15.2-10.9c-4.9,0.7-8.4,3.4-11.2,7.6
			c-2.6-5-6.4-7.5-11.6-7.7s-9.1,2.2-12.7,6.4c-0.1-2.1-0.2-3.5-0.3-4.9H350V106h8.2c0-7.5-0.2-14.9,0.1-22.2c0.1-2.8,0.8-5.6,2-8.2
			c1.8-3.6,6.2-5,10-3.9s5,4.3,5.1,7.8c0.1,5.7,0,11.5,0,17.2v9.2h8.4c0-4-0.1-7.8,0-11.5c0.1-4.9-0.1-9.8,0.5-14.6
			c0.8-5.7,5.2-9,10.1-8.5s6.6,3.3,6.6,9.9V106H409.2z"/>
		<path class="st0" d="M613.4,65.1l-7.3,31.5c-0.6-1.5-1-2.2-1.2-3c-2.2-8.7-4.5-17.4-6.5-26.1c-0.7-3-2.5-2.8-4.4-2.5
			s-4.8-1.5-5.6,2.4c-1.2,6-2.9,11.9-4.4,17.8c-1,3.8-2,7.7-3,11.5c-3-9.7-5.2-19.3-7.6-28.9c-0.3-1.1-1.3-2.6-2.2-2.7
			c-2.1-0.4-4.4-0.1-7-0.1c3.4,13.5,6.7,26.5,10,39.5c0.4,0.8,1.1,1.4,2,1.6c3,0.2,5.9,0.1,8.8,0.1c2.6-10.1,5.2-19.8,7.7-29.6
			c3,9.1,5.2,18,7.5,27c0.4,1.2,1.2,2.1,2.4,2.5c2.8,0.2,5.7,0.2,8.6,0.1c3.5-13.9,6.9-27.3,10.4-41.1L613.4,65.1z"/>
		<path class="st0" d="M301.7,90c-1.5-0.1-3-0.1-4.4,0c-1.6,0.3-4,0.6-4.6,1.7c-3.5,7-12,9.8-18.9,6.3c-2-1-3.7-2.5-5.1-4.3
			c-5.9-7.7-5.7-25.1,0.3-32.7c4.9-6.1,13.8-7,19.9-2.1c1.5,1.2,2.8,2.8,3.7,4.5c0.3,0.7,1.1,1.6,1.7,1.6c2.5,0.2,5,0.1,7.8,0.1
			c-0.9-5.4-3-9.4-6.8-12.4c-11.2-8.9-29.4-5-35.9,7.7c-3.9,7.8-4.5,16-3.1,24.5c2.4,15.2,12.5,23.2,27.8,22
			C293.6,106.2,301,99.2,301.7,90z"/>
		<path class="st0" d="M789.4,106.1c0-10.1,0.5-19.9-0.1-29.7c-0.6-9.1-8-14.2-17-12.1c-4,0.9-7.6,3.3-11.5,5.1V49.5h-8V106h8.3
			c0-6.7-0.1-13.1,0-19.6c-0.1-2.6,0.2-5.2,0.7-7.8c1.1-4.8,5.8-8,10.7-7.3c5.2,0.6,8.1,3.7,8.5,9.2c0.1,1.5,0,3,0,4.5
			c0,7,0,13.9,0,21L789.4,106.1z"/>
		<path class="st0" d="M426.7,182l-17.4-21.2l17.3-19.7c-6-0.7-11.1-1.2-14.5,4.7c-1.5,2.7-4,4.8-6,7.1c-1.8,2.1-3.6,4.1-5.5,6.2
			l-0.9-0.4v-33.4h-8.3v54.9c0,0.5,0.1,1.1,0.2,1.6h8.3v-18.2c5.3,5.3,9.7,10.8,14.3,16.3c0.7,0.9,1.8,2,2.8,2.1
			C419.9,182.2,422.8,182,426.7,182z"/>
		<path class="st0" d="M358.1,181.9v-4.2c0-7-0.2-14,0.1-21c0.2-5.6,4.7-9.4,10.2-9.3c5.1,0.1,7.8,3.2,8,9.3c0,1.2,0,2.5,0,3.8v21.4
			h8.2c0-10.4,0.5-20.5-0.2-30.6c-0.5-7.5-6.6-11.7-14.2-11.4c-4.8,0.2-8.5,2.3-11.9,6.3c-0.2-2-0.4-3.4-0.5-4.9h-8.1v40.8
			L358.1,181.9z"/>
		<path class="st0" d="M534.3,106c0-7.6-0.1-14.7,0-21.8c0-2.4,0.4-4.7,1.1-6.9c1.6-4.1,5.9-6.5,10.2-5.9c4.4,0.6,6.5,2.9,7,8.2
			c0.3,3.7,0.2,7.5,0.2,11.2c0,5.1,0,10.1,0,15.1h8.3c0-10,0.5-19.7-0.1-29.4c-0.6-9.4-8.3-14.7-17.5-12.3c-3.3,0.9-6.2,3.2-9.2,4.8
			c-0.1-1-0.2-2.5-0.3-3.9H526V106H534.3z"/>
		<path class="st0" d="M747.3,99c-2,0-3.8,0.4-5.2-0.1c-1.6-0.7-4.1-2.1-4.2-3.3c-0.4-7.8-0.2-15.6-0.2-23.9h8.7v-6.8h-9V51
			c-8.2,1.5-9.2,7.2-8.3,13.8l-6.8,0.4v6.4l6.8,0.5c0,1.7,0,3.2,0,4.6c0.1,6.9-0.1,13.8,0.3,20.6c0.3,5.3,3,8.3,8.2,9.1
			c3.1,0.5,6.3,0.1,9.6,0.1L747.3,99z"/>
		<path class="st0" d="M709.5,49.4V106h7.8V49.4H709.5z"/>
		<path class="st0" d="M259.1,182.1v-56.7c9.6,0,19-0.4,28.4,0.2c6,0.3,10.5,3.9,12.1,10.1c1.8,6.9-0.2,12-5.6,16.1
			c2.4,3.3,5.8,6.2,7,9.9c3.4,10.2-3.3,19.5-14.2,20.2c-7.7,0.5-15.5,0.2-23.2,0.2C262.2,182.1,260.9,182.1,259.1,182.1z
			 M267.7,157.3v17.2c6,0,11.9,0.2,17.7-0.1c4.8-0.3,7.5-3.4,7.8-8c0.3-4.8-2-8.7-6.4-9C280.5,156.9,274.1,157.3,267.7,157.3z
			 M267.5,149.2c5.9,0,11.2,0.3,16.5-0.1c5.1-0.4,7.5-3.3,7.5-8s-2.4-7.9-7.4-8.2c-5.4-0.4-10.9-0.1-16.5-0.1
			c-0.1,0.8-0.2,1.4-0.2,2C267.5,139.5,267.5,144.2,267.5,149.2L267.5,149.2z"/>
		<path class="st0" d="M416.5,65.2h8.1c0.1,1.5,0.2,2.8,0.4,4.8c3.5-4.2,7.6-6.5,12.6-6.2c5,0.1,9.5,3.1,11.4,7.8
			c2.8-4.4,6.4-6.8,11.1-7.6c8.1-1.4,15.3,4,15.7,12.5c0.4,9.7,0.1,19.5,0.1,29.5h-8.2c0-5.9,0-11.8,0-17.8c0-3.4,0-6.7-0.3-10.1
			c-0.3-3-1.7-5.5-4.9-6.4s-6.6-0.5-8.5,2.3c-1.9,2.6-3,5.6-3.3,8.8c-0.5,7.7-0.2,15.4-0.2,23.3H442c0-6,0-11.8,0-17.7
			c0-3.2,0-6.5-0.2-9.7s-1.4-5.9-4.8-6.9c-3.5-1-7.1-0.4-9.1,2.6c-1.7,2.6-2.7,5.5-2.9,8.5c-0.4,7.6-0.1,15.2-0.1,23.1h-8.3
			L416.5,65.2z"/>
		<path class="st0" d="M409.2,106h-8.1V81.3c0-6.6-1.9-9.4-6.6-9.9s-9.3,2.8-10.1,8.5c-0.7,4.8-0.5,9.7-0.5,14.6
			c-0.1,3.7,0,7.5,0,11.5h-8.4v-9.2c0-5.7,0.1-11.5,0-17.2c-0.1-3.5-1.1-6.7-5.1-7.8s-8.2,0.3-10,3.9c-1.3,2.6-2,5.3-2,8.2
			c-0.3,7.3-0.1,14.7-0.1,22.2H350V65.3h8.1c0.1,1.4,0.2,2.8,0.3,4.9c3.6-4.2,7.6-6.6,12.7-6.4s9,2.7,11.6,7.7
			c2.9-4.1,6.3-6.9,11.2-7.5c7.6-1,14.7,3.4,15.2,10.9C409.7,85.1,409.2,95.5,409.2,106z"/>
		<path class="st0" d="M613.4,65.1h8.3c-3.5,13.8-6.9,27.2-10.4,41.1c-2.9,0.1-5.7,0.1-8.6-0.1c-1.1-0.4-2-1.3-2.4-2.5
			c-2.4-8.9-4.5-17.9-7.5-27c-2.5,9.7-5.1,19.4-7.7,29.6c-2.9,0-5.8,0.1-8.8-0.1c-0.9-0.2-1.6-0.8-2-1.6c-3.4-13-6.6-26-10-39.5
			c2.6,0,4.8-0.3,7,0.1c0.9,0.2,1.9,1.7,2.2,2.7c2.4,9.6,4.6,19.1,7.6,28.9c1-3.8,2-7.7,3-11.5c1.5-5.9,3.1-11.8,4.4-17.8
			c0.8-3.9,3.6-2.1,5.6-2.4s3.7-0.5,4.4,2.5c1.9,8.8,4.3,17.4,6.5,26.1c0.2,0.8,0.6,1.5,1.2,3L613.4,65.1z"/>
		<path class="st0" d="M301.7,90c-0.6,9.3-8,16.3-17.7,17c-15.3,1.2-25.4-6.8-27.8-22c-1.4-8.5-0.8-16.7,3.1-24.5
			c6.4-12.7,24.7-16.5,35.9-7.7c3.8,3,5.9,7,6.8,12.4c-2.7,0-5.2,0.1-7.8-0.1c-0.6,0-1.4-1-1.7-1.6c-3.6-6.9-12.1-9.6-19.1-6
			c-1.7,0.9-3.2,2.1-4.5,3.6c-6,7.6-6.1,25-0.3,32.7c4.6,6.3,13.5,7.6,19.7,3c1.8-1.3,3.3-3.1,4.3-5.1c0.6-1.1,3-1.4,4.6-1.7
			C298.7,89.9,300.2,89.9,301.7,90z"/>
		<path class="st0" d="M789.4,106.1H781c0-7.1,0-14,0-21c0-1.5,0.1-3,0-4.5c-0.4-5.5-3.3-8.6-8.5-9.2c-4.9-0.7-9.6,2.4-10.7,7.3
			c-0.5,2.6-0.8,5.2-0.7,7.8c-0.1,6.4,0,12.9,0,19.6h-8.2V49.5h8v19.9c3.9-1.8,7.5-4.2,11.5-5.1c9-2.1,16.4,3,17,12.1
			C789.9,86.1,789.4,96,789.4,106.1z"/>
		<path class="st0" d="M691.5,80.7c0.3-5.6-1.1-8.4-4.7-9.5c-4.2-1.5-9,0-11.6,3.7c-1.4,2-3.6,2.3-9.6,1.2c0.8-4.6,3.9-8.5,8.2-10.3
			c5.1-2.3,10.8-2.6,16.1-1c5.9,1.7,9.3,5.7,9.6,12c0.3,5.9,0.2,11.7,0.1,17.6c0,3.2,0.3,5.9,5.3,5.9c-0.6,2.4-0.4,5.1-1.7,6.2
			c-2.5,2.1-8-0.1-11.3-4.1c-4.3,4.2-9.5,5.6-15.4,4.9c-7.2-0.9-11.8-6-11.8-13.1c0-6.7,4.7-11.8,12-12.4
			C681.6,81.1,686.4,81,691.5,80.7z M691.2,87.1c-4.2,0.2-8.5,0.3-12.8,0.8c-3.1,0.4-5.2,2.3-5.1,5.8c-0.2,3.1,2,5.9,5,6.5
			C687,102.5,693.2,96.4,691.2,87.1z"/>
		<path class="st0" d="M345.8,176.2c-0.8,2.6-0.9,5.4-2.1,6.2c-2.9,1.9-7.7-0.3-10.8-4.3c-4.6,3.9-9.9,6-16.1,4.9
			c-7.5-1.4-11.7-6.5-11.3-13.8c0.4-6.6,5.3-11.2,12.7-11.8c2.4-0.2,4.7-0.2,7.1-0.3s4.5-0.3,7-0.5c0.3-3.7,0-6.9-3.4-8.9
			s-9.8-1.6-11.4,1.4c-2.8,5-6.8,3.5-10.8,3.4c0.6-6.3,5.3-11.1,12.3-12.3c3.3-0.5,6.7-0.5,10,0c6.8,1,10.9,5.5,11.3,12.4
			c0.4,5.9,0.3,11.7,0.2,17.6C340.5,173.4,340.8,176.1,345.8,176.2z M331.9,163c-4.1,0.3-8.3,0.4-12.5,0.8c-3,0.3-5.1,1.8-5.4,5.2
			c-0.5,3.2,1.7,6.3,4.8,7C327.5,178.6,334,172.5,331.9,163z"/>
		<path class="st0" d="M426.7,182c-3.8,0-6.8,0.2-9.7-0.1c-1-0.1-2.1-1.2-2.8-2.1c-4.5-5.4-9-11-14.3-16.3v18.2h-8.3
			c-0.1-0.5-0.2-1.1-0.2-1.6v-54.9h8.3v33.4l0.9,0.4c1.8-2.1,3.7-4.1,5.5-6.2c2-2.4,4.5-4.5,6-7.1c3.4-5.8,8.5-5.4,14.5-4.7
			l-17.3,19.7L426.7,182z"/>
		<path class="st0" d="M660.8,94.5c-3.1,9.1-9.6,13.2-18.5,12.8c-9.4-0.4-16.5-5.9-18.2-14.8c-0.8-4.5-0.8-9.2,0-13.7
			c2.5-12.4,16.2-18.7,27.5-13.1c6.6,3.2,11.2,13.4,9,20.5c-0.2,0.8-2,1.6-3.1,1.6c-7.2,0.1-14.5,0.1-21.7,0.1h-3.7
			c-0.3,5.6,2.2,10,6.5,11.8c4.8,2,9.2,0.5,13.3-2.9C653.8,95.1,657.3,95.3,660.8,94.5z M652.1,81c0.2-6.5-3.3-10.4-9.2-10.5
			c-5.6-0.2-10.4,4.2-10.6,9.8c0,0.2,0,0.5,0,0.7H652.1z"/>
		<path class="st0" d="M358.1,181.9h-8.4v-40.8h8.2c0.1,1.5,0.3,2.9,0.5,4.9c3.4-4,7.1-6.1,11.9-6.3c7.6-0.2,13.6,3.9,14.2,11.4
			c0.7,10,0.2,20.2,0.2,30.6h-8.2v-21.4c0-1.2,0-2.5,0-3.8c-0.2-6.1-2.9-9.2-8-9.3c-5.5-0.1-10,3.7-10.2,9.3c-0.3,7-0.1,14-0.1,21
			L358.1,181.9z"/>
		<path class="st0" d="M305.8,85.5c-0.1-12.5,6.3-20.5,17.5-21.7c5.4-0.7,10.9,1.1,14.8,4.9c8.6,8,8.8,25.3,0.2,33.3
			c-6,5.6-13.1,6.6-20.6,3.9c-7.6-2.8-11-9-12-16.7C305.8,88,305.7,86.8,305.8,85.5z M336.4,85.6c-0.8-3.2-1.2-6.3-2.4-9.2
			c-1.4-3.5-4.8-5.7-8.5-5.6c-3.8-0.1-7,1-8.9,4.4c-3.6,6.2-3.7,13.8-0.3,20.1c1.8,3.7,5.2,5.2,9.3,5s7-2.1,8.5-5.8
			C335.2,91.7,335.7,88.6,336.4,85.6z"/>
		<path class="st0" d="M520.5,85.8c-0.3,15.7-12.2,24.9-26.2,20.4c-8.2-2.7-13.4-11.5-12.9-21.9c0.8-14.2,10.5-22.5,23.8-20
			C514.6,65.9,520.8,74.7,520.5,85.8z M489.6,85.3c0.5,2.9,1.2,5.8,2,8.7c1.5,4.2,4.7,6.3,9.2,6.3c4.1,0.3,8-2.2,9.4-6.1
			c2.4-5.6,2.4-11.9,0-17.5c-1.4-3.8-5.1-6.2-9.1-6c-4.5,0-7.8,2-9.4,6.1C490.8,79.6,490.1,82.4,489.6,85.3L489.6,85.3z"/>
		<path class="st0" d="M534.3,106H526V65.3h8.2c0.1,1.4,0.2,2.9,0.3,3.9c3-1.7,6-4,9.2-4.8c9.1-2.4,16.9,2.9,17.5,12.3
			c0.6,9.7,0.1,19.4,0.1,29.4H553c0-5,0-10.1,0-15.1c0-3.7,0.1-7.5-0.2-11.2c-0.5-5.3-2.6-7.7-7-8.2c-4.4-0.6-8.6,1.8-10.2,5.9
			c-0.7,2.2-1.1,4.6-1.1,6.9C534.2,91.4,534.3,98.5,534.3,106z"/>
		<path class="st0" d="M747.3,99v7.5c-3.3,0-6.5,0.4-9.6-0.1c-5.2-0.8-8-3.8-8.2-9.1c-0.3-6.9-0.2-13.7-0.3-20.6c0-1.5,0-2.9,0-4.6
			l-6.8-0.5v-6.4l6.8-0.4c-0.9-6.5,0.1-12.2,8.3-13.8v13.9h9v6.8h-8.7c0,8.3-0.2,16.1,0.2,23.9c0.1,1.2,2.5,2.7,4.2,3.3
			C743.6,99.5,745.3,99,747.3,99z"/>
		<path class="st0" d="M709.5,49.4h7.8V106h-7.8V49.4z"/>
		
			<rect x="33.3" y="33.4" transform="matrix(0.7071 -0.7071 0.7071 0.7071 -47.1619 113.8515)" class="st0" width="161" height="161"/>
		<polygon class="st1" points="197.5,83.6 153.2,126.8 113.8,227.7 227.7,113.8 		"/>
	</g>
</g>
</svg>
