<svg xmlns="http://www.w3.org/2000/svg" viewBox="0 0 789.54 227.71"><defs><style>.cls-1{fill:#fff;}.cls-2{fill:#eaeaea;}</style></defs><g id="Layer_2" data-name="Layer 2"><g id="Layer_1-2" data-name="Layer 1"><path class="cls-1" d="M259.13,182.07c1.75,0,3.11,0,4.46,0,7.74,0,15.5.3,23.21-.22,11-.74,17.59-10,14.22-20.22-1.21-3.66-4.58-6.6-7-9.9,5.41-4.11,7.41-9.21,5.62-16.13-1.6-6.19-6.08-9.72-12.09-10.06-9.41-.55-18.87-.15-28.44-.15Z"/><path class="cls-1" d="M416.55,65.17v40.76h8.28c0-7.87-.26-15.49.13-23.07a17.75,17.75,0,0,1,2.92-8.55c2-3,5.57-3.61,9.11-2.58,3.39,1,4.56,3.7,4.76,6.89s.22,6.48.24,9.73c0,5.82,0,11.65,0,17.66h8.47c0-7.91-.3-15.65.16-23.33A18.19,18.19,0,0,1,454,73.92c1.9-2.73,5.29-3.13,8.54-2.26s4.63,3.34,4.9,6.39c.29,3.35.29,6.73.31,10.09.05,6,0,11.89,0,17.79H476c0-10,.32-19.75-.1-29.47-.36-8.56-7.57-13.9-15.7-12.54-4.71.78-8.23,3.21-11.07,7.62a12.52,12.52,0,0,0-11.41-7.78c-5-.29-9.08,2-12.62,6.19-.16-1.93-.28-3.25-.41-4.78Z"/><path class="cls-1" d="M409.22,106c0-10.54.5-20.9-.17-31.18-.48-7.55-7.58-12-15.17-10.93-4.92.66-8.36,3.41-11.24,7.55-2.58-5-6.42-7.46-11.57-7.69S362,66,358.37,70.17c-.12-2.12-.19-3.47-.28-4.91H350V106h8.23c0-7.54-.18-14.89.09-22.22a20.17,20.17,0,0,1,2.05-8.19c1.84-3.64,6.16-5,10-3.93s5,4.32,5.06,7.85c.15,5.74.05,11.49.05,17.23v9.17h8.36c0-4-.06-7.79,0-11.52.09-4.86-.12-9.77.54-14.56.78-5.68,5.19-9,10.06-8.47s6.62,3.3,6.63,9.9V106Z"/><path class="cls-1" d="M613.44,65.12l-7.35,31.53c-.58-1.5-1-2.23-1.15-3-2.21-8.7-4.55-17.36-6.48-26.12-.65-3-2.48-2.77-4.38-2.52s-4.84-1.51-5.64,2.37c-1.25,6-2.89,11.86-4.38,17.78-1,3.84-2,7.68-3,11.51-3-9.72-5.19-19.31-7.56-28.86-.26-1.06-1.3-2.55-2.18-2.71-2.14-.4-4.39-.13-7-.13,3.41,13.51,6.67,26.54,10.05,39.55a2.73,2.73,0,0,0,2,1.61c3,.18,5.91.08,8.8.08,2.64-10.13,5.17-19.85,7.71-29.57,3,9.09,5.16,18,7.52,27a3.88,3.88,0,0,0,2.36,2.5,76.11,76.11,0,0,0,8.56.12c3.5-13.87,6.89-27.34,10.36-41.09Z"/><path class="cls-1" d="M301.68,90a23.23,23.23,0,0,0-4.42,0c-1.63.33-4,.64-4.6,1.74a14.12,14.12,0,0,1-24,2.07C262.8,86.12,263,68.73,269,61.1a14.14,14.14,0,0,1,23.57,2.4c.34.68,1.08,1.59,1.69,1.64,2.51.19,5.05.08,7.76.08-.86-5.44-3-9.41-6.77-12.41-11.2-8.85-29.42-5-35.86,7.73-3.94,7.75-4.49,16-3.14,24.47,2.42,15.2,12.51,23.2,27.78,22C293.63,106.23,301,99.24,301.68,90Z"/><path class="cls-1" d="M789.36,106.07c0-10.06.5-19.93-.14-29.71-.6-9.08-8-14.18-17-12.1-4,.92-7.59,3.34-11.48,5.14V49.51h-8V106H761c0-6.65-.06-13.11,0-19.56a34.82,34.82,0,0,1,.72-7.79,9.59,9.59,0,0,1,10.74-7.28c5.21.6,8.11,3.71,8.49,9.21.1,1.5,0,3,0,4.5,0,7,0,13.9,0,21Z"/><path class="cls-1" d="M691.49,80.66c-5.07.29-9.93.45-14.75.88-7.26.65-12,5.69-12,12.42,0,7.13,4.65,12.2,11.84,13.09,5.9.73,11.11-.7,15.41-4.9,3.38,4,8.81,6.26,11.35,4.14,1.26-1.05,1.11-3.8,1.69-6.19-4.92,0-5.3-2.63-5.26-5.86.09-5.87.17-11.75-.13-17.61-.32-6.22-3.74-10.27-9.6-12a23.06,23.06,0,0,0-16.11,1A13.69,13.69,0,0,0,665.69,76c6,1.08,8.19.77,9.58-1.22a10,10,0,0,1,11.56-3.69C690.37,72.24,691.81,75,691.49,80.66Z"/><path class="cls-1" d="M345.8,176.2c-5-.14-5.32-2.8-5.27-6,.08-5.86.15-11.74-.2-17.59-.4-6.88-4.55-11.43-11.32-12.39a34.54,34.54,0,0,0-10.05,0c-7,1.11-11.73,6-12.3,12.26,4,.08,8,1.53,10.78-3.45,1.68-3,8.11-3.33,11.43-1.4s3.71,5.22,3.42,8.91c-2.51.17-4.73.35-7,.46s-4.74.12-7.11.3c-7.42.54-12.33,5.11-12.69,11.76-.39,7.33,3.78,12.42,11.32,13.84,6.2,1.17,11.45-.92,16.07-4.87,3.06,4,7.9,6.21,10.75,4.32C344.94,181.56,345,178.85,345.8,176.2Z"/><path class="cls-1" d="M426.67,182l-17.42-21.21,17.26-19.73c-6-.69-11.12-1.17-14.48,4.66-1.53,2.66-4,4.79-6,7.14-1.81,2.08-3.65,4.14-5.48,6.2l-.88-.37V125.32h-8.31v54.92a15.77,15.77,0,0,0,.22,1.6h8.33V163.59c5.28,5.3,9.73,10.82,14.26,16.27.74.88,1.81,2,2.81,2.08C419.87,182.22,422.84,182,426.67,182Z"/><path class="cls-1" d="M660.78,94.5c-3.52.78-6.94.56-8.83,2.16-4.07,3.43-8.46,4.92-13.3,2.91-4.35-1.81-6.86-6.16-6.53-11.77h3.65c7.24,0,14.49,0,21.73-.09,1.08,0,2.87-.79,3.11-1.58,2.16-7.08-2.46-17.32-9-20.51-11.39-5.54-25.07.76-27.54,13.13a37.23,37.23,0,0,0,0,13.68c1.65,9,8.76,14.42,18.19,14.85C651.15,107.68,657.64,103.57,660.78,94.5Z"/><path class="cls-1" d="M358.08,181.85v-4.23c0-7-.16-14,.13-21,.23-5.59,4.73-9.42,10.23-9.33,5.08.09,7.77,3.2,8,9.27.05,1.25,0,2.5,0,3.75v21.44h8.16c0-10.39.51-20.52-.17-30.56-.51-7.51-6.58-11.69-14.16-11.44-4.78.16-8.54,2.27-11.92,6.26-.21-2-.36-3.45-.51-4.93H349.7v40.76Z"/><path class="cls-1" d="M305.82,85.51a27.42,27.42,0,0,0,0,3.74c1,7.71,4.41,13.94,12,16.69,7.44,2.7,14.62,1.77,20.57-3.86,8.5-8,8.31-25.32-.25-33.34a18.16,18.16,0,0,0-14.82-4.88C312.12,65.05,305.75,73,305.82,85.51Z"/><path class="cls-1" d="M520.54,85.84c.23-11.11-6-19.9-15.23-21.59-13.29-2.42-23.09,5.81-23.84,20-.54,10.42,4.63,19.22,12.88,21.92C508.35,110.77,520.2,101.55,520.54,85.84Z"/><path class="cls-1" d="M534.33,106c0-7.57-.09-14.68,0-21.78a21.65,21.65,0,0,1,1.12-6.94,9.6,9.6,0,0,1,10.22-5.94c4.4.57,6.54,2.89,7,8.24.33,3.72.22,7.48.25,11.22,0,5.06,0,10.12,0,15.14h8.31c0-10,.46-19.69-.13-29.37-.58-9.39-8.34-14.68-17.46-12.26-3.29.87-6.2,3.19-9.25,4.84-.08-1-.19-2.49-.3-3.9H526V106Z"/><path class="cls-1" d="M747.33,99c-2,0-3.76.44-5.15-.11-1.63-.66-4.1-2.12-4.16-3.33-.38-7.8-.19-15.62-.19-23.88h8.71V64.93h-9V51c-8.17,1.52-9.15,7.23-8.27,13.75l-6.81.39v6.42l6.8.5c0,1.69,0,3.16,0,4.62.06,6.87-.07,13.75.27,20.61.26,5.35,3,8.32,8.22,9.12,3.09.46,6.31.08,9.6.08Z"/><path class="cls-1" d="M709.45,49.41V106h7.83V49.41Z"/><path class="cls-1" d="M259.13,182.07V125.39c9.57,0,19-.4,28.44.15,6,.34,10.49,3.87,12.09,10.06,1.79,6.92-.21,12-5.62,16.13,2.4,3.3,5.77,6.24,7,9.9,3.37,10.19-3.26,19.48-14.22,20.22-7.71.52-15.47.18-23.21.22C262.24,182.08,260.88,182.07,259.13,182.07Zm8.56-24.77v17.2c6,0,11.87.23,17.67-.07,4.78-.26,7.52-3.38,7.78-8,.28-4.82-2-8.66-6.43-9C280.45,156.92,274.12,157.3,267.69,157.3Zm-.21-8.12c5.88,0,11.23.29,16.55-.09,5.09-.35,7.52-3.28,7.54-8s-2.4-7.85-7.35-8.25c-5.41-.45-10.89-.1-16.51-.1-.1.81-.22,1.4-.23,2C267.47,139.46,267.48,144.19,267.48,149.18Z"/><path class="cls-1" d="M416.55,65.17h8.1c.13,1.53.25,2.85.41,4.78,3.54-4.18,7.59-6.48,12.62-6.19a12.52,12.52,0,0,1,11.41,7.78c2.84-4.41,6.36-6.84,11.07-7.62,8.13-1.36,15.34,4,15.7,12.54.42,9.72.1,19.46.1,29.47h-8.24c0-5.9,0-11.84,0-17.79,0-3.36,0-6.74-.31-10.09-.27-3-1.69-5.53-4.9-6.39s-6.64-.47-8.54,2.26a18.19,18.19,0,0,0-3.32,8.76c-.46,7.68-.16,15.42-.16,23.33H442c0-6,0-11.84,0-17.66,0-3.25,0-6.5-.24-9.73s-1.37-5.9-4.76-6.89c-3.54-1-7.08-.44-9.11,2.58A17.75,17.75,0,0,0,425,82.86c-.39,7.58-.13,15.2-.13,23.07h-8.28Z"/><path class="cls-1" d="M409.22,106h-8.15V81.26c0-6.6-1.86-9.37-6.63-9.9s-9.28,2.79-10.06,8.47c-.66,4.79-.45,9.7-.54,14.56-.07,3.73,0,7.47,0,11.52h-8.36V96.74c0-5.74.1-11.49-.05-17.23-.09-3.53-1.1-6.71-5.06-7.85s-8.16.29-10,3.93a20.17,20.17,0,0,0-2.05,8.19c-.27,7.33-.09,14.68-.09,22.22H350V65.26h8.1c.09,1.44.16,2.79.28,4.91C362,66,366,63.53,371.07,63.75s9,2.71,11.57,7.69c2.88-4.14,6.32-6.89,11.24-7.55,7.59-1,14.69,3.38,15.17,10.93C409.72,85.1,409.22,95.46,409.22,106Z"/><path class="cls-1" d="M613.44,65.12h8.29c-3.47,13.75-6.86,27.22-10.36,41.09a76.11,76.11,0,0,1-8.56-.12,3.88,3.88,0,0,1-2.36-2.5c-2.36-8.9-4.55-17.86-7.52-26.95-2.54,9.72-5.07,19.44-7.71,29.57-2.89,0-5.85.1-8.8-.08a2.73,2.73,0,0,1-2-1.61c-3.38-13-6.64-26-10.05-39.55,2.57,0,4.82-.27,7,.13.88.16,1.92,1.65,2.18,2.71,2.37,9.55,4.59,19.14,7.56,28.86,1-3.83,2-7.67,3-11.51,1.49-5.92,3.13-11.81,4.38-17.78.8-3.88,3.62-2.11,5.64-2.37s3.73-.48,4.38,2.52c1.93,8.76,4.27,17.42,6.48,26.12.19.77.57,1.5,1.15,3Z"/><path class="cls-1" d="M301.68,90c-.64,9.29-8.05,16.28-17.7,17-15.27,1.21-25.36-6.79-27.78-22-1.35-8.47-.8-16.72,3.14-24.47C265.78,47.84,284,44,295.2,52.81c3.79,3,5.91,7,6.77,12.41-2.71,0-5.25.11-7.76-.08-.61,0-1.35-1-1.69-1.64A14.14,14.14,0,0,0,269,61.1c-6,7.63-6.15,25-.33,32.71a14.12,14.12,0,0,0,24-2.07c.56-1.1,3-1.41,4.6-1.74A23.23,23.23,0,0,1,301.68,90Z"/><path class="cls-1" d="M789.36,106.07H781c0-7.08,0-14,0-21,0-1.5.07-3,0-4.5-.38-5.5-3.28-8.61-8.49-9.21a9.59,9.59,0,0,0-10.74,7.28,34.82,34.82,0,0,0-.72,7.79c-.09,6.45,0,12.91,0,19.56h-8.25V49.51h8V69.4c3.89-1.8,7.51-4.22,11.48-5.14,9-2.08,16.37,3,17,12.1C789.86,86.14,789.36,96,789.36,106.07Z"/><path class="cls-1" d="M691.49,80.66c.32-5.64-1.12-8.42-4.66-9.53a10,10,0,0,0-11.56,3.69c-1.39,2-3.6,2.3-9.58,1.22a13.69,13.69,0,0,1,8.24-10.33,23.06,23.06,0,0,1,16.11-1c5.86,1.69,9.28,5.74,9.6,12,.3,5.86.22,11.74.13,17.61,0,3.23.34,5.9,5.26,5.86-.58,2.39-.43,5.14-1.69,6.19-2.54,2.12-8-.14-11.35-4.14-4.3,4.2-9.51,5.63-15.41,4.9-7.19-.89-11.8-6-11.84-13.09,0-6.73,4.74-11.77,12-12.42C681.56,81.11,686.42,81,691.49,80.66Zm-.33,6.42c-4.22.25-8.54.31-12.8.83-3.13.39-5.2,2.26-5.13,5.76a6.3,6.3,0,0,0,5,6.5C687,102.54,693.25,96.37,691.16,87.08Z"/><path class="cls-1" d="M345.8,176.2c-.84,2.65-.86,5.36-2.13,6.2-2.85,1.89-7.69-.32-10.75-4.32-4.62,3.95-9.87,6-16.07,4.87-7.54-1.42-11.71-6.51-11.32-13.84.36-6.65,5.27-11.22,12.69-11.76,2.37-.18,4.74-.18,7.11-.3s4.45-.29,7-.46c.29-3.69,0-6.92-3.42-8.91s-9.75-1.6-11.43,1.4c-2.78,5-6.79,3.53-10.78,3.45.57-6.28,5.26-11.15,12.3-12.26a34.54,34.54,0,0,1,10.05,0c6.77,1,10.92,5.51,11.32,12.39.35,5.85.28,11.73.2,17.59C340.48,173.4,340.82,176.06,345.8,176.2ZM331.9,163c-4.13.26-8.34.4-12.53.82-3,.3-5.15,1.81-5.39,5.17a6.28,6.28,0,0,0,4.84,7C327.54,178.62,334,172.5,331.9,163Z"/><path class="cls-1" d="M426.67,182c-3.83,0-6.8.18-9.72-.1-1-.1-2.07-1.2-2.81-2.08-4.53-5.45-9-11-14.26-16.27v18.25h-8.33a15.77,15.77,0,0,1-.22-1.6V125.32h8.31v33.41l.88.37c1.83-2.06,3.67-4.12,5.48-6.2,2.05-2.35,4.5-4.48,6-7.14,3.36-5.83,8.47-5.35,14.48-4.66l-17.26,19.73Z"/><path class="cls-1" d="M660.78,94.5c-3.14,9.07-9.63,13.18-18.54,12.78-9.43-.43-16.54-5.86-18.19-14.85a37.23,37.23,0,0,1,0-13.68c2.47-12.37,16.15-18.67,27.54-13.13,6.56,3.19,11.18,13.43,9,20.51-.24.79-2,1.56-3.11,1.58-7.24.14-14.49.08-21.73.09h-3.65c-.33,5.61,2.18,10,6.53,11.77,4.84,2,9.23.52,13.3-2.91C653.84,95.06,657.26,95.28,660.78,94.5ZM652.14,81c.25-6.52-3.27-10.39-9.18-10.5A10.23,10.23,0,0,0,632.31,81Z"/><path class="cls-1" d="M358.08,181.85H349.7V141.09h8.16c.15,1.48.3,2.89.51,4.93,3.38-4,7.14-6.1,11.92-6.26,7.58-.25,13.65,3.93,14.16,11.44.68,10,.17,20.17.17,30.56h-8.16V160.32c0-1.25,0-2.5,0-3.75-.23-6.07-2.92-9.18-8-9.27-5.5-.09-10,3.74-10.23,9.33-.29,7-.11,14-.13,21Z"/><path class="cls-1" d="M305.82,85.51c-.07-12.51,6.3-20.46,17.54-21.65a18.16,18.16,0,0,1,14.82,4.88c8.56,8,8.75,25.3.25,33.34-5.95,5.63-13.13,6.56-20.57,3.86-7.6-2.75-11-9-12-16.69A27.42,27.42,0,0,1,305.82,85.51Zm30.62.06c-.78-3.18-1.16-6.34-2.35-9.15a8.94,8.94,0,0,0-8.55-5.64c-3.78-.1-7,1-8.89,4.42a20.76,20.76,0,0,0-.31,20.1c1.82,3.69,5.16,5.21,9.31,5s7-2.13,8.46-5.75C335.25,91.74,335.68,88.61,336.44,85.57Z"/><path class="cls-1" d="M520.54,85.84c-.34,15.71-12.19,24.93-26.19,20.36-8.25-2.7-13.42-11.5-12.88-21.92.75-14.22,10.55-22.45,23.84-20C514.58,65.94,520.77,74.73,520.54,85.84Zm-30.95-.56a71.16,71.16,0,0,0,2,8.7c1.51,4.15,4.67,6.27,9.2,6.35a9.3,9.3,0,0,0,9.42-6.08,22.08,22.08,0,0,0,0-17.5,9.2,9.2,0,0,0-9.1-6c-4.46,0-7.79,2-9.4,6.12A67.1,67.1,0,0,0,489.59,85.28Z"/><path class="cls-1" d="M534.33,106H526V65.29h8.2c.11,1.41.22,2.86.3,3.9,3-1.65,6-4,9.25-4.84,9.12-2.42,16.88,2.87,17.46,12.26.59,9.68.13,19.42.13,29.37H553c0-5,0-10.08,0-15.14,0-3.74.08-7.5-.25-11.22-.47-5.35-2.61-7.67-7-8.24a9.6,9.6,0,0,0-10.22,5.94,21.65,21.65,0,0,0-1.12,6.94C534.24,91.36,534.33,98.47,534.33,106Z"/><path class="cls-1" d="M747.33,99v7.49c-3.29,0-6.51.38-9.6-.08-5.25-.8-8-3.77-8.22-9.12-.34-6.86-.21-13.74-.27-20.61,0-1.46,0-2.93,0-4.62l-6.8-.5V65.16l6.81-.39c-.88-6.52.1-12.23,8.27-13.75V64.93h9V71.7h-8.71c0,8.26-.19,16.08.19,23.88.06,1.21,2.53,2.67,4.16,3.33C743.57,99.46,745.35,99,747.33,99Z"/><path class="cls-1" d="M709.45,49.41h7.83V106h-7.83Z"/><path class="cls-1" d="M267.69,157.3c6.43,0,12.76-.38,19,.14,4.45.36,6.71,4.2,6.43,9-.26,4.59-3,7.71-7.78,8-5.8.3-11.64.07-17.67.07Z"/><path class="cls-1" d="M267.48,149.18c0-5,0-9.72,0-14.45,0-.6.13-1.19.23-2,5.62,0,11.1-.35,16.51.1,4.95.4,7.38,3.57,7.35,8.25s-2.45,7.66-7.54,8C278.71,149.47,273.36,149.18,267.48,149.18Z"/><path class="cls-1" d="M691.16,87.08c2.09,9.29-4.16,15.46-12.88,13.09a6.3,6.3,0,0,1-5-6.5c-.07-3.5,2-5.37,5.13-5.76C682.62,87.39,686.94,87.33,691.16,87.08Z"/><path class="cls-1" d="M331.9,163c2.05,9.49-4.36,15.61-13.08,13a6.28,6.28,0,0,1-4.84-7c.24-3.36,2.39-4.87,5.39-5.17C323.56,163.41,327.77,163.27,331.9,163Z"/><path class="cls-1" d="M652.14,81H632.31A10.23,10.23,0,0,1,643,70.54C648.87,70.65,652.39,74.52,652.14,81Z"/><path class="cls-1" d="M336.44,85.57c-.76,3-1.19,6.17-2.33,9-1.46,3.62-4.42,5.57-8.46,5.75s-7.49-1.33-9.31-5a20.76,20.76,0,0,1,.31-20.1c1.85-3.38,5.11-4.52,8.89-4.42a8.94,8.94,0,0,1,8.55,5.64C335.28,79.23,335.66,82.39,336.44,85.57Z"/><path class="cls-1" d="M489.59,85.28a67.1,67.1,0,0,1,2.12-8.41c1.61-4.16,4.94-6.12,9.4-6.12a9.2,9.2,0,0,1,9.1,6,22.08,22.08,0,0,1,0,17.5,9.3,9.3,0,0,1-9.42,6.08c-4.53-.08-7.69-2.2-9.2-6.35A71.16,71.16,0,0,1,489.59,85.28Z"/><rect class="cls-1" x="33.35" y="33.35" width="161.01" height="161.01" transform="translate(113.85 -47.16) rotate(45)"/><polygon class="cls-2" points="197.46 83.6 153.21 126.85 113.85 227.71 227.71 113.85 197.46 83.6"/></g></g></svg>