<?xml version="1.0" encoding="utf-8"?>
<!-- Generator: Adobe Illustrator 25.2.3, SVG Export Plug-In . SVG Version: 6.00 Build 0)  -->
<svg version="1.1" id="Layer_1" xmlns="http://www.w3.org/2000/svg" xmlns:xlink="http://www.w3.org/1999/xlink" x="0px" y="0px"
	 viewBox="0 0 110.8 23.9" style="enable-background:new 0 0 110.8 23.9;" xml:space="preserve">
<style type="text/css">
	.st0{fill:#FFFFFF;}
	.st1{clip-path:url(#SVGID_2_);}
	.st2{clip-path:url(#SVGID_4_);}
	.st3{clip-path:url(#SVGID_6_);}
	.st4{clip-path:url(#SVGID_8_);}
	.st5{clip-path:url(#SVGID_10_);}
	.st6{clip-path:url(#SVGID_12_);}
	.st7{clip-path:url(#SVGID_14_);}
</style>
<g id="Layer_2_1_">
	<g id="Layer_1-2">
		<path id="path14" class="st0" d="M32.1,13.3h3.1c0-0.2,0-0.4,0-0.5c0-1-0.5-1.6-1.4-1.6S32.2,12,32.1,13.3z M34,9.3
			c2.5,0,3.6,1.6,3.6,3.9c0,0.5-0.1,1.1-0.2,1.6h-5.4c0.2,1.5,0.9,2.2,2.2,2.2c0.9,0,1.7-0.1,2.5-0.4l0.5,1.6
			c-1.1,0.5-2.3,0.8-3.5,0.8c-2.6,0-4.3-1.6-4.3-4.5S31.2,9.3,34,9.3"/>
		<path id="path16" class="st0" d="M43.9,9.3c1.1,0,2.2,0.4,3,1.1l-1,1.6c-0.6-0.4-1.3-0.6-2-0.6c-0.4,0-0.8,0.1-1.2,0.4
			c-0.6,0.6-0.9,1.5-0.8,2.4c0,1.9,0.7,2.7,2.2,2.7c0.7,0,1.4-0.2,2.1-0.4l0.5,1.8c-0.9,0.4-2,0.7-3,0.7c-2.7,0-4.3-1.6-4.3-4.5
			C39.5,11.4,41.2,9.3,43.9,9.3"/>
		<path id="path18" class="st0" d="M52.8,11.2c-0.4,0-0.9,0.2-1.2,0.5c-0.5,0.7-0.7,1.5-0.6,2.3c0,1.8,0.6,3,1.9,3
			c0.4,0,0.9-0.2,1.2-0.5c0.5-0.7,0.7-1.5,0.6-2.3C54.7,12.5,54,11.2,52.8,11.2z M53,9.2c2.7,0,4.2,2.1,4.2,4.7s-1.6,5-4.6,5
			C50,19,48.4,17,48.4,14.4S50.1,9.2,53,9.2"/>
		<path id="path20" class="st0" d="M65.2,12.1c0.8-0.4,1.2-1.3,1.1-2.1c0-1.6-1-2.2-2.7-2.2c-0.4,0-0.9,0-1.3,0.1v4.6
			c0.4,0,0.7,0,1,0C64,12.5,64.6,12.4,65.2,12.1z M63.4,5.7c3.7,0,5.6,1.4,5.6,4.1c0,2.9-2,4.8-5.5,4.8c-0.4,0-0.8,0-1.2-0.1v4.2
			h-2.6V6C61,5.8,62.2,5.7,63.4,5.7"/>
		<path id="path22" class="st0" d="M74.5,11.2c-0.4,0-0.9,0.2-1.2,0.5c-0.5,0.7-0.7,1.5-0.6,2.3c0,1.8,0.6,3,1.9,3
			c0.4,0,0.9-0.2,1.2-0.5c0.5-0.7,0.7-1.5,0.6-2.3C76.3,12.5,75.7,11.2,74.5,11.2z M74.7,9.2c2.7,0,4.2,2.1,4.2,4.7s-1.6,5-4.6,5
			c-2.6,0.1-4.2-1.9-4.2-4.6S71.8,9.2,74.7,9.2"/>
		<path id="path24" class="st0" d="M83.1,9.4l0.5,1.6c0.4-1,1.3-1.6,2.4-1.7c0.5,0,0.9,0.1,1.3,0.4L86.9,12
			c-0.3-0.1-0.7-0.1-1.1-0.1c-0.8,0-1.6,0.3-2.1,1v5.8h-2.5v-5.2c0-0.8,0-1.7-0.2-3.9L83.1,9.4"/>
		<path id="path26" class="st0" d="M92.8,6.7v2.8h2.7v2h-2.7v3.6c0,1.4,0.2,1.7,1.1,1.7c0.5,0,0.9-0.1,1.4-0.2l0.4,1.7
			c-0.9,0.3-1.9,0.5-2.9,0.5c-1.7,0-2.6-0.8-2.6-3.1v-4.4h-1.3v-2h1.2l0.6-2.8L92.8,6.7"/>
		<path id="path28" class="st0" d="M102.2,16.3v-1.5c-0.8,0-1.7,0.1-2.4,0.5c-0.3,0.2-0.5,0.5-0.4,0.9c0,0.6,0.3,0.9,0.9,0.9
			C101,17.1,101.7,16.8,102.2,16.3z M101.4,9.3c2.3,0,3.3,1.1,3.3,3.5v2.1c0,0.8,0,1.6,0.2,3.7l-2,0.3l-0.4-1.2
			c-0.8,0.8-1.9,1.3-3,1.3c-1.2,0.1-2.4-0.7-2.5-2c0-0.1,0-0.2,0-0.4c0-0.9,0.5-1.8,1.3-2.3c1.2-0.6,2.6-1,4-1
			c0-1.5-0.4-1.9-1.4-1.9c-1,0-1.9,0.3-2.7,0.9l-0.8-1.5C98.5,9.8,100,9.3,101.4,9.3"/>
		<path id="path30" class="st0" d="M109.3,4.3v11.7c0,0.6,0.2,0.8,0.5,0.8c0.2,0,0.4,0,0.6-0.1l0.4,1.8c-0.6,0.3-1.3,0.4-2,0.4
			c-1.1,0.1-2-0.7-2.1-1.7c0-0.2,0-0.3,0-0.5V4.4L109.3,4.3"/>
		<g id="g32">
			<path class="st0" d="M20.5,8.3L23,7.5c-1.2-2.9-3.4-5.3-6.3-6.5l-0.9,2.5C17.9,4.4,19.6,6.2,20.5,8.3z"/>
			<g>
				<defs>
					<path id="SVGID_1_" d="M20.5,8.3L23,7.5c-1.2-2.9-3.4-5.3-6.3-6.5l-0.9,2.5C17.9,4.4,19.6,6.2,20.5,8.3z"/>
				</defs>
				<use xlink:href="#SVGID_1_"  style="overflow:visible;fill:#FFFFFF;"/>
				<clipPath id="SVGID_2_">
					<use xlink:href="#SVGID_1_"  style="overflow:visible;"/>
				</clipPath>
				<g class="st1">
					<g id="g34">
						<path id="path46" class="st0" d="M20.5,8.3L23,7.5c-1.2-2.9-3.4-5.3-6.3-6.5l-0.9,2.5C17.9,4.4,19.6,6.2,20.5,8.3"/>
					</g>
				</g>
			</g>
		</g>
		<g id="g48">
			<path class="st0" d="M13.5,21.1l0.3,2.6c3.1-0.5,5.9-2.2,7.8-4.7l-2.2-1.4C17.9,19.4,15.8,20.7,13.5,21.1z"/>
			<g>
				<defs>
					<path id="SVGID_3_" d="M13.5,21.1l0.3,2.6c3.1-0.5,5.9-2.2,7.8-4.7l-2.2-1.4C17.9,19.4,15.8,20.7,13.5,21.1z"/>
				</defs>
				<use xlink:href="#SVGID_3_"  style="overflow:visible;fill:#FFFFFF;"/>
				<clipPath id="SVGID_4_">
					<use xlink:href="#SVGID_3_"  style="overflow:visible;"/>
				</clipPath>
				<g class="st2">
					<g id="g50">
						<path id="path62" class="st0" d="M13.5,21.1l0.3,2.6c3.1-0.5,5.9-2.2,7.8-4.7l-2.2-1.4C17.9,19.5,15.9,20.7,13.5,21.1"/>
					</g>
				</g>
			</g>
		</g>
		<g id="g86">
			<path class="st0" d="M23.4,8.8L21,9.6c0.5,1.8,0.4,3.7-0.3,5.5c-0.2,0.4-0.4,0.9-0.6,1.3l2.2,1.4c0.3-0.6,0.6-1.2,0.8-1.8
				C24,13.7,24.1,11.2,23.4,8.8z"/>
			<g>
				<defs>
					<path id="SVGID_5_" d="M23.4,8.8L21,9.6c0.5,1.8,0.4,3.7-0.3,5.5c-0.2,0.4-0.4,0.9-0.6,1.3l2.2,1.4c0.3-0.6,0.6-1.2,0.8-1.8
						C24,13.7,24.1,11.2,23.4,8.8z"/>
				</defs>
				<use xlink:href="#SVGID_5_"  style="overflow:visible;fill:#FFFFFF;"/>
				<clipPath id="SVGID_6_">
					<use xlink:href="#SVGID_5_"  style="overflow:visible;"/>
				</clipPath>
				<g class="st3">
					<g id="g88">
						<path id="path100" class="st0" d="M23.4,8.8L21,9.6c0.5,1.8,0.4,3.7-0.3,5.5c-0.2,0.4-0.4,0.9-0.6,1.3l2.2,1.4
							c0.3-0.6,0.6-1.2,0.8-1.8C24,13.7,24.1,11.2,23.4,8.8"/>
					</g>
				</g>
			</g>
		</g>
		<g id="g102">
			<path class="st0" d="M2.6,11.4L0,11.1c-0.2,3.1,0.8,6.2,2.9,8.6l1.9-1.8C3.3,16.1,2.5,13.8,2.6,11.4z"/>
			<g>
				<defs>
					<path id="SVGID_7_" d="M2.6,11.4L0,11.1c-0.2,3.1,0.8,6.2,2.9,8.6l1.9-1.8C3.3,16.1,2.5,13.8,2.6,11.4z"/>
				</defs>
				<use xlink:href="#SVGID_7_"  style="overflow:visible;fill:#FFFFFF;"/>
				<clipPath id="SVGID_8_">
					<use xlink:href="#SVGID_7_"  style="overflow:visible;"/>
				</clipPath>
				<g class="st4">
					<g id="g104">
						<path id="path116" class="st0" d="M2.6,11.4L0,11.1c-0.2,3.1,0.8,6.2,2.9,8.6l1.9-1.8C3.3,16.1,2.5,13.8,2.6,11.4"/>
					</g>
				</g>
			</g>
		</g>
		<g id="g118">
			<path class="st0" d="M3.2,8.7C3.8,7,5,5.5,6.5,4.4L5.1,2.1c-2,1.4-3.6,3.4-4.4,5.7C0.5,8.5,0.3,9.1,0.2,9.8l2.6,0.3
				C2.9,9.6,3,9.2,3.2,8.7z"/>
			<g>
				<defs>
					<path id="SVGID_9_" d="M3.2,8.7C3.8,7,5,5.5,6.5,4.4L5.1,2.1c-2,1.4-3.6,3.4-4.4,5.7C0.5,8.5,0.3,9.1,0.2,9.8l2.6,0.3
						C2.9,9.6,3,9.2,3.2,8.7z"/>
				</defs>
				<use xlink:href="#SVGID_9_"  style="overflow:visible;fill:#FFFFFF;"/>
				<clipPath id="SVGID_10_">
					<use xlink:href="#SVGID_9_"  style="overflow:visible;"/>
				</clipPath>
				<g class="st5">
					<g id="g120">
						<path id="path132" class="st0" d="M3.2,8.7C3.8,7,5,5.5,6.5,4.4L5.1,2.1c-2,1.4-3.6,3.4-4.4,5.7C0.5,8.5,0.3,9.1,0.2,9.8
							l2.6,0.3C2.9,9.6,3,9.2,3.2,8.7"/>
					</g>
				</g>
			</g>
		</g>
		<g id="g134">
			<path class="st0" d="M14.5,3l0.9-2.5c-3-0.9-6.2-0.6-9,0.9l1.3,2.2C9.8,2.6,12.2,2.3,14.5,3z"/>
			<g>
				<defs>
					<path id="SVGID_11_" d="M14.5,3l0.9-2.5c-3-0.9-6.2-0.6-9,0.9l1.3,2.2C9.8,2.6,12.2,2.3,14.5,3z"/>
				</defs>
				<use xlink:href="#SVGID_11_"  style="overflow:visible;fill:#FFFFFF;"/>
				<clipPath id="SVGID_12_">
					<use xlink:href="#SVGID_11_"  style="overflow:visible;"/>
				</clipPath>
				<g class="st6">
					<g id="g136">
						<path id="path148" class="st0" d="M14.5,3l0.9-2.5c-3-0.9-6.2-0.6-9,0.9l1.3,2.2C9.8,2.6,12.2,2.3,14.5,3"/>
					</g>
				</g>
			</g>
		</g>
		<path id="path150" class="st0" d="M19,15.6l0.2-0.4c0.1-0.2,0.2-0.4,0.2-0.6s0.1-0.3,0.1-0.4c0-0.1,0.1-0.2,0.1-0.3
			c0.1-0.4,0.2-0.7,0.2-1.1c0-0.2,0-0.4,0-0.5c0-0.1,0-0.3,0-0.5s0-0.2,0-0.3c0-0.3,0-0.7-0.1-1c0-0.2-0.1-0.3-0.1-0.5l-2.5,0.8
			c0,0.1,0,0.2,0,0.2v0.2c0,0.1,0,0.2,0,0.3c0,0.2,0,0.5,0,0.7c0,0.1,0,0.2,0,0.3c0,0.1,0,0.2-0.1,0.4c0,0.1-0.1,0.2-0.1,0.4
			c0,0.1-0.1,0.3-0.1,0.4c-0.1,0.2-0.1,0.3-0.2,0.5L19,15.6L19,15.6"/>
		<path id="path152" class="st0" d="M15.1,19.2c0.3-0.1,0.7-0.3,1-0.5l0.4-0.2c0.3-0.2,0.5-0.4,0.8-0.6s0.4-0.4,0.5-0.5
			c0.2-0.2,0.3-0.3,0.5-0.5L16,15.4l-0.2,0.2l-0.1,0.1c-0.1,0.1-0.2,0.2-0.3,0.2c-0.1,0.1-0.2,0.2-0.3,0.3l0,0l-0.4,0.2
			c-0.5,0.3-1,0.5-1.6,0.6l0.2,2.6c0.2,0,0.5-0.1,0.7-0.2C14.4,19.5,14.8,19.3,15.1,19.2"/>
		<path id="path154" class="st0" d="M19.2,8.8c-0.1-0.2-0.2-0.4-0.3-0.6c-0.1-0.2-0.2-0.4-0.3-0.5c0,0,0-0.1,0-0.1
			c-0.3-0.4-0.6-0.8-0.9-1.1c-0.2-0.3-0.5-0.5-0.8-0.7l-0.3-0.2l-0.3-0.2c-0.1-0.1-0.2-0.1-0.3-0.2c-0.2-0.1-0.4-0.2-0.6-0.3
			l-0.9,2.5l0.3,0.2h0.1l0.3,0.2c0.3,0.3,0.7,0.6,0.9,0.9c0.1,0.1,0.2,0.2,0.2,0.3c0.2,0.2,0.3,0.5,0.4,0.7L19.2,8.8L19.2,8.8"/>
		<path id="path156" class="st0" d="M6.9,13.6c0-0.1-0.1-0.3-0.1-0.4s0,0,0,0s0-0.3-0.1-0.4c0-0.1,0-0.2,0-0.4c0-0.1,0-0.1,0-0.2
			c0-0.1,0-0.2,0-0.3L4,11.6l0,0c0,0.8,0,1.6,0.2,2.3c0,0.1,0,0.2,0.1,0.3c0,0.1,0,0.2,0.1,0.3c0.1,0.2,0.2,0.4,0.3,0.7
			s0.2,0.4,0.3,0.6c0.1,0.2,0.2,0.4,0.4,0.6l0,0c0.1,0.2,0.3,0.4,0.4,0.6l1.9-1.8l-0.2-0.3C7.2,14.5,7,14.1,6.9,13.6"/>
		<path id="path158" class="st0" d="M6.9,5.8L6.7,6C6.5,6.2,6.3,6.4,6.1,6.6C6,6.6,6,6.7,5.9,6.8L5.6,7.2C5.5,7.3,5.4,7.5,5.3,7.7
			C5.2,7.8,5.1,8,5,8.1C4.9,8.3,4.8,8.5,4.7,8.7C4.6,8.9,4.5,9.1,4.5,9.2C4.4,9.4,4.3,9.6,4.3,9.8s-0.1,0.3-0.1,0.5l0,0l2.6,0.3l0,0
			c0-0.2,0.1-0.3,0.2-0.5C6.9,10,7,9.9,7.1,9.8s0.1-0.2,0.2-0.3s0.1-0.2,0.2-0.3l0,0C7.5,9.1,7.5,9,7.6,8.9C7.8,8.6,8,8.4,8.2,8.2
			L8.4,8l0.2-0.2L7.2,5.5C7.1,5.6,7,5.7,6.9,5.8"/>
		<path id="path160" class="st0" d="M13.3,4.1l-0.4-0.1h-0.4L12.2,4c-0.4,0-0.7,0-1.1,0c-0.2,0-0.5,0.1-0.7,0.1l0,0
			C10.2,4.2,10,4.2,9.7,4.3H9.7C9.5,4.3,9.3,4.4,9.1,4.5L8.7,4.6L8.4,4.8l0,0l1.4,2.3l0.4-0.2l0.4-0.1l0.3-0.1
			c0.4-0.1,0.9-0.1,1.3-0.1h0.4h0.1l0.4,0.1L14,4.3C13.8,4.2,13.5,4.1,13.3,4.1"/>
		<path id="path162" class="st0" d="M7.3,18.4l0.3,0.2l0.3,0.2c0.4,0.3,0.9,0.5,1.3,0.6c0.5,0.2,0.9,0.3,1.4,0.4l0.3,0h0.4h0.4H12
			l-0.2-2.6c-0.3,0-0.6,0-0.9-0.1L10.5,17l-0.4-0.1l-0.4-0.2l-0.4-0.2c-0.3-0.1-0.5-0.3-0.7-0.5L6.8,18L7,18.2
			C7.1,18.3,7.2,18.4,7.3,18.4"/>
		<g id="g66">
			<path class="st0" d="M12.2,21.2c-1.2,0-2.3-0.2-3.4-0.6c-1.1-0.4-2.1-1-3-1.8l-1.9,1.8c1.2,1.1,2.5,1.9,4,2.4
				c1.5,0.5,3,0.8,4.6,0.7L12.2,21.2L12.2,21.2z"/>
			<g>
				<defs>
					<path id="SVGID_13_" d="M12.2,21.2c-1.2,0-2.3-0.2-3.4-0.6c-1.1-0.4-2.1-1-3-1.8l-1.9,1.8c1.2,1.1,2.5,1.9,4,2.4
						c1.5,0.5,3,0.8,4.6,0.7L12.2,21.2L12.2,21.2z"/>
				</defs>
				<use xlink:href="#SVGID_13_"  style="overflow:visible;fill:#FFFFFF;"/>
				<clipPath id="SVGID_14_">
					<use xlink:href="#SVGID_13_"  style="overflow:visible;"/>
				</clipPath>
				<g class="st7">
					<g id="g72">
						<path id="path84" class="st0" d="M11.1,23.9L11.1,23.9h-0.3l0,0h-0.3l0,0h-0.3l0,0H10l0,0H9.8l0,0H9.6l0,0H9.5l0,0H9.3l0,0
							H9.2l0,0H9l0,0H8.9l0,0H8.8l0,0H8.6l0,0H8.5l0,0H8.4l0,0H8.3l0,0H8.2l0,0H8.1l0,0H8l0,0H7.9l0,0H7.8l0,0H7.7l0,0H7.7l0,0H7.6
							l0,0H7.5l0,0H7.4l0,0H7.3l0,0H7.3l0,0H7.2l0,0H7.1l0,0H7l0,0l0,0l0,0H6.9l0,0H6.8l0,0H6.7l0,0H6.7l0,0H6.6l0,0H6.5l0,0l0,0
							l0,0H6.4l0,0H6.4l0,0H6.3l0,0H6.2l0,0H6.2l0,0l0,0l0,0H6.1l0,0H6l0,0H5.9l0,0H5.9l0,0H5.8l0,0H5.7l0,0l0,0l0,0H5.6l0,0l0,0
							l0,0H5.5l0,0l0,0l0,0H5.4l0,0l0,0l0,0H5.3l0,0l0,0l0,0H5.2l0,0l0,0l0,0H5.2l0,0l0,0l0,0l0,0l0,0H5l0,0l0,0l0,0H4.9l0,0l0,0
							l0,0H4.8l0,0l0,0l0,0H4.7l0,0l0,0l0,0l0,0l0,0l0,0l0,0H4.6l0,0l0,0l0,0l0,0l0,0l0,0l0,0H4.4l0,0l0,0l0,0l0,0l0,0l0,0l0,0H4.2
							l0,0l0,0l0,0l0,0l0,0l0,0l0,0H4.1l0,0H4l0,0l0,0l0,0l0,0l0,0l0,0l0,0l0,0l0,0l0,0v-3.2l0,0l0,0l0,0l0,0l0,0l0,0l0,0l0,0l0,0
							l0,0l0,0l0,0l0,0l0,0l0,0l0,0l0,0l0,0l0,0l0,0l0,0l0,0l0,0l0,0l0,0l0,0h0.1l0,0l0,0l0,0l0,0l0,0l0,0l0,0l0,0l0,0l0,0l0,0l0,0
							l0,0l0,0l0,0l0,0l0,0l0,0l0,0l0,0l0,0l0,0l0,0l0,0l0,0l0,0l0,0l0,0l0,0l0,0l0,0l0,0l0,0l0,0l0,0H5l0,0l0,0l0,0l0,0l0,0l0,0
							l0,0l0,0l0,0l0,0l0,0l0,0l0,0l0,0l0,0l0,0l0,0l0,0l0,0l0,0l0,0l0,0l0,0l0,0l0,0l0,0l0,0l0,0l0,0l0,0l0,0l0,0l0,0l0,0l0,0l0,0
							l0,0l0,0l0,0h0.1l0,0l0,0l0,0l0,0l0,0l0,0l0,0l0,0l0,0l0,0l0,0h0.1l0,0l0,0l0,0l0,0l0,0H6l0,0l0,0l0,0h0.1l0,0l0,0l0,0l0,0
							l0,0l0,0l0,0h0.1l0,0l0,0l0,0l0,0l0,0h0.1l0,0l0,0l0,0l0,0l0,0h0.3l0,0l0,0l0,0h0.1l0,0l0,0l0,0h0.1l0,0l0,0l0,0h0.1l0,0l0,0
							l0,0h0.1l0,0l0,0l0,0H7l0,0l0,0l0,0h0.1l0,0l0,0l0,0h0.1l0,0h0.1l0,0h0.1l0,0l0,0l0,0h0.1l0,0h0.1l0,0h0.1l0,0h0.1l0,0h0.1
							l0,0h0.1l0,0h0.1l0,0l0,0l0,0h0.1l0,0H8l0,0h0.1l0,0h0.1l0,0h0.1l0,0h0.1l0,0h0.1l0,0h0.1l0,0h0.1l0,0h0.1l0,0h0.1l0,0h0.1
							l0,0h0.1l0,0H9l0,0h0.1l0,0h0.1l0,0h0.1l0,0h0.1l0,0h0.1l0,0h0.1l0,0h0.2l0,0H10l0,0h0.2l0,0h0.2l0,0h0.2l0,0h0.3l0,0H11l0,0
							h0.3l0,0h0.9v0.1l0,0v0.3l0,0V22l0,0v0.3l0,0v0.3l0,0V23l0,0v0.3l0,0v0.4l0,0v0.2"/>
					</g>
				</g>
			</g>
		</g>
	</g>
</g>
</svg>
