<svg xmlns="http://www.w3.org/2000/svg" viewBox="0 0 359.36 66.87"><defs><style>.cls-1{fill:#fff;}</style></defs><g id="Layer_2" data-name="Layer 2"><g id="Layer_1-2" data-name="Layer 1"><path class="cls-1" d="M219.61,15.81c-.53,1.27-1.06,2.54-1.58,3.81q-7.36,18.08-14.74,36.14c-1.35,3.31-3,6.45-6,8.65-4.25,3.08-8.7,3.12-13.23.92a6.93,6.93,0,0,1-3.26-8.82c1.16-3,4.58-4.52,8.1-3.53a5.43,5.43,0,0,1,3.67,6.52,13.21,13.21,0,0,1-1.09,2.44,3.4,3.4,0,0,0,3-.9,13.7,13.7,0,0,0,4.09-7.43,2.64,2.64,0,0,0-.29-1.37q-7.11-18.3-14.26-36.58c-.17-.44-.32-.89-.53-1.46.38,0,.67-.07,1-.08,4.76,0,9.51,0,14.27,0a1.24,1.24,0,0,1,1.38,1c2,5.26,4,10.5,6.07,15.75.15.4.32.78.59,1.42.32-.71.54-1.16.73-1.62,2.12-5.13,4.25-10.25,6.33-15.39a1.47,1.47,0,0,1,1.64-1.11q9.06.08,18.12,0a1.42,1.42,0,0,1,1.65,1.2c1.89,6.22,3.84,12.42,5.77,18.63a2.48,2.48,0,0,0,.67,1.13c1.91-7,3.82-13.91,5.74-20.94,4.22,0,8.37,0,12.53.05.28,0,.69.55.8.92,1.92,6.21,3.8,12.44,5.69,18.66a2.69,2.69,0,0,0,.71,1.29c.67-2.44,1.35-4.87,2-7.3,1.13-4.2,2.28-8.39,3.37-12.6.21-.8.54-1.08,1.38-1,1.79.07,3.59,0,5.58,0-.38,1.46-.71,2.79-1.07,4.11q-4.53,16.44-9.05,32.88c-.21.76-.46,1.11-1.34,1.1-3.75-.05-7.51,0-11.3,0L250,30.46h-.27l-2.19,7.93c-1.18,4.26-2.38,8.53-3.51,12.81a1.1,1.1,0,0,1-1.3,1c-3.36,0-6.72-.08-10.08,0a1.73,1.73,0,0,1-2.06-1.49Q225.5,33.84,220.29,17c-.12-.37-.25-.74-.38-1.12Z"/><path class="cls-1" d="M16,28.35V52.11H0V.1H16V1.59c0,6.28,0,12.56,0,18.84,0,1,.22,1.4,1.32,1.38,3.4-.08,6.8-.07,10.2,0,1,0,1.28-.33,1.27-1.3,0-6.28,0-12.56,0-18.84V.12c.48,0,.87-.1,1.25-.1,4.48,0,9,0,13.44,0,1,0,1.3.27,1.3,1.28q0,24.84,0,49.68c0,.35,0,.71-.07,1.14H28.78c0-.47-.06-.93-.06-1.4,0-7,0-13.92,0-20.88,0-1.12-.25-1.53-1.45-1.5-3.32.08-6.64,0-10,0Z"/><path class="cls-1" d="M122.55,52.12V50.53q0-11.76,0-23.52a21.26,21.26,0,0,0-.15-2.51c-.36-3.3-3-5-6-3.54a17.35,17.35,0,0,0-4,3.17,2.52,2.52,0,0,0-.41,1.66c0,8.28,0,16.56,0,24.84v1.48H97.12V14.17H112V18.9l.28.09c.28-.31.57-.61.83-.93,4.27-5.23,13.27-6.35,18.8-3.29a9.53,9.53,0,0,1,5.31,8.64c.09,9.24,0,18.48,0,27.72,0,.31-.06.62-.09,1Z"/><path class="cls-1" d="M71.15,12.73a24.3,24.3,0,0,1,11.24,2.64c5.76,3,8.91,7.82,9.88,14.13a22.65,22.65,0,0,1-1.7,13.12,17.37,17.37,0,0,1-11.41,9.87,26.84,26.84,0,0,1-17.08-.35c-7.16-2.7-11.33-8-12.44-15.65a21.36,21.36,0,0,1,.85-10.76c2.6-6.9,7.69-10.91,14.85-12.31C67.25,13.05,69.21,13,71.15,12.73ZM65.87,33.38h-.23c0,2.39-.07,4.79,0,7.18a11,11,0,0,0,2.09,6.5c2,2.6,4.75,2.54,6.61-.17a10.6,10.6,0,0,0,1.9-5.84c.1-5.27.12-10.54,0-15.8a9.2,9.2,0,0,0-2.71-6.6,3.45,3.45,0,0,0-5.28.24,8.77,8.77,0,0,0-2.34,5.4C65.78,27.31,65.87,30.35,65.87,33.38Z"/><path class="cls-1" d="M321.75,35.38H294.86c0,.67-.09,1.25-.09,1.83,0,1.6,0,3.2,0,4.8a6.07,6.07,0,0,0,5,6.36,15.13,15.13,0,0,0,9.72-1A7.44,7.44,0,0,0,314,41.51h6.35a9.18,9.18,0,0,1-3,6.41,23.06,23.06,0,0,1-14.79,5.68,27.64,27.64,0,0,1-10.87-1.3c-8.48-3.09-13.68-11.53-12.74-21,.55-5.54,2.46-10.39,7-13.89a21.78,21.78,0,0,1,12.41-4.51,28.16,28.16,0,0,1,10.52,1.3C316.15,16.67,320,22,321.2,29.35,321.53,31.29,321.57,33.29,321.75,35.38Zm-15.83-5.2c0-2.06.12-4,0-5.87a8.66,8.66,0,0,0-2.22-5.55,4.32,4.32,0,0,0-6.53.14,8,8,0,0,0-1.75,3.34,60.22,60.22,0,0,0-.58,7.24c0,.22.6.66.93.67,1.91.06,3.83,0,5.75,0Z"/><path class="cls-1" d="M183.42,41.42a9.66,9.66,0,0,1-3.7,7.14,23.58,23.58,0,0,1-13.84,5c-4.63.23-9.23,0-13.4-2.31A19.1,19.1,0,0,1,142,34.77a21.28,21.28,0,0,1,2.76-12.57,19,19,0,0,1,12.45-8.67,26.14,26.14,0,0,1,16.11,1.2c6.19,2.5,9.53,7.43,10.8,13.81.44,2.17.5,4.42.76,6.85h-1.67c-8,0-16,0-24,0-1.1,0-1.47.3-1.42,1.41.09,1.76,0,3.52,0,5.28,0,3,1.46,5.23,4.3,6.07a14.17,14.17,0,0,0,11.55-1.37,6.57,6.57,0,0,0,3.13-4.35c.18-.8.54-1,1.31-1C179.88,41.45,181.62,41.42,183.42,41.42ZM163.51,30.18c1.56,0,3.12,0,4.67,0,.71,0,1-.21,1-1,0-1.19.06-2.4,0-3.59-.21-2.52-.53-5-2.44-6.95a4.28,4.28,0,0,0-6.2-.05,7.36,7.36,0,0,0-1.9,3.25,61.87,61.87,0,0,0-.69,7.59c0,.21.6.65.94.67C160.39,30.22,162,30.18,163.51,30.18Z"/><path class="cls-1" d="M326.2.11h14.21v52H326.2Z"/><path class="cls-1" d="M359.36,52.12H345.19V.14h14.17Z"/></g></g></svg>