<svg xmlns="http://www.w3.org/2000/svg" viewBox="0 0 301.63 80.14"><defs><style>.cls-1{fill:#fff;}</style></defs><g id="Layer_2" data-name="Layer 2"><g id="Layer_1-2" data-name="Layer 1"><path class="cls-1" d="M80.37,40.08A40.16,40.16,0,1,1,33.75.52,40.39,40.39,0,0,1,53,2.08c1.06.35,1.47.8.95,1.9a18.38,18.38,0,0,0-1.08,2.78c-.29,1-.83.9-1.63.63a34,34,0,0,0-23.45.44A34.5,34.5,0,0,0,38.62,74.55c17.68.72,33.2-11.77,35.71-29.14,1.92-13.32-2.68-24.27-13.16-32.74-1.31-1.06-1.34-1.07-.37-2.47.45-.65,1-1.28,1.35-2,.58-1,1.19-.93,2-.29a40.31,40.31,0,0,1,14,19.12A40.9,40.9,0,0,1,80.37,40.08Z"/><path class="cls-1" d="M40.17,8.47A31.59,31.59,0,1,1,13.33,56.79c-.59-1-.46-1.49.56-1.93a16.16,16.16,0,0,0,2.33-1.23c.92-.61,1.44-.49,2.08.49A25.46,25.46,0,0,0,36.56,65.83,26,26,0,1,0,14.21,38.36a41.2,41.2,0,0,0,.29,6.07c.07.79-.08,1.18-.88,1.34a22.17,22.17,0,0,0-3.14.78c-1.06.37-1.32-.1-1.48-1a31.59,31.59,0,0,1,29.26-37C38.9,8.53,39.54,8.51,40.17,8.47Z"/><path class="cls-1" d="M40.12,63.06A23,23,0,0,1,36.26,17.4C45,16,52.37,18.72,58,25.51S64.54,39.81,61.82,48c-.34,1-.76,1.37-1.77.69a15.1,15.1,0,0,0-2.63-1.41c-1-.39-.92-.94-.66-1.79,1.94-6.24.86-12-3.45-16.86-4.65-5.26-10.62-7.19-17.44-5.44S24.74,29.45,23.12,36.27A17.43,17.43,0,0,0,50.94,53.76c.92-.72,1.57-.73,2.35.1a17.21,17.21,0,0,0,2,1.77c.89.7.72,1.24-.06,1.9A22.64,22.64,0,0,1,40.12,63.06Z"/><path class="cls-1" d="M209,26.11c-.79,1.69-1.43,3.05-2.06,4.38-1.63-.46-3.17-1-4.76-1.3a14.08,14.08,0,0,0-3.67-.12,4.44,4.44,0,0,0-2.08.8,2.32,2.32,0,0,0,.1,4.06A17.61,17.61,0,0,0,200,35.25c1.77.58,3.62,1,5.35,1.68a6.86,6.86,0,0,1,4.62,7,7,7,0,0,1-4.78,6.9C201.11,52.42,197,52,193,50.67c-1.31-.42-2.56-1.05-4-1.64l2.53-4.15a56.74,56.74,0,0,0,6.33,1.92,11.28,11.28,0,0,0,4.24-.25,2.61,2.61,0,0,0,.28-5c-1.47-.59-3-1-4.54-1.47a41.39,41.39,0,0,1-4.06-1.4,6.57,6.57,0,0,1-4.2-5.89,7.13,7.13,0,0,1,3.3-6.86c2.9-1.94,6.18-2.06,9.46-1.53A66.53,66.53,0,0,1,209,26.11Z"/><path class="cls-1" d="M271.07,43a4.22,4.22,0,0,0,5,4.22,45,45,0,0,0,5.6-1.37l2.12,3.23a14.06,14.06,0,0,1-6.15,2.56c-5.3.93-9.85-1.28-11.73-5.69-2.13-5-.76-11,3.28-13.8a10.28,10.28,0,0,1,10.7-.84c3.11,1.45,4.29,4.24,4.53,7.49.3,4.07.16,4.2-3.83,4.2h-9.56Zm7.95-4.2c.09-2.75-1.14-4.31-3.37-4.41a4.52,4.52,0,0,0-4.59,4.41Z"/><path class="cls-1" d="M165.37,43c.3,2.86,2.18,4.54,5,4.23a45.34,45.34,0,0,0,5.69-1.37l2,3.06c0,.14,0,.25-.09.28-4,2.69-8.3,3.47-12.84,1.68a8.78,8.78,0,0,1-5.43-6.82c-.87-4.18-.34-8,2.9-11.15a10.65,10.65,0,0,1,12.26-1.3c2.86,1.78,3.84,4.56,3.95,7.75C179,43,178.92,43,175.4,43Zm8-4.2c.06-2.68-1.14-4.25-3.29-4.41-2.41-.18-4.39,1.64-4.75,4.41Z"/><path class="cls-1" d="M260.09,45.64l2.33,3.53c-.75.42-1.44.86-2.17,1.21a13.65,13.65,0,0,1-9,1.16,8.94,8.94,0,0,1-6.8-5.62c-1.9-4.56-.92-9.9,2.33-13,4.07-3.86,11.57-3.45,14.52.81,1.82,2.63,1.94,5.57,1.44,8.61-.12.77-.65.66-1.15.66h-12c-.12,2.58,2,4.44,4.93,4.26a12.88,12.88,0,0,0,2.81-.52A28.09,28.09,0,0,0,260.09,45.64Zm-2.54-6.8c.21-2.53-1-4.22-3.18-4.41a4.52,4.52,0,0,0-4.77,4.41Z"/><path class="cls-1" d="M126.93,39a19.47,19.47,0,0,0,0-2.3A1.72,1.72,0,0,0,125.3,35a13.36,13.36,0,0,0-3.63.27,33.72,33.72,0,0,0-4.06,1.49l-2-4.09c4-1.91,8.11-3.07,12.51-1.82,3,.85,4.48,3.09,4.52,6.66,0,2.63.05,5.26,0,7.89,0,1.19.22,2.07,1.63,2.17v3.87c-2.47-.06-4.92,0-6.6-2.37l-1.1.9a8.15,8.15,0,0,1-6.63,1.71,5.32,5.32,0,0,1-4.69-4.16,5.76,5.76,0,0,1,2.6-6.1c2.41-1.58,5.18-2,8-2.33C126.16,39.05,126.51,39,126.93,39Zm0,3.18c-1.88.15-3.62.31-5.09,1.4a2.34,2.34,0,0,0-1,2.71,2,2,0,0,0,2.46,1.41,14.47,14.47,0,0,0,3.06-1.13,1.17,1.17,0,0,0,.55-.85C127,44.56,127,43.42,127,42.16Z"/><path class="cls-1" d="M143.36,51.29h-5.54V30.92H143l.35,2.1a9.72,9.72,0,0,1,5.45-2.68c3.85-.48,7,1.75,7.11,5.62.21,5,0,10.11,0,15.26H150.4V50c0-4,0-8,0-12.08,0-2.87-1.79-4.13-4.41-3-2,.9-2.75,1.55-2.67,3.83.14,3.7,0,7.41,0,11.12Z"/><path class="cls-1" d="M289.3,34.82h-3.13V30.87h3.09V25.75H295V30.8h4.52v4h-4.38c0,.45-.1.79-.1,1.12,0,3,0,6.06,0,9.09,0,1.89.92,2.61,2.76,2.16a16.54,16.54,0,0,0,1.91-.71c.64,1,1.3,2.12,1.95,3.16-2.28,2.4-7.63,3-10.17,1.11-1.75-1.29-2.12-3.21-2.15-5.21-.05-3.07,0-6.14,0-9.21Z"/><path class="cls-1" d="M94.25,48.08l3.6-3.27A17.08,17.08,0,0,0,101,46.52a3.31,3.31,0,0,0,4.35-2.75,10.63,10.63,0,0,0,.14-1.79c0-5.26,0-10.52,0-15.79V24.7h5.83V42.19c0,4.74-1.76,7.72-5.3,9A10.59,10.59,0,0,1,94.25,48.08Z"/><path class="cls-1" d="M214.5,30.87V25.74h5.56v5h4.58v4h-4.32a1.68,1.68,0,0,0-.19.5c0,3.23-.07,6.46,0,9.69.06,2.07,1.1,2.69,3.13,2.07.48-.15.95-.38,1.55-.62.33.52.65,1.05,1,1.58l1,1.6c-2.21,2.31-7.39,2.94-10,1.24-1.83-1.22-2.3-3.1-2.34-5.11-.06-3.15,0-6.3,0-9.45V34.85h-3.13v-4Z"/><path class="cls-1" d="M235,51.28h-5.53V30.93h5.1l.35,2.36a27.72,27.72,0,0,1,3.73-2.67,6,6,0,0,1,4.69.05c-.27,1.69-.53,3.36-.8,5.07-.62-.11-1.12-.22-1.62-.28A5,5,0,0,0,235,40.64Z"/><path class="cls-1" d="M279,38.83h-8a4.52,4.52,0,0,1,4.59-4.41C277.88,34.52,279.11,36.08,279,38.83Z"/><path class="cls-1" d="M173.42,38.83h-8c.36-2.77,2.34-4.59,4.75-4.41C172.28,34.58,173.48,36.15,173.42,38.83Z"/><path class="cls-1" d="M257.55,38.84h-8a4.52,4.52,0,0,1,4.77-4.41C256.51,34.62,257.76,36.31,257.55,38.84Z"/><path class="cls-1" d="M127,42.16c0,1.26,0,2.4,0,3.54a1.17,1.17,0,0,1-.55.85,14.47,14.47,0,0,1-3.06,1.13,2,2,0,0,1-2.46-1.41,2.34,2.34,0,0,1,1-2.71C123.35,42.47,125.09,42.31,127,42.16Z"/></g></g></svg>