<svg xmlns="http://www.w3.org/2000/svg" viewBox="0 0 200 50"><g id="f60f8b6e-1a48-4b0b-b2f2-07ce63ef0908" data-name="white-white"><path d="M71.77111,13.193a8.42472,8.42472,0,0,0-6.18066-2.22851c-2.93848,0-4.55958.91162-4.55958,2.48193,0,1.6211,1.46973,2.5332,4.66114,2.73584C70.403,16.486,76.38048,17.55,76.38048,24.18619c0,4.40722-3.59668,8.207-10.73925,8.207-3.95118,0-7.90332-.65869-11.55078-4.458l3.04-4.40723c1.77247,1.97559,5.8252,3.44434,8.61231,3.49512,2.33008.05078,4.50781-1.165,4.50781-2.98877,0-1.72217-1.418-2.43164-4.96387-2.63427-4.71191-.3545-10.335-2.07715-10.335-7.751,0-5.7749,5.97852-7.80127,10.53711-7.80127,3.90137,0,6.83887.75976,9.72657,3.29248Z" fill="#fff"/><path d="M86.86779,21.2482c.40527,3.09033,3.08984,5.31885,7.44726,5.31885,2.2793,0,5.26856-.86084,6.68653-2.33008l3.95117,3.90088c-2.63379,2.73535-6.94043,4.05273-10.73926,4.05273-8.6123,0-13.72851-5.31933-13.72851-13.32373,0-7.59863,5.167-13.06982,13.27246-13.06982,8.3584,0,13.57715,5.16748,12.61426,15.45117ZM100.444,16.1315c-.4043-3.24219-2.9375-4.86328-6.48437-4.86328-3.34278,0-6.07813,1.62109-6.99024,4.86328Z" fill="#fff"/><path d="M132.00646,4.02408l4.55859,3.44482-2.78613,3.5459a10.64715,10.64715,0,0,1,2.63477,7.39649c0,3.09033-1.165,7.44677-5.26856,9.32128,4.1543,2.07666,5.167,5.06592,5.167,8.25733,0,6.88965-5.26855,11.145-12.51269,11.145s-12.665-4.40723-12.665-11.145h6.12988c0,3.24219,2.98926,5.37012,6.53516,5.37012s6.332-1.9253,6.332-5.37012-3.24219-5.01514-6.332-5.01514c-7.80176,0-12.665-4.7622-12.665-12.56347,0-7.80176,5.67383-12.665,12.665-12.665A9.95275,9.95275,0,0,1,129.524,7.1647ZM117.26427,18.41129c0,4.35644,2.93848,6.93994,6.53516,6.93994,3.5459,0,6.48437-2.63379,6.48437-6.93994s-2.93847-7.04151-6.48437-7.04151C120.20275,11.36978,117.26427,14.05435,117.26427,18.41129Z" fill="#fff"/><path d="M160.02111,31.53189V18.46158c0-3.79932-2.07715-6.68652-6.02832-6.68652-3.79981,0-6.38379,3.1914-6.38379,6.99072V31.53189h-6.12988V6.5065h5.52246l.40527,3.394c2.5332-2.48242,5.06543-3.749,8.207-3.749,5.876,0,10.58692,4.40771,10.58692,12.25977v13.1206Z" fill="#fff"/><path d="M192.59533,6.55679h5.92676v24.9751h-5.8252l-.30371-3.64746c-1.41895,2.93848-5.31934,4.35645-8.10547,4.40723-7.39648.05078-12.86816-4.50879-12.86816-13.27246,0-8.61231,5.72461-13.1211,13.01953-13.07032,3.34375,0,6.53515,1.57032,7.9541,4.05274ZM177.60021,19.0192c0,4.76171,3.293,7.59863,7.39649,7.59863,9.72656,0,9.72656-15.147,0-15.147A7.11216,7.11216,0,0,0,177.60021,19.0192Z" fill="#fff"/><path d="M28.04694,38.563A7.35586,7.35586,0,0,1,22.591,36.47673c-3.24-3.28208-3.15688-9.76232-3.07656-16.02893.06916-5.42078.14111-11.02618-2.02073-13.21647A3.77358,3.77358,0,0,0,14.657,6.20116,8.50145,8.50145,0,0,0,7.93889,8.92689c-4.09835,4.561-3.21934,13.25886-3.21041,13.34643a1.42759,1.42759,0,1,1-2.839.304C1.84546,22.1693.875,12.51574,5.815,7.018a11.349,11.349,0,0,1,8.842-3.67252A6.566,6.566,0,0,1,19.52562,5.2251c3.0007,3.03946,2.92484,8.97505,2.84453,15.25923-.07307,5.68014-.14837,11.55354,2.25331,13.98589a4.55408,4.55408,0,0,0,3.42348,1.23709A8.25679,8.25679,0,0,0,34.8476,32.8639c4.22664-5.1037,2.34255-15.3535,2.323-15.4564a1.42776,1.42776,0,0,1,2.80493-.53517c.09092.47326,2.15794,11.6623-2.92373,17.80705a10.18825,10.18825,0,0,1-3.8597,2.90822A12.89307,12.89307,0,0,1,28.04694,38.563Z" fill="#fff"/></g></svg>