<svg xmlns="http://www.w3.org/2000/svg" xmlns:xlink="http://www.w3.org/1999/xlink" version="1.1" id="Layer_1" x="0px" y="0px" viewBox="0 0 585.11359 228.20074" style="enable-background:new 0 0 585.11359 228.20074;" xml:space="preserve">
<style type="text/css">
	.st0{fill:#FFFFFF;}
</style>
<g>
	<g>
		<g>
			<g>
				<g>
					<g>
						<path class="st0" d="M296.32184,63.80375l0.01849,0.33533c2.14627-27.90022,29.30618-32.5416,53.55679-32.5416        c37.24338,0,46.43854,11.54487,48.7049,25.77477l0.01874,0.10159l0.134,1.26271l0.03696-0.08313        c0.58279,4.4311,0.56433,9.1073,0.56433,13.74183v42.80766c0,7.85382,0.39786,16.69282,4.82422,23.30714h-40.59671        c-1.01288-2.79375-1.60968-7.02142-1.41525-9.83363h-0.40707c-8.43661,9.63921-20.69833,12.46065-33.56158,12.46065        c-20.09708,0-36.78064-9.64844-36.78064-31.55408c0-32.96006,38.58447-31.76673,58.88522-35.57808        c5.42099-1.00363,10.86496-2.61329,10.86496-9.24371c0-7.04226-6.64203-9.6463-13.07587-9.6463        c-12.2525,0-14.67612,6.2257-14.87054,10.6568h-36.97955h0.07861 M361.16919,91.69923        c-4.8382,2.40749-10.24973,3.81348-15.68918,5.02528c-8.83899,2.0075-13.45978,4.21606-13.45978,11.24434        c0,4.82872,5.23129,9.65317,12.46988,9.65317c9.02872,0,16.06381-5.43023,16.67908-16.28596V91.69923z"/>
					</g>
				</g>
			</g>
			<g>
				<g>
					<g>
						<path class="st0" d="M477.42255,56.56399c8.58466-14.7689,24.73657-24.96533,49.40802-24.96533        c39.18127,0,56.87109,25.72836,56.87109,54.67152c0,28.93392-17.68982,54.86808-56.87109,54.86808        c-24.6994,0-40.85556-10.2959-49.42648-25.14319l0.01846,0.12007v22.39609c-8.05246,0-17.08591,1.22104-25.52725,1.22104        c-16.88254,0-35.57339-2.61803-35.57339-31.16096V58.73774h-17.56714l0.03696-0.08312        c0.58279,4.4311,0.56433,9.1073,0.56433,13.74183v42.80766c0,7.85383,0.39786,16.69281,4.82422,23.30713h-40.59671        c-1.01288-2.79373-1.60968-7.02141-1.41525-9.83362h-0.40707c-8.43661,9.63919-20.69833,12.46065-33.56158,12.46065        c-20.09708,0-36.78064-9.64844-36.78064-31.55408c0-32.96007,38.58447-31.76674,58.88522-35.57809        c5.42099-1.00363,10.86496-2.61328,10.86496-9.24371c0-7.04225-6.64203-9.6463-13.07587-9.6463        c-12.2525,0-14.67612,6.2257-14.87054,10.6568h-36.97955h0.07861v2.60405c-4.01025-1.40836-7.64114-2.60405-15.68466-2.60405        c-15.66599,0-24.10709,9.22761-24.10709,31.54721v41.19113h-39.80365V95.31046h-0.04381h-75.1804        c1.0105,11.85462,7.84695,20.28676,20.30286,20.28676c6.42937,0,13.47139-2.39139,16.69519-7.41903h37.17639        c-8.03432,22.51616-29.94919,32.96007-53.66342,32.96007c-26.60954,0-47.97641-12.5208-55.54347-35.23589l0.02084,0.3377        c-1.17486,27.39603-28.24692,34.89819-53.02042,34.89819c-24.52816,0-51.44984-9.84737-52.05823-36.77615H39.4115        c0.19419,3.60793,1.79934,6.6283,4.80574,9.23685c2.01437,1.81331,5.84869,3.02511,10.65917,3.02511        c5.23817,0,13.47138-2.012,13.47138-8.05275c0-6.02228-3.40662-7.83298-21.91488-11.04305        C16.08827,92.29459,3.83579,82.65089,3.83579,64.76239c0-26.34148,28.33714-33.16373,49.23204-33.16373        c22.51403,0,49.64861,6.2302,50.65674,32.96243H67.54285c-0.19183-3.41349-2.00964-6.03152-4.61366-7.84222        c-2.42385-2.00964-5.64079-3.01801-8.85298-3.01801c-5.62916,0-12.04668,1.20706-12.04668,8.05038        c0,3.01114,2.40986,4.41026,4.61134,5.42076c6.62354,2.81931,21.70693,3.61241,34.96068,8.04138        c9.30859,2.95548,17.82385,7.70581,22.07689,16.15855l0.01608,0.11794c-0.12006-1.58195-0.18495-3.1916-0.18495-4.82422        c0-30.35151,22.12067-55.067,55.09021-55.067c35.4303,0,53.62621,16.93105,58.14989,47.25249l-0.02321-0.49258V34.21881        h38.18924v16.67197h0.40709c6.42464-12.46988,14.86577-19.29212,29.33864-19.29212        c4.01929,0,7.83984,0.60128,11.66043,1.60491v30.60136l0.01849,0.33533c2.14627-27.90021,29.30618-32.5416,53.55679-32.5416        c37.24338,0,46.43854,11.54486,48.7049,25.77477l0.01874,0.1016V34.21881h17.70114V2.44971h39.79654v31.76911h21.30411        V56.56399z M179.7007,74.60264c0-9.63919-7.2272-17.47905-17.49089-17.47905c-11.86171,0-18.68871,6.2302-20.50415,17.47905        H179.7007z M361.16919,91.70041c-4.8382,2.40749-10.24973,3.81348-15.68918,5.02528        c-8.83899,2.0075-13.45978,4.21606-13.45978,11.24435c0,4.82871,5.23129,9.65316,12.46988,9.65316        c9.02872,0,16.06381-5.43023,16.67908-16.28596V91.70041z M456.11844,58.73774v36.37379        c0,9.64843,2.20618,13.86213,12.24323,13.86213c1.8685,0,3.72327-0.07389,5.578-0.21266l0.04169,0.06465        c-2.71039-6.9866-4.02872-14.66234-4.02872-22.55547c0-9.85896,2.04916-19.35938,6.30905-27.57175L456.11844,58.73774z         M526.83057,60.54158c-15.07867,0-17.09518,14.67181-17.09518,25.7286c0,11.04992,2.01651,25.92278,17.09518,25.92278        c15.0694,0,17.08618-14.87286,17.08618-25.92278C543.91675,75.21339,541.89996,60.54158,526.83057,60.54158z"/>
					</g>
				</g>
			</g>
		</g>
	</g>
	<g>
		<path class="st0" d="M48.42215,162.24022v4.07533H30.92847v46.08722h-4.77711v-46.08722H8.72825v-4.07533H48.42215z"/>
		<path class="st0" d="M56.28537,162.24022v20.16402h0.14065c0.8429-2.20135,2.34151-3.9695,4.4963-5.30441    c2.15382-1.33493,4.51934-2.0024,7.09558-2.0024c2.5292,0,4.64773,0.32834,6.35804,0.98306    c1.70933,0.65668,3.07905,1.58093,4.11014,2.77571c1.02961,1.19379,1.75637,2.65808,2.17783,4.39093    c0.42145,1.73285,0.63218,3.67741,0.63218,5.83073v23.32491h-4.42622v-22.62216c0-1.54564-0.14016-2.98544-0.42146-4.32036    c-0.28081-1.33493-0.77283-2.49442-1.47508-3.47748c-0.70274-0.98404-1.65101-1.75638-2.84529-2.31895    c-1.19476-0.56161-2.6821-0.84291-4.4615-0.84291c-1.7804,0-3.36133,0.31657-4.74232,0.94876    c-1.38197,0.63217-2.55321,1.49959-3.51275,2.59927c-0.96052,1.10068-1.70982,2.41306-2.24791,3.9342    c-0.53907,1.52213-0.83212,3.17363-0.87819,4.95255v21.14708h-4.42622v-50.16255H56.28537z"/>
		<path class="st0" d="M91.16638,200.42473c0.44448,1.71031,1.15899,3.24321,2.14254,4.60165    c0.98355,1.35846,2.22439,2.48265,3.72348,3.37163c1.4986,0.89093,3.30202,1.33492,5.40977,1.33492    c3.23195,0,5.76115-0.8429,7.5876-2.5287c1.82645-1.6868,3.0913-3.9342,3.79356-6.74519h4.42622    c-0.93748,4.12239-2.65858,7.30679-5.16376,9.55519c-2.50616,2.2484-6.05371,3.37259-10.64362,3.37259    c-2.85754,0-5.32842-0.50476-7.41167-1.51134c-2.08472-1.00659-3.78277-2.38855-5.09368-4.14493    c-1.31189-1.75638-2.2832-3.79308-2.91537-6.11203c-0.63267-2.31799-0.94876-4.76535-0.94876-7.34111    c0-2.38953,0.31609-4.73103,0.94876-7.0255c0.63217-2.29446,1.60348-4.3439,2.91537-6.14732    c1.31091-1.80243,3.00896-3.25497,5.09368-4.35663c2.08325-1.0997,4.55413-1.65053,7.41167-1.65053    c2.9036,0,5.38576,0.58612,7.44695,1.75638c2.06071,1.17125,3.73475,2.70514,5.02361,4.60167    c1.28739,1.89653,2.21262,4.07436,2.77473,6.53348c0.5621,2.45912,0.79585,4.95354,0.70274,7.48224H90.49892    C90.49892,197.06389,90.72043,198.71539,91.16638,200.42473z M113.08579,186.90004    c-0.53906-1.54565-1.29964-2.91586-2.28319-4.10965c-0.98355-1.19476-2.17783-2.1543-3.58283-2.88057    c-1.40549-0.72528-2.99818-1.08891-4.7776-1.08891c-1.82645,0-3.44267,0.36363-4.84768,1.08891    c-1.405,0.72627-2.59927,1.68581-3.58282,2.88057c-0.98355,1.19379-1.76863,2.57674-2.35376,4.14494    c-0.58611,1.57014-0.97228,3.17363-1.159,4.81238h23.46507C113.91694,190.0619,113.62388,188.44569,113.08579,186.90004z"/>
		<path class="st0" d="M144.45406,176.15106v6.88535h0.14066c1.02962-2.52969,2.70512-4.48405,5.02312-5.867    c2.31847-1.38,4.95303-2.07198,7.90369-2.07198c2.76344,0,5.16376,0.51555,7.20143,1.54565    c2.03719,1.03108,3.73425,2.42384,5.0932,4.18022c1.35796,1.75636,2.36453,3.79404,3.02122,6.11203    c0.6552,2.31798,0.98355,4.76631,0.98355,7.34207s-0.32835,5.02312-0.98355,7.34111    c-0.65669,2.31895-1.66327,4.35565-3.02122,6.11203c-1.35895,1.75638-3.05602,3.13834-5.0932,4.14493    c-2.03767,1.00658-4.43799,1.51134-7.20143,1.51134c-1.3114,0-2.62329-0.16466-3.9342-0.49202    c-1.31189-0.32834-2.52921-0.81938-3.65291-1.47606c-1.12421-0.65472-2.12-1.47508-2.98593-2.45815    c-0.86742-0.98404-1.53488-2.13078-2.0024-3.44316h-0.14064v20.23361h-4.42574v-49.59998H144.45406z M168.72723,188.6917    c-0.44547-1.84949-1.14821-3.50098-2.10727-4.95255c-0.96051-1.45155-2.19008-2.63457-3.68867-3.54803    c-1.49959-0.91347-3.30203-1.37021-5.40977-1.37021c-2.43561,0-4.47327,0.42145-6.11203,1.26436    c-1.63974,0.8429-2.95065,1.9671-3.9342,3.37259c-0.98355,1.40451-1.67503,3.04524-2.07246,4.91727    c-0.39842,1.87399-0.59738,3.84109-0.59738,5.90228c0,1.87302,0.222,3.73524,0.66745,5.58473    c0.44449,1.85046,1.17027,3.50197,2.17784,4.95352c1.00658,1.45157,2.31847,2.63457,3.93469,3.54706    c1.61572,0.91347,3.59361,1.37021,5.9361,1.37021c2.10774,0,3.91019-0.45674,5.40977-1.37021    c1.4986-0.91249,2.72816-2.09549,3.68867-3.54706c0.95906-1.45155,1.6618-3.10306,2.10727-4.95352    c0.44498-1.84949,0.66747-3.71172,0.66747-5.58473C169.3947,192.4044,169.17221,190.54218,168.72723,188.6917z"/>
		<path class="st0" d="M202.20154,176.64308c2.13078,1.03108,3.92244,2.41306,5.37448,4.14493    c1.45157,1.73285,2.55223,3.75876,3.30203,6.07675c0.74881,2.31895,1.12419,4.78984,1.12419,7.41264    s-0.37538,5.09271-1.12419,7.41167c-0.7498,2.31799-1.85046,4.34488-3.30203,6.07675    c-1.45204,1.73384-3.2437,3.10306-5.37448,4.10965c-2.13176,1.00658-4.57864,1.51134-7.3416,1.51134    c-2.76393,0-5.21082-0.50476-7.34158-1.51134c-2.13177-1.00659-3.92343-2.37581-5.3745-4.10965    c-1.45255-1.73187-2.55321-3.75876-3.30203-6.07675c-0.74979-2.31895-1.12419-4.78886-1.12419-7.41167    s0.3744-5.09369,1.12419-7.41264c0.74883-2.31799,1.84949-4.3439,3.30203-6.07675c1.45107-1.73187,3.24272-3.11385,5.3745-4.14493    c2.13077-1.03011,4.57765-1.54565,7.34158-1.54565C197.62289,175.09743,200.06978,175.61298,202.20154,176.64308z     M189.31001,180.15584c-1.59319,0.88994-2.91586,2.06119-3.9695,3.51274c-1.05411,1.45255-1.85095,3.10307-2.38855,4.95256    c-0.53906,1.85144-0.80811,3.73621-0.80811,5.65627c0,1.92104,0.26904,3.80582,0.80811,5.6553    c0.5376,1.85046,1.33444,3.50197,2.38855,4.95255c1.05363,1.45253,2.37631,2.62378,3.9695,3.51276    c1.59171,0.89093,3.44218,1.33492,5.54993,1.33492c2.10776,0,3.95724-0.44398,5.55043-1.33492    c1.59171-0.88898,2.91536-2.06023,3.96899-3.51276c1.05412-1.45058,1.84998-3.10208,2.38904-4.95255    c0.5376-1.84949,0.80762-3.73427,0.80762-5.6553c0-1.92006-0.27002-3.80482-0.80762-5.65627    c-0.53906-1.84949-1.33492-3.50002-2.38904-4.95256c-1.05363-1.45155-2.37729-2.6228-3.96899-3.51274    c-1.59319-0.88898-3.44267-1.33493-5.55043-1.33493C192.7522,178.82091,190.90172,179.26686,189.31001,180.15584z"/>
		<path class="st0" d="M217.30788,176.15106l9.2739,31.05316h0.14017l8.85245-31.05316h4.98782l8.85245,31.05316h0.14017    l9.27388-31.05316h4.70703l-11.66245,36.25171h-4.84767l-8.92204-30.49055h-0.14064l-8.85245,30.49055h-4.84718    l-11.66246-36.25171H217.30788z"/>
		<path class="st0" d="M269.36081,200.42473c0.44449,1.71031,1.159,3.24321,2.14255,4.60165    c0.98355,1.35846,2.2244,2.48265,3.72348,3.37163c1.4986,0.89093,3.30203,1.33492,5.40979,1.33492    c3.23193,0,5.76114-0.8429,7.58759-2.5287c1.82645-1.6868,3.09131-3.9342,3.79355-6.74519h4.42575    c-0.93701,4.12239-2.65808,7.30679-5.16327,9.55519c-2.50616,2.2484-6.05371,3.37259-10.64362,3.37259    c-2.85754,0-5.32843-0.50476-7.41168-1.51134c-2.08472-1.00659-3.78278-2.38855-5.09369-4.14493    c-1.31189-1.75638-2.28317-3.79308-2.91537-6.11203c-0.63266-2.31799-0.94873-4.76535-0.94873-7.34111    c0-2.38953,0.31607-4.73103,0.94873-7.0255c0.6322-2.29446,1.60349-4.3439,2.91537-6.14732    c1.31091-1.80243,3.00897-3.25497,5.09369-4.35663c2.08325-1.0997,4.55414-1.65053,7.41168-1.65053    c2.90359,0,5.38574,0.58612,7.44696,1.75638c2.0607,1.17125,3.73474,2.70514,5.02359,4.60167    c1.2869,1.89653,2.21213,4.07436,2.77472,6.53348c0.56161,2.45912,0.79587,4.95354,0.70276,7.48224h-27.8913    C268.69336,197.06389,268.91486,198.71539,269.36081,200.42473z M291.28024,186.90004    c-0.53906-1.54565-1.29965-2.91586-2.2832-4.10965c-0.98355-1.19476-2.17783-2.1543-3.58282-2.88057    c-1.40549-0.72528-2.9982-1.08891-4.77759-1.08891c-1.82648,0-3.44269,0.36363-4.84769,1.08891    c-1.405,0.72627-2.59927,1.68581-3.58282,2.88057c-0.98355,1.19379-1.76862,2.57674-2.35376,4.14494    c-0.58612,1.57014-0.97229,3.17363-1.159,4.81238h23.46506C292.11139,190.0619,291.81833,188.44569,291.28024,186.90004z"/>
		<path class="st0" d="M305.33594,176.15106v8.50058h0.14111c1.12421-2.95016,2.86783-5.2211,5.23386-6.81477    c2.36404-1.59172,5.1868-2.31798,8.4653-2.17783v4.42622c-2.01416-0.09311-3.84012,0.17545-5.47986,0.80859    c-1.63974,0.63219-3.05603,1.53389-4.24982,2.70416c-1.19476,1.17123-2.12,2.56497-2.7757,4.18021    c-0.6557,1.61623-0.98306,3.38435-0.98306,5.30441v19.32013h-4.42621v-36.25171H305.33594z"/>
		<path class="st0" d="M362.06628,176.64308c2.13077,1.03108,3.92242,2.41306,5.37497,4.14493    c1.45157,1.73285,2.55225,3.75876,3.30203,6.07675c0.74881,2.31895,1.12418,4.78984,1.12418,7.41264    s-0.37537,5.09271-1.12418,7.41167c-0.74979,2.31799-1.85046,4.34488-3.30203,6.07675    c-1.45255,1.73384-3.2442,3.10306-5.37497,4.10965c-2.13177,1.00658-4.57816,1.51134-7.34113,1.51134    c-2.76392,0-5.21127-0.50476-7.34207-1.51134c-2.13177-1.00659-3.92343-2.37581-5.37399-4.10965    c-1.45255-1.73187-2.55322-3.75876-3.30203-6.07675c-0.74979-2.31895-1.12421-4.78886-1.12421-7.41167    s0.37442-5.09369,1.12421-7.41264c0.74881-2.31799,1.84949-4.3439,3.30203-6.07675    c1.45056-1.73187,3.24222-3.11385,5.37399-4.14493c2.1308-1.03011,4.57816-1.54565,7.34207-1.54565    C357.48813,175.09743,359.93451,175.61298,362.06628,176.64308z M349.17474,180.15584    c-1.59268,0.88994-2.91586,2.06119-3.96948,3.51274c-1.05362,1.45255-1.85046,3.10307-2.38855,4.95256    c-0.53906,1.85144-0.80762,3.73621-0.80762,5.65627c0,1.92104,0.26855,3.80582,0.80762,5.6553    c0.53809,1.85046,1.33493,3.50197,2.38855,4.95255c1.05362,1.45253,2.3768,2.62378,3.96948,3.51276    c1.59174,0.89093,3.4422,1.33492,5.55042,1.33492c2.10727,0,3.95676-0.44398,5.55045-1.33492    c1.59171-0.88898,2.91486-2.06023,3.96851-3.51276c1.0546-1.45058,1.85046-3.10208,2.38953-4.95255    c0.53711-1.84949,0.80762-3.73427,0.80762-5.6553c0-1.92006-0.27051-3.80482-0.80762-5.65627    c-0.53906-1.84949-1.33493-3.50002-2.38953-4.95256c-1.05365-1.45155-2.3768-2.6228-3.96851-3.51274    c-1.59369-0.88898-3.44318-1.33493-5.55045-1.33493C352.61694,178.82091,350.76648,179.26686,349.17474,180.15584z"/>
		<path class="st0" d="M383.52994,179.87454v32.52823h-4.42624v-32.52823h-6.18259v-3.72348h6.18259v-3.30203    c0-1.54564,0.11566-2.97368,0.35089-4.28508c0.23425-1.3114,0.67825-2.43462,1.33493-3.37259    c0.6557-0.93602,1.55643-1.66229,2.70514-2.17783c1.14673-0.51457,2.61005-0.77332,4.39093-0.77332    c0.65472,0,1.26434,0.02449,1.82596,0.07056c0.56259,0.04706,1.19476,0.11761,1.89752,0.21072v3.79405    c-0.60965-0.09311-1.17126-0.17545-1.6868-0.246c-0.51553-0.07057-1.03009-0.10487-1.54565-0.10487    c-1.21829,0-2.1543,0.18719-2.81,0.5616c-0.65668,0.3754-1.13596,0.87819-1.43979,1.51038    c-0.30582,0.63217-0.48123,1.37021-0.52731,2.2131c-0.04706,0.84291-0.06958,1.75638-0.06958,2.74042v3.16089h7.16565v3.72348    H383.52994z"/>
		<path class="st0" d="M415.00256,176.15106v6.11203h0.21072c1.17029-2.24742,2.70514-4.00378,4.60168-5.26912    c1.89651-1.26436,4.32037-1.89655,7.27151-1.89655c2.38855,0,4.55463,0.58612,6.4982,1.75638    c1.94357,1.17125,3.24323,2.95016,3.8999,5.33969c1.07617-2.38953,2.66885-4.16844,4.7771-5.33969    c2.10727-1.17026,4.35565-1.75638,6.7442-1.75638c8.00955,0,12.01334,4.23903,12.01334,12.71608v24.58926h-4.42523v-24.37852    c0-2.99721-0.63318-5.27991-1.89752-6.85007c-1.26434-1.56819-3.48923-2.35327-6.67365-2.35327    c-1.92102,0-3.51276,0.36363-4.77808,1.08891c-1.26437,0.72627-2.27191,1.69855-3.02072,2.91586    c-0.74982,1.21829-1.27612,2.61104-1.58096,4.18021c-0.30481,1.56918-0.45673,3.19618-0.45673,4.88199v20.51489h-4.42523    v-24.58926c0-1.2173-0.13037-2.37679-0.38715-3.47746c-0.25778-1.09969-0.67923-2.06021-1.26437-2.88057    c-0.58609-0.81938-1.37021-1.46332-2.35327-1.93182c-0.98404-0.46751-2.17783-0.70274-3.58331-0.70274    c-1.87399,0-3.50195,0.3401-4.88297,1.01834c-1.38196,0.68021-2.50616,1.61623-3.37161,2.81099    c-0.8674,1.19379-1.51035,2.59929-1.93182,4.21452c-0.42242,1.61621-0.63315,3.38435-0.63315,5.30441v20.2336h-4.42523v-36.25171    H415.00256z"/>
		<path class="st0" d="M492.98486,212.40277v-6.53348h-0.14014c-1.17126,2.43559-2.86981,4.29782-5.09369,5.58473    c-2.22488,1.28787-4.69577,1.93279-7.41168,1.93279c-2.29544,0-4.25076-0.31657-5.866-0.94875    c-1.61624-0.63219-2.92764-1.53389-3.9342-2.70514c-1.00854-1.17026-1.74561-2.59927-2.21313-4.28508    c-0.46948-1.6868-0.70273-3.60684-0.70273-5.76115v-23.53563h4.42621v23.6062c0.09311,3.2785,0.8537,5.76016,2.28271,7.44696    c1.42804,1.68581,3.8999,2.5287,7.41263,2.5287c1.9191,0,3.55884-0.40968,4.91727-1.22906    c1.35846-0.81938,2.48169-1.90829,3.37262-3.26674c0.88895-1.35846,1.54562-2.91586,1.9671-4.67224    c0.42145-1.75638,0.63217-3.54803,0.63217-5.37498v-19.03883h4.42523v36.25171H492.98486z"/>
		<path class="st0" d="M524.52905,183.21185c-0.51648-1.00659-1.20648-1.83772-2.07294-2.49442    c-0.86743-0.65471-1.86127-1.13498-2.98547-1.43979c-1.12415-0.30383-2.31891-0.45674-3.58331-0.45674    c-0.98303,0-1.97882,0.10487-2.98541,0.31657c-1.00757,0.21074-1.93182,0.56161-2.77573,1.05363    c-0.8429,0.49104-1.52213,1.13596-2.03668,1.93182c-0.51651,0.79683-0.77332,1.78087-0.77332,2.95016    c0,0.98404,0.246,1.81616,0.73804,2.4944c0.492,0.67923,1.11145,1.25357,1.86124,1.72108    c0.74881,0.46948,1.56918,0.85565,2.45911,1.15948c0.88898,0.30482,1.70935,0.55083,2.45917,0.73804l5.90131,1.33492    c1.26434,0.18721,2.51691,0.52634,3.75873,1.01836c1.24084,0.49202,2.34149,1.13596,3.30206,1.93181    c0.95953,0.79684,1.74457,1.78088,2.35327,2.95114c0.60864,1.17125,0.91345,2.55322,0.91345,4.14493    c0,1.9671-0.44598,3.64214-1.3349,5.02312c-0.88995,1.38197-2.02594,2.50618-3.40692,3.3726    c-1.38196,0.86642-2.94037,1.48586-4.67224,1.86125c-1.73383,0.3744-3.4422,0.56258-5.12897,0.56258    c-4.26257,0-7.71649-1.00755-10.36282-3.0217c-2.64633-2.01317-4.15668-5.24463-4.5311-9.69536h4.42624    c0.18622,2.99818,1.27512,5.25835,3.26672,6.78047c1.99063,1.52213,4.46152,2.2827,7.41165,2.2827    c1.07721,0,2.18964-0.11664,3.33734-0.35088c1.14673-0.23425,2.21313-0.63219,3.19714-1.19478    c0.98309-0.5616,1.79071-1.27513,2.42285-2.14253c0.63318-0.86642,0.94879-1.93182,0.94879-3.19618    c0-1.07715-0.22253-1.97885-0.66748-2.70512c-0.44598-0.7253-1.04285-1.33493-1.79169-1.82695    c-0.74976-0.49202-1.60443-0.90073-2.56396-1.22906c-0.96051-0.32736-1.93182-0.60866-2.91589-0.84291l-5.69055-1.26534    c-1.45255-0.3744-2.78647-0.80762-4.00476-1.29964c-1.21829-0.49104-2.28271-1.0997-3.19617-1.82596    c-0.91348-0.72627-1.62799-1.61623-2.14255-2.66986c-0.51654-1.05362-0.77332-2.35425-0.77332-3.89891    c0-1.82695,0.40967-3.39612,1.23004-4.70752c0.81839-1.31042,1.88477-2.36504,3.19617-3.16187    c1.31042-0.79587,2.7757-1.381,4.39093-1.75638c1.61624-0.3744,3.2197-0.56161,4.81241-0.56161    c1.82697,0,3.52356,0.23523,5.09369,0.70274c1.56915,0.46851,2.95111,1.1938,4.1449,2.17784    c1.19476,0.98305,2.14258,2.20233,2.84534,3.65291c0.7027,1.45253,1.09967,3.16187,1.19476,5.12897h-4.42627    C525.32495,185.40144,525.04364,184.21941,524.52905,183.21185z"/>
		<path class="st0" d="M540.19434,162.24022v7.09607h-4.42621v-7.09607H540.19434z M540.19434,176.15106v36.25171h-4.42621    v-36.25171H540.19434z"/>
		<path class="st0" d="M569.14026,181.1389c-1.64075-1.54565-3.9342-2.31799-6.88538-2.31799    c-2.10724,0-3.95868,0.44595-5.55042,1.33493c-1.59271,0.88994-2.91486,2.06119-3.96948,3.51274    c-1.05365,1.45255-1.85046,3.10307-2.38855,4.95256c-0.53906,1.85144-0.80762,3.73621-0.80762,5.65627    c0,1.92104,0.26855,3.80582,0.80762,5.6553c0.53809,1.85046,1.3349,3.50197,2.38855,4.95255    c1.05463,1.45253,2.37677,2.62378,3.96948,3.51276c1.59174,0.89093,3.44318,1.33492,5.55042,1.33492    c1.35748,0,2.64532-0.25679,3.86365-0.77234c1.21826-0.51553,2.29443-1.23004,3.23242-2.14352    c0.93604-0.91249,1.70929-2.0014,2.31799-3.26674c0.60864-1.26436,0.98407-2.64534,1.12421-4.14493h4.42621    c-0.60962,4.40369-2.22485,7.83411-4.84766,10.29225c-2.62378,2.45912-5.99542,3.68916-10.11682,3.68916    c-2.76392,0-5.2113-0.50476-7.3421-1.51134c-2.13171-1.00659-3.92242-2.37581-5.37396-4.10965    c-1.45258-1.73187-2.55322-3.75876-3.30206-6.07675c-0.74976-2.31895-1.12415-4.78886-1.12415-7.41167    s0.37439-5.09369,1.12415-7.41264c0.74884-2.31799,1.84949-4.3439,3.30206-6.07675    c1.45154-1.73187,3.24225-3.11385,5.37396-4.14493c2.1308-1.03011,4.57819-1.54565,7.3421-1.54565    c3.88715,0,7.17743,1.0311,9.87079,3.09131c2.69238,2.06119,4.29688,5.17601,4.81238,9.34349h-4.42621    C571.9032,184.8163,570.77899,182.68454,569.14026,181.1389z"/>
	</g>
</g>
</svg>