<svg xmlns="http://www.w3.org/2000/svg" viewBox="0 0 74.67 35.76"><defs><style>.cls-1{fill:#fff;}</style></defs><title>Asset 2</title><g id="Layer_2" data-name="Layer 2"><g id="Layer_1-2" data-name="Layer 1"><path class="cls-1" d="M1.17,27.24a2.27,2.27,0,0,1-.86-.88A2.44,2.44,0,0,1,.66,23.5a2.41,2.41,0,0,1,1.65-.72h.07a2.39,2.39,0,0,1,1.19.3A11.26,11.26,0,0,0,9.38,25c1.77,0,2.56-.63,2.56-1.59v-.07c0-1.31-2.08-1.76-4.44-2.47-3-.86-6.38-2.24-6.38-6.39V14.4c0-4.33,3.52-6.77,7.85-6.77a14.9,14.9,0,0,1,6.64,1.63,2.55,2.55,0,0,1,1.06.92,2.49,2.49,0,0,1,.38,1.35,2.43,2.43,0,0,1-.69,1.69,2.39,2.39,0,0,1-1.69.7h-.05a2.49,2.49,0,0,1-1.11-.27,11.55,11.55,0,0,0-4.64-1.37c-1.5,0-2.26.66-2.26,1.49v.08c0,1.18,2.06,1.76,4.36,2.54,3,1,6.49,2.42,6.49,6.32v.07c0,4.74-3.57,6.88-8.21,6.88a14.52,14.52,0,0,1-8.08-2.42Zm20.42,8a2.63,2.63,0,0,1-1.93-2.52A2.44,2.44,0,0,1,20.34,31a2.4,2.4,0,0,1,1.7-.74h0a3.13,3.13,0,0,1,1,.15,3.59,3.59,0,0,0,1.3.22,2,2,0,0,0,2.15-1.28l.2-.48L19.41,12a5.45,5.45,0,0,1-.33-1.38,2.88,2.88,0,0,1,3-2.9A2.91,2.91,0,0,1,25,10l4.64,12.44L34.13,10A3.09,3.09,0,0,1,37,7.7a2.82,2.82,0,0,1,2.89,2.75v0a4.49,4.49,0,0,1-.28,1.44L32.18,29.78c-1.8,4.33-3.6,6-7.25,6a8.8,8.8,0,0,1-3.34-.53ZM42.49,3a3,3,0,0,1,6.08,0V26.48a3,3,0,0,1-6.08,0V3Z"/><path class="cls-1" d="M63.07,24.72A5.89,5.89,0,1,1,69,18.83a5.92,5.92,0,0,1-5.93,5.89Zm0-17.42a11.53,11.53,0,1,0,11.6,11.53A11.57,11.57,0,0,0,63.07,7.3"/></g></g></svg>