<svg xmlns="http://www.w3.org/2000/svg" viewBox="0 0 301.32 301.32"><defs><style>.cls-1{fill:none;stroke:#fff;stroke-miterlimit:10;stroke-width:10px;}.cls-2{fill:#fff;}</style></defs><g id="Layer_2" data-name="Layer 2"><g id="Capa_1" data-name="Capa 1"><circle class="cls-1" cx="150.66" cy="150.66" r="145.66"/><path class="cls-2" d="M205.67,110s-10.69-11.31-35-13v3.57S184,99.8,200.5,116c-12.44-9-30.18-14.55-49.89-14.55s-37.46,5.6-49.89,14.55c16.47-16.22,29.79-15.45,29.79-15.45V97c-24.27,1.64-35,13-35,13C77.05,133.78,76,185.89,76,185.89c17.42,21,39.31,18.32,39.31,18.32l8-11.62c-10.37-2.8-17.77-9.24-22.22-14.26,12.41,8.78,30,14.26,49.47,14.26s37-5.48,49.47-14.26c-4.45,5-11.86,11.46-22.22,14.26l8,11.62s21.89,2.68,39.31-18.32C225.21,185.89,224.17,133.78,205.67,110Zm-78.29,61.2c-7,0-12.66-6-12.66-13.45s5.67-13.44,12.66-13.44,12.66,6,12.66,13.44S134.37,171.15,127.38,171.15Zm46.46,0c-7,0-12.66-6-12.66-13.45s5.67-13.44,12.66-13.44,12.65,6,12.65,13.44S180.83,171.15,173.84,171.15Z"/></g></g></svg>