<svg version="1.1" id="Layer_1" xmlns="http://www.w3.org/2000/svg" xmlns:xlink="http://www.w3.org/1999/xlink" x="0px" y="0px"
	 viewBox="0 0 301.3 301.3" style="enable-background:new 0 0 301.3 301.3;" xml:space="preserve">
<style type="text/css">
	.st0{fill:none;stroke:#FFFFFF;stroke-width:10;stroke-miterlimit:10;}
	.st1{fill:#FFFFFF;}
</style>
<g id="Layer_2_1_">
	<g id="Capa_1">
		<circle class="st0" cx="150.7" cy="150.7" r="145.7"/>
	</g>
	<g>
		<path class="st1" d="M201.9,103.6c-9.4-4.3-19.5-7.5-30.1-9.3c-0.2,0-0.4,0.1-0.5,0.2c-1.3,2.3-2.7,5.3-3.8,7.7
			c-11.4-1.7-22.7-1.7-33.8,0c-1-2.4-2.5-5.4-3.8-7.7c-0.1-0.2-0.3-0.3-0.5-0.2c-10.6,1.8-20.7,5-30.1,9.3c-0.1,0-0.2,0.1-0.2,0.2
			C80,132.4,74.7,160.4,77.3,188c0,0.1,0.1,0.3,0.2,0.3c12.7,9.3,24.9,14.9,36.9,18.7c0.2,0.1,0.4,0,0.5-0.2c2.8-3.9,5.4-8,7.6-12.3
			c0.1-0.3,0-0.6-0.3-0.7c-4-1.5-7.9-3.4-11.5-5.5c-0.3-0.2-0.3-0.6,0-0.8c0.8-0.6,1.6-1.2,2.3-1.8c0.1-0.1,0.3-0.1,0.5-0.1
			c24.2,11.1,50.4,11.1,74.4,0c0.2-0.1,0.3-0.1,0.5,0.1c0.7,0.6,1.5,1.2,2.3,1.8c0.3,0.2,0.3,0.6,0,0.8c-3.7,2.2-7.5,4-11.5,5.5
			c-0.3,0.1-0.4,0.4-0.3,0.7c2.2,4.3,4.8,8.4,7.6,12.3c0.1,0.2,0.3,0.2,0.5,0.2c12.1-3.7,24.3-9.4,37-18.7c0.1-0.1,0.2-0.2,0.2-0.3
			c3.1-31.9-5.2-59.6-21.9-84.2C202.1,103.7,202,103.7,201.9,103.6z M126.1,171.2c-7.3,0-13.3-6.7-13.3-14.9s5.9-14.9,13.3-14.9
			c7.5,0,13.4,6.8,13.3,14.9C139.4,164.5,133.5,171.2,126.1,171.2z M175.3,171.2c-7.3,0-13.3-6.7-13.3-14.9s5.9-14.9,13.3-14.9
			c7.5,0,13.4,6.8,13.3,14.9C188.6,164.5,182.8,171.2,175.3,171.2z"/>
	</g>
</g>
</svg>
