<svg xmlns="http://www.w3.org/2000/svg" viewBox="0 0 301.32 301.32"><defs><style>.cls-1{fill:none;stroke:#fff;stroke-miterlimit:10;stroke-width:10px;}.cls-2{fill:#fff;}</style></defs><g id="Layer_2" data-name="Layer 2"><g id="Layer_1-2" data-name="Layer 1"><path class="cls-1" d="M150.66,5A145.66,145.66,0,1,0,296.32,150.66,145.68,145.68,0,0,0,150.66,5Z"/><path class="cls-2" d="M182.89,209.66H123.43a29.3,29.3,0,0,1-29.27-29.27V120.93a29.3,29.3,0,0,1,29.27-29.27h59.46a29.3,29.3,0,0,1,29.27,29.27v59.46A29.3,29.3,0,0,1,182.89,209.66Zm-59.46-111a22.32,22.32,0,0,0-22.3,22.3v59.46a22.32,22.32,0,0,0,22.3,22.3h59.46a22.32,22.32,0,0,0,22.3-22.3V120.93a22.32,22.32,0,0,0-22.3-22.3Z"/><path class="cls-2" d="M153.16,179.93a29.27,29.27,0,1,1,29.27-29.27A29.3,29.3,0,0,1,153.16,179.93Zm0-51.57a22.3,22.3,0,1,0,22.3,22.3A22.32,22.32,0,0,0,153.16,128.36Z"/><circle class="cls-2" cx="186.31" cy="117.82" r="6.62"/></g></g></svg>