<svg xmlns="http://www.w3.org/2000/svg" viewBox="0 0 301.32 301.32"><defs><style>.cls-1{fill:none;stroke:#fff;stroke-miterlimit:10;stroke-width:10px;}.cls-2{fill:#fff;}</style></defs><g id="Layer_2" data-name="Layer 2"><g id="Layer_1-2" data-name="Layer 1"><path class="cls-1" d="M150.66,5A145.66,145.66,0,1,1,5,150.66,145.66,145.66,0,0,1,150.66,5Z"/><path class="cls-2" d="M95.83,197H119.6V117.72H95.83Zm92.62-82c-11.54,0-21.86,4.21-29.19,13.51v-11H135.4V197h23.86V154c0-9.08,8.33-17.95,18.75-17.95s13,8.87,13,17.73V197h23.78V152C214.79,120.74,200,115,188.45,115Zm-80.85-5.17A11.91,11.91,0,1,0,95.7,97.9,11.92,11.92,0,0,0,107.6,109.81Z"/></g></g></svg>