<?xml version="1.0" encoding="utf-8"?>
<!-- Generator: Adobe Illustrator 16.0.0, SVG Export Plug-In . SVG Version: 6.00 Build 0)  -->
<!DOCTYPE svg PUBLIC "-//W3C//DTD SVG 1.1//EN" "http://www.w3.org/Graphics/SVG/1.1/DTD/svg11.dtd">
<svg version="1.1" id="Layer_1" xmlns="http://www.w3.org/2000/svg" xmlns:xlink="http://www.w3.org/1999/xlink" x="0px" y="0px"
	 width="827.875px" height="267.72px" viewBox="0 0 827.875 267.72" enable-background="new 0 0 827.875 267.72"
	 xml:space="preserve">
<g>
	<defs>
		<rect id="SVGID_1_" width="827.875" height="267.72"/>
	</defs>
	<clipPath id="SVGID_2_">
		<use xlink:href="#SVGID_1_"  overflow="visible"/>
	</clipPath>
	<path clip-path="url(#SVGID_2_)" fill="#FFFFFF" d="M245.41,107.943c-0.412-1.311-1.629-2.201-3.004-2.201h-29.393
		c-1.375,0-2.591,0.89-3.004,2.201l-37.086,117.618c-0.302,0.958-0.13,2,0.464,2.812c0.592,0.808,1.536,1.286,2.54,1.286h20.236
		c1.396,0,2.626-0.919,3.021-2.26l25.539-86.501c0,0,0.668-2.158,2.981-2.158c2.352,0,2.924,2.246,2.924,2.248l11.849,41.017
		h-15.918c-1.411,0-2.651,0.937-3.032,2.296l-4.567,16.239c-0.268,0.951-0.074,1.97,0.521,2.754
		c0.595,0.787,1.525,1.248,2.511,1.248h27.11l7.137,22.904c0.41,1.316,1.628,2.213,3.008,2.213h20.245
		c1.005,0,1.948-0.479,2.541-1.286c0.594-0.812,0.766-1.854,0.464-2.812L245.41,107.943z"/>
	<path clip-path="url(#SVGID_2_)" fill="#FFFFFF" d="M333.579,211.533c-0.134-0.877-0.628-1.657-1.366-2.149
		c-0.739-0.494-1.649-0.652-2.51-0.438c-3.285,0.816-6.433,1.268-8.861,1.268c-4.606,0-6.658-1.996-6.658-6.475v-45.063h18.072
		c1.739,0,3.15-1.413,3.15-3.151v-14.056c0-1.739-1.411-3.148-3.15-3.148h-18.072v-21.7c0-0.911-0.394-1.777-1.082-2.375
		c-0.687-0.598-1.603-0.869-2.503-0.744l-18.605,2.592c-1.557,0.217-2.717,1.548-2.717,3.119v19.108h-10.135
		c-1.74,0-3.15,1.409-3.15,3.148v14.056c0,1.738,1.41,3.151,3.15,3.151h10.135v47.974c0,16.476,8.661,24.827,25.74,24.827
		c4.861,0,13.115-1.119,18.512-2.996c1.434-0.497,2.309-1.945,2.082-3.441L333.579,211.533z"/>
	<path clip-path="url(#SVGID_2_)" fill="#FFFFFF" d="M368.024,103.448h-18.605c-1.74,0-3.151,1.409-3.151,3.151v119.911
		c0,1.739,1.411,3.149,3.151,3.149h18.605c1.739,0,3.15-1.41,3.15-3.149V106.599C371.174,104.857,369.763,103.448,368.024,103.448"
		/>
	<path clip-path="url(#SVGID_2_)" fill="#FFFFFF" d="M415.867,136.5c-9.419,0-20.883,1.485-29.203,3.786
		c-1.549,0.427-2.526,1.953-2.27,3.536l2.178,13.507c0.135,0.843,0.607,1.593,1.306,2.081c0.698,0.488,1.566,0.673,2.405,0.508
		c7.737-1.505,15.725-2.335,22.491-2.335c13.429,0,15.576,2.835,15.576,11.936v7.934h-19.944c-19.062,0-27.196,7.862-27.196,26.287
		c0,17.628,8.917,27.738,24.465,27.738c8.993,0,17.999-2.496,25.567-7.06l0.798,2.921c0.374,1.369,1.617,2.32,3.038,2.32h15.027
		c1.739,0,3.15-1.41,3.15-3.15v-56.625C453.257,145.547,443.123,136.5,415.867,136.5 M428.351,196.169v10.956
		c-3.084,1.646-8.672,3.998-15.395,3.998c-5.799,0-7.567-1.768-7.567-7.568c0-5.633,1.094-7.386,7.932-7.386H428.351z"/>
	<path clip-path="url(#SVGID_2_)" fill="#FFFFFF" d="M499.881,173.126c-11.545-2.976-11.545-3.096-11.545-9.431
		c0-4.253,0.422-6.295,9.934-6.295c6.516,0,16.131,1.138,22.305,2.195c0.85,0.146,1.721-0.063,2.41-0.578
		c0.691-0.513,1.143-1.287,1.247-2.142l1.755-14.181c0.198-1.6-0.842-3.089-2.412-3.456c-7.14-1.664-17.073-2.74-25.305-2.74
		c-28.613,0-34.476,10.8-34.476,27.013c0,17.827,3.312,23.817,25.241,29.161c14.437,3.475,14.437,6.057,14.437,10.337
		c0,5.622-0.481,7.566-9.934,7.566c-7.609,0-16.417-1.184-24.164-3.25c-0.851-0.226-1.755-0.087-2.497,0.385
		c-0.743,0.467-1.255,1.229-1.413,2.094l-2.46,13.455c-0.284,1.556,0.625,3.076,2.127,3.563c8.449,2.743,20.58,4.654,29.499,4.654
		c27.706,0,33.384-11.598,33.384-29.014C528.014,183.233,524.598,179.669,499.881,173.126"/>
	<path clip-path="url(#SVGID_2_)" fill="#FFFFFF" d="M571.773,173.126c-11.545-2.976-11.545-3.096-11.545-9.431
		c0-4.253,0.422-6.295,9.934-6.295c6.517,0,16.131,1.138,22.306,2.195c0.849,0.146,1.72-0.063,2.409-0.578
		c0.691-0.513,1.143-1.287,1.248-2.142l1.754-14.181c0.197-1.6-0.842-3.089-2.411-3.456c-7.142-1.664-17.074-2.74-25.306-2.74
		c-28.613,0-34.476,10.8-34.476,27.013c0,17.827,3.312,23.817,25.242,29.161c14.436,3.475,14.436,6.057,14.436,10.337
		c0,5.622-0.48,7.566-9.934,7.566c-7.61,0-16.417-1.184-24.164-3.25c-0.85-0.226-1.755-0.087-2.497,0.385
		c-0.743,0.467-1.255,1.229-1.413,2.094l-2.46,13.455c-0.285,1.556,0.625,3.076,2.127,3.563c8.449,2.743,20.58,4.654,29.499,4.654
		c27.706,0,33.384-11.598,33.384-29.014C599.906,183.233,596.49,179.669,571.773,173.126"/>
	<path clip-path="url(#SVGID_2_)" fill="#FFFFFF" d="M631.986,103.443h-18.605c-1.739,0-3.15,1.41-3.15,3.149v16.451
		c0,1.741,1.411,3.151,3.15,3.151h18.605c1.739,0,3.15-1.41,3.15-3.151v-16.451C635.137,104.853,633.726,103.443,631.986,103.443"/>
	<path clip-path="url(#SVGID_2_)" fill="#FFFFFF" d="M631.986,138.321h-18.605c-1.739,0-3.15,1.409-3.15,3.148v85.04
		c0,1.739,1.411,3.149,3.15,3.149h18.605c1.739,0,3.15-1.41,3.15-3.149v-85.04C635.137,139.73,633.726,138.321,631.986,138.321"/>
	<path clip-path="url(#SVGID_2_)" fill="#FFFFFF" d="M680.298,136.5c-9.421,0-20.884,1.485-29.204,3.786
		c-1.548,0.427-2.525,1.953-2.27,3.536l2.178,13.507c0.136,0.843,0.607,1.593,1.307,2.081c0.698,0.488,1.565,0.673,2.405,0.508
		c7.735-1.505,15.724-2.335,22.49-2.335c13.428,0,15.576,2.835,15.576,11.936v7.934h-19.944c-19.062,0-27.195,7.862-27.195,26.287
		c0,17.628,8.917,27.738,24.465,27.738c8.993,0,17.999-2.496,25.567-7.06l0.798,2.921c0.373,1.369,1.618,2.32,3.038,2.32h15.027
		c1.739,0,3.15-1.41,3.15-3.15v-56.625C717.687,145.547,707.553,136.5,680.298,136.5 M692.78,196.169v10.956
		c-3.085,1.646-8.672,3.998-15.396,3.998c-5.799,0-7.566-1.768-7.566-7.568c0-5.633,1.094-7.386,7.932-7.386H692.78z"/>
	<path clip-path="url(#SVGID_2_)" fill="#FFFFFF" d="M786.504,136.5c-9.863,0-23.294,3.4-34.644,8.728l-1.357-4.643
		c-0.394-1.343-1.625-2.264-3.023-2.264h-13.778c-1.739,0-3.15,1.409-3.15,3.148v85.039c0,1.74,1.411,3.15,3.15,3.15h18.605
		c1.739,0,3.15-1.41,3.15-3.15v-58.896c6.701-3.41,16.124-6.935,21.765-6.935c4.189,0,5.747,1.557,5.747,5.746v60.084
		c0,1.74,1.411,3.15,3.15,3.15h18.605c1.739,0,3.15-1.41,3.15-3.15v-62.449C807.875,145.771,800.685,136.5,786.504,136.5"/>
	<path clip-path="url(#SVGID_2_)" fill="#59AFE1" d="M195.801,64.346c-0.812-1.089-2.109-1.74-3.465-1.74
		c-0.701,0-1.392,0.177-1.998,0.508c-25.416,13.913-54.881,21.272-85.207,21.279c-30.327-0.007-59.79-7.365-85.206-21.278
		c-0.605-0.332-1.296-0.508-1.997-0.508c-1.358,0-2.653,0.65-3.464,1.736c-1.203,1.599-1.242,4.283,0.808,5.882
		c12.729,9.491,26.761,16.9,41.706,21.966c15.492,5.256,31.692,7.925,48.147,7.932h0.012c16.457-0.007,32.656-2.676,48.146-7.932
		c14.948-5.068,28.979-12.475,41.725-21.977C197.041,68.625,197.002,65.941,195.801,64.346"/>
	<path clip-path="url(#SVGID_2_)" fill="#59AFE1" d="M166.59,103.979c-0.605-0.46-1.333-0.699-2.071-0.699
		c-0.409,0-0.824,0.075-1.216,0.225c-7.367,2.818-14.848,4.957-21.676,6.547c-1.392,0.325-2.517,1.359-2.984,2.602
		c-4.975,13.627-17.678,26.602-31.006,40.193c-0.535,0.508-1.284,1.178-2.504,1.178c-1.217,0-1.959-0.648-2.504-1.178
		c-13.327-13.592-26.03-26.521-31.005-40.149c-0.467-1.241-1.593-2.276-2.984-2.601c-6.832-1.591-14.332-3.797-21.688-6.613
		c-0.396-0.151-0.809-0.225-1.22-0.225c-0.737,0-1.452,0.232-2.055,0.693c-0.945,0.72-1.434,1.888-1.323,3.01
		c1.129,11.332,5.606,22.41,13.687,34.019c7.596,10.915,17.504,21.017,27.083,30.787c17.65,18.002,34.323,35.005,35.786,54.722
		c0.132,1.778,1.614,3.157,3.401,3.157h20.736c0.934,0,1.826-0.384,2.471-1.061c0.642-0.677,0.982-1.584,0.935-2.519
		c-0.652-13.182-5.613-26.383-15.166-40.353c-2.002-2.93-4.146-5.779-6.388-8.568c-0.911-1.136-0.53-2.546,0.168-3.258
		c0.688-0.705,1.38-1.409,2.076-2.121c9.58-9.771,19.486-19.872,27.084-30.787c8.08-11.609,12.556-22.624,13.685-33.953
		C168.026,105.889,167.508,104.681,166.59,103.979"/>
	<path clip-path="url(#SVGID_2_)" fill="#59AFE1" d="M82.881,187.103c-0.491-0.513-1.211-1.037-2.421-1.037
		c-1.548,0-2.467,1.07-2.813,1.601c-8.723,13.272-13.227,25.8-13.85,38.389c-0.046,0.928,0.296,1.85,0.939,2.528
		c0.644,0.674,1.548,1.063,2.48,1.063h20.702c1.78,0,3.281-1.394,3.412-3.17c0.451-6.067,2.34-12.149,5.779-18.54
		c1.191-2.211,0.265-4.288-0.421-5.176C93.276,198.323,89.097,193.59,82.881,187.103"/>
	<path clip-path="url(#SVGID_2_)" fill="#59AFE1" d="M105.152,114.138c6.498,0,10.268-0.391,11.592-0.391
		c1.603,0,3.137,1.314,3.137,3.155c0,0.537-0.127,0.92-0.253,1.259c-0.863,2.305-4.79,10.595-12.103,17.706
		c-0.82,0.797-1.75,0.946-2.391,0.946h-0.007c-0.639,0-1.569-0.149-2.388-0.946c-7.313-7.111-11.242-15.401-12.102-17.706
		c-0.127-0.339-0.254-0.722-0.254-1.259c0-1.841,1.534-3.155,3.138-3.155c1.324,0,5.093,0.391,11.588,0.391H105.152z"/>
</g>
</svg>
