<svg id="Layer_1" data-name="Layer 1" xmlns="http://www.w3.org/2000/svg" xmlns:xlink="http://www.w3.org/1999/xlink" viewBox="0 0 265 153"><defs><style>.cls-1{fill:none;}.cls-2{fill:#fff;}.cls-3{clip-path:url(#clip-path);}.cls-4{fill:#808184;}.cls-5{fill:#a6a8ab;}</style><clipPath id="clip-path"><polyline class="cls-1" points="263.79 154.37 263.79 3.83 1.5 3.83"/></clipPath></defs><title>bw-light</title><path class="cls-2" d="M1.5,97.78l7.84-9.39c5.43,4.48,11.12,7.33,18,7.33,5.43,0,8.7-2.16,8.7-5.69v-.18c0-3.36-2.06-5.08-12.15-7.67-12.15-3.1-20-6.46-20-18.44v-.18c0-10.94,8.8-18.18,21.12-18.18a35,35,0,0,1,22.41,7.67l-6.89,10C35.2,59.34,30,57.1,24.86,57.1s-7.76,2.33-7.76,5.26v.17c0,4,2.59,5.26,13,7.93,12.24,3.19,19.13,7.59,19.13,18.1v.17c0,12-9.13,18.71-22.15,18.71A38.37,38.37,0,0,1,1.5,97.78Z"/><path class="cls-2" d="M108.59,97.78l7.84-9.39c5.43,4.48,11.12,7.33,18,7.33,5.44,0,8.71-2.16,8.71-5.69v-.18c0-3.36-2.07-5.08-12.15-7.67-12.16-3.1-20-6.46-20-18.44v-.18c0-10.94,8.79-18.18,21.12-18.18a35,35,0,0,1,22.41,7.67l-6.9,10C142.29,59.34,137,57.1,132,57.1s-7.76,2.33-7.76,5.26v.17c0,4,2.58,5.26,13,7.93,12.24,3.19,19.14,7.59,19.14,18.1v.17c0,12-9.14,18.71-22.15,18.71a38.37,38.37,0,0,1-25.6-9.66Z"/><path class="cls-2" d="M198,81.32l-8-19.57-8,19.57ZM184,45.81h12.24l25.86,60.77H208.27L202.75,93H177.24l-5.52,13.54H158.19L184,45.81Z"/><g class="cls-3"><polygon class="cls-4" points="240 91.64 220.83 45.84 207.17 45.84 206.85 45.98 225.96 91.64 240 91.64 240 91.64"/><polygon class="cls-4" points="206.8 45.84 213.82 62.6 238.36 3.97 238.03 3.83 224.38 3.83 206.79 45.84 206.8 45.84 206.8 45.84"/></g><polygon class="cls-5" points="230.58 45.84 249.75 91.64 263.41 91.64 263.73 91.51 244.62 45.84 230.58 45.84 230.58 45.84"/><polygon class="cls-5" points="263.78 91.64 256.76 74.89 232.22 133.52 232.55 133.65 246.2 133.65 263.79 91.64 263.78 91.64 263.78 91.64"/><polygon class="cls-2" points="70.11 94.77 70.11 82.1 98.55 82.1 98.55 70.29 70.11 70.29 70.11 58.05 56.92 70.03 56.92 106.58 102.86 106.58 102.86 94.77 70.11 94.77 70.11 94.77"/><polygon class="cls-2" points="102.43 46.24 56.92 46.24 56.92 58.05 70.11 58.05 102.43 58.05 102.43 46.24 102.43 46.24"/></svg>