<?xml version="1.0" encoding="utf-8"?>
<!-- Generator: Adobe Illustrator 16.0.0, SVG Export Plug-In . SVG Version: 6.00 Build 0)  -->
<!DOCTYPE svg PUBLIC "-//W3C//DTD SVG 1.1//EN" "http://www.w3.org/Graphics/SVG/1.1/DTD/svg11.dtd">
<svg version="1.1" id="svg5358" xmlns:svg="http://www.w3.org/2000/svg"
	 xmlns="http://www.w3.org/2000/svg" xmlns:xlink="http://www.w3.org/1999/xlink" x="0px" y="0px" width="1033.746px"
	 height="220.695px" viewBox="0 0 1033.746 220.695" enable-background="new 0 0 1033.746 220.695" xml:space="preserve">
<path id="path5056" fill="#FFFFFF" d="M1033.746,99.839v-18.18h-22.576V53.395l-0.76,0.233l-21.205,6.487l-0.418,0.128v21.415
	h-33.469V69.73c0-5.556,1.242-9.807,3.69-12.642c2.431-2.802,5.908-4.225,10.342-4.225c3.189,0,6.49,0.751,9.812,2.232l0.833,0.371
	V36.321l-0.392-0.144c-3.099-1.114-7.315-1.675-12.539-1.675c-6.585,0-12.568,1.432-17.786,4.272
	c-5.221,2.844-9.328,6.903-12.205,12.065c-2.867,5.156-4.322,11.111-4.322,17.702v13.116h-15.72v18.18h15.72v76.589h22.567V99.839
	h33.469v48.671c0,20.045,9.455,30.204,28.102,30.204c3.065,0,6.289-0.36,9.582-1.063c3.352-0.722,5.634-1.443,6.978-2.213
	l0.298-0.175v-18.349l-0.917,0.607c-1.226,0.817-2.75,1.483-4.539,1.979c-1.797,0.505-3.297,0.759-4.458,0.759
	c-4.368,0-7.6-1.178-9.606-3.5c-2.027-2.344-3.056-6.443-3.056-12.178V99.839H1033.746L1033.746,99.839z M866.634,160.26
	c-8.19,0-14.648-2.717-19.199-8.066c-4.579-5.378-6.899-13.044-6.899-22.784c0-10.049,2.32-17.913,6.901-23.386
	c4.554-5.437,10.95-8.195,19.014-8.195c7.825,0,14.054,2.635,18.516,7.836c4.484,5.228,6.76,13.03,6.76,23.196
	c0,10.292-2.141,18.196-6.36,23.484C881.176,157.594,874.874,160.26,866.634,160.26 M867.639,79.376
	c-15.628,0-28.04,4.578-36.889,13.609c-8.844,9.032-13.329,21.531-13.329,37.154c0,14.837,4.377,26.772,13.011,35.467
	c8.634,8.699,20.384,13.105,34.92,13.105c15.149,0,27.314-4.643,36.16-13.799c8.846-9.147,13.326-21.527,13.326-36.785
	c0-15.07-4.205-27.094-12.502-35.731C894.035,83.756,882.359,79.376,867.639,79.376 M781.036,79.375
	c-10.63,0-19.423,2.719-26.141,8.08c-6.757,5.393-10.185,12.466-10.185,21.025c0,4.448,0.74,8.4,2.196,11.752
	c1.465,3.364,3.732,6.324,6.744,8.809c2.989,2.465,7.603,5.048,13.717,7.674c5.139,2.115,8.973,3.905,11.408,5.315
	c2.38,1.381,4.069,2.771,5.023,4.123c0.926,1.324,1.397,3.136,1.397,5.373c0,6.366-4.768,9.464-14.579,9.464
	c-3.639,0-7.79-0.759-12.337-2.258c-4.55-1.496-8.802-3.647-12.634-6.406l-0.937-0.671v21.726l0.344,0.16
	c3.193,1.474,7.219,2.717,11.964,3.695c4.736,0.979,9.039,1.478,12.777,1.478c11.535,0,20.824-2.732,27.602-8.125
	c6.821-5.43,10.278-12.67,10.278-21.526c0-6.388-1.861-11.866-5.53-16.284c-3.642-4.382-9.965-8.404-18.784-11.961
	c-7.026-2.82-11.528-5.161-13.384-6.957c-1.79-1.736-2.699-4.191-2.699-7.301c0-2.756,1.121-4.963,3.425-6.752
	c2.321-1.798,5.552-2.711,9.604-2.711c3.76,0,7.607,0.594,11.433,1.757c3.823,1.164,7.181,2.723,9.984,4.63l0.922,0.63V83.504
	l-0.354-0.152c-2.586-1.109-5.996-2.058-10.137-2.828C788.03,79.761,784.288,79.375,781.036,79.375 M685.879,160.26
	c-8.189,0-14.649-2.717-19.199-8.066c-4.58-5.378-6.896-13.041-6.896-22.784c0-10.049,2.319-17.913,6.901-23.386
	c4.55-5.437,10.945-8.195,19.013-8.195c7.822,0,14.052,2.635,18.514,7.836c4.485,5.228,6.76,13.03,6.76,23.196
	c0,10.292-2.141,18.196-6.361,23.484C700.42,157.594,694.121,160.26,685.879,160.26 M686.885,79.376
	c-15.631,0-28.043,4.578-36.889,13.609c-8.844,9.032-13.331,21.531-13.331,37.154c0,14.844,4.38,26.772,13.014,35.467
	c8.634,8.699,20.383,13.105,34.92,13.105c15.146,0,27.313-4.643,36.16-13.799c8.843-9.147,13.326-21.527,13.326-36.785
	c0-15.07-4.206-27.094-12.505-35.731C713.277,83.756,701.603,79.376,686.885,79.376 M602.409,98.07V81.659h-22.292v94.766h22.292
	v-48.477c0-8.243,1.869-15.015,5.557-20.13c3.641-5.054,8.493-7.614,14.417-7.614c2.008,0,4.262,0.331,6.703,0.986
	c2.416,0.65,4.166,1.357,5.198,2.101l0.937,0.679V81.496l-0.361-0.155c-2.076-0.882-5.013-1.327-8.729-1.327
	c-5.602,0-10.615,1.8-14.909,5.344c-3.769,3.115-6.494,7.387-8.576,12.713H602.409L602.409,98.07z M540.196,79.375
	c-10.227,0-19.349,2.193-27.109,6.517c-7.774,4.332-13.787,10.519-17.878,18.385c-4.073,7.848-6.141,17.014-6.141,27.235
	c0,8.953,2.005,17.171,5.968,24.412c3.965,7.254,9.577,12.929,16.682,16.865c7.094,3.931,15.292,5.925,24.369,5.925
	c10.594,0,19.639-2.119,26.892-6.295l0.293-0.169v-20.423l-0.937,0.685c-3.285,2.392-6.956,4.302-10.906,5.679
	c-3.94,1.375-7.532,2.069-10.682,2.069c-8.747,0-15.769-2.737-20.866-8.132c-5.108-5.404-7.698-12.99-7.698-22.538
	c0-9.607,2.701-17.389,8.024-23.131c5.307-5.726,12.342-8.629,20.907-8.629c7.328,0,14.468,2.481,21.223,7.381l0.934,0.679V84.371
	l-0.301-0.17c-2.543-1.423-6.009-2.598-10.313-3.488C548.371,79.824,544.179,79.375,540.196,79.375 M473.715,81.659h-22.292v94.766
	h22.292V81.659z M462.797,41.288c-3.669,0-6.869,1.248-9.498,3.724c-2.64,2.482-3.979,5.607-3.979,9.295
	c0,3.63,1.323,6.697,3.938,9.113c2.598,2.409,5.808,3.63,9.54,3.63c3.731,0,6.954-1.221,9.582-3.626
	c2.646-2.42,3.988-5.487,3.988-9.117c0-3.559-1.306-6.652-3.879-9.195C469.918,42.574,466.657,41.288,462.797,41.288
	 M407.177,74.667v101.758h22.75V44.189H398.44l-40.022,98.221l-38.839-98.221H286.81v132.235h21.379V74.657h0.734l41.013,101.768
	h16.134l40.373-101.758H407.177L407.177,74.667z"/>
<path id="path5058" fill="#F1511B" d="M104.868,104.868H0V0h104.868V104.868z"/>
<path id="path5060" fill="#80CC28" d="M220.654,104.868H115.788V0h104.866V104.868z"/>
<path id="path5062" fill="#00ADEF" d="M104.865,220.695H0V115.828h104.865V220.695z"/>
<path id="path5064" fill="#FBBC09" d="M220.654,220.695H115.788V115.828h104.866V220.695z"/>
</svg>
