<svg xmlns="http://www.w3.org/2000/svg" xmlns:xlink="http://www.w3.org/1999/xlink" version="1.1" width="80" height="80" style="display: block;"><rect id="backgroundrect" width="100%" height="100%" x="0" y="0" fill="none" stroke="none" class=""/><g class="currentLayer"><title>Layer 1</title><g id="svgg" class="selected"><path id="path0" d="M72.48120298533927,30.767426689359674 C71.48529412406718,31.163628197436594 70.86907030451925,32.3960798630867 70.86907030451925,33.9925574366355 L70.86907030451925,34.61714261656569 L70.31316248354683,34.61714261656569 L69.75725466257441,34.61714261656569 L69.75725466257441,35.43730497404976 L69.75725466257441,36.257467331533846 L70.31316248354683,36.257467331533846 L70.86907030451925,36.257467331533846 L70.86907030451925,39.53811676147014 L70.86907030451925,42.81876619140644 L71.81411360017239,42.81876619140644 L72.7591568958255,42.81876619140644 L72.7591568958255,39.53811676147014 L72.7591568958255,36.257467331533846 L73.91878061037397,36.257467331533846 L75.07812637101196,36.257467331533846 L75.11398242546468,38.94854620526332 C75.15567551203762,42.096707869759875 75.25907436673849,42.454109389386595 76.25498322801057,42.88564096824745 C76.75863571381159,43.10393033416244 78.10671217966973,43.10834659301043 78.41412920466749,42.892580803579996 C78.66512158583652,42.71656134378151 78.57756610403335,41.02103339321346 78.32546190722235,41.1740252175903 C77.24588891889393,41.82983965651698 76.93597030870178,41.25446421803586 76.89372131430787,38.51575283816018 L76.8589770754971,36.257467331533846 L77.69978765471791,36.257467331533846 L78.5405982339387,36.257467331533846 L78.5405982339387,35.43730497404976 L78.5405982339387,34.61714261656569 L77.70673650248006,34.61714261656569 L76.87287477102143,34.61714261656569 L76.87287477102143,33.41844378639666 C76.87287477102143,32.75915942980368 76.84341165650989,32.21974495622762 76.80755560205715,32.21974495622762 C76.77169954760446,32.21974495622762 76.37144591650431,32.34213841572909 75.91810308850128,32.49166032243965 L75.09396974390967,32.763260241591105 L75.09396974390967,33.69035915260868 L75.09396974390967,34.61714261656569 L73.92656331986757,34.61714261656569 L72.7591568958255,34.61714261656569 L72.7591568958255,33.82505504747242 C72.7591568958255,32.64118222915021 73.35370031035549,32.00271737855492 74.14003192312099,32.34213841572909 C74.30569245377077,32.41374489847866 74.46301436710597,32.47210260468426 74.48969794251263,32.47210260468426 C74.64618599411638,32.47210260468426 74.52360831959196,30.726418571485468 74.36211709759948,30.65607387697817 C74.04941894830249,30.519800746811583 72.93815921417861,30.585729182470885 72.48120298533927,30.767426689359674 M35.126976955097334,31.221039562460476 C33.974857996131995,31.60020692926657 34.29367113145968,33.48153319851082 35.50971948983686,33.48153319851082 C36.15262688479146,33.48153319851082 36.513966968423546,33.06009592558822 36.513966968423546,32.31059370967201 C36.513966968423546,31.451315916677167 35.89746519496512,30.967104678700984 35.126976955097334,31.221039562460476 M22.171545187335028,37.073528877230494 L22.171545187335028,42.81876619140644 L23.00401714924123,42.81876619140644 L23.836211157236942,42.81876619140644 L23.865674271748485,38.536256897097275 L23.894859432349545,34.25343215572756 L25.41304369142522,38.504712191040205 L26.9315059044114,42.75567677929227 L27.597205520025874,42.792899532439634 L28.26290513564035,42.83012228558698 L29.107607069607944,40.39550187210156 C29.572346007940894,39.05642909997853 30.252221272990166,37.109174395074994 30.618286573100505,36.06819909519138 L31.284264142625467,34.17551673176657 L31.286209819998874,38.49714146158651 L31.28843345128277,42.81876619140644 L32.177885964838644,42.81876619140644 L33.067338478394525,42.81876619140644 L33.067338478394525,37.07762968901791 L33.067338478394525,31.33649318662939 L31.855459428674628,31.33649318662939 L30.643580378954756,31.33649318662939 L30.26250556767815,32.377468486513024 C30.052650365261055,32.95000490144903 29.386394841825624,34.7953702057882 28.781567132607616,36.4782802739334 C28.176739423389627,38.161190342078605 27.65196244039166,39.53811676147014 27.615550478117964,39.53811676147014 C27.57886056193379,39.53811676147014 26.92427910273876,37.706946574856644 26.161017664543618,35.46884968010684 L24.773193789485962,31.399582598743557 L23.472369488410493,31.36393708089905 L22.171545187335028,31.328607010115114 L22.171545187335028,37.073528877230494 M40.29108265802066,34.52850199254529 C36.992603602280795,35.37642369135959 36.34830643777376,40.90053261607542 39.342148007620736,42.665458919969026 C40.072054976557524,43.0957287105876 41.795925129393005,43.153770969732626 42.65674839016881,42.77681173235053 L43.18486082009262,42.545589036952116 L43.18486082009262,41.609657608238564 C43.18486082009262,41.09484800538703 43.16595995417954,40.67372617952501 43.14261182569871,40.67372617952501 C43.11954165112835,40.67372617952501 42.81490416523546,40.82198629799329 42.46579405366478,41.003683804882066 C40.55263728778819,41.997342045680085 38.93022031228017,40.44344982530833 39.39912855927041,38.06624077684678 C39.73517483704825,36.36124941446163 41.18053517157654,35.695971563717826 42.65813815972124,36.56597455677208 L43.19375534522816,36.88142161734288 L43.161512691611776,35.85621867048778 L43.12927003799536,34.83101572363269 L42.684543781217435,34.654996263834185 C42.043582063636215,34.401061380074694 41.00097694540245,34.345858144474796 40.29108265802066,34.52850199254529 M51.5729539307455,34.48749387467109 C49.759860572643944,34.79757833521218 48.67222692091139,36.227184413719044 48.54937129247649,38.46244228492372 C48.38954779394691,41.369917842204764 49.70176820535232,43.00803442774892 52.19056751984585,43.00803442774892 C54.594312937730614,43.00803442774892 55.84177008799273,41.683472220412135 55.9473925739775,39.019206346831176 C56.07636318844308,35.76158455231654 54.382790011850595,34.007068001421764 51.5729539307455,34.48749387467109 M58.672174758473815,34.49001745115566 C57.41665694480759,34.79063849987963 56.74901165181971,35.6669504341453 56.74901165181971,37.01454027690375 C56.74901165181971,38.297778919305756 57.08255634440317,38.74634463943744 58.66522591071167,39.59268910294888 C59.544672083490035,40.06302067025995 59.7914951560018,40.35070838950052 59.73006734178432,40.8349196274767 C59.6280582566359,41.64025597311394 58.37976724464232,41.58221371396891 56.83239782496558,40.70022373261296 C56.78653542973537,40.67404162658558 56.74901165181971,41.106204099567584 56.74901165181971,41.660444584990465 L56.74901165181971,42.6679824964536 L57.1103517354518,42.8159271678613 C60.96918587473188,44.39694783544214 63.37126356915371,39.865550810342626 59.68726243956945,37.95394162328358 C58.77640747490616,37.481401926548536 58.527916678931476,37.239138584030165 58.527916678931476,36.82337935819785 C58.527916678931476,36.145799072091776 59.59164629436221,35.91173735314825 60.513619415444985,36.38648517930729 C61.1962742195991,36.73789320478316 61.1962742195991,36.73820865184373 61.1962742195991,35.70196505786866 C61.1962742195991,34.77108078212423 61.19516240395718,34.767610864457964 60.85188932450669,34.63165318135194 C60.35324000909443,34.434498768495196 59.213906930011454,34.36036870926105 58.672174758473815,34.49001745115566 M65.17657421776165,34.50105809827564 C62.88206468669798,34.8827490415663 61.58318606299592,37.650796998075045 62.368683814029936,40.484773390243106 C63.3228995887291,43.927878056373366 68.33329677915356,43.94301951528075 69.38979959291164,40.50590834330134 C70.35096421537297,37.37982797304474 68.4658807944555,34.0509151428411 65.9214906978647,34.381188215258724 C65.86034083755773,34.38907439177299 65.52512842151137,34.44301583913061 65.17657421776165,34.50105809827564 M47.0111743518458,34.667298699196444 C46.822443646625665,34.76224826442825 46.535317257093396,35.03100916003458 46.37299217336947,35.264755431917536 L46.07808307434359,35.689662622506404 L46.076693304791156,35.15340261953604 L46.0755814891492,34.61714261656569 L45.186128975593334,34.61714261656569 L44.29667646203745,34.61714261656569 L44.29667646203745,38.717954403986056 L44.29667646203745,42.81876619140644 L45.174454911352896,42.81876619140644 L46.052511314578844,42.81876619140644 L46.0978178019881,40.32673441289713 C46.16313697095235,36.72590621648147 46.738223611748346,35.75811463465026 48.33173338056577,36.56597455677208 C48.515738869307654,36.65934688670104 48.52852474919002,36.586794062769755 48.498505726857516,35.61048541030313 L48.46598511933064,34.554053204451534 L47.91007729835821,34.52440118075788 C47.60432799682336,34.50831338066877 47.199905057065926,34.572664581025194 47.0111743518458,34.667298699196444 M34.6238803771173,38.717954403986056 L34.6238803771173,42.81876619140644 L35.513332890673176,42.81876619140644 L36.40278540422906,42.81876619140644 L36.40278540422906,38.717954403986056 L36.40278540422906,34.61714261656569 L35.513332890673176,34.61714261656569 L34.6238803771173,34.61714261656569 L34.6238803771173,38.717954403986056 M53.08418934205902,36.415190861819234 C54.36639073113192,37.148920724706905 54.497029069060446,40.20781087106193 53.28209252632521,41.04847728748312 C52.02101563444928,41.921003857021944 50.56870645215882,40.93617813391992 50.441681515066605,39.12235753563783 C50.286583233015314,36.90539559394626 51.59630205922633,35.56379924533865 53.08418934205902,36.415190861819234 M66.93296497812399,36.51739570944417 C67.9191454525291,37.20917111327593 68.04561448180033,39.6649264798196 67.15199265958715,40.771514768301955 C66.38734145183959,41.7184868441355 64.8608185754493,41.435846277864066 64.32158798910606,40.24787264775444 C63.2384015999413,37.86056929335464 65.08568328903266,35.22185463167991 66.93296497812399,36.51739570944417 " stroke="none" fill="#ffffff" fill-rule="evenodd"/><path id="path1" d="M0.6023217336050211,32.21974495622762 L0.6023217336050211,36.762182628447114 L4.60485804460646,36.762182628447114 L8.607394355607914,36.762182628447114 L8.607394355607914,32.21974495622762 L8.607394355607914,27.67730728400813 L4.60485804460646,27.67730728400813 L0.6023217336050211,27.67730728400813 L0.6023217336050211,32.21974495622762 " stroke="none" fill="#f25022" fill-rule="evenodd"/><path id="path2" d="M9.274483740774812,42.06169324603653 L9.274483740774812,46.60413091825602 L13.277020051776265,46.60413091825602 L17.279556362777708,46.60413091825602 L17.279556362777708,42.06169324603653 L17.279556362777708,37.519255573817034 L13.277020051776265,37.519255573817034 L9.274483740774812,37.519255573817034 L9.274483740774812,42.06169324603653 " stroke="none" fill="#ffb900" fill-rule="evenodd"/><path id="path3" d="M9.274483740774812,32.21974495622762 L9.274483740774812,36.762182628447114 L13.277020051776265,36.762182628447114 L17.279556362777708,36.762182628447114 L17.279556362777708,32.21974495622762 L17.279556362777708,27.67730728400813 L13.277020051776265,27.67730728400813 L9.274483740774812,27.67730728400813 L9.274483740774812,32.21974495622762 " stroke="none" fill="#7fba00" fill-rule="evenodd"/><path id="path4" d="M0.6023217336050211,42.06169324603653 L0.6023217336050211,46.60413091825602 L4.60485804460646,46.60413091825602 L8.607394355607914,46.60413091825602 L8.607394355607914,42.06169324603653 L8.607394355607914,37.519255573817034 L4.60485804460646,37.519255573817034 L0.6023217336050211,37.519255573817034 L0.6023217336050211,42.06169324603653 " stroke="none" fill="#00a4ef" fill-rule="evenodd"/></g></g></svg>