<?xml version="1.0" encoding="UTF-8" standalone="no"?>
<svg
   xmlns:dc="http://purl.org/dc/elements/1.1/"
   xmlns:cc="http://creativecommons.org/ns#"
   xmlns:rdf="http://www.w3.org/1999/02/22-rdf-syntax-ns#"
   xmlns:svg="http://www.w3.org/2000/svg"
   xmlns="http://www.w3.org/2000/svg"
   xmlns:sodipodi="http://sodipodi.sourceforge.net/DTD/sodipodi-0.dtd"
   xmlns:inkscape="http://www.inkscape.org/namespaces/inkscape"
   id="Layer_3"
   data-name="Layer 3"
   viewBox="0 0 377.85736 492.24454"
   version="1.1"
   inkscape:version="0.91 r13725"
   sodipodi:docname="oly-logo.svg"
   width="377.85736"
   height="492.24454">
  <metadata
     id="metadata36">
    <rdf:RDF>
      <cc:Work
         rdf:about="">
        <dc:format>image/svg+xml</dc:format>
        <dc:type
           rdf:resource="http://purl.org/dc/dcmitype/StillImage" />
        <dc:title>oly-logo</dc:title>
      </cc:Work>
    </rdf:RDF>
  </metadata>
  <sodipodi:namedview
     pagecolor="#ffffff"
     bordercolor="#666666"
     borderopacity="1"
     objecttolerance="10"
     gridtolerance="10"
     guidetolerance="10"
     inkscape:pageopacity="0"
     inkscape:pageshadow="2"
     inkscape:window-width="1198"
     inkscape:window-height="876"
     id="namedview34"
     showgrid="false"
     fit-margin-top="0"
     fit-margin-left="0"
     fit-margin-right="0"
     fit-margin-bottom="0"
     inkscape:zoom="1.1416667"
     inkscape:cx="183.6478"
     inkscape:cy="21.232713"
     inkscape:window-x="0"
     inkscape:window-y="0"
     inkscape:window-maximized="0"
     inkscape:current-layer="Layer_3" />
  <defs
     id="defs3">
    <style
       id="style5">.cls-1{fill:#73b8c8;}.cls-2{font-size:81.3px;font-family:Proxima Nova;}.cls-2,.cls-7{fill:#fff;}.cls-3{font-weight:700;}.cls-4{letter-spacing:-10px;}.cls-5{font-size:67.75px;}.cls-6{letter-spacing:-3px;}.cls-7{fill-rule:evenodd;}</style>
  </defs>
  <title
     id="title7">oly-logo</title>
  <g
     style="font-size:81.30000305px;font-family:'Proxima Nova';fill:#ffffff;fill-opacity:1"
     id="text11">
    <path
       d="m 34.247921,375.38089 q -6.986719,0 -10.837354,5.16065 -3.850635,5.16064 -3.850635,14.5292 0,9.32886 3.850635,14.4895 3.850635,5.16065 10.837354,5.16065 7.026416,0 10.877051,-5.16065 3.850635,-5.16064 3.850635,-14.4895 0,-9.36856 -3.850635,-14.5292 -3.850635,-5.16065 -10.877051,-5.16065 z m 0,-11.07553 q 14.291016,0 22.389258,8.17763 8.098243,8.17764 8.098243,22.58775 0,14.37041 -8.098243,22.54805 -8.098242,8.17763 -22.389258,8.17763 -14.251319,0 -22.389259,-8.17763 -8.0982426,-8.17764 -8.0982426,-22.54805 0,-14.41011 8.0982426,-22.58775 8.13794,-8.17763 22.389259,-8.17763 z"
       style="font-weight:700;fill:#ffffff;fill-opacity:1"
       id="path4165" />
    <path
       d="m 69.364385,365.37718 15.283448,0 0,47.71612 26.835357,0 0,11.5519 -42.118805,0 0,-59.26802 z"
       style="letter-spacing:-10px;fill:#ffffff;fill-opacity:1"
       id="path4167" />
    <path
       d="m 93.30735,365.37718 16.71255,0 13.49707,21.11895 13.49707,-21.11895 16.75225,0 -22.58775,34.29844 0,24.96958 -15.28344,0 0,-24.96958 -22.58775,-34.29844 z"
       style="fill:#ffffff;fill-opacity:1"
       id="path4169" />
    <path
       d="m 160.31634,365.37718 19.45166,0 13.49707,31.71812 13.57647,-31.71812 19.41196,0 0,59.26802 -14.44981,0 0,-43.34941 -13.65586,31.9563 -9.68613,0 -13.65586,-31.9563 0,43.34941 -14.4895,0 0,-59.26802 z"
       style="fill:#ffffff;fill-opacity:1"
       id="path4171" />
    <path
       d="m 241.13997,365.37718 25.36656,0 q 11.31372,0 17.3477,5.04156 6.07369,5.00185 6.07369,14.29101 0,9.32886 -6.07369,14.37041 -6.03398,5.00186 -17.3477,5.00186 l -10.08311,0 0,20.56318 -15.28345,0 0,-59.26802 z m 15.28345,11.07554 0,16.55376 8.45552,0 q 4.44609,0 6.86763,-2.14365 2.42153,-2.18335 2.42153,-6.15308 0,-3.96972 -2.42153,-6.11338 -2.42154,-2.14365 -6.86763,-2.14365 l -8.45552,0 z"
       style="fill:#ffffff;fill-opacity:1"
       id="path4173" />
    <path
       d="m 300.68587,365.37718 15.28345,0 0,59.26802 -15.28345,0 0,-59.26802 z"
       style="fill:#ffffff;fill-opacity:1"
       id="path4175" />
    <path
       d="m 377.85737,421.39003 q -4.20791,2.18335 -8.77309,3.29487 -4.56519,1.11152 -9.52735,1.11152 -14.80708,0 -23.46108,-8.25703 -8.65401,-8.29673 -8.65401,-22.46865 0,-14.21162 8.65401,-22.46865 8.654,-8.29673 23.46108,-8.29673 4.96216,0 9.52735,1.11152 4.56518,1.11152 8.77309,3.29487 l 0,12.26646 q -4.2476,-2.8979 -8.37612,-4.24761 -4.12852,-1.34971 -8.6937,-1.34971 -8.17764,0 -12.86192,5.24004 -4.68427,5.24004 -4.68427,14.44981 0,9.17007 4.68427,14.41011 4.68428,5.24004 12.86192,5.24004 4.56518,0 8.6937,-1.34971 4.12852,-1.34971 8.37612,-4.24761 l 0,12.26646 z"
       style="fill:#ffffff;fill-opacity:1"
       id="path4177" />
    <path
       d="m 36.688134,443.51614 0,6.51697 q -3.804321,-1.81946 -7.178589,-2.71264 -3.374267,-0.89319 -6.516968,-0.89319 -5.458374,0 -8.435668,2.11718 -2.944214,2.11719 -2.944214,6.02076 0,3.27502 1.951782,4.96215 1.984863,1.65406 7.476318,2.67957 l 4.035889,0.82703 q 7.476318,1.42248 11.015991,5.02832 3.572754,3.57275 3.572754,9.5935 0,7.17859 -4.829834,10.88367 -4.796753,3.70508 -14.092529,3.70508 -3.506592,0 -7.476319,-0.79395 -3.9366451,-0.79394 -8.1710201,-2.34875 l 0,-6.88086 q 4.0689697,2.28259 7.9725341,3.44043 3.903565,1.15783 7.674805,1.15783 5.723022,0 8.832641,-2.24951 3.109619,-2.24951 3.109619,-6.41772 0,-3.63892 -2.249511,-5.68994 -2.216431,-2.05103 -7.310913,-3.07654 l -4.06897,-0.79395 q -7.476318,-1.48864 -10.8175049,-4.66443 -3.3411866,-3.17578 -3.3411866,-8.83264 0,-6.55005 4.5982667,-10.32129 4.6313478,-3.77124 12.7362058,-3.77124 3.473511,0 7.079346,0.62854 3.605835,0.62854 7.377075,1.88562 z"
       style="fill:#ffffff;fill-opacity:1"
       id="path4179" />
    <path
       d="m 70.265405,446.42728 q -7.277832,0 -11.57837,5.42529 -4.267456,5.42529 -4.267456,14.78723 0,9.32886 4.267456,14.75415 4.300538,5.42529 11.57837,5.42529 7.277832,0 11.512207,-5.42529 4.267456,-5.42529 4.267456,-14.75415 0,-9.36194 -4.267456,-14.78723 -4.234375,-5.42529 -11.512207,-5.42529 z m 0,-5.4253 q 10.387451,0 16.606689,6.98011 6.219238,6.94702 6.219238,18.65771 0,11.67761 -6.219238,18.65772 -6.219238,6.94702 -16.606689,6.94702 -10.420533,0 -16.672852,-6.94702 -6.219238,-6.94703 -6.219238,-18.65772 0,-11.71069 6.219238,-18.65771 6.252319,-6.98011 16.672852,-6.98011 z"
       style="fill:#ffffff;fill-opacity:1"
       id="path4181" />
    <path
       d="m 103.54495,441.89517 28.38354,0 0,5.62378 -21.70117,0 0,14.55567 19.58398,0 0,5.62377 -19.58398,0 0,23.5868 -6.68237,0 0,-49.39002 z"
       style="fill:#ffffff;fill-opacity:1"
       id="path4183" />
    <path
       d="m 134.47573,441.89517 41.78137,0 0,5.62378 -17.53296,0 0,43.76624 -6.71545,0 0,-43.76624 -17.53296,0 0,-5.62378 z"
       style="fill:#ffffff;fill-opacity:1"
       id="path4185" />
    <path
       d="m 168.73082,441.89517 6.74853,0 10.38746,41.74829 10.35437,-41.74829 7.5094,0 10.38745,41.74829 10.35437,-41.74829 6.78161,0 -12.40539,49.39002 -8.40259,0 -10.42053,-42.87305 -10.51978,42.87305 -8.40259,0 -12.37231,-49.39002 z"
       style="letter-spacing:-3px;fill:#ffffff;fill-opacity:1"
       id="path4187" />
    <path
       d="m 245.04803,448.4783 -9.0642,24.57923 18.16149,0 -9.09729,-24.57923 z m -3.77124,-6.58313 7.57557,0 18.82312,49.39002 -6.94703,0 -4.49902,-12.67005 -22.26355,0 -4.49902,12.67005 -7.04627,0 18.8562,-49.39002 z"
       style="fill:#ffffff;fill-opacity:1"
       id="path4189" />
    <path
       d="m 298.27545,468.12845 q 2.15027,0.72778 4.16821,3.10962 2.05103,2.38183 4.10206,6.55005 l 6.78161,13.49707 -7.17859,0 -6.31848,-12.67005 q -2.448,-4.96216 -4.76367,-6.58313 -2.28259,-1.62097 -6.25232,-1.62097 l -7.27783,0 0,20.87415 -6.68238,0 0,-49.39002 15.08497,0 q 8.46875,0 12.63696,3.53967 4.16821,3.53968 4.16821,10.68519 0,4.66442 -2.18335,7.74096 -2.15027,3.07654 -6.2854,4.26746 z m -16.73901,-20.74182 0,17.53296 8.40259,0 q 4.82983,0 7.27783,-2.21643 2.48108,-2.24952 2.48108,-6.58313 0,-4.33362 -2.48108,-6.51697 -2.448,-2.21643 -7.27783,-2.21643 l -8.40259,0 z"
       style="fill:#ffffff;fill-opacity:1"
       id="path4191" />
    <path
       d="m 321.96149,441.89517 31.22851,0 0,5.62378 -24.54614,0 0,14.62183 23.52063,0 0,5.62378 -23.52063,0 0,17.89685 25.1416,0 0,5.62378 -31.82397,0 0,-49.39002 z"
       style="fill:#ffffff;fill-opacity:1"
       id="path4193" />
  </g>
  <g
     id="Layer_2"
     data-name="Layer 2"
     transform="translate(-301.9287,-28.164802)">
    <path
       class="cls-7"
       d="m 315.4,263.92 c 3.29,-84 135.17,-65.3 135.17,-65.3 0,0 42.43,131.73 129.56,138.18 -121.23,86.59 -243.69,0.12 -264.73,-72.88 z"
       id="path28"
       inkscape:connector-curvature="0"
       style="fill:#ffffff;fill-rule:evenodd" />
    <path
       class="cls-7"
       d="m 609.19,304.78 c -74.4,39.15 -124.64,-83 -124.64,-83 0,0 92.87,-102.6 54.89,-181.29 135.56,61.69 122.45,209.57 69.75,264.29 z"
       id="path30"
       inkscape:connector-curvature="0"
       style="fill:#ffffff;fill-rule:evenodd" />
    <path
       class="cls-7"
       d="m 497,31.25 c 71.09,44.86 -9.56,149.44 -9.56,149.44 0,0 -135.33,-29.13 -184.44,43.11 C 288.58,75.53 423.22,13 497,31.25 Z"
       id="path32"
       inkscape:connector-curvature="0"
       style="fill:#ffffff;fill-rule:evenodd" />
  </g>
</svg>
