<?xml version="1.0" encoding="UTF-8" standalone="no"?>
<!-- Generator: Adobe Illustrator 16.0.0, SVG Export Plug-In . SVG Version: 6.00 Build 0)  -->

<svg
   xmlns:dc="http://purl.org/dc/elements/1.1/"
   xmlns:cc="http://creativecommons.org/ns#"
   xmlns:rdf="http://www.w3.org/1999/02/22-rdf-syntax-ns#"
   xmlns:svg="http://www.w3.org/2000/svg"
   xmlns="http://www.w3.org/2000/svg"
   xmlns:sodipodi="http://sodipodi.sourceforge.net/DTD/sodipodi-0.dtd"
   xmlns:inkscape="http://www.inkscape.org/namespaces/inkscape"
   version="1.1"
   id="Layer_1"
   x="0px"
   y="0px"
   width="841.89px"
   height="595.28px"
   viewBox="0 0 841.89 595.28"
   enable-background="new 0 0 841.89 595.28"
   xml:space="preserve"
   inkscape:version="0.91 r13725"
   sodipodi:docname="orion.svg"><metadata
     id="metadata37"><rdf:RDF><cc:Work
         rdf:about=""><dc:format>image/svg+xml</dc:format><dc:type
           rdf:resource="http://purl.org/dc/dcmitype/StillImage" /></cc:Work></rdf:RDF></metadata><defs
     id="defs35"><filter
       style="color-interpolation-filters:sRGB;"
       inkscape:label="Fade to Black or White"
       id="filter4906"><feColorMatrix
         values="1 0 0 0 0 0 1 0 0 0 0 0 1 0 0 0 0 0 1 0"
         id="feColorMatrix4908"
         result="fbSourceGraphic" /><feColorMatrix
         result="fbSourceGraphicAlpha"
         in="fbSourceGraphic"
         values="0 0 0 -1 0 0 0 0 -1 0 0 0 0 -1 0 0 0 0 1 0"
         id="feColorMatrix4950" /><feColorMatrix
         id="feColorMatrix4952"
         values="1 0 0 0 0 0 1 0 0 0 0 0 1 0 0 0 0 0 1 0"
         in="fbSourceGraphic"
         result="fbSourceGraphic" /><feColorMatrix
         result="fbSourceGraphicAlpha"
         in="fbSourceGraphic"
         values="0 0 0 -1 0 0 0 0 -1 0 0 0 0 -1 0 0 0 0 1 0"
         id="feColorMatrix5170" /><feColorMatrix
         id="feColorMatrix5172"
         values="0 0 0 0 1 0 0 0 0 1 0 0 0 0 1 0 0 0 1 0"
         in="fbSourceGraphic" /></filter><filter
       style="color-interpolation-filters:sRGB;"
       inkscape:label="Fade to Black or White"
       id="filter4910"><feColorMatrix
         values="1 0 0 0 0 0 1 0 0 0 0 0 1 0 0 0 0 0 1 0"
         id="feColorMatrix4912"
         result="fbSourceGraphic" /><feColorMatrix
         result="fbSourceGraphicAlpha"
         in="fbSourceGraphic"
         values="0 0 0 -1 0 0 0 0 -1 0 0 0 0 -1 0 0 0 0 1 0"
         id="feColorMatrix4954" /><feColorMatrix
         id="feColorMatrix4956"
         values="1 0 0 0 0 0 1 0 0 0 0 0 1 0 0 0 0 0 1 0"
         in="fbSourceGraphic"
         result="fbSourceGraphic" /><feColorMatrix
         result="fbSourceGraphicAlpha"
         in="fbSourceGraphic"
         values="0 0 0 -1 0 0 0 0 -1 0 0 0 0 -1 0 0 0 0 1 0"
         id="feColorMatrix5174" /><feColorMatrix
         id="feColorMatrix5176"
         values="0 0 0 0 1 0 0 0 0 1 0 0 0 0 1 0 0 0 1 0"
         in="fbSourceGraphic" /></filter><filter
       style="color-interpolation-filters:sRGB;"
       inkscape:label="Fade to Black or White"
       id="filter4914"><feColorMatrix
         values="1 0 0 0 0 0 1 0 0 0 0 0 1 0 0 0 0 0 1 0"
         id="feColorMatrix4916"
         result="fbSourceGraphic" /><feColorMatrix
         result="fbSourceGraphicAlpha"
         in="fbSourceGraphic"
         values="0 0 0 -1 0 0 0 0 -1 0 0 0 0 -1 0 0 0 0 1 0"
         id="feColorMatrix4958" /><feColorMatrix
         id="feColorMatrix4960"
         values="1 0 0 0 0 0 1 0 0 0 0 0 1 0 0 0 0 0 1 0"
         in="fbSourceGraphic"
         result="fbSourceGraphic" /><feColorMatrix
         result="fbSourceGraphicAlpha"
         in="fbSourceGraphic"
         values="0 0 0 -1 0 0 0 0 -1 0 0 0 0 -1 0 0 0 0 1 0"
         id="feColorMatrix5178" /><feColorMatrix
         id="feColorMatrix5180"
         values="0 0 0 0 1 0 0 0 0 1 0 0 0 0 1 0 0 0 1 0"
         in="fbSourceGraphic" /></filter><filter
       style="color-interpolation-filters:sRGB;"
       inkscape:label="Fade to Black or White"
       id="filter4918"><feColorMatrix
         values="1 0 0 0 0 0 1 0 0 0 0 0 1 0 0 0 0 0 1 0"
         id="feColorMatrix4920"
         result="fbSourceGraphic" /><feColorMatrix
         result="fbSourceGraphicAlpha"
         in="fbSourceGraphic"
         values="0 0 0 -1 0 0 0 0 -1 0 0 0 0 -1 0 0 0 0 1 0"
         id="feColorMatrix4962" /><feColorMatrix
         id="feColorMatrix4964"
         values="1 0 0 0 0 0 1 0 0 0 0 0 1 0 0 0 0 0 1 0"
         in="fbSourceGraphic"
         result="fbSourceGraphic" /><feColorMatrix
         result="fbSourceGraphicAlpha"
         in="fbSourceGraphic"
         values="0 0 0 -1 0 0 0 0 -1 0 0 0 0 -1 0 0 0 0 1 0"
         id="feColorMatrix5182" /><feColorMatrix
         id="feColorMatrix5184"
         values="0 0 0 0 1 0 0 0 0 1 0 0 0 0 1 0 0 0 1 0"
         in="fbSourceGraphic" /></filter><filter
       style="color-interpolation-filters:sRGB;"
       inkscape:label="Fade to Black or White"
       id="filter4922"><feColorMatrix
         values="1 0 0 0 0 0 1 0 0 0 0 0 1 0 0 0 0 0 1 0"
         id="feColorMatrix4924"
         result="fbSourceGraphic" /><feColorMatrix
         result="fbSourceGraphicAlpha"
         in="fbSourceGraphic"
         values="0 0 0 -1 0 0 0 0 -1 0 0 0 0 -1 0 0 0 0 1 0"
         id="feColorMatrix4966" /><feColorMatrix
         id="feColorMatrix4968"
         values="1 0 0 0 0 0 1 0 0 0 0 0 1 0 0 0 0 0 1 0"
         in="fbSourceGraphic"
         result="fbSourceGraphic" /><feColorMatrix
         result="fbSourceGraphicAlpha"
         in="fbSourceGraphic"
         values="0 0 0 -1 0 0 0 0 -1 0 0 0 0 -1 0 0 0 0 1 0"
         id="feColorMatrix5186" /><feColorMatrix
         id="feColorMatrix5188"
         values="0 0 0 0 1 0 0 0 0 1 0 0 0 0 1 0 0 0 1 0"
         in="fbSourceGraphic" /></filter><filter
       style="color-interpolation-filters:sRGB;"
       inkscape:label="Fade to Black or White"
       id="filter4926"><feColorMatrix
         values="1 0 0 0 0 0 1 0 0 0 0 0 1 0 0 0 0 0 1 0"
         id="feColorMatrix4928"
         result="fbSourceGraphic" /><feColorMatrix
         result="fbSourceGraphicAlpha"
         in="fbSourceGraphic"
         values="0 0 0 -1 0 0 0 0 -1 0 0 0 0 -1 0 0 0 0 1 0"
         id="feColorMatrix4970" /><feColorMatrix
         id="feColorMatrix4972"
         values="1 0 0 0 0 0 1 0 0 0 0 0 1 0 0 0 0 0 1 0"
         in="fbSourceGraphic"
         result="fbSourceGraphic" /><feColorMatrix
         result="fbSourceGraphicAlpha"
         in="fbSourceGraphic"
         values="0 0 0 -1 0 0 0 0 -1 0 0 0 0 -1 0 0 0 0 1 0"
         id="feColorMatrix5190" /><feColorMatrix
         id="feColorMatrix5192"
         values="0 0 0 0 1 0 0 0 0 1 0 0 0 0 1 0 0 0 1 0"
         in="fbSourceGraphic" /></filter><filter
       style="color-interpolation-filters:sRGB;"
       inkscape:label="Fade to Black or White"
       id="filter4930"><feColorMatrix
         values="1 0 0 0 0 0 1 0 0 0 0 0 1 0 0 0 0 0 1 0"
         id="feColorMatrix4932"
         result="fbSourceGraphic" /><feColorMatrix
         result="fbSourceGraphicAlpha"
         in="fbSourceGraphic"
         values="0 0 0 -1 0 0 0 0 -1 0 0 0 0 -1 0 0 0 0 1 0"
         id="feColorMatrix4974" /><feColorMatrix
         id="feColorMatrix4976"
         values="1 0 0 0 0 0 1 0 0 0 0 0 1 0 0 0 0 0 1 0"
         in="fbSourceGraphic"
         result="fbSourceGraphic" /><feColorMatrix
         result="fbSourceGraphicAlpha"
         in="fbSourceGraphic"
         values="0 0 0 -1 0 0 0 0 -1 0 0 0 0 -1 0 0 0 0 1 0"
         id="feColorMatrix5194" /><feColorMatrix
         id="feColorMatrix5196"
         values="0 0 0 0 1 0 0 0 0 1 0 0 0 0 1 0 0 0 1 0"
         in="fbSourceGraphic" /></filter><filter
       style="color-interpolation-filters:sRGB;"
       inkscape:label="Fade to Black or White"
       id="filter4934"><feColorMatrix
         values="1 0 0 0 0 0 1 0 0 0 0 0 1 0 0 0 0 0 1 0"
         id="feColorMatrix4936"
         result="fbSourceGraphic" /><feColorMatrix
         result="fbSourceGraphicAlpha"
         in="fbSourceGraphic"
         values="0 0 0 -1 0 0 0 0 -1 0 0 0 0 -1 0 0 0 0 1 0"
         id="feColorMatrix4978" /><feColorMatrix
         id="feColorMatrix4980"
         values="1 0 0 0 0 0 1 0 0 0 0 0 1 0 0 0 0 0 1 0"
         in="fbSourceGraphic"
         result="fbSourceGraphic" /><feColorMatrix
         result="fbSourceGraphicAlpha"
         in="fbSourceGraphic"
         values="0 0 0 -1 0 0 0 0 -1 0 0 0 0 -1 0 0 0 0 1 0"
         id="feColorMatrix5198" /><feColorMatrix
         id="feColorMatrix5200"
         values="0 0 0 0 1 0 0 0 0 1 0 0 0 0 1 0 0 0 1 0"
         in="fbSourceGraphic" /></filter><filter
       style="color-interpolation-filters:sRGB;"
       inkscape:label="Fade to Black or White"
       id="filter4938"><feColorMatrix
         values="1 0 0 0 0 0 1 0 0 0 0 0 1 0 0 0 0 0 1 0"
         id="feColorMatrix4940"
         result="fbSourceGraphic" /><feColorMatrix
         result="fbSourceGraphicAlpha"
         in="fbSourceGraphic"
         values="0 0 0 -1 0 0 0 0 -1 0 0 0 0 -1 0 0 0 0 1 0"
         id="feColorMatrix4982" /><feColorMatrix
         id="feColorMatrix4984"
         values="1 0 0 0 0 0 1 0 0 0 0 0 1 0 0 0 0 0 1 0"
         in="fbSourceGraphic"
         result="fbSourceGraphic" /><feColorMatrix
         result="fbSourceGraphicAlpha"
         in="fbSourceGraphic"
         values="0 0 0 -1 0 0 0 0 -1 0 0 0 0 -1 0 0 0 0 1 0"
         id="feColorMatrix5202" /><feColorMatrix
         id="feColorMatrix5204"
         values="0 0 0 0 1 0 0 0 0 1 0 0 0 0 1 0 0 0 1 0"
         in="fbSourceGraphic" /></filter><filter
       style="color-interpolation-filters:sRGB;"
       inkscape:label="Fade to Black or White"
       id="filter4942"><feColorMatrix
         values="1 0 0 0 0 0 1 0 0 0 0 0 1 0 0 0 0 0 1 0"
         id="feColorMatrix4944"
         result="fbSourceGraphic" /><feColorMatrix
         result="fbSourceGraphicAlpha"
         in="fbSourceGraphic"
         values="0 0 0 -1 0 0 0 0 -1 0 0 0 0 -1 0 0 0 0 1 0"
         id="feColorMatrix4986" /><feColorMatrix
         id="feColorMatrix4988"
         values="1 0 0 0 0 0 1 0 0 0 0 0 1 0 0 0 0 0 1 0"
         in="fbSourceGraphic"
         result="fbSourceGraphic" /><feColorMatrix
         result="fbSourceGraphicAlpha"
         in="fbSourceGraphic"
         values="0 0 0 -1 0 0 0 0 -1 0 0 0 0 -1 0 0 0 0 1 0"
         id="feColorMatrix5206" /><feColorMatrix
         id="feColorMatrix5208"
         values="0 0 0 0 1 0 0 0 0 1 0 0 0 0 1 0 0 0 1 0"
         in="fbSourceGraphic" /></filter><filter
       style="color-interpolation-filters:sRGB;"
       inkscape:label="Fade to Black or White"
       id="filter4946"><feColorMatrix
         values="1 0 0 0 0 0 1 0 0 0 0 0 1 0 0 0 0 0 1 0"
         id="feColorMatrix4948"
         result="fbSourceGraphic" /><feColorMatrix
         result="fbSourceGraphicAlpha"
         in="fbSourceGraphic"
         values="0 0 0 -1 0 0 0 0 -1 0 0 0 0 -1 0 0 0 0 1 0"
         id="feColorMatrix4990" /><feColorMatrix
         id="feColorMatrix4992"
         values="1 0 0 0 0 0 1 0 0 0 0 0 1 0 0 0 0 0 1 0"
         in="fbSourceGraphic"
         result="fbSourceGraphic" /><feColorMatrix
         result="fbSourceGraphicAlpha"
         in="fbSourceGraphic"
         values="0 0 0 -1 0 0 0 0 -1 0 0 0 0 -1 0 0 0 0 1 0"
         id="feColorMatrix5210" /><feColorMatrix
         id="feColorMatrix5212"
         values="0 0 0 0 1 0 0 0 0 1 0 0 0 0 1 0 0 0 1 0"
         in="fbSourceGraphic" /></filter></defs><sodipodi:namedview
     pagecolor="#ffffff"
     bordercolor="#666666"
     borderopacity="1"
     objecttolerance="10"
     gridtolerance="10"
     guidetolerance="10"
     inkscape:pageopacity="0"
     inkscape:pageshadow="2"
     inkscape:window-width="1280"
     inkscape:window-height="751"
     id="namedview33"
     showgrid="false"
     inkscape:zoom="0.7377821"
     inkscape:cx="422.30289"
     inkscape:cy="282.44052"
     inkscape:window-x="0"
     inkscape:window-y="0"
     inkscape:window-maximized="1"
     inkscape:current-layer="Layer_1" /><g
     id="g3"><path
       fill-rule="evenodd"
       clip-rule="evenodd"
       fill="#014157"
       d="M565.85,282.836c0,1.037,0,1.737,0,2.437   c0,25.687-0.021,51.374,0.045,77.06c0.006,1.754-0.444,2.145-2.14,2.109c-5.618-0.115-11.241-0.084-16.861-0.012   c-1.237,0.016-1.505-0.35-1.503-1.535c0.031-35.359,0.033-70.72-0.005-106.079c-0.001-1.322,0.403-1.605,1.645-1.594   c6.47,0.058,12.941,0.058,19.411-0.001c1.171-0.011,1.898,0.423,2.658,1.246c23.367,25.301,46.757,50.583,70.147,75.862   c0.428,0.463,0.904,0.879,1.655,1.604c0-0.992,0-1.672,0-2.352c0-24.707,0.02-49.413-0.041-74.119   c-0.004-1.772,0.408-2.301,2.23-2.259c5.553,0.127,11.111,0.087,16.665,0.016c1.302-0.017,1.616,0.378,1.616,1.641   c-0.033,35.294-0.036,70.588,0.006,105.883c0.002,1.432-0.449,1.703-1.766,1.686c-5.424-0.072-10.85-0.063-16.274-0.004   c-1.149,0.012-1.901-0.361-2.677-1.197c-24.713-26.639-49.453-53.252-74.189-79.867   C566.385,283.265,566.275,283.191,565.85,282.836z"
       id="path5"
       style="filter:url(#filter4946)" /><path
       fill-rule="evenodd"
       clip-rule="evenodd"
       fill="#014157"
       d="M299.757,320.055c11.144,14.797,22.127,29.383,33.107,43.961   c-0.417,0.65-0.993,0.365-1.452,0.367c-7.647,0.021-15.294-0.002-22.941,0.035c-1.066,0.004-1.766-0.256-2.433-1.176   c-14.077-19.381-28.194-38.734-42.3-58.094c-0.259-0.355-0.475-0.742-0.728-1.141c0.738-0.5,1.473-0.26,2.157-0.266   c8.104-0.078,16.208-0.084,24.311-0.207c3.332-0.053,6.62-0.559,9.833-1.52c5.407-1.615,8.661-5.035,9.386-10.76   c0.334-2.631,0.27-5.218-0.33-7.78c-1.151-4.923-4.587-7.548-9.201-8.906c-3.658-1.076-7.436-1.515-11.218-1.538   c-15.032-0.089-30.065-0.031-45.097-0.117c-1.589-0.009-1.43,0.776-1.43,1.787c0.009,18.431,0.007,36.863,0.007,55.294   c0,10.785-0.052,21.568,0.051,32.352c0.018,1.814-0.533,2.119-2.177,2.09c-5.685-0.102-11.373-0.105-17.058,0   c-1.662,0.031-2.169-0.307-2.164-2.096c0.068-26.666,0.047-53.334,0.047-80c0-8.432,0.038-16.863-0.036-25.294   c-0.013-1.461,0.352-1.839,1.827-1.835c23.202,0.071,46.405-0.014,69.607,0.149c7.65,0.054,15.212,1.124,22.354,4.195   c9.521,4.094,14.507,11.503,15.862,21.579c0.827,6.152,0.771,12.289-1.358,18.182c-4.354,12.05-13.338,18.384-25.727,20.343   C301.778,319.799,300.894,319.9,299.757,320.055z"
       id="path7"
       style="filter:url(#filter4942)" /><path
       fill-rule="evenodd"
       clip-rule="evenodd"
       fill="#DF4F2A"
       d="M680.461,348.23c-1.492-23.811-2.461-47.646-3.303-71.487   c-0.225-6.336-0.496-12.67-0.742-19.005c-0.379-9.817-5.014-16.817-13.951-20.892c-5.943-2.709-12.332-3.735-18.724-4.662   c-8.755-1.27-17.594-1.202-26.407-1.516c-2.809-0.1-5.615-0.17-8.94-0.595c3.128-1.188,5.948-1.671,8.735-2.214   c14.22-2.773,28.596-4.604,42.861-7.103c5.262-0.921,10.533-1.763,15.646-3.444c4.158-1.368,6.699-3.969,7.863-8.181   c2.054-7.423,3.287-15.028,5.139-22.493c0.566-2.275,1.117-4.565,2.324-6.617c0.367-0.625,0.791-1.299,1.646-1.157   c0.896,0.149,0.675,0.981,0.78,1.585c1.566,8.945,2.396,17.986,3.487,26.992c0.58,4.785,2.261,6.483,7.169,6.675   c6.754,0.265,13.432-0.619,20.117-1.383c12.84-1.466,25.587-3.788,38.545-4.152c1.826-0.051,3.656-0.007,5.703-0.007   c-0.449,0.678-1.019,0.706-1.494,0.873c-10.821,3.791-21.911,6.784-32.602,10.962c-6.084,2.378-12.076,4.943-17.322,8.95   c-1.356,1.036-2.605,2.187-3.678,3.513c-3.172,3.926-3.418,7.444-0.691,11.683c3.055,4.749,6.942,8.833,10.707,13   c14.503,16.056,28.834,32.263,42.78,48.807c0.374,0.445,0.69,0.939,1.034,1.41c-0.26,1.15-0.758,0.506-1.298,0.215   c-1.353-0.727-2.271-2.135-3.875-2.455c-7.562-5.796-15.081-11.648-22.696-17.374c-8.817-6.63-17.776-13.069-27.307-18.655   c-3.652-2.141-7.338-4.26-11.523-5.247c-2.901-0.684-4.045-0.177-5.305,2.552c-2.014,4.362-2.861,9.065-3.701,13.741   c-2.85,15.861-4.753,31.866-7.14,47.795c-0.995,6.643-2.097,13.27-3.149,19.904C680.914,348.506,680.684,348.51,680.461,348.23z"
       id="path9" /><path
       fill-rule="evenodd"
       clip-rule="evenodd"
       fill="#014157"
       d="M376.364,309.834c0,17.52-0.023,35.037,0.039,52.555   c0.005,1.605-0.348,2.082-2.011,2.051c-5.881-0.109-11.765-0.074-17.647-0.018c-1.262,0.012-1.817-0.172-1.815-1.656   c0.043-35.299,0.04-70.596,0.009-105.893c0-1.26,0.301-1.673,1.626-1.657c6.013,0.074,12.028,0.091,18.04-0.008   c1.537-0.025,1.794,0.473,1.79,1.876C376.348,274.667,376.364,292.251,376.364,309.834z"
       id="path11"
       style="filter:url(#filter4938)" /><path
       fill-rule="evenodd"
       clip-rule="evenodd"
       fill="#014157"
       d="M415.59,403.051c0-6.34,0.039-12.68-0.031-19.02   c-0.015-1.381,0.217-1.908,1.78-1.898c11.307,0.074,22.613,0.063,33.92,0.01c1.373-0.006,1.865,0.373,1.727,1.748   c-0.168,1.674,0.685,3.861-0.318,4.908c-1.016,1.063-3.215,0.314-4.891,0.322c-7.451,0.035-14.901,0.053-22.352-0.016   c-1.398-0.014-1.795,0.42-1.73,1.768c0.101,2.152,0.115,4.318-0.006,6.467c-0.078,1.367,0.463,1.582,1.668,1.574   c7.319-0.049,14.64,0.018,21.959-0.061c1.414-0.016,1.824,0.4,1.674,1.744c-0.191,1.73,0.729,4.049-0.379,5.049   c-0.949,0.857-3.221,0.281-4.907,0.285c-6.013,0.016-12.026,0.08-18.038-0.041c-1.706-0.033-2.072,0.492-1.98,2.07   c0.138,2.344,0.167,4.713-0.007,7.053c-0.13,1.754,0.563,1.973,2.089,1.959c8.692-0.072,17.385,0.012,26.076-0.076   c1.604-0.018,2.035,0.479,1.865,1.955c-0.191,1.664,0.717,3.893-0.378,4.855c-0.935,0.82-3.103,0.27-4.726,0.271   c-10.326,0.01-20.652-0.049-30.978,0.057c-1.807,0.018-2.102-0.523-2.077-2.162C415.648,415.6,415.59,409.324,415.59,403.051z"
       id="path13"
       style="filter:url(#filter4934)" /><path
       fill-rule="evenodd"
       clip-rule="evenodd"
       fill="#014157"
       d="M617.002,403.053c0-6.402,0.029-12.807-0.025-19.207   c-0.01-1.24,0.26-1.818,1.613-1.689c2.129,0.201,4.914-0.883,6.211,0.436c1.03,1.045,0.307,3.84,0.32,5.859   c0.02,3.004,0.042,6.01-0.016,9.016c-0.02,1.031,0.322,1.342,1.344,1.336c8.493-0.033,16.986-0.039,25.479,0.006   c1.176,0.006,1.399-0.447,1.39-1.498c-0.047-4.508,0.029-9.018-0.051-13.523c-0.022-1.291,0.338-1.727,1.633-1.639   c1.562,0.105,3.143,0.125,4.7-0.004c1.495-0.125,1.862,0.404,1.853,1.863c-0.066,9.014-0.034,18.031-0.034,27.045   c0,3.791-0.035,7.58,0.022,11.369c0.017,1.113-0.154,1.676-1.468,1.59c-2.14-0.141-4.95,0.709-6.255-0.357   c-1.36-1.111-0.354-4.029-0.4-6.156c-0.074-3.33-0.059-6.664,0.002-9.994c0.021-1.107-0.142-1.604-1.454-1.594   c-8.427,0.063-16.855,0.061-25.282,0c-1.271-0.008-1.497,0.412-1.483,1.563c0.06,4.965-0.013,9.932,0.052,14.895   c0.016,1.225-0.227,1.748-1.578,1.646c-1.688-0.127-3.4-0.113-5.092-0.004c-1.254,0.082-1.516-0.383-1.506-1.555   C617.031,415.988,617.002,409.52,617.002,403.053z"
       id="path15"
       style="filter:url(#filter4930)" /><path
       fill-rule="evenodd"
       clip-rule="evenodd"
       fill="#014157"
       d="M399.542,403.1c0,6.402-0.044,12.805,0.035,19.207   c0.017,1.383-0.34,1.836-1.72,1.697c-2.122-0.213-4.974,0.889-6.184-0.426c-1.055-1.146-0.325-3.959-0.338-6.037   c-0.021-3.396-0.046-6.795,0.018-10.191c0.021-1.08-0.25-1.439-1.389-1.434c-8.428,0.047-16.856,0.059-25.284-0.008   c-1.345-0.01-1.45,0.553-1.442,1.619c0.039,4.9-0.055,9.803,0.059,14.699c0.036,1.537-0.45,1.887-1.863,1.785   c-1.689-0.121-3.397-0.08-5.093-0.008c-0.968,0.041-1.195-0.314-1.193-1.23c0.026-13.131,0.026-26.264,0.001-39.396   c-0.002-0.953,0.325-1.248,1.249-1.221c1.828,0.055,3.661,0.078,5.487-0.006c1.196-0.053,1.397,0.492,1.388,1.523   c-0.041,4.377,0.031,8.756-0.044,13.131c-0.025,1.432,0.209,2.045,1.886,2.025c8.166-0.1,16.333-0.076,24.5-0.014   c1.353,0.01,1.778-0.322,1.75-1.719c-0.09-4.439,0.023-8.885-0.068-13.326c-0.028-1.344,0.42-1.684,1.662-1.621   c1.694,0.088,3.401,0.1,5.093-0.004c1.234-0.074,1.529,0.359,1.519,1.549C399.511,390.162,399.542,396.631,399.542,403.1z"
       id="path17"
       style="filter:url(#filter4926)" /><path
       fill-rule="evenodd"
       clip-rule="evenodd"
       fill="#014157"
       d="M582.074,382.172c6.988,0,13.977,0.037,20.963-0.031   c1.377-0.014,1.842,0.371,1.723,1.744c-0.145,1.674,0.505,3.881-0.342,4.906c-0.895,1.082-3.178,0.309-4.852,0.33   c-3.918,0.051-7.838,0.074-11.754-0.016c-1.387-0.031-1.75,0.406-1.744,1.76c0.051,10.383-0.014,20.768,0.071,31.15   c0.014,1.672-0.454,2.17-2.061,1.99c-1.986-0.223-4.667,0.836-5.796-0.43c-0.982-1.102-0.29-3.723-0.293-5.674   c-0.01-9.012-0.031-18.023,0.025-27.037c0.009-1.346-0.318-1.783-1.722-1.762c-5.158,0.084-10.318-0.004-15.477,0.061   c-1.229,0.016-1.771-0.238-1.644-1.586c0.123-1.293,0.111-2.615,0.003-3.912c-0.104-1.242,0.361-1.527,1.544-1.52   C567.838,382.197,574.957,382.172,582.074,382.172z"
       id="path19"
       style="filter:url(#filter4922)" /><path
       fill-rule="evenodd"
       clip-rule="evenodd"
       fill="#014157"
       d="M523.67,403.105c0-6.4,0.037-12.803-0.03-19.203   c-0.015-1.369,0.366-1.855,1.753-1.756c1.561,0.113,3.141,0.119,4.699-0.002c1.4-0.107,1.73,0.4,1.723,1.75   c-0.055,10.254,0.018,20.51-0.074,30.764c-0.016,1.75,0.448,2.166,2.162,2.148c8.816-0.092,17.635-0.012,26.453-0.074   c1.385-0.01,1.826,0.373,1.721,1.742c-0.134,1.752,0.596,4.105-0.287,5.119c-1.027,1.18-3.438,0.365-5.241,0.371   c-10.386,0.037-20.771-0.006-31.157,0.049c-1.337,0.006-1.771-0.301-1.754-1.705C523.713,415.908,523.67,409.506,523.67,403.105z"
       id="path21"
       style="filter:url(#filter4918)" /><path
       fill-rule="evenodd"
       clip-rule="evenodd"
       fill="#DF4F2A"
       d="M761.972,305.531c2.097-0.543,2.886,1.5,4.323,2.254   c0.42,0.219,0.557,0.398,0.85-0.014c1.465,1.424,2.742,2.996,3.629,4.961C767.839,310.332,764.905,307.932,761.972,305.531z"
       id="path23" /><path
       fill-rule="evenodd"
       clip-rule="evenodd"
       fill="#EF9681"
       d="M680.461,348.23c0.23,0.006,0.459,0.012,0.689,0.018   c0.146,0.732-0.156,1.336-0.568,2.014C680.331,349.533,680.34,348.887,680.461,348.23z"
       id="path25" /><path
       fill-rule="evenodd"
       clip-rule="evenodd"
       fill="#014157"
       d="M136.314,252.535c11.91,0.058,23.558,1.55,34.501,6.61   c16.792,7.764,26.219,21.152,29.426,39.108c2.034,11.392,1.398,22.649-2.802,33.528c-5.604,14.516-15.746,24.785-30.303,30.049   c-20.602,7.451-41.546,7.617-62.066-0.166c-19.068-7.23-29.812-21.725-33.078-41.713c-2.015-12.332-0.576-24.372,4.547-35.8   c6.762-15.087,18.828-23.933,34.408-28.434c2.945-0.851,5.939-1.501,8.968-1.966C125.347,252.917,130.809,252.445,136.314,252.535z    M120.944,272.569c-12.211,3.174-21.521,9.828-26.021,22.046c-2.482,6.739-2.903,13.758-2.1,20.854   c1.508,13.334,7.754,23.559,20.37,28.838c15.045,6.295,30.436,6.213,45.572,0.268c9.99-3.926,16.539-11.387,19.503-21.791   c1.887-6.623,2.156-13.385,1.232-20.184c-1.557-11.465-7.154-20.284-17.375-25.939c-8.037-4.447-16.813-5.785-26.211-5.891   C131.103,270.863,125.97,271.263,120.944,272.569z"
       id="path27"
       style="filter:url(#filter4914)" /><path
       fill-rule="evenodd"
       clip-rule="evenodd"
       fill="#014157"
       d="M459.578,252.503c13.906,0.079,25.619,1.571,36.609,6.688   c16.686,7.768,26.062,21.093,29.277,38.983c2.014,11.197,1.434,22.24-2.547,32.964c-5.33,14.363-15.076,24.758-29.35,30.203   c-21.308,8.131-42.994,8.303-64.209-0.102c-18.89-7.482-29.226-22.246-32.187-42.172c-1.825-12.285-0.278-24.241,4.966-35.539   c7.095-15.288,19.609-23.93,35.519-28.202c3.215-0.863,6.482-1.507,9.779-1.916C452.105,252.832,456.791,252.397,459.578,252.503z    M446.121,272.589c-12.735,3.354-22.191,10.464-26.372,23.416c-2.227,6.897-2.375,13.991-1.379,21.118   c1.709,12.244,7.722,21.691,19.142,26.732c15.673,6.918,31.73,6.854,47.51,0.268c9.637-4.021,15.779-11.502,18.581-21.631   c1.549-5.602,1.925-11.307,1.468-17.074c-1.07-13.547-7.265-23.733-19.685-29.772c-7.494-3.644-15.522-4.764-24.327-4.879   C456.406,270.856,451.203,271.251,446.121,272.589z"
       id="path29"
       style="filter:url(#filter4910)" /><path
       fill-rule="evenodd"
       clip-rule="evenodd"
       fill="#014157"
       d="M511.934,423.982c-2.508,0-4.857-0.047-7.204,0.023   c-0.945,0.029-1.362-0.326-1.719-1.166c-1.016-2.395-2.185-4.725-3.198-7.119c-0.436-1.031-0.967-1.461-2.161-1.449   c-7.053,0.064-14.106,0.055-21.159,0.008c-1.077-0.008-1.639,0.322-2.059,1.322c-1.006,2.398-2.162,4.734-3.205,7.117   c-0.375,0.859-0.802,1.336-1.863,1.293c-2.346-0.094-4.697-0.029-7.034-0.029c-0.317-0.719,0.206-1.168,0.44-1.645   c6.303-12.85,12.648-25.68,18.93-38.541c0.596-1.221,1.268-1.744,2.654-1.656c2.017,0.127,4.048,0.063,6.071,0.02   c0.93-0.021,1.528,0.168,1.991,1.129c6.4,13.311,12.853,26.598,19.287,39.891C511.787,423.348,511.811,423.545,511.934,423.982z    M478.388,407.432c5.623,0,10.903-0.01,16.183,0.01c0.924,0.004,1.385-0.109,0.872-1.188c-2.729-5.736-5.419-11.492-8.263-17.541   C484.189,395.078,481.334,401.158,478.388,407.432z"
       id="path31"
       style="filter:url(#filter4906)" /></g></svg>