<?xml version="1.0" encoding="UTF-8" standalone="no"?>
<svg
   xmlns:dc="http://purl.org/dc/elements/1.1/"
   xmlns:cc="http://creativecommons.org/ns#"
   xmlns:rdf="http://www.w3.org/1999/02/22-rdf-syntax-ns#"
   xmlns:svg="http://www.w3.org/2000/svg"
   xmlns="http://www.w3.org/2000/svg"
   xmlns:sodipodi="http://sodipodi.sourceforge.net/DTD/sodipodi-0.dtd"
   xmlns:inkscape="http://www.inkscape.org/namespaces/inkscape"
   width="100"
   height="25"
   viewBox="0 0 100 25"
   id="svg4783"
   version="1.1"
   inkscape:version="0.91 r13725"
   sodipodi:docname="palantir.svg">
  <metadata
     id="metadata4791">
    <rdf:RDF>
      <cc:Work
         rdf:about="">
        <dc:format>image/svg+xml</dc:format>
        <dc:type
           rdf:resource="http://purl.org/dc/dcmitype/StillImage" />
      </cc:Work>
    </rdf:RDF>
  </metadata>
  <defs
     id="defs4789" />
  <sodipodi:namedview
     pagecolor="#ffffff"
     bordercolor="#666666"
     borderopacity="1"
     objecttolerance="10"
     gridtolerance="10"
     guidetolerance="10"
     inkscape:pageopacity="0"
     inkscape:pageshadow="2"
     inkscape:window-width="1161"
     inkscape:window-height="841"
     id="namedview4787"
     showgrid="false"
     inkscape:zoom="2.74"
     inkscape:cx="50"
     inkscape:cy="12.5"
     inkscape:window-x="0"
     inkscape:window-y="0"
     inkscape:window-maximized="0"
     inkscape:current-layer="svg4783" />
  <path
     d="M24.4,3h6.2c2.3,0,3.8,0.1,5.1,1.5c0.9,1,1.4,2.2,1.4,3.6c0,1.4-0.5,2.6-1.5,3.6c-1,1-2.3,1.6-5.6,1.6h-3 v8.3h-2.6V3z M27,11.2H30c1.7,0,4.3-0.1,4.3-3.2c0-2.9-2.4-2.9-3.8-2.9H27V11.2z M45.4,21.6c-0.2-0.6-0.2-1.3-0.2-1.9 c-1.2,2.1-2.9,2.3-4,2.3c-3,0-4.6-1.7-4.6-3.8c0-1,0.4-2.7,2.3-3.8c1.4-0.8,3.4-0.8,4.5-0.8c0.6,0,1,0,1.7,0.1c0-1.6,0-2.3-0.5-2.9 c-0.5-0.6-1.5-0.8-2.2-0.8c-2.4,0-2.6,1.7-2.6,2.2h-2.4c0.1-0.7,0.2-1.6,0.9-2.4c1-1.1,2.8-1.4,4.2-1.4c1.9,0,3.9,0.6,4.6,1.9 c0.4,0.8,0.4,1.4,0.4,2l-0.1,6.2c0,0.2,0,1.9,0.2,3.2H45.4z M43.7,15.2c-1,0-4.7,0-4.7,2.6c0,0.8,0.5,2.2,2.7,2.2 c1.2,0,2.2-0.5,2.8-1.4c0.5-0.9,0.6-1.6,0.6-3.4C44.7,15.3,44.3,15.2,43.7,15.2z M49.6,3H52v18.6h-2.4V3z M62.4,21.6 c-0.2-0.6-0.2-1.3-0.2-1.9c-1.2,2.1-2.9,2.3-4,2.3c-3,0-4.6-1.7-4.6-3.8c0-1,0.4-2.7,2.3-3.8c1.4-0.8,3.4-0.8,4.5-0.8 c0.6,0,1,0,1.7,0.1c0-1.6,0-2.3-0.5-2.9c-0.5-0.6-1.5-0.8-2.2-0.8c-2.4,0-2.6,1.7-2.6,2.2h-2.4c0.1-0.7,0.2-1.6,0.9-2.4 c1-1.1,2.8-1.4,4.2-1.4c1.9,0,3.9,0.6,4.6,1.9c0.4,0.8,0.4,1.4,0.4,2l-0.1,6.2c0,0.2,0,1.9,0.2,3.2H62.4z M60.8,15.2 c-1,0-4.7,0-4.7,2.6c0,0.8,0.5,2.2,2.7,2.2c1.2,0,2.2-0.5,2.8-1.4c0.5-0.9,0.6-1.6,0.6-3.4C61.7,15.3,61.4,15.2,60.8,15.2z M66.7,10.2l0-1.5h2.4l0,2.1c0.3-0.5,1.2-2.3,4.1-2.3c1.2,0,4.7,0.4,4.7,4.4v8.8h-2.5v-8.2c0-0.8-0.1-1.6-0.7-2.2 c-0.6-0.6-1.5-0.9-2.3-0.9c-1.8,0-3.4,1.3-3.4,3.9v7.4h-2.4V10.2z M78.7,8.7H81V5.9l2.4-0.8v3.5h2.9v1.8h-2.9v7.7 c0,0.6,0,1.7,1.7,1.7c0.5,0,1-0.1,1.2-0.1v1.9c-0.4,0.1-1.1,0.2-2,0.2C82,21.8,81,21.1,81,19v-8.6h-2.3V8.7z M88,3h2.9v2.7H88V3z M88.2,8.7h2.4v12.9h-2.4V8.7z M92.9,11.3c0-0.9-0.1-1.8-0.1-2.6h2.4l0.1,2.5c0.5-1.8,2-2.4,3.1-2.5c0.7-0.1,1.3-0.1,1.7-0.1v2.4 c-0.1,0-0.3-0.1-0.5-0.1c-0.2,0-0.4,0-0.7,0c-2.9,0-3.5,1.7-3.5,3.9v6.9h-2.4V11.3z M9.5,0.5c-5,0-9.1,4.1-9.1,9.1s4.1,9.1,9.1,9.1 c5,0,9.1-4.1,9.1-9.1S14.5,0.5,9.5,0.5z M9.5,15.9c-3.5,0-6.3-2.8-6.3-6.3c0-3.5,2.8-6.3,6.3-6.3c3.5,0,6.3,2.8,6.3,6.3 C15.7,13.1,12.9,15.9,9.5,15.9z M17.6,17.9l-8.1,3.5l-8.1-3.5L0,20.4l9.5,4l9.5-4L17.6,17.9z"
     id="path4785"
     style="fill:#ffffff;fill-opacity:1" />
  <!--<![endif]-->
  <path
     style="fill:#f05322;fill-opacity:1"
     d="m 24.59854,12.081939 0,-9.1771848 4.567625,0.1972614 c 3.331525,0.1438782 4.811657,0.3571573 5.469369,0.7881074 2.128862,1.3948837 2.895264,4.2669989 1.713154,6.420096 -1.078814,1.964954 -2.535086,2.620389 -6.298893,2.834992 l -3.261474,0.185961 0,3.963976 0,3.963976 -1.09489,0 -1.094891,0 0,-9.177185 z m 8.976913,-1.887622 C 34.49506,9.1252099 34.716484,7.4707164 34.095295,6.3100153 33.589465,5.364862 31.798892,4.8357664 29.106123,4.8357664 l -2.317802,0 0,3.3233157 0,3.3233159 2.955015,-0.134194 c 2.701946,-0.122703 3.03013,-0.221522 3.832117,-1.153887 z"
     id="path5333"
     inkscape:connector-curvature="0" />
  <path
     style="fill:#ffffff;fill-opacity:1"
     d="m 24.59854,12.085764 0,-9.1733611 4.539283,0.1748668 c 3.399647,0.1309646 4.772791,0.3278672 5.46937,0.784283 2.157168,1.4134313 2.930575,4.2728739 1.741495,6.4386663 -1.078814,1.964954 -2.535086,2.620389 -6.298893,2.834992 l -3.261474,0.185961 0,3.963976 0,3.963976 -1.09489,0 -1.094891,0 0,-9.17336 z m 8.976913,-1.891447 C 34.49506,9.1252099 34.716484,7.4707164 34.095295,6.3100153 33.589465,5.364862 31.798892,4.8357664 29.106123,4.8357664 l -2.317802,0 0,3.3233157 0,3.3233159 2.955015,-0.134194 c 2.701946,-0.122703 3.03013,-0.221522 3.832117,-1.153887 z"
     id="path5335"
     inkscape:connector-curvature="0" />
  <path
     style="fill:#ffffff;fill-opacity:1"
     d="m 66.934307,15.237226 0,-6.386861 0.912408,0 c 0.729927,0 0.912409,0.1824817 0.912409,0.9124087 0,1.1375833 0.174472,1.1375833 1.526412,0 0.857482,-0.7215229 1.48813,-0.9124087 3.014415,-0.9124087 3.722424,0 4.57795,1.584615 4.581225,8.485401 l 0.002,4.288322 -1.059083,0 -1.059082,0 -0.127049,-4.959552 c -0.120306,-4.696341 -0.172776,-4.996563 -0.988649,-5.656935 -0.949943,-0.768887 -2.971976,-0.917605 -4.120298,-0.303042 -1.289976,0.690374 -1.769927,2.559604 -1.769927,6.893208 l 0,4.026321 -0.912409,0 -0.912408,0 0,-6.386862 z"
     id="path5337"
     inkscape:connector-curvature="0" />
</svg>
