<svg id="Layer_1" data-name="Layer 1" xmlns="http://www.w3.org/2000/svg" xmlns:xlink="http://www.w3.org/1999/xlink" viewBox="0 0 359.94139 145.91464">
  <defs>
    <style>
      .cls-1 {
        fill: #d5aa08;
      }

      .cls-2 {
        fill: #ff7608;
      }

      .cls-3 {
        fill: #df0e05;
      }

      .cls-4 {
        fill: url(#linear-gradient);
      }

      .cls-5 {
        fill: url(#New_Gradient_Swatch_2);
      }

      .cls-6 {
        fill: url(#New_Gradient_Swatch_2-2);
      }

      .cls-7 {
        fill: url(#linear-gradient-2);
      }

      .cls-8 {
        fill: url(#New_Gradient_Swatch_3);
      }

      .cls-9 {
        fill: #ffcb06;
      }

      .cls-10 {
        fill: #ffa106;
      }

      .cls-11 {
        fill: #ffd100;
      }

      .cls-12 {
        fill: #ffb920;
      }

      .cls-13 {
        fill: #ff8c11;
      }

      .cls-14 {
        fill: #fca51d;
      }

      .cls-15 {
        fill: #fa870b;
      }

      .cls-16 {
        fill: #ff9e0f;
      }

      .cls-17 {
        fill: url(#linear-gradient-3);
      }

      .cls-18 {
        fill: #e9413a;
      }

      .cls-19 {
        fill: #f59093;
      }

      .cls-20 {
        fill: #ec2227;
      }

      .cls-21 {
        fill: #e83a14;
      }

      .cls-22 {
        fill: #de2008;
      }

      .cls-23 {
        fill: url(#linear-gradient-4);
      }

      .cls-24 {
        fill: #f02601;
      }

      .cls-25 {
        fill: url(#linear-gradient-5);
      }

      .cls-26 {
        fill: #fff;
      }

      .cls-27 {
        fill: #f15a22;
      }
    </style>
    <linearGradient id="linear-gradient" x1="270.73091" y1="48.03076" x2="284.47153" y2="55.42701" gradientUnits="userSpaceOnUse">
      <stop offset="0.05637" stop-color="#ffb308"/>
      <stop offset="0.53295" stop-color="#ffcd07"/>
      <stop offset="1" stop-color="#ffe306"/>
    </linearGradient>
    <linearGradient id="New_Gradient_Swatch_2" data-name="New Gradient Swatch 2" x1="267.08074" y1="38.09932" x2="280.10019" y2="38.76358" gradientUnits="userSpaceOnUse">
      <stop offset="0.05637" stop-color="#ffb308"/>
      <stop offset="1" stop-color="#ffe306"/>
    </linearGradient>
    <linearGradient id="New_Gradient_Swatch_2-2" x1="245.96218" y1="25.19391" x2="273.71218" y2="27.69391" xlink:href="#New_Gradient_Swatch_2"/>
    <linearGradient id="linear-gradient-2" x1="278.31408" y1="32.54746" x2="287.08228" y2="46.49687" gradientUnits="userSpaceOnUse">
      <stop offset="0.05637" stop-color="#f49338"/>
      <stop offset="1" stop-color="#fcd411"/>
    </linearGradient>
    <linearGradient id="New_Gradient_Swatch_3" data-name="New Gradient Swatch 3" x1="283.69529" y1="32.91941" x2="285.65362" y2="36.96108" gradientUnits="userSpaceOnUse">
      <stop offset="0" stop-color="#ff8e02"/>
      <stop offset="1" stop-color="#ff9a01"/>
    </linearGradient>
    <linearGradient id="linear-gradient-3" x1="327.18315" y1="25.10803" x2="319.23469" y2="26.71054" gradientUnits="userSpaceOnUse">
      <stop offset="0" stop-color="#fe6d0e"/>
      <stop offset="1" stop-color="#ff9d0f"/>
    </linearGradient>
    <linearGradient id="linear-gradient-4" x1="325.05429" y1="22.52938" x2="320.24161" y2="24.10087" gradientUnits="userSpaceOnUse">
      <stop offset="0" stop-color="#f02501"/>
      <stop offset="1" stop-color="#f03b01"/>
    </linearGradient>
    <linearGradient id="linear-gradient-5" x1="322.83823" y1="38.33983" x2="320.83823" y2="25.71483" gradientUnits="userSpaceOnUse">
      <stop offset="0" stop-color="#f02001"/>
      <stop offset="1" stop-color="#f02601"/>
    </linearGradient>
  </defs>
  <title>Sandfield-RGB-reversed-tagline</title>
  <g>
    <polygon class="cls-1" points="284.852 26.267 274.186 20.014 252.957 28.235 257.49 50.29 268.105 56.713 289.271 48.308 284.852 26.267"/>
    <polygon class="cls-2" points="310.656 0 282.905 4.046 280.735 32.587 296.373 45.598 324.122 41.551 326.076 12.998 310.656 0"/>
    <polygon class="cls-3" points="352.205 16.675 339.297 10.969 316.274 22.914 324.217 47.351 337.034 53.308 359.941 41.087 352.205 16.675"/>
    <g>
      <polygon class="cls-4" points="278.519 42.128 266.166 46.923 268.107 56.713 289.272 48.308 278.519 42.128"/>
      <polygon class="cls-5" points="263.703 34.515 266.164 46.923 278.517 42.128 276.081 29.688 263.703 34.515"/>
      <polygon class="cls-6" points="274.187 20.014 252.957 28.235 263.703 34.515 276.081 29.688 274.187 20.014"/>
      <polygon class="cls-7" points="281.105 27.728 276.081 29.688 278.517 42.128 289.27 48.308 287.196 37.963 280.735 32.587 281.105 27.728"/>
      <polygon class="cls-8" points="280.735 32.587 287.196 37.963 285.967 31.832 280.735 32.587"/>
      <polygon class="cls-9" points="274.187 20.014 276.081 29.688 281.105 27.728 281.371 24.226 274.187 20.014"/>
      <polygon class="cls-10" points="285.967 31.832 284.852 26.267 281.105 27.728 280.735 32.587 285.967 31.832"/>
      <polygon class="cls-11" points="281.371 24.226 281.105 27.728 284.852 26.267 281.371 24.226"/>
    </g>
    <g>
      <polygon class="cls-12" points="309.596 15.401 298.333 17.044 297.431 30.178 308.691 28.554 310.656 0 309.596 15.401"/>
      <polygon class="cls-13" points="282.905 4.046 281.371 24.226 284.852 26.267 285.967 31.832 297.431 30.178 298.333 17.044 282.905 4.046"/>
      <polygon class="cls-14" points="309.596 15.401 310.656 0 282.905 4.046 298.333 17.044 309.596 15.401"/>
      <polygon class="cls-15" points="310.656 0 309.596 15.401 326.076 12.998 326.076 12.998 310.656 0"/>
      <polygon class="cls-16" points="308.691 28.554 297.431 30.178 296.373 45.598 322.413 41.8 321.657 39.475 308.691 28.554"/>
      <polygon class="cls-17" points="316.274 22.914 325.733 18.006 326.076 12.998 309.596 15.401 308.691 28.554 321.657 39.475 316.274 22.914"/>
    </g>
    <g>
      <polygon class="cls-18" points="342.64 21.647 352.205 16.675 339.297 10.969 342.64 21.647"/>
      <polygon class="cls-19" points="347.002 35.399 359.941 41.087 352.205 16.675 342.64 21.647 347.002 35.399"/>
      <polygon class="cls-20" points="333.602 42.368 337.034 53.308 359.941 41.087 347.002 35.399 333.602 42.368"/>
      <polygon class="cls-20" points="324.217 47.351 337.034 53.308 333.599 42.37 324.217 47.351"/>
      <polygon class="cls-21" points="342.64 21.647 329.272 28.626 333.602 42.368 347.002 35.399 342.64 21.647"/>
      <polygon class="cls-22" points="329.272 28.626 342.64 21.647 339.297 10.969 325.733 18.006 325.131 26.806 329.272 28.626"/>
      <polygon class="cls-23" points="325.131 26.806 325.733 18.006 316.274 22.914 325.131 26.806"/>
      <polygon class="cls-24" points="321.657 39.475 322.413 41.8 324.122 41.551 321.657 39.475"/>
      <polygon class="cls-25" points="321.657 39.475 324.122 41.551 325.131 26.806 316.274 22.914 321.657 39.475"/>
    </g>
  </g>
  <g>
    <path class="cls-26" d="M19.02591,79.26664a19.62285,19.62285,0,0,1,10.938,3.6621l2.34619,1.6768,4.0473-6.0772-2.2436-1.5547a27.41994,27.41994,0,0,0-15.08789-4.8442c-9.43171,0-16.27741,5.3794-16.27741,12.7915,0,8.6416,8.645,11.0986,15.5918,13.0723l.37161.1054c7.273,2.0645,10.31349,3.4688,10.31349,6.8223,0,3.3662-3.9766,5.8086-9.4551,5.8086a20.56677,20.56677,0,0,1-12.936-4.8525l-2.2378-1.8682L0,109.75494l2.0405,1.7207a27.953,27.953,0,0,0,17.4531,6.3926c9.7457,0,16.8194-5.544,16.8194-13.1817,0-9.2548-9.2407-11.7763-15.99809-13.6201-7.78121-2.1474-10.27881-3.6972-10.27881-6.3799C10.0361,81.54594,13.81691,79.26664,19.02591,79.26664Z"/>
    <path class="cls-26" d="M57.9873,72.20954a32.27207,32.27207,0,0,0-14.7983,3.6938l-2.4087,1.1856,2.8769,6.4717,2.59871-1.2383a25.60986,25.60986,0,0,1,11.65469-2.9795c7.9092,0,11.6875,3.3398,11.8521,10.5019a49.5348,49.5348,0,0,0-11.7754-1.4394c-12.1963,0-20.0767,5.9951-20.0767,15.2734,0,8.4893,7.1094,14.418,17.2886,14.418a23.47266,23.47266,0,0,0,14.5693-4.6826v3.7568h7.211V90.26864c0-5.4707-1.5962-9.959-4.6152-12.9785C68.9961,73.919,64.1592,72.20954,57.9873,72.20954Zm-2.7109,38.7524c-1.6831,0-10.0787-.3623-10.0787-7.5175,0-7.5235,10.7198-7.9043,12.8687-7.9043a37.9002,37.9002,0,0,1,11.7021,1.6748v2.9755C69.7685,105.37114,64.228,110.96194,55.2764,110.96194Z"/>
    <path class="cls-26" d="M99.0693,71.897a18.47435,18.47435,0,0,0-12.7856,4.8725v-3.9423H79.0693v44.3437h7.2144V92.90334c0-7.7793,5.5493-13.873,12.6338-13.873,7.7441,0,12.0093,4.8164,12.0093,13.5625v24.5781h7.2148V92.43854C118.1416,79.96,110.6553,71.897,99.0693,71.897Z"/>
    <path class="cls-26" d="M157.0112,77.81544a21.43176,21.43176,0,0,0-15.1147-5.9184c-12.6387,0-22.1695,9.9624-22.1695,23.1743,0,13.127,9.5308,23.0254,22.1695,23.0254a21.43536,21.43536,0,0,0,15.1147-5.917v4.9912h7.2129V54.99614h-7.2129Zm-15.0346,33.1465c-8.67,0-14.9629-6.7793-14.9629-16.1191,0-9.1621,6.2929-15.8125,14.9629-15.8125,8.4746,0,15.1132,7.0459,15.1132,16.041C157.0898,103.98154,150.4512,110.96194,141.9766,110.96194Z"/>
    <path class="cls-26" d="M185.4751,54.76954a12.6869,12.6869,0,0,0-9.3389,3.5274c-2.6137,2.6191-3.9951,6.6797-3.9951,11.7427v2.7876H166.021v7.0586h6.1201v37.2851h7.2109V79.88584h14.0225v-7.0586H179.352v-2.4771c0-7.5073,3.4947-8.3755,6.1231-8.3755a10.50069,10.50069,0,0,1,4.2324.8208l3.9839,1.8833v-7.8476l-1.6479-.7349A15.11239,15.11239,0,0,0,185.4751,54.76954Z"/>
    <rect class="cls-26" x="195.23391" y="72.81354" width="7.21729" height="44.3574"/>
    <path class="cls-26" d="M225.30469,71.897c-12.19578,0-21.3926,9.9321-21.3926,23.102,0,13.3838,9.3232,23.0977,22.1689,23.0977a21.75769,21.75769,0,0,0,18.0254-9.6475l1.586-2.2812-5.85448-4.1192-1.61232,2.2539c-2.2988,3.2198-6.6768,6.6592-12.0674,6.6592-7.583,0-13.2808-5.0381-14.6016-12.7031h34.3692v-3.1055C245.92579,83.59674,238.84279,71.897,225.30469,71.897Zm-.0762,7.1333c5.5586,0,11.5391,3.7783,13.0205,12.168h-26.6587C212.93159,83.85264,218.24709,79.03034,225.22849,79.03034Z"/>
    <rect class="cls-26" x="247.53029" y="54.99614" width="7.2119" height="62.1748"/>
    <path class="cls-26" d="M293.67091,54.99614v22.8193a21.42558,21.42558,0,0,0-15.11332-5.9184c-12.6396,0-22.1719,9.9624-22.1719,23.1743,0,13.127,9.5323,23.0254,22.1719,23.0254a21.43223,21.43223,0,0,0,15.11332-5.917v4.9912h7.21478V54.99614Zm-15.03032,55.9658c-8.6699,0-14.9619-6.7793-14.9619-16.1191,0-9.1621,6.292-15.8125,14.9619-15.8125,8.4746,0,15.11232,7.0459,15.11232,16.041C293.75291,103.98154,287.11519,110.96194,278.64059,110.96194Z"/>
    <rect class="cls-26" x="195.2363" y="63.98634" width="7.2124" height="7.211"/>
  </g>
  <g>
    <path class="cls-27" d="M186.3525,133.97224v4.2837a.56991.56991,0,0,1-.3525.5293,11.979,11.979,0,0,1-2.6846.9824,13.80186,13.80186,0,0,1-3.376.4014,8.64894,8.64894,0,0,1-3.3886-.6783,6.25737,6.25737,0,0,1-2.5703-1.916,10.1303,10.1303,0,0,1-1.8394-6.2998,11.20284,11.20284,0,0,1,.71781-4.1694,7.01081,7.01081,0,0,1,1.90279-2.8096,8.00041,8.00041,0,0,1,5.3286-1.9648,9.67745,9.67745,0,0,1,5.1782,1.3349.61642.61642,0,0,1,.3531.5537v3.1495a.334.334,0,0,1-.3784.3779h-1.4366a.31117.31117,0,0,1-.353-.3779l.0757-1.6875a5.78847,5.78847,0,0,0-3.439-1.1338,4.537,4.537,0,0,0-2.9721.9179,4.676,4.676,0,0,0-1.5386,2.2686,11.15891,11.15891,0,0,0-.4151,3.2505,11.54836,11.54836,0,0,0,.4668,3.416,5.16027,5.16027,0,0,0,1.6875,2.5176,4.82016,4.82016,0,0,0,3.1748,1.0097,5.71965,5.71965,0,0,0,3.2627-.8813v-3.0747h-1.6128a.3346.3346,0,0,1-.3769-.3794V132.334a.333.333,0,0,1,.3769-.3774h5.544a.33366.33366,0,0,1,.37841.3774v1.2588a.33527.33527,0,0,1-.37841.3794Z"/>
    <path class="cls-27" d="M195.2466,140.169a5.285,5.285,0,0,1-4.3975-1.751,7.20642,7.20642,0,0,1-1.3984-4.6358,7.482,7.482,0,0,1,1.4868-4.7744,5.77991,5.77991,0,0,1,6.6641-1.374,3.73826,3.73826,0,0,1,1.52489,1.398,7.66535,7.66535,0,0,1,1.0073,3.9565,3.16234,3.16234,0,0,1-.0996,1.1602.54848.54848,0,0,1-.3789.1005H192.2476a5.11058,5.11058,0,0,0,.8945,2.8091,3.162,3.162,0,0,0,2.6577.9946,6.9317,6.9317,0,0,0,2.84769-.6542.32377.32377,0,0,1,.5043.2016l.47912,1.1577c.083.2032.00828.3716-.22662.5044A8.59491,8.59491,0,0,1,195.2466,140.169Zm-2.999-7.7857h5.2412q.05116-3.1464-2.4698-3.1494a2.32437,2.32437,0,0,0-2.1035.9443A4.27144,4.27144,0,0,0,192.2476,132.38334Z"/>
    <path class="cls-27" d="M205.90579,129.461v6.3505a3.61957,3.61957,0,0,0,.3022,1.7124,1.18883,1.18883,0,0,0,1.1323.5288,3.86964,3.86964,0,0,0,1.6128-.3525c.1851-.0659.3184,0,.4043.2031l.4531,1.1587a.68873.68873,0,0,1,.0245.2134c0,.0918-.0835.188-.251.2905a6.37681,6.37681,0,0,1-2.87308.6031q-2.24118,0-2.94722-1.1587a3.28941,3.28941,0,0,1-.5801-1.46,19.39235,19.39235,0,0,1-.1006-2.0176V129.461h-1.4365a.33325.33325,0,0,1-.3775-.377v-1.3105a.3355.3355,0,0,1,.3775-.3799h1.4365v-3.3994a.33494.33494,0,0,1,.3784-.379h2.0654a.33532.33532,0,0,1,.379.379v3.3994h2.5444a.33464.33464,0,0,1,.3765.3799v1.3105a.33238.33238,0,0,1-.3765.377Z"/>
    <path class="cls-27" d="M223.49219,132.38334v-.8823c0-1.1909-.3369-1.94-1.0078-2.2407a3.68936,3.68936,0,0,0-1.3867-.2032,1.89331,1.89331,0,0,0-2.066,1.6143q-.07395.37725-.3779.377H217.041c-.2685,0-.3867-.1255-.3525-.377a3.163,3.163,0,0,1,1.4863-2.6973,6.61724,6.61724,0,0,1,3.5273-.8569q4.51185,0,4.51082,4.1343v6.625h1.084a.33522.33522,0,0,1,.37838.3794v1.2348a.33372.33372,0,0,1-.37838.377h-2.97422q-.32655,0-.3779-.377l-.1763-1.1606a4.58494,4.58494,0,0,1-3.93058,1.8389,4.15617,4.15617,0,0,1-2.67092-.8428,3.2605,3.2605,0,0,1-1.05808-2.7085,3.33822,3.33822,0,0,1,2.042-3.3506,10.29222,10.29222,0,0,1,4.03018-.8569Q222.66019,132.41024,223.49219,132.38334Zm.0503,3.6812v-1.9424a10.98742,10.98742,0,0,0-2.9741.227c-.3687.1524-.6968.3018-.98148.4541a1.60787,1.60787,0,0,0-.80662,1.562q0,1.73805,1.9902,1.7388a3.0696,3.0696,0,0,0,2.0405-.6167A1.83111,1.83111,0,0,0,223.54249,136.06454Z"/>
    <path class="cls-27" d="M229.06009,129.10794v-1.3344a.33594.33594,0,0,1,.3784-.3799h3.4262c.2183,0,.3531.1284.4038.3799l.2271,1.4604a4.55712,4.55712,0,0,1,4.0317-2.1167q3.90543,0,3.9063,4.2837v6.4756h1.4595a.33578.33578,0,0,1,.3789.3794v1.2348a.33428.33428,0,0,1-.3789.377h-5.4927a.33388.33388,0,0,1-.3784-.377v-1.2348a.33538.33538,0,0,1,.3784-.3794h1.2099v-5.2144a5.02873,5.02873,0,0,0-.4043-2.3193,1.72866,1.72866,0,0,0-1.66208-.73,2.99567,2.99567,0,0,0-2.09082.7544,2.2739,2.2739,0,0,0-.8315,1.7139v5.7954h1.561a.33574.33574,0,0,1,.3789.3794v1.2348a.33424.33424,0,0,1-.3789.377h-5.71868a.3332.3332,0,0,1-.378-.377v-1.2348a.3347.3347,0,0,1,.378-.3794h1.33438V129.461h-1.3598C229.18649,129.461,229.06009,129.34434,229.06009,129.10794Z"/>
    <path class="cls-27" d="M255.36719,140.169a5.28214,5.28214,0,0,1-4.397-1.751,7.20642,7.20642,0,0,1-1.3984-4.6358,7.49027,7.49027,0,0,1,1.4858-4.7744,5.78067,5.78067,0,0,1,6.6646-1.374,3.74655,3.74655,0,0,1,1.5258,1.398,7.66418,7.66418,0,0,1,1.00692,3.9565,3.118,3.118,0,0,1-.10012,1.1602.54822.54822,0,0,1-.378.1005h-7.4086a5.11051,5.11051,0,0,0,.895,2.8091,3.16368,3.16368,0,0,0,2.6596.9946,6.92964,6.92964,0,0,0,2.8453-.6542.32414.32414,0,0,1,.50482.2016l.47808,1.1577c.0835.2032.0073.3716-.22608.5044A8.59785,8.59785,0,0,1,255.36719,140.169Zm-2.999-7.7857h5.24172q.049-3.1464-2.46932-3.1494a2.32057,2.32057,0,0,0-2.1035.9443A4.25934,4.25934,0,0,0,252.36819,132.38334Z"/>
    <path class="cls-27" d="M273.48529,137.87654h1.0821a.33467.33467,0,0,1,.3779.3794v1.2348a.33317.33317,0,0,1-.3779.377h-2.8477c-.2173,0-.3447-.1255-.3774-.377l-.2012-1.4868a4.41974,4.41974,0,0,1-4.1074,2.1651,4.74558,4.74558,0,0,1-3.8047-1.5484,7.2519,7.2519,0,0,1-1.3355-4.813,7.17908,7.17908,0,0,1,1.5503-4.9765,5.13935,5.13935,0,0,1,3.9917-1.7139,4.464,4.464,0,0,1,1.9668.416,3.19064,3.19064,0,0,1,1.2593.9946v-5.3662h-1.3349a.33317.33317,0,0,1-.3775-.3774v-1.3369a.33364.33364,0,0,1,.3775-.377h3.7797a.33464.33464,0,0,1,.3789.377Zm-2.8237-2.7456v-4.4361a2.96539,2.96539,0,0,0-1.1465-.9301,3.50923,3.50923,0,0,0-1.6508-.4287q-3.12465,0-3.1226,4.2324,0,3.25125,1.4111,4.0561a3.29705,3.29705,0,0,0,1.66312.3521,2.90449,2.90449,0,0,0,1.95168-.7813A2.59875,2.59875,0,0,0,270.66159,135.13094Z"/>
    <path class="cls-27" d="M288.04779,129.461v8.9443q0,1.6149-.125,3a4.79665,4.79665,0,0,1-1.5742,3.3262,5.78989,5.78989,0,0,1-3.8945,1.1831,10.46737,10.46737,0,0,1-4.2324-.7569c-.2022-.0835-.2686-.25-.2022-.5019l.4551-1.3374c.0654-.2334.2324-.3013.501-.2002a8.1563,8.1563,0,0,0,3.1142.6289,3.27847,3.27847,0,0,0,2.3555-.7539,3.65555,3.65555,0,0,0,.7813-2.6724v-1.9643a3.87484,3.87484,0,0,1-3.5782,1.8125,4.5845,4.5845,0,0,1-3.7666-1.587,7.51313,7.51313,0,0,1-1.2988-4.8247,7.16324,7.16324,0,0,1,1.5264-4.9384,4.92486,4.92486,0,0,1,3.8281-1.7017,4.675,4.675,0,0,1,3.7178,1.6382l.2519-.9819a.46711.46711,0,0,1,.4531-.3799h3.0743a.33492.33492,0,0,1,.3769.3799v1.3105a.33266.33266,0,0,1-.3769.377Zm-2.8212,5.6948v-4.4844a2.92053,2.92053,0,0,0-.3155-.3784,3.78421,3.78421,0,0,0-.9306-.5918,3.36747,3.36747,0,0,0-1.5508-.3652,2.68077,2.68077,0,0,0-2.167.9951,4.94632,4.94632,0,0,0-.8311,3.186,7.34125,7.34125,0,0,0,.6045,3.3408,2.4006,2.4006,0,0,0,2.34182,1.146,2.879,2.879,0,0,0,1.97948-.7817A2.64134,2.64134,0,0,0,285.22659,135.15584Z"/>
    <path class="cls-27" d="M296.74019,140.169a5.28316,5.28316,0,0,1-4.3965-1.751,7.20352,7.20352,0,0,1-1.3984-4.6358,7.49052,7.49052,0,0,1,1.4863-4.7744,5.7799,5.7799,0,0,1,6.6641-1.374,3.74257,3.74257,0,0,1,1.5264,1.398,7.669,7.669,0,0,1,1.00682,3.9565,3.12407,3.12407,0,0,1-.10062,1.1602.54486.54486,0,0,1-.3769.1005h-7.4092a5.11131,5.11131,0,0,0,.8945,2.8091,3.16216,3.16216,0,0,0,2.65922.9946,6.93231,6.93231,0,0,0,2.84668-.6542.32344.32344,0,0,1,.5039.2016l.4775,1.1577c.085.2032.0088.3716-.2256.5044A8.59573,8.59573,0,0,1,296.74019,140.169Zm-2.998-7.7857h5.2412q.0498-3.1464-2.4688-3.1494a2.32333,2.32333,0,0,0-2.1044.9443A4.26686,4.26686,0,0,0,293.74219,132.38334Z"/>
  </g>
</svg>
