<svg xmlns="http://www.w3.org/2000/svg" xmlns:xlink="http://www.w3.org/1999/xlink" version="1.1" width="495.4590175083265" height="246.32786696868953" style="display: block;"><rect id="backgroundrect" width="100%" height="100%" x="0" y="0" fill="none" stroke="none" class=""/><g class="currentLayer"><title>Layer 1</title><g id="svgg" class=""><path id="path0" d="M213.76508657437938,81.50593375396728 C209.28115343028682,82.14393375396727 206.5613236044087,83.75193375396728 204.4175901637711,87.03293375396728 C203.65219034821172,88.20593375396729 202.91953490978855,92.85293375396728 202.91953490978855,96.5409337539673 L202.91953490978855,99.36393375396729 L199.23579248196265,99.36393375396729 L195.55205005413669,99.36393375396729 L195.55205005413669,103.96393375396728 L195.55205005413669,108.56393375396729 L199.23579248196265,108.56393375396729 L202.91953490978855,108.56393375396729 L202.91953490978855,126.9639337539673 L202.91953490978855,145.36393375396727 L210.28701976544042,145.36393375396727 L217.6545046210923,145.36393375396727 L217.6545046210923,126.9639337539673 L217.6545046210923,108.56393375396729 L222.3615088344254,108.56393375396729 L227.06851304775853,108.56393375396729 L227.06851304775853,103.96393375396728 L227.06851304775853,99.36393375396729 L222.3615088344254,99.36393375396729 L217.6545046210923,99.36393375396729 L217.65655114466327,97.86393375396729 C217.66371397716182,93.61093375396729 218.4536720755734,92.96393375396728 223.6405860663094,92.96393375396728 L226.24990361935275,92.96393375396728 L226.24990361935275,87.41093375396729 L226.24990361935275,81.85793375396729 L223.07779208428045,81.59793375396728 C221.33313073999068,81.45493375396728 219.26102562433857,81.27093375396728 218.47311404949804,81.18893375396729 C217.6852024746575,81.10693375396728 215.56705057865756,81.2489337539673 213.76508657437938,81.50593375396728 M238.52904504543918,92.16393375396729 L238.52904504543918,99.36393375396729 L235.04995497471472,99.36393375396729 L231.5708649039902,99.36393375396729 L231.5708649039902,103.96393375396728 L231.5708649039902,108.56393375396729 L235.02641995364803,108.56393375396729 L238.48197500330585,108.56393375396729 L238.60783620292324,123.06393375396729 L238.73369740254063,137.5639337539673 L239.8214246805348,139.5639337539673 C241.92422764975208,143.43093375396728 244.0986589439549,144.7479337539673 249.40938761073727,145.36893375396727 C253.13303724819798,145.80393375396727 255.3565851081051,145.7499337539673 260.11986871964115,145.1079337539673 L261.8594137550034,144.8729337539673 L261.8594137550034,139.3189337539673 L261.8594137550034,133.76393375396728 L258.7630235920586,133.76393375396728 C255.79556441408772,133.76393375396728 254.2248575733342,133.35193375396727 253.5771328631081,132.4039337539673 C253.41136445385598,132.16193375396728 253.2732241128125,126.69893375396728 253.27015432745594,120.26393375396728 L253.26401475674288,108.56393375396729 L257.97101897007605,108.56393375396729 L262.67802318340915,108.56393375396729 L262.67802318340915,103.96393375396728 L262.67802318340915,99.36393375396729 L257.97101897007605,99.36393375396729 L253.26401475674288,99.36393375396729 L253.26401475674288,92.16393375396729 L253.26401475674288,84.96393375396728 L245.89652990109104,84.96393375396728 L238.52904504543918,84.96393375396728 L238.52904504543918,92.16393375396729 M111.56681574684758,97.33193375396729 C110.28569199139257,97.50893375396728 108.39982052070279,98.03793375396728 107.37553547341008,98.50893375396728 C106.35227368790288,98.97893375396728 105.33412821132322,99.36393375396729 105.11310366565367,99.36393375396729 C104.89310238176961,99.36393375396729 103.3571864417233,100.6719337539673 101.69950234920162,102.27093375396728 C94.81295053273816,108.91393375396729 95.29593009549755,118.90993375396728 102.7186710875668,123.37393375396728 C105.07421971780438,124.78993375396729 111.85639883214611,126.9639337539673 113.91929459172864,126.9639337539673 C119.13383665067335,126.9639337539673 124.09460978681227,128.98693375396726 124.22149424821514,131.1649337539673 C124.55712411386153,136.9559337539673 111.43174519116063,136.5289337539673 104.64649629146236,130.5289337539673 C103.67337433344503,129.6679337539673 102.81178791004795,128.9639337539673 102.7319734907784,128.9639337539673 C102.14564448768277,128.9639337539673 93.63517621761936,136.86593375396728 93.63517621761936,137.4089337539673 C93.63517621761936,138.0929337539673 98.13036524135251,141.66193375396728 100.16358640915531,142.59193375396728 C100.73763627082485,142.85393375396728 101.85196835524219,143.38593375396727 102.63987993008276,143.7739337539673 C111.83695685822148,148.29693375396727 127.47751324969906,146.9999337539673 134.49299605113643,141.1319337539673 C140.33275106102604,136.24693375396728 141.464478595797,126.81993375396729 136.85161446673055,121.47393375396729 C134.62499682146688,118.89393375396729 127.11732510120052,115.36393375396729 123.85516652900355,115.36393375396729 C120.29728530079504,115.36393375396729 112.19816826850553,112.78093375396729 111.88095711499828,111.54493375396729 C110.6622523284592,106.79893375396729 120.84984666496892,106.41393375396729 127.72104955464977,110.94593375396728 C130.096040158812,112.51193375396728 129.9118530374207,112.55093375396729 132.82507934075971,109.86393375396729 C134.19625013333936,108.59893375396729 136.06574941546103,106.93393375396728 136.97952218991895,106.16393375396729 C139.52028120333333,104.02193375396729 139.4036293597855,103.81793375396728 133.95680687553067,100.84293375396729 C128.32068096095702,97.76493375396728 119.01616154534001,96.30593375396728 111.56681574684758,97.33193375396729 M162.39836820370337,97.36193375396729 C156.2792627263703,98.13993375396728 147.74935248238222,103.14893375396728 146.6196714711823,106.62793375396728 C146.48767070085188,107.03293375396728 146.23083199268956,107.36393375396729 146.04869139486928,107.36393375396729 C145.86552753526348,107.36393375396729 145.4807811039128,107.94893375396728 145.19222128039976,108.66393375396729 C144.90468471867223,109.37893375396729 144.30709983593601,110.76793375396728 143.86402748281142,111.75093375396729 C141.95564425284047,115.98893375396729 141.91471378142018,126.9829337539673 143.7903526342549,131.5649337539673 C144.34496052199978,132.91893375396728 144.79826549297948,134.17593375396729 144.79826549297948,134.3579337539673 C144.79826549297948,134.5399337539673 145.25873329645773,135.2779337539673 145.82152727848668,135.9999337539673 C146.38432126051563,136.7209337539673 146.8447890639939,137.4509337539673 146.8447890639939,137.62193375396728 C146.8447890639939,137.7929337539673 147.90284175020835,138.89493375396728 149.1952213853039,140.07093375396727 C160.42347295767445,150.28293375396728 182.24248401004454,148.50793375396728 189.86476105028768,136.7619337539673 C194.29036827260634,129.94293375396728 195.42618885451932,118.31793375396728 192.31854281193392,111.65093375396728 C191.8457958670296,110.63693375396728 191.45593312675138,109.66293375396728 191.45184007960935,109.48593375396729 C191.42728179675717,108.41693375396729 185.3531998379864,101.36393375396729 184.4578457756676,101.36393375396729 C184.28798431927342,101.36393375396729 183.84900501329085,101.06993375396729 183.48165403229373,100.71093375396728 C180.86415038496634,98.15293375396729 169.88762121183058,96.40893375396729 162.39836820370337,97.36193375396729 M171.56065423113486,109.03793375396728 C181.29699012023588,111.77893375396728 181.9692731133141,129.91193375396728 172.49693876487393,134.3049337539673 C170.15571579963344,135.38993375396728 165.33717605168005,135.2089337539673 163.46051393705983,133.9639337539673 C162.63167189079903,133.41393375396729 161.85706271917005,132.9639337539673 161.73938761383673,132.9639337539673 C160.0591917620339,132.9639337539673 157.42736244970936,126.83793375396729 157.18484940654415,122.36393375396729 C156.66196263415,112.70193375396728 163.16376801926273,106.67493375396728 171.56065423113486,109.03793375396728 " stroke="none" fill="#484848" fill-rule="evenodd"/><path id="path1" d="M128.01677221066134,45.17793375396729 C128.01677221066134,45.53493375396729 128.64198516160627,47.11693375396729 129.40738497716563,48.694933753967284 C132.63475264865536,55.35693375396728 134.56564763790746,59.43993375396728 134.56564763790746,59.60793375396729 C134.56564763790746,59.77793375396729 135.56332787877696,61.88893375396728 139.1201858452,69.23993375396728 C139.99200488645218,71.04193375396729 140.70521835095067,72.60793375396729 140.70521835095067,72.72093375396729 C140.70521835095067,72.83293375396728 141.51154863793036,74.59893375396729 142.4979729991593,76.64393375396727 C143.48439736038824,78.6899337539673 145.1257092643418,82.16393375396729 146.14590126449247,84.36393375396729 C149.6925266130604,92.0109337539673 148.93224310642856,91.84493375396728 152.57607832461971,85.76393375396728 C153.03756938988346,84.99393375396728 154.23887872606892,83.04393375396728 155.245768323008,81.42993375396728 C156.25368118173262,79.81593375396729 157.0774069190659,78.33093375396729 157.0774069190659,78.1299337539673 C157.0774069190659,77.92893375396729 157.22884966332097,77.76393375396728 157.41406004649778,77.76393375396728 C157.5992704296746,77.76393375396728 158.15797136456152,76.9989337539673 158.6562998541035,76.06393375396729 C159.15360508186004,75.12893375396729 160.56775286943096,72.7789337539673 161.79873679739615,70.84193375396728 C163.02869746357578,68.90393375396728 164.03558706051487,67.08593375396728 164.03558706051487,66.80093375396729 C164.03558706051487,66.31993375396729 160.27816978413244,63.76393375396728 159.56904936677594,63.76393375396728 C159.39407160145421,63.76393375396728 158.91723160940785,63.40393375396728 158.50997341877599,62.96393375396728 C158.10271522814412,62.523933753967285 157.5849447646775,62.163933753967285 157.3598271718659,62.163933753967285 C157.13470957905432,62.163933753967285 156.34679800421375,61.71393375396728 155.60800299507756,61.163933753967285 C154.87023124772685,60.61393375396729 154.18055280429502,60.163933753967285 154.07618010217328,60.163933753967285 C153.97078413826603,60.163933753967285 152.7152419274487,59.44993375396729 151.28574521309514,58.57793375396729 C149.8562484987416,57.70593375396729 147.25511703998228,56.130933753967284 145.50533938676494,55.07793375396729 C143.75453847176212,54.02493375396729 141.5442930150666,52.669933753967285 140.59368281633036,52.065933753967286 C139.6420493558087,51.46193375396729 138.3998095482029,50.74193375396729 137.83292251903197,50.465933753967285 C137.26603548986097,50.18993375396728 136.3450998829045,49.642933753967284 135.78639894801756,49.25093375396729 C131.5787464860119,46.29593375396728 128.01677221066134,44.428933753967286 128.01677221066134,45.17793375396729 M103.86779407269138,46.029933753967285 C103.07988249785085,46.10693375396728 99.85660787350317,46.60993375396728 96.70496157414097,47.148933753967285 C88.36640128404278,48.575933753967284 79.02811422950406,50.102933753967285 76.4760993364491,50.45593375396729 C74.19627207833906,50.77193375396729 73.34082522565502,51.53393375396728 74.6710655468144,52.063933753967284 C75.0834400463738,52.22893375396728 77.07880052811284,53.425933753967286 79.1048588634171,54.72393375396729 C81.13091719872135,56.02193375396729 84.35419182306904,58.071933753967286 86.26769136196752,59.27893375396728 C88.18119090086599,60.48593375396729 90.5132045100369,61.98893375396729 91.45051230556149,62.61893375396728 C92.38782010108609,63.24893375396729 93.27601133090634,63.76393375396728 93.42438428980489,63.76393375396728 C93.57275724870343,63.76393375396728 93.93499192077297,63.98893375396729 94.22866805321355,64.26393375396728 C94.52336744743963,64.53893375396729 95.64895541149754,65.30393375396729 96.72849659520763,65.96393375396728 C99.8351193760075,67.86093375396729 99.93028272205969,67.92093375396729 101.21754604822773,68.76393375396728 C101.88880577952045,69.20393375396728 102.73299675256392,69.74393375396728 103.09216163927692,69.96393375396728 C103.45132652598996,70.18393375396728 104.55542599255222,70.88693375396728 105.5459434009232,71.52593375396728 C112.51947246915479,76.02493375396728 115.3477680442967,77.76393375396728 115.68749095708507,77.76393375396728 C115.9023759320416,77.76393375396728 116.13977266627927,77.9049337539673 116.2154940384068,78.07693375396728 C116.39661137444156,78.49293375396729 121.46073395091672,81.76393375396728 121.92427153975147,81.76393375396728 C122.51776337534565,81.76393375396728 122.32027385074277,80.88293375396728 121.25403507024426,78.76393375396728 C120.70045044428487,77.66393375396729 120.24407568794865,76.58393375396729 120.23998264080662,76.36393375396729 C120.2358895936646,76.14393375396727 119.77951483732839,75.06393375396729 119.22593021136898,73.96393375396728 C118.67234558540959,72.86393375396729 118.21290104371685,71.7379337539673 118.20676147300381,71.46093375396728 C118.19959864050526,71.18393375396728 117.75652628738065,70.10393375396728 117.22136037356039,69.06093375396728 C116.3137271698155,67.28893375396729 115.66600245958942,65.83493375396728 113.0771501422562,59.76393375396729 C112.51435616022725,58.443933753967286 111.59342055327078,56.28393375396729 111.0306265712418,54.96393375396728 C108.46019296604771,48.935933753967284 108.02019039827962,47.89493375396729 107.60372285157818,46.86393375396729 C107.14530157167096,45.72893375396728 107.09823152953763,45.71793375396729 103.86779407269138,46.029933753967285 M60.435447586838194,68.8859337539673 C59.847072060171556,70.13893375396728 58.71227474004407,72.51393375396728 57.91310728556294,74.16393375396729 C57.11393983108182,75.81393375396729 55.69979204351086,78.78393375396729 54.76964708048482,80.76393375396728 C53.840525379244276,82.74393375396728 52.62693690163274,85.20093375396729 52.073352275673344,86.22293375396728 C51.51976764971394,87.24493375396729 51.06748594051976,88.28393375396729 51.06748594051976,88.53093375396728 C51.06748594051976,88.77793375396729 50.59166921025891,89.71693375396728 50.009433254305314,90.61793375396729 C49.427197298351714,91.51893375396727 49.10486983591694,92.38993375396728 49.29315000445027,92.5529337539673 C49.62571008474011,92.84193375396728 94.50392547351498,92.24093375396728 94.81295053273816,91.94393375396729 C95.05444031411785,91.71193375396729 89.29859277063984,87.16893375396728 77.67229236370702,78.4159337539673 C72.6982168243565,74.67093375396729 68.92442735940594,71.79093375396728 65.33175523049016,68.99793375396729 C61.55694250375409,66.06293375396729 61.75852507549901,66.06693375396728 60.435447586838194,68.8859337539673 " stroke="none" fill="#0b5eaf" fill-rule="evenodd"/><path id="path2" d="M53.011683332983445,111.66293375396728 C48.92375249988217,111.75293375396728 47.38272025090833,111.91993375396729 47.379650465551805,112.27493375396729 C47.37760394198079,112.54393375396728 47.75416427904744,114.65393375396728 48.217701867882205,116.96393375396728 C50.270365009609655,127.19993375396729 52.972799385134174,141.24693375396728 53.412801952902264,143.9639337539673 C53.959223746363115,147.3439337539673 53.38722040826458,148.00793375396728 68.03316634422917,126.9639337539673 C70.40713368660589,123.55393375396729 73.8197117412724,118.64893375396728 75.61860596019406,116.06393375396729 L78.88895062667507,111.36393375396729 L68.76479852086682,111.45193375396728 C63.19620788413664,111.49993375396728 56.107050234142726,111.59493375396728 53.011683332983445,111.66293375396728 " stroke="none" fill="#3282cc" fill-rule="evenodd"/><path id="path3" d="M287.7479369283356,99.6599337539673 C289.04236308700223,99.73893375396729 291.16051498300214,99.73893375396729 292.4549411416687,99.6599337539673 C293.74936730033534,99.57993375396728 292.6902913523354,99.51493375396728 290.1014390350022,99.51493375396728 C287.51258671766897,99.51493375396728 286.453510769669,99.57993375396728 287.7479369283356,99.6599337539673 M74.58920460397381,142.8019337539673 C73.47077947241445,144.65993375396727 72.18760919338841,146.80093375396729 71.73737400776524,147.56093375396728 C71.28713882214208,148.3199337539673 69.3715927596726,151.4209337539673 67.47958171826977,154.4519337539673 C65.58859393865247,157.48393375396728 63.602442812982986,160.71093375396728 63.06727689916272,161.6229337539673 L62.09517820293088,163.28293375396728 L65.07389326054235,165.4229337539673 C66.71213537913937,166.6009337539673 68.6051696823277,167.90093375396728 69.28052246076246,168.31193375396728 C69.95689850098272,168.7239337539673 70.65680956226964,169.3089337539673 70.8369036365189,169.6119337539673 C71.01699771076817,169.9159337539673 71.34751126748701,170.16393375396729 71.57160559851307,170.16393375396729 C71.79467666775365,170.16393375396729 73.15356831890722,171.01893375396727 74.58920460397381,172.0639337539673 C76.02586415082592,173.10893375396728 78.51648333675045,174.86393375396727 80.12607412535328,175.9639337539673 C81.73464165217061,177.0639337539673 83.54479175073286,178.37793375396728 84.1474929423966,178.88393375396728 C85.52480330568929,180.03793375396728 90.74548493534704,183.76393375396728 90.98697471672673,183.76393375396728 C91.08623110992093,183.76393375396728 92.47786713821071,184.7539337539673 94.080295094315,185.9639337539673 C96.80728775269169,188.0229337539673 97.72822335964817,188.51493375396728 97.72822335964817,187.91393375396729 C97.72822335964817,187.47293375396728 94.8047644384541,180.47793375396728 93.1695921052136,177.00793375396728 C92.29981958753247,175.16193375396728 91.58865264660496,173.4699337539673 91.58865264660496,173.2479337539673 C91.58865264660496,173.02593375396728 91.1517198641934,171.92593375396729 90.61757721215864,170.80393375396727 C90.08343456012386,169.6819337539673 89.04687037140509,167.32393375396728 88.31523819476743,165.5639337539673 C87.58360601812979,163.80393375396727 86.64220517546315,161.6439337539673 86.22266784340519,160.76393375396728 C85.80415377313275,159.88393375396728 84.97735825044295,157.9039337539673 84.38693620020527,156.36393375396727 C83.79651414996762,154.82393375396728 82.90218334943431,152.66393375396729 82.3997618127503,151.5639337539673 C81.89734027606625,150.4639337539673 81.24245273334165,148.93393375396727 80.94570681554455,148.16393375396729 C80.64896089774746,147.3939337539673 80.25193532497067,146.5929337539673 80.06263189465184,146.38393375396728 C79.87332846433301,146.17493375396728 79.71881593472142,145.78293375396728 79.71881593472142,145.5119337539673 C79.71881593472142,144.88293375396728 77.34996490127224,139.86393375396727 76.93452061635632,139.6129337539673 C76.7626126363911,139.50893375396728 75.70660647374768,140.9439337539673 74.58920460397381,142.8019337539673 M104.5380305421986,160.0749337539673 C104.43365784007686,160.23893375396727 105.17245284921307,162.26093375396727 106.17831918436666,164.5689337539673 C107.18418551952023,166.87593375396727 108.3435411224999,169.57393375396728 108.75591562205929,170.5639337539673 C110.4749954217114,174.69293375396728 112.77938096267361,180.0579337539673 113.39640781933446,181.36393375396727 C113.76068901497501,182.13393375396728 115.19018572932859,185.4619337539673 116.57363566333431,188.7609337539673 C117.95708559734005,192.0589337539673 119.24537218529362,195.04293375396728 119.43774540096898,195.3929337539673 C119.7539332926907,195.97093375396727 120.51012375218053,195.94793375396728 127.68728191572802,195.14593375396728 C132.03307471877713,194.6599337539673 137.43078063732762,194.13993375396728 139.68195656544347,193.98993375396728 C144.73686978584905,193.6539337539673 152.08081962043423,192.78093375396728 152.3888214178719,192.47893375396728 C152.6446368642487,192.22893375396728 147.43725763780256,188.5639337539673 146.82534709006927,188.5639337539673 C146.6104621151127,188.5639337539673 146.43548434979098,188.4209337539673 146.43548434979098,188.24593375396728 C146.43548434979098,188.0699337539673 145.00803415900845,186.98893375396727 143.26337281471868,185.8429337539673 C141.51871147042888,184.6959337539673 138.24939006573337,182.4919337539673 135.99821413761754,180.9449337539673 C133.7470382095017,179.3969337539673 130.61585714584967,177.2909337539673 129.04003399616855,176.26393375396728 C127.46421084648748,175.2359337539673 126.08280743605275,174.29893375396728 125.97024863964694,174.17993375396728 C125.85768984324116,174.06093375396728 124.66047355419775,173.2239337539673 123.30976799732822,172.3199337539673 C121.95906244045872,171.4159337539673 119.38044274098058,169.66693375396727 117.5795019984879,168.4329337539673 C106.03710905796666,160.52693375396728 104.76724118215222,159.7129337539673 104.5380305421986,160.0749337539673 " stroke="none" fill="#3e98ec" fill-rule="evenodd"/><path id="path4" d="M400.20440715557714,113.76393375396728 L400.20440715557714,145.3819337539673 L407.6742181897797,145.27293375396727 L415.1440292239823,145.16393375396729 L415.3486815810837,129.76393375396728 C415.5502641528286,114.57993375396728 415.56663634139676,114.34193375396728 416.49882782799386,112.76393375396728 C418.1401397319474,109.98893375396729 422.1840703082718,108.66593375396728 424.88548142201086,110.02093375396728 C428.9877379201092,112.07993375396728 429.2650418639817,113.41093375396729 429.2650418639817,131.03693375396728 L429.2650418639817,145.36393375396727 L436.6325267196335,145.36393375396727 L444.0000115752854,145.36393375396727 L443.9928487427868,128.26393375396728 C443.9856859102883,111.13393375396728 443.6572188771405,106.46893375396729 442.36790902740137,105.20893375396729 C442.1397216492333,104.98593375396729 441.953488004271,104.55693375396729 441.953488004271,104.25493375396728 C441.953488004271,103.15593375396728 438.2196057489552,99.85093375396728 435.68600956803937,98.70693375396729 C430.0570464859643,96.1659337539673 420.94080723888055,97.52393375396728 416.4814323776402,101.56893375396729 L415.3630072460808,102.58393375396729 L415.25351823503155,92.47393375396729 L415.1440292239823,82.36393375396729 L407.6742181897797,82.2549337539673 L400.20440715557714,82.14593375396728 L400.20440715557714,113.76393375396728 M270.86411746746677,92.34693375396728 L270.86411746746677,99.32993375396728 L267.69200593239447,99.44693375396729 L264.51989439732216,99.56393375396729 L264.40426581555977,104.06393375396729 L264.28863723379754,108.56393375396729 L267.57637735063213,108.56393375396729 L270.86411746746677,108.56393375396729 L270.86411746746677,121.67993375396729 C270.86411746746677,137.8989337539673 271.175189050261,139.52493375396728 274.9223737087883,142.87593375396727 C277.6033195868172,145.2739337539673 286.6755585771241,146.4859337539673 292.6595934987702,145.24593375396728 L294.194486177031,144.9279337539673 L294.194486177031,139.3459337539673 L294.194486177031,133.76393375396728 L290.7153961063065,133.76393375396728 C285.2859690724053,133.76393375396728 285.5990871787705,134.5839337539673 285.5990871787705,120.36393375396729 L285.5990871787705,108.56393375396729 L290.3060913921036,108.56393375396729 L295.0130956054367,108.56393375396729 L295.0130956054367,104.16393375396729 L295.0130956054367,99.76393375396728 L290.3060913921036,99.76393375396728 L285.5990871787705,99.76393375396728 L285.5990871787705,92.56393375396729 L285.5990871787705,85.36393375396729 L278.23160232311864,85.36393375396729 L270.86411746746677,85.36393375396729 L270.86411746746677,92.34693375396728 M313.6354368398823,98.56893375396729 C295.6321689856686,105.15293375396729 292.9808976994194,132.9619337539673 309.33876060253755,143.62693375396728 C315.9377758572735,147.92893375396727 330.6512570710816,147.9749337539673 336.825618684832,143.7139337539673 C337.42320356756824,143.30093375396729 338.0678584924378,142.9629337539673 338.2581851845421,142.9619337539673 C339.44209907037396,142.9569337539673 346.99479430920263,134.76793375396727 346.99479430920263,133.4879337539673 C346.99479430920263,133.2809337539673 345.75153123981136,132.48493375396728 344.2319874883332,131.71993375396727 C342.712443736855,130.95493375396728 340.2965226612725,129.7159337539673 338.8639561615624,128.9659337539673 C336.53705886131905,127.74893375396726 336.2075685663857,127.67193375396727 335.7941708050408,128.2449337539673 C331.850519883696,133.69893375396728 330.90195620853086,134.53693375396728 327.7134724848904,135.37593375396727 C320.6458033323922,137.23493375396728 314.7272571650185,133.5809337539673 313.6037157245316,126.66393375396729 L313.3274350424447,124.9639337539673 L330.6266987882294,124.9639337539673 L347.92596253401416,124.9639337539673 L347.64149575764316,121.86393375396729 C347.01321302134176,115.04093375396728 345.08027150851865,109.19193375396729 342.24583636266374,105.53493375396728 C340.5062913273014,103.29293375396728 338.40348835808413,101.10693375396728 338.40144183451315,101.53993375396729 C338.40041857272763,101.74793375396729 338.169161409203,101.62293375396729 337.8877644181885,101.26293375396727 C337.606367427174,100.9039337539673 335.81054299360886,99.92693375396729 333.8970434547104,99.09393375396729 L330.41795338398595,97.57693375396728 L323.6644255996384,97.47393375396729 C317.0418753238358,97.37293375396729 316.84745558458945,97.39393375396727 313.6354368398823,98.56893375396729 M367.5807749100365,97.74093375396728 C366.0213239489235,98.11493375396728 362.4225122492947,99.6779337539673 360.10073125797885,100.98993375396728 C359.01709702712674,101.60393375396728 354.77158387905735,105.78093375396729 354.77158387905735,106.23493375396728 C354.77158387905735,106.38393375396728 354.54134997731825,106.74493375396729 354.2589297245182,107.03493375396728 C353.77595016175883,107.53393375396729 352.9481313772835,109.09793375396728 351.96989311033866,111.36393375396729 C348.31991832143444,119.81793375396728 350.0563935714402,132.92493375396728 355.648519229237,139.13393375396728 C361.5281814487614,145.66193375396728 373.7878809009232,148.7909337539673 381.58104265934605,145.75293375396728 C382.93174821621557,145.2259337539673 384.128964505259,144.78793375396728 384.2415233016648,144.7789337539673 C384.35408209807053,144.76993375396728 385.18292414433137,144.3169337539673 386.0833945155777,143.7719337539673 C386.98386488682405,143.22693375396727 387.90480049378056,142.68693375396728 388.1309413483777,142.5719337539673 C389.6678805502095,141.7909337539673 395.2927505851425,135.3429337539673 395.2927505851425,134.3629337539673 C395.2927505851425,134.09193375396728 392.86455036813396,132.6559337539673 389.8981144519486,131.17193375396727 C384.39808235484736,128.4209337539673 383.422913873259,128.28293375396728 383.422913873259,130.2569337539673 C383.422913873259,132.03493375396727 379.28484321266785,134.89493375396728 376.24166266256947,135.2189337539673 C373.9423934305348,135.4639337539673 370.32516301876683,134.55393375396727 370.32516301876683,133.7309337539673 C370.32516301876683,133.5289337539673 370.04478928953785,133.36393375396727 369.70097332960745,133.36393375396727 C369.3581806314625,133.36393375396727 368.9161315401234,132.9519337539673 368.72068853909155,132.44793375396728 C368.52422227627414,131.9439337539673 368.06989404350895,131.29193375396727 367.7097058950104,131.00093375396727 C363.742519952599,127.78293375396728 364.67573470098154,114.91093375396729 369.18831917506833,110.59793375396728 C373.19745885068556,106.76793375396728 381.99341715890546,108.65393375396728 383.26840134364744,113.61693375396729 C383.58254271179817,114.83793375396729 384.4031986637749,114.80093375396729 386.7884218857922,113.45493375396728 C387.85159088093417,112.85493375396729 390.1078831179776,111.59393375396729 391.8024046347775,110.65393375396728 C393.4969261515774,109.71293375396729 394.8834458709397,108.75393375396729 394.8834458709397,108.52293375396728 C394.8834458709397,107.02693375396728 387.2918666842618,99.87593375396729 385.3159481764473,99.5109337539673 C385.06217925364155,99.46393375396728 383.7186365292706,98.98093375396729 382.33007028633733,98.43693375396728 C379.66856638223305,97.39493375396728 370.7784679897465,96.97593375396728 367.5807749100365,97.74093375396728 M327.159887858931,108.31093375396729 C329.56659957844397,109.40593375396729 331.2375860741772,111.18093375396728 331.832101171557,113.27593375396728 C332.58215206033367,115.91293375396728 333.1081086180844,115.76393375396728 323.0504685283341,115.76393375396728 C312.7083616622128,115.76393375396728 313.160643371407,115.93593375396729 315.0516311510243,112.71393375396728 C317.8922058675923,107.87493375396728 322.5112095673718,106.19493375396729 327.159887858931,108.31093375396729 M150.94806882387778,160.55393375396727 L140.52103122955938,160.76393375396728 L142.54504304129262,162.36393375396727 C143.65835186392445,163.24393375396727 144.9179871218838,164.23393375396728 145.3436640246548,164.5639337539673 C145.76934092742582,164.8939337539673 146.3352046948113,165.3439337539673 146.60125275904315,165.5639337539673 C146.8662775614895,165.7839337539673 147.37586193067213,166.1439337539673 147.73298029381414,166.36393375396727 C148.9506618185677,167.11493375396728 158.09759891921655,174.1589337539673 159.15769812900203,175.16293375396728 C159.73993408495565,175.7139337539673 160.35082137090345,176.16393375396729 160.5176130419411,176.16393375396729 C160.68338145119327,176.16393375396729 161.7670156820454,176.92893375396727 162.92534802323956,177.86393375396727 C164.08368036443372,178.79893375396728 165.28498970061915,179.7439337539673 165.59503802162786,179.9639337539673 C165.90610960442206,180.1839337539673 166.6111369746365,180.76893375396727 167.16267507702491,181.26393375396728 C167.71421317941326,181.75893375396728 168.25347214037555,182.16393375396729 168.36091462785382,182.16393375396729 C168.46733385354656,182.16393375396729 169.72696911150592,183.0639337539673 171.159535611216,184.16393375396729 C174.24569315630572,186.5339337539673 174.03387796670575,186.4919337539673 174.70309117442744,184.86393375396727 C174.996767306868,184.1489337539673 176.2871004183926,181.4039337539673 177.57129395920413,178.76393375396728 C178.85446423823018,176.1239337539673 180.66768412214893,172.3439337539673 181.599875608746,170.36393375396727 C182.53309035712857,168.38393375396728 183.44277008444448,166.49393375396727 183.62184089690822,166.16393375396729 C184.67989358312266,164.2139337539673 185.28975760728497,162.99593375396728 185.8750633485951,161.66393375396729 L186.53404393846174,160.16393375396729 L173.95508680922168,160.2539337539673 C167.03579061562198,160.3029337539673 156.68242786986013,160.4379337539673 150.94806882387778,160.55393375396727 " stroke="none" fill="#5caaf1" fill-rule="evenodd"/></g></g></svg>