<?xml version="1.0" encoding="utf-8"?>
<!-- Generator: Adobe Illustrator 22.1.0, SVG Export Plug-In . SVG Version: 6.00 Build 0)  -->
<svg version="1.1" id="Layer_1" xmlns="http://www.w3.org/2000/svg" xmlns:xlink="http://www.w3.org/1999/xlink" x="0px" y="0px"
	 viewBox="0 0 243.6 273.8" style="enable-background:new 0 0 243.6 273.8;" xml:space="preserve">
<style type="text/css">
	.st0{fill:#FFFFFF;}
</style>
<g>
	<path class="st0" d="M169.9,110.2C169.9,110.2,169.9,110.2,169.9,110.2C170,110.2,169.9,110.2,169.9,110.2 M31.3,109.3
		c-0.1,0.1,0,0.2,0.1,0.2c0.1,0,0.2,0.1,0.3,0.1c2.9,0.8,6,1.7,8.8,2.5c0.1,0,0.2,0.1,0.3,0.1C37.6,111.2,34.5,110.2,31.3,109.3
		C31.3,109.3,31.3,109.3,31.3,109.3 M214.2,133.8c-8.4-1.4-29.7-1.4-42.8-1.2c-0.7-0.3-1.4-0.7-2.1-1c-5.6-2.6-11.2-5.2-16.7-7.8
		c0.9-0.9,1.9-1.7,2.8-2.6c0,0,0,0,0,0c8.2,3.1,21.1,7.5,29.5,10.4c0,0,0,0,0,0c0,0,0,0,0,0c0,0,0,0,0,0c0.6,0.1,1.9-0.9,2.4-2.6
		c0.5-1.7,0.3-3.3-0.3-3.5c0,0-19-6.7-26.2-9.2c3.8-3.4,7.8-6.6,11.7-9.9c3.9-3.3,7.8-6.6,11.7-9.9c2-1.6,3.9-3.3,5.9-4.9
		c4-3.2,8-6.4,12.2-9.3c1.1-0.7,2.1-1.5,3.2-2.2c0.7-0.4,1.4-0.9,2.1-1.3c0.5-0.2,1-0.4,1.4-0.6c0,0,0,0,0,0c0-0.1-0.1,0-0.1-0.1
		c0.1-0.1,0.2-0.1,0.2-0.1c0-0.3,0.2-0.8,0-1c-0.3-0.1-0.5,0.1-0.7,0.2c0-0.1,0-0.1,0-0.1c-1,0.6-2.1,1.1-3.2,1.6
		c-0.2,0.1-0.5,0.2-0.6,0.3c-0.1,0-0.1,0.1-0.2,0.1c-1.5,0.8-3,1.5-4.6,2.3c-1.4,0.7-2.8,1.4-4.2,2.2c-1.4,0.8-2.8,1.4-4.2,2.2
		c-5.6,3-11.2,5.9-16.7,9c0.6-0.5,1.2-1,1.9-1.4c0.7-0.4,1.4-0.8,2.1-1.2c4.2-2.4,8.4-4.7,12.8-7c2.8-1.5,5.7-3,8.6-4.5
		c2.5-1.3,5.1-2.6,7.7-3.8c0.3-0.2,0.8-0.4,1.3-0.4c0.1,0,0.1,0.1,0.2,0.1c0.2,0.1,0.3,0.1,0.4,0.3c0.1,0.2,0.3,1,0.1,1.4
		c-0.1,0.2-0.2,0.2-0.3,0.3c-0.1,0-0.1,0.1-0.1,0.1c-0.1,0.1-0.2,0.1-0.3,0.2c-0.7,0.4-1.4,0.8-2.1,1.2c-1.4,0.9-2.7,1.8-4,2.7
		c-0.4,0.3-0.9,0.6-1.3,0.9c-2.6,1.9-5.1,3.8-7.6,5.8c-1.7,1.4-3.4,2.8-5.1,4.2c-0.4,0.3-0.7,0.6-1.1,0.9c-3.6,3.1-7.3,6.2-10.8,9.3
		c-2.4,2.1-4.8,4.2-7.2,6.2c0,0,0,0,0,0c5.8-4.9,11.6-9.7,17.5-14.4c-4.7,4-9.5,8-14.1,12.1c0,0.1,0.1,0,0.1,0
		c0.6-0.4,1.2-1,1.8-1.4c-1.8,1.9-3.8,3.6-5.7,5.3c-1.5,1.3-2.9,2.6-4.3,4c-0.4,0.4-0.9,0.8-1.2,1.2c0,0-0.1,0.2-0.1,0.2
		c0.6-0.4,1-0.9,1.5-1.3c2.5-2.2,5.1-4.4,7.6-6.6c2-1.8,4.1-3.5,6.1-5.2c1-0.9,2.1-1.7,3.1-2.6c0,0,0.1-0.1,0.1-0.1
		c0.1-0.1,0.2-0.2,0.3-0.2c1.9-1.6,3.9-3.2,5.8-4.8c3.1-2.6,6.3-5.1,9.5-7.6c1.6-1.3,3.2-2.4,4.9-3.6c0.5-0.4,1.1-0.8,1.7-1.2
		c1.7-1.2,3.4-2.2,5.3-3.2c0.7-0.4,1.3-0.6,1.6-1.2c0.4-0.6,0.6-1.4,0.5-2.2c-0.1-0.8-0.5-1.4-1.1-1.7c0.3,0.3,0.6,0.6,0.8,1
		c0.2,0.4,0.3,1,0.2,1.6c0,0.2-0.1,0.5-0.2,0.7c-0.2,0.5-0.4,0.8-0.8,1.1c-0.2,0.1-0.4,0.3-0.5,0.4c-0.4,0.2-0.8,0.4-1.2,0.6
		c-1.2,0.6-2.4,1.3-3.5,2c-0.8,0.5-1.5,1-2.3,1.4c1.6-1.4,3.4-2.6,5.3-3.7c0.5-0.3,1-0.5,1.4-0.8c0.5-0.3,0.9-0.7,1.1-1.2
		c0.2-0.6,0.2-1.3-0.1-1.9c-0.3-0.5-0.6-0.9-1.2-1.1c0.8-0.4,1.5-0.8,2.2-1.2c0.5-0.3,1.1-0.6,1.5-1.1c0.1-0.2,0.3-0.3,0.4-0.4
		c0.2-0.3,0.4-0.7,0.6-1c0.2-0.4,0.3-0.8,0.3-1.2c0-0.5-0.1-0.9-0.3-1.3c-0.1-0.4-0.3-0.7-0.6-1c-0.5-0.6-1.1-1-1.9-1.2
		c-0.4-0.1-0.9-0.2-1.4-0.1c-4.2,0.5-7.7,1.8-11.2,3c0.7-0.2,1.6-0.6,2.3-0.7c-2.4,0.9-4.7,1.8-7,2.8c-1.3,0.6-2.5,1.4-3.7,2.1
		c1.1-0.9,2.1-1.8,3.1-2.8c1-1,1.9-2.1,2.7-3.2c0.4-0.5,0.8-1.1,1.3-1.7c0.4-0.6,0.8-1.3,0.9-2.1c0.1-0.4,0.1-1,0-1.4
		c-0.1-0.3-0.3-0.7-0.6-0.9c-0.2-0.2-0.5-0.5-0.8-0.7c-0.3-0.2-0.7-0.4-1-0.5c-0.2,0-0.4,0.1-0.6,0.1c-1.1,0.2-1.9,0.7-2.6,1.2
		c-0.3,0.2-0.6,0.4-0.9,0.6c-2.4,1.7-4.5,3.5-6.6,5.4c-3.2,2.8-6.4,5.6-9.6,8.4c-3.1,2.7-6.2,5.4-9.2,8.1c-0.1,0.1-0.3,0.2-0.4,0.4
		c-4.3,3.7-8.6,7.5-12.8,11.2c-3.2,2.8-6.4,5.7-9.6,8.5c2.3-2.2,4.6-4.5,7-6.7c0.6-0.6,1.2-1.1,1.7-1.7c0.6-0.5,1.1-1.2,1.7-1.7
		c0.6-0.5,1.2-1.1,1.7-1.7c0.6-0.6,1.2-1.1,1.8-1.7c4.6-4.6,9.2-9.1,13.7-13.7c5.7-5.7,11.5-11.4,17.1-17.2c0.8-0.9,1.7-1.8,2.5-2.6
		c0.3-0.3,0.6-0.6,0.8-1c0.5-0.7,0.7-1.5,0.7-2.3c0-0.3,0-0.5,0-0.8c0-0.6-0.4-1.1-0.8-1.5c-0.1-0.1-0.2-0.2-0.3-0.3
		c-0.4-0.3-0.8-0.4-1.2-0.5c-0.5-0.1-1,0-1.5,0.1c-0.9,0.2-1.6,0.7-2.3,1.1c0,0-0.9,0.6-1.3,0.9c0.3-0.3,0.7-0.7,1.1-1
		c0-0.1,0-0.1,0-0.1c0,0,0,0,0,0c0.8-0.9,1-2.1,0.4-2.8c-0.7-0.8-2-0.7-3,0.2c-0.2,0.1-0.4,0.4-0.6,0.6c-1.6,1.6-2.9,3.1-4.5,4.7
		c-0.4,0.4-0.8,0.9-1.3,1.3c-1.4,1.2-2.8,2.5-4.2,3.7c-0.9,0.8-1.9,1.6-2.8,2.5c-0.9,0.8-1.9,1.6-2.8,2.5c-1.4,1.2-2.8,2.5-4.2,3.7
		c-0.5,0.4-0.9,0.8-1.4,1.2c1.1-0.8,2.3-1.7,3.5-2.5c-2.1,1.8-4.1,3.6-6.2,5.4c-2.1,1.8-4.1,3.6-6.2,5.4c-4.1,3.5-8.1,7.1-12.1,10.7
		c-0.1,0-0.1,0.1-0.2,0.1c0-2.8-0.1-8-0.1-8.3c0-0.4-0.7-0.7-1.6-0.7c-0.3,0-0.5,0-0.7,0.1c0.1-4,0.2-8.1,0.3-12.1v0
		c0-0.9-1.1-1.6-2.4-1.6c-0.1,0-0.1,0-0.2,0c-0.1,0-0.1,0-0.2,0c-0.1,0-0.2,0-0.4,0.1c-0.1,0-0.2,0.1-0.3,0.1
		c-0.1,0-0.2,0.1-0.3,0.1c-0.1,0-0.2,0.1-0.3,0.2c-0.1,0.1-0.2,0.1-0.2,0.2c-0.1,0.1-0.1,0.1-0.2,0.2c-0.1,0.1-0.1,0.1-0.1,0.2
		c0,0.1-0.1,0.2-0.1,0.3c0,0.1,0,0.2,0,0.3c0,0,0,0.1,0,0.1c0,0,0,0.1,0,0.1c0,0,0,0,0,0.1c0,0,0,0.1,0,0.1c0,0,0,0.1,0,0.1
		c0,0,0,0.1,0,0.1c0,0,0,0.1,0,0.1c0,0,0,0.1,0,0.1c0,0,0,0.1,0,0.1c0,0,0,0.1,0,0.1c0,0,0,0.1,0,0.1c0,0,0,0.1,0,0.1
		c0,0,0,0.1,0,0.1c0,0,0,0.1,0,0.2c0,0.1,0,0.1,0,0.2c0,0.1,0,0.1,0,0.2c0,0.1,0,0.1,0,0.2c0,0.1,0,0.1,0,0.2c0,0.1,0,0.1,0,0.2
		c0,0.1,0,0.1,0,0.2c0,0.1,0,0.1,0,0.2l0,0.2c0,0.1,0,0.2,0,0.2c0,0.1,0,0.2,0,0.2c0,0.1,0,0.2,0,0.2c0,0.1,0,0.2,0,0.2
		c0,0.1,0,0.2,0,0.3c0,0.1,0,0.2,0,0.3l0,0.3c0,0.1,0,0.2,0,0.3c0,0.1,0,0.2,0,0.3c0,0.1,0,0.2,0,0.3c0,0.1,0,0.2,0,0.3
		c0,0.1,0,0.2,0,0.3c0,0.1,0,0.2,0,0.3c0,0.1,0,0.2,0,0.3c0,0.1,0,0.2,0,0.3c0,0.1,0,0.2,0,0.3c0,0.1,0,0.2,0,0.3l0,0.3
		c0,0.1,0,0.2,0,0.3l0,0.3c0,0.1,0,0.2,0,0.3l0,0.3c0,0.1,0,0.2,0,0.3c0,0.1,0,0.2,0,0.3l0,0.3c0,0.1,0,0.2,0,0.3c0,0.1,0,0.2,0,0.3
		c0,0.1,0,0.2,0,0.3c0,0.1,0,0.2,0,0.3c0,0.1,0,0.2,0,0.3c0,0.1,0,0.2,0,0.3c0,0.1,0,0.2,0,0.3c0,0.1,0,0.2,0,0.3c0,0.1,0,0.2,0,0.3
		c0,0.1,0,0.2,0,0.3c0,0.1,0,0.2,0,0.3c0,0.1,0,0.2,0,0.3c0,0.1,0,0.2,0,0.3l0,0.3c0,0.1,0,0.2,0,0.3c0,0.1,0,0.2,0,0.3
		c0,0.1,0,0.2,0,0.3c0,0.1,0,0.2,0,0.3c0,0.1,0,0.2,0,0.3c0,0.1,0,0.2,0,0.3c0,0.1,0,0.2,0,0.3c0,0.1,0,0.2,0,0.3c0,0.1,0,0.2,0,0.3
		c0,0.1,0,0.2,0,0.3c0,0.1,0,0.2,0,0.3c0,0.1,0,0.2,0,0.3c0,0.1,0,0.2,0,0.3c0,0.1,0,0.2,0,0.3c0,0.1,0,0.2,0,0.3c0,0.1,0,0.2,0,0.3
		c0,0.1,0,0.2,0,0.3c0,0.1,0,0.2,0,0.3c0,0.1,0,0.2,0,0.3c0,0.1,0,0.2,0,0.3c0,0,0,0.1,0,0.1c0,0,0,0,0,0.1c0,0,0,0,0,0c0,0,0,0,0,0
		c-0.3-0.6-0.5-1.1-0.8-1.6c-0.1-0.2-0.2-0.5-0.2-0.7c-0.1-1.1-0.1-2.2-0.2-3.4c-0.1-1.1-0.1-2.2-0.2-3.4c-0.1-2.2-0.3-4.5-0.4-6.7
		c-0.3-6.2-0.7-12.3-1-18.5c0-0.3,0-0.6,0-0.8c0-0.3,0.1-0.5,0.1-0.8c0.7-6.2,2.1-18.7,2-19c0.1-2.5-1.2-4.5-2.8-4.6
		c-1.7-0.1-3.1,1.9-3.2,4.4c0,0.5,0.5,9.2,0.8,13.7c0,0.4,0.1,0.7,0.1,1.1c0,0.7-0.2,1.3-0.3,2c-0.5-3.4-1-6.7-1.6-10
		c-0.6-3.2-1.2-6.4-2-9.6c-0.4-1.7-1-3.3-1.9-4.8c-0.8-1.4-2.1-2.9-3.9-3.2c-1.5-0.3-2.8,0.2-3.6,0.9c-1.1,0.8-1.9,2.4-2.2,3.7
		c-0.3,1.7,0,3.4,0.3,5.1c0.6,4,0.9,8,1.4,11.9c0.3,2.2,0.5,4.5,0.8,6.7c-0.6-1.1-1.1-2.2-1.6-3.3c-3.6-7.9-7.3-15.7-10.9-23.6
		c-0.1-0.1-0.1,0-0.1-0.1c0,0,0,0,0,0c1.6,3.5,3.2,7.1,4.7,10.7c-1.8-3.4-3.4-7-5.1-10.5c-1.1,0.5-2,0.9-3.1,1.4c0.1,0,0,0,0.1,0
		c4.4,10.2,9,20.4,13.3,30.5c1.4,3.2,2.8,6.4,4.1,9.6c0.1,0.2,0.2,0.4,0.2,0.6c-3.5-7.5-7-15.1-10.5-22.6c0,0,0,0,0,0
		c2.5,5.6,5.1,11.3,7.5,17c0.1,0.2,0.2,0.4,0.2,0.5c-3.3-6.9-6.5-13.7-9.8-20.6c-0.1-0.1-0.1-0.1-0.1-0.2c-0.3,0.1-0.4,0.2-0.6,0.3
		c-2.1-5-6.1-14.6-6.3-15c-1-2.2-3-3.4-4.7-2.8C92,23.7,91.6,26,92,27.6c0.2,1.3,0.8,2.5,1.2,3.7c0.5,1.3,1,2.5,1.5,3.8
		c0.1,0.4,0.3,0.7,0.4,1.1c0.1,0.3,0.2,0.8,0.4,1c-1-1.2-2.2-1.9-3.1-1.5c-1.2,0.5-1.6,2.4-1,4.5c-0.9-1.2-2-1.8-2.9-1.4
		c-1.2,0.5-1.5,2.7-0.7,4.8c0,0.1,0.1,0.1,0.1,0.2c0.1,0.2,0.2,0.4,0.3,0.6c0.9,2.3,1.8,4.6,2.7,6.9c-0.7-1.2-1.4-2.5-2.1-3.7
		c-0.1-0.2-0.3-0.5-0.5-0.6c-0.4-0.4-1.1-0.6-1.8-0.2c-0.5,0.2-0.9,0.7-0.9,1.4c0,0.4,0.1,0.7,0.2,0.9c0.1,0.3,0.2,0.5,0.4,0.8
		c1.4,3.4,2.7,6.5,4.1,9.8c2.8,6.6,5.6,13,8.4,19.5c1.8,4.1,3.6,8.1,5.4,12.1c0.1,0.3,0.3,0.5,0.3,0.8c-2.1-4.4-4.1-8.9-6.2-13.3
		c2.6,6,5.2,12.1,7.8,18c0.1,0.2,0.2,0.3,0.2,0.5c-0.4-0.1-0.7-0.2-1.1-0.4c-0.4-0.1-0.7-0.2-1.1-0.4c-0.3-0.2-7.8-3.9-8.4-4.2
		c-1.9-1-25.8-11.2-26.8-11.6c-0.1-0.1-0.2-0.1-0.3-0.2c-2.8-1.3-3.7,1.6-3.4,2.3c-1-0.4-2-0.7-3-1.1c-1-0.4-3-1.1-3-1.1
		c-0.5-0.2-1.2,0.4-1.5,1.4c-0.2,0.5-0.2,1-0.2,1.4c-1.2-0.3-2.4-0.6-3.6-1c-0.6-0.2-1.3-0.5-1.9-0.6c-0.7-0.2-1.4-0.4-2.1-0.5
		c-0.7-0.1-1.6-0.3-2.3-0.2c-0.8,0.1-1.7,0.4-2.2,1c-0.6,0.7-0.7,1.6-0.5,2.4c0.2,0.8,0.6,1.5,1.1,2.2c0.1,0.2,0.3,0.4,0.5,0.6
		c0.2,0.2,0.3,0.4,0.5,0.5c0.2,0.2,0.4,0.4,0.7,0.6c0.2,0.2,0.5,0.4,0.8,0.6c0.3,0.2,0.6,0.4,0.9,0.6c0.3,0.2,0.7,0.4,1,0.6
		c0.4,0.2,0.8,0.4,1.2,0.6c0.4,0.2,0.9,0.4,1.3,0.5c0.5,0.2,1,0.3,1.5,0.5c0.1,0,0.2,0.1,0.4,0.1c-0.5-0.1-1.1-0.2-1.6-0.3
		C52.5,93,52,94.9,52,95c0,0,0,0,0,0s22.9,9.8,34.4,14.5c-6.7-2.2-13.6-4.2-20.4-6.4c-2.3-0.7-4.5-1.4-6.8-2.1
		c-4.5-1.4-9.3-2.7-14.5-3.4c-1.3-0.2-2.7-0.3-4.1-0.4c-0.7-0.1-1.3-0.2-2-0.2c-0.7-0.1-1.3-0.2-2-0.2c-0.3,0-0.7-0.1-1-0.1
		c-0.3-0.1-0.6-0.2-0.9-0.3c-1.4-0.5-2.9-0.9-4.2-1.4c-0.3-0.1-0.5-0.2-0.7-0.2c0,0-0.1,0-0.2-0.1c-0.9-0.2-1.8,0.7-2.1,2
		c-0.2,1.2,0.3,2.4,1.1,2.6c0.1,0,0.1,0,0.1,0c0.1,0,0.1,0,0.2,0c2.1,0.3,4.1,0.5,6.1,0.8c0.5,0.1,1,0.3,1.4,0.4
		c1.4,0.4,2.9,0.9,4.2,1.3c-0.3,0.6-0.4,1.3-0.6,2c-0.2,0.5-0.3,1-0.5,1.5c0,0.2-0.1,0.2-0.1,0.3c1.5,0.4,3.1,0.9,4.6,1.4
		c10.8,3.2,21.7,6.4,32.5,9.7c-0.3,0.9-0.6,1.9-0.9,2.8c-3.3-1.1-6.7-2.3-10-3.5c-1.7-0.6-3.3-1.2-5-1.7c-3.4-1.1-7-2.4-10.4-3.5
		c0,0-0.4-0.1-0.2,0c0.2,0.1,0.4,0.2,0.6,0.2c2.9,1,5.8,2,8.7,3.1c1.4,0.5,2.9,1,4.3,1.6c0.2,0.1,0.4,0.1,0.5,0.3
		c-1.4-0.3-2.8-0.7-4.1-1.2c-2.7-0.8-5.4-1.7-8.1-2.5c-1.4-0.4-2.7-0.9-4-1.3c-1.5-0.5-3-1-4.5-1.5c-0.7-0.3-2.2-0.8-3.8-1.3
		c-2.4-0.8-4.8-1.6-7.1-2.5c-0.2-0.1-0.3-0.2-0.5-0.2c-0.7-0.2-1.6,0.4-1.9,1.5c-0.3,1,0,2,0.7,2.2c0.1,0,0.3,0.1,0.3,0.1
		c0.2,0.1,0.4,0.1,0.6,0.1c5.6,1.5,11.2,3.2,16.7,4.7c0.6,0.2,1.2,0.3,1.7,0.5c2.8,1,5.6,2,8.3,3c-1.4-0.3-2.8-0.7-4.1-1.1
		c0,0,0,0,0,0c1.8,0.5,3.6,1,5.3,1.5c0.8,0.2,1.7,0.6,2.5,0.9c0.8,0.3,1.7,0.6,2.5,0.9c3.4,1.2,6.7,2.3,10.1,3.5
		c3.3,1.2,6.7,2.3,10.1,3.5c3.4,1.1,6.7,2.3,10.1,3.5c-8.3,7.6-16.7,15.1-24.1,23.5c-1.4,1.6-2.8,3.2-4,4.9
		c-0.2,0.2-0.3,0.4-0.4,0.6c-0.4,0.3-0.7,0.6-1.1,0.9c0,0-1.8,1.3-2.2,1.8c-0.3,0.5,0.2,1.5,1.1,2.2c1,0.7,2,0.8,2.4,0.3
		c0,0,0,0,0,0c0,0,0,0,0,0c0,0,0,0,0,0c0,0,0,0,0,0c0.5-0.9,1-1.7,1.6-2.6c0.2-0.2,0.3-0.4,0.5-0.6c0.2-0.2,0.4-0.3,0.6-0.5
		c0.4-0.3,0.8-0.6,1.2-0.9c10.8-8.7,21.6-17.4,32.4-26.1c0.2-0.1,0.5-0.4,0.6-0.5c0.1,0,0.2,0.1,0.4,0.1c0.4,0.1,0.7,0.2,1.1,0.4
		c-2.5,2.8-5.2,5.6-7.7,8.4c-0.6,0.7-1.3,1.4-1.9,2.1c-1.3,1.4-2.6,2.8-3.8,4.2c-0.6,0.7-1.3,1.4-1.8,2.2c0.2,0,0.3-0.3,0.5-0.3
		c-4.6,4.9-14.1,14.3-14.1,14.4c0.3,0.3,0.4,0.4,0.7,0.7c-2.2,2.1-4.4,4.2-6.7,6.2c0.2,0.2,0.4,0.4,0.6,0.7
		c-0.9,0.8-1.8,1.5-2.7,2.3c-0.1,0.1-0.4,0.3-0.4,0.4c-0.5,0.4-0.1,1.7,0.8,2.8c0.8,1,1.8,1.5,2.3,1.4c0,0,0,0,0,0
		c-1.5,1.5-3.4,3.2-4.9,4.7c-0.2,0.2-0.6,0.6-0.7,0.7c-0.5,0.6-0.8,2.2-0.4,3c0.1,0.2,0.2,0.6,0.5,0.8c-1.3,1.1-2.5,2-3.7,3.1
		c-0.1,0.1-0.2,0.2-0.3,0.3c-0.3,0.4-0.2,1.2,0.4,2c0.6,0.8,1.5,1.2,2,0.9c0,0,0,0,0,0c-0.1,0.4,0,0.8,0.3,1.3
		c0.4,0.6,1,0.9,1.4,0.8c0.1,0,0.1,0,0.2-0.1c0.1,0,0.1-0.1,0.2-0.2c4.2-3.4,8.4-6.7,12.6-10.1c1.4-1.1,2.8-2.3,4.3-3.4
		c-1.3,1.9-2.6,3.8-3.9,5.6c-0.1,0.2-0.3,0.3-0.4,0.5c-0.6,0.6-1.2,1.1-1.7,1.7c-1.2,1.2-2.4,2.2-3.5,3.4c-1,1-2,1.9-2.9,2.9
		c-0.2,0.2-0.5,0.5-0.5,0.5c-1,1-0.9,2.6,0,3.5c0,0,0,0,0.1,0c0,0,0.1,0,0.1,0.1c0.1,0,0.1,0.1,0.2,0.1c0.1,0,0.1,0.1,0.2,0.1
		c0.1,0,0.1,0.1,0.2,0.1c0.1,0,0.1,0,0.2,0.1c0.1,0,0.1,0,0.2,0c0.1,0,0.1,0,0.2,0c0.1,0,0.1,0,0.2,0c0.1,0,0.1,0,0.2,0
		c0.1,0,0.1,0,0.2,0c0.1,0,0.1,0,0.2,0c0.1,0,0.1,0,0.2,0c0.1,0,0.1,0,0.2-0.1c0.1,0,0.1,0,0.2-0.1c0.1,0,0.1-0.1,0.2-0.1
		c0.1,0,0.1-0.1,0.2-0.1c0.1,0,0.1-0.1,0.2-0.1c0.1,0,0.1-0.1,0.2-0.1c0.1,0,0.1-0.1,0.2-0.1c0.1-0.1,0.1-0.1,0.2-0.2c0,0,0,0,0-0.1
		c0,0,0-0.1,0.1-0.1c0,0,0.1-0.1,0.1-0.1c0,0,0.1-0.1,0.1-0.1c0,0,0.1-0.1,0.1-0.1c0,0,0.1-0.1,0.1-0.1c0-0.1,0.1-0.1,0.1-0.1
		c0-0.1,0.1-0.1,0.1-0.2c0-0.1,0.1-0.1,0.1-0.2c0-0.1,0.1-0.1,0.1-0.2c0-0.1,0.1-0.1,0.1-0.2c0.1-0.1,0.1-0.1,0.2-0.2
		c0.1-0.1,0.1-0.1,0.2-0.2c0.1-0.1,0.1-0.2,0.2-0.2c0.1-0.1,0.1-0.2,0.2-0.2c0.1-0.1,0.1-0.2,0.2-0.3c0.1-0.1,0.1-0.2,0.2-0.3
		c0.1-0.1,0.1-0.2,0.2-0.3c0.1-0.1,0.1-0.2,0.2-0.3c0.1-0.1,0.1-0.2,0.2-0.3c0.1-0.1,0.1-0.2,0.2-0.3c0.1-0.1,0.1-0.2,0.2-0.3
		c0.1-0.1,0.1-0.2,0.2-0.3c0.1-0.1,0.1-0.2,0.2-0.3c0.1-0.1,0.1-0.2,0.2-0.3c0.1-0.1,0.1-0.2,0.2-0.3c0.1-0.1,0.1-0.2,0.2-0.3
		c0.1-0.1,0.1-0.2,0.2-0.3c0.1-0.1,0.1-0.2,0.2-0.3c0.1-0.1,0.1-0.2,0.2-0.3c0.1-0.1,0.1-0.2,0.2-0.3c0.1-0.1,0.1-0.2,0.2-0.3
		c0.1-0.1,0.1-0.2,0.2-0.3c0.1-0.1,0.1-0.2,0.2-0.3c0.1-0.1,0.1-0.2,0.2-0.3c0.1-0.1,0.1-0.2,0.2-0.3c0.1-0.1,0.1-0.2,0.2-0.3
		c0.1-0.1,0.1-0.2,0.2-0.3c0.1-0.1,0.1-0.2,0.2-0.2c0.1-0.1,0.1-0.2,0.2-0.3c0.1-0.1,0.1-0.2,0.2-0.2c0.5-0.7,0.9-1.3,1.5-1.9
		c0.6-0.5,1.1-1.1,1.7-1.6c1.7-1.7,3.4-3.3,5-4.9c1.7-1.7,3.4-3.3,5-4.9c0.6-0.6,1.1-1.1,1.7-1.6c1.1-1.1,2.3-2.2,3.4-3.3
		c0.6-0.6,1.1-1.1,1.7-1.6c1.1-1.1,2.2-2.2,3.4-3.3c1.7-1.6,3.4-3.3,5.1-4.9c0.3-0.3,0.6-0.5,0.8-0.8c0.8-0.8,1.7-1.6,2.5-2.5
		c0.6-0.6,1.1-1.1,1.7-1.6c0.3-0.3,0.6-0.5,0.9-0.7c1.8-1.5,3.7-3,5.5-4.5c2.1-1.8,4.3-3.5,6.4-5.2c-15,15.5-30,30.9-44.8,46.5
		c-0.1,0.1-0.1,0.1-0.2,0.2c0,0-0.1,0.1-0.1,0.1c0,0,0.1-0.1,0.1-0.1c4.2-4.1,8.4-8.2,12.5-12.4c2.6-2.6,5.2-5.2,7.7-7.8
		c1.6-1.6,3.1-3.2,4.6-4.7c2.1-2.1,4.1-4.2,6.2-6.3c4.2-4.2,8.2-8.4,12.4-12.5c2-2,3.9-3.9,5.9-5.9c0.1,0,0.2-0.2,0.3-0.2
		c0.1,0.3,0.3,0.5,0.4,0.8c0.1,0.3,0.1,0.6,0.2,0.9c0.1,0.8,0.3,1.5,0.4,2.3c0.8,6.8,1.9,16.6,2,17.4c0.4,2.7,0.8,5.3,1.1,8
		c0.9,6.1,5.2,30.2,5.9,31.9c0.4,0.8,1.1,1.6,2.1,1.7c0.9,0.1,2-0.9,2.1-1.8c0.2-1.2-0.3-2.4-0.3-3.7c0-3,0-6.1,0-9.1
		c0-0.9,0-1.9,0-2.8c0-1.7-0.1-3.4-0.3-5.1c-0.3-3.4-0.8-6.7-1.2-10.1c-0.1-0.8-0.6-6.3-0.6-7c5.3,10.5,16,31.4,16,31.4
		c0.2,0.4,1.1,0.3,2.1-0.1c1-0.4,1.6-1.1,1.5-1.5c0,0,0,0,0,0c-4.3-10.6-8.5-21.2-12.8-31.8c2.8,3.7,5.7,7.5,8.5,11.4
		c0.2,0.3,0.4,0.5,0.5,0.7c0.2,0.3,0.2,0.6,0.4,0.9c1.7,4.1,3.6,8.1,5.4,12c-2.3-3.9-4.2-8.1-6.1-12.4c0,0,0,0,0,0
		c1.2,2.9,2.3,5.9,3.5,8.7c1.3,2.8,2.7,5.5,4.3,8c0.7,1.2,1.5,2.4,2.5,3.6c0.7,0.8,1.5,1.6,2.3,2.3c0.8,0.7,2.2,1.3,3.5,0.9
		c0.8-0.2,1.3-0.6,1.8-1.3c0.4-0.6,0.7-1.4,0.6-2.4c-0.1-0.9-0.3-1.7-0.6-2.5c0.8-0.4,1.7-0.8,2.5-1.2c0.1,0,0.3-0.1,0.4-0.2
		c-1.7-3.6-3.5-7.1-5.1-10.7c-1.7-3.6-3.4-7.1-5.1-10.7c-1.7-3.6-3.4-7.2-5.1-10.7c-1.7-3.6-3.5-7.1-5.2-10.6c0.7,0.2,1.4,0.4,2,0.7
		c7.5,15.6,15.1,31.1,22.9,46.5c0,0,0.1,0,0,0c-7.2-15.4-14.4-30.8-21.6-46.1c8.1,2.7,16.3,5.3,24.4,7.9c0,0,0.1,0,0,0
		c-4.1-1.5-8.3-2.9-12.4-4.4c-4.1-1.5-8.3-2.9-12.4-4.4c0,0,0,0,0,0c-0.4-1-0.9-2-1.3-2.9c3.6,1.2,7.4,2.4,11.1,3.5
		c0.5,0.2,1.1,0.3,1.6,0.5c5.3,1.6,10.7,3.3,16.1,4.7c1.1,0.3,2.1,0.7,3.2,1c2.1,0.6,4.2,1.4,6.3,2.1c2.1,0.7,4.2,1.4,6.2,2.1
		c1.5,0.6,3.1,1.1,4.6,1.7c0.5,0.3,1.1,0.6,1.1,0.6c0.1,0,0.2,0,0.3,0l0,0c0,0,0,0,0,0c1.1-0.1,2.5-2,3.3-4.6c0.9-2.9,0.6-5.6-0.5-6
		c0,0-0.7-0.1-0.7-0.1c0.3-1.2,0.1-2.2-0.6-2.5c-0.1,0-17.4-5.6-25.9-8.3c-1.2-0.4-2.5-0.8-3.7-1.1c-4.8-1.5-9.6-3-14.4-4.5
		c0.5,0,1.1,0,1.6,0c0.9,0.3,7.7,2.4,9.7,3.1c3.5,1.1,6.8,2.1,10.2,3.2c3.3,1,9.9,3.2,9.9,3.2c0,0,0.1,0,0.2,0
		c0.3-0.1,0.6-0.5,0.7-1c0.2-0.6,0.1-1.1,0-1.3c0,0,0-0.1-0.2-0.1c-0.1,0-0.1,0-0.2-0.1c-0.9-0.3-1.9-0.7-2.8-1
		c-3.2-1.1-6.4-2.2-9.6-3.3c-2.1-0.7-4.3-1.5-6.4-2.2c-0.8-0.3-1.5-0.5-2.3-0.8C200.3,136.9,222.8,135.2,214.2,133.8 M75,121.6
		c-1.2-0.3-2.4-0.7-3.6-1.1c0.3,0,0.6,0.2,1,0.3c0.6,0.2,1.3,0.4,2,0.6c0.3,0.1,0.6,0.2,0.9,0.3C75.2,121.7,75.1,121.7,75,121.6
		 M129.6,76.6c0.1-0.5,0.1-1.1,0.2-1.6c0.1-0.7,0.2-1.4,0.3-2.1c0.3,1.9,0.5,3.8,0.9,5.6c0.1,0.5,0.2,1.2,0.2,1.8
		c-0.4-0.9-0.9-1.9-1.4-2.9c-0.1-0.1-0.2-0.3-0.2-0.4C129.5,77,129.6,76.8,129.6,76.6 M129,81.4c0-0.4,0.1-0.9,0.2-1.3
		c0.6,1.2,1.2,2.6,1.8,3.8c0.1,0.2,0.2,0.4,0.3,0.5c0.1,0.2,0,0.4,0,0.6c0,0.6,0.1,1.3,0.1,1.9c-0.7-1.6-1.6-3.3-2.3-4.9
		C129,81.8,129,81.7,129,81.4 M128.2,61.6c-0.1,1.1-0.3,2.3-0.4,3.4c-0.2,1.6-0.3,3.2-0.5,4.7c0.4-2.8,0.7-5.6,1.1-8.4
		c0.1,0.5,0,1.2,0,1.8c-0.3,3.1-0.6,6.3-0.9,9.4c-0.2-0.3-0.3-0.6-0.5-0.9c0-0.1-0.1-0.2-0.1-0.3c0-0.2,0.1-0.5,0.1-0.7
		c0.4-3.5,0.9-7.2,1.3-10.6C128.4,60.5,128.2,61.1,128.2,61.6 M122,66.9c-0.1-0.8-0.2-1.5-0.3-2.2c1.5,3,2.9,6.1,4.4,9.1
		c-0.1,0.5-0.1,1-0.2,1.5C124.6,72.5,123.3,69.6,122,66.9 M125.6,77.6c-0.1,0.3-0.1,0.5-0.1,0.8c-0.9-2-1.8-4-2.7-6.1
		c-0.1-0.1-0.2-0.3-0.2-0.4c-0.1-0.3-0.1-0.7-0.1-0.9C123.6,73.2,124.6,75.4,125.6,77.6 M120.6,66.7c0.4,0.8,0.7,1.6,1.1,2.4
		c0,0.2,0.1,0.4,0.1,0.7c-0.4-0.8-0.8-1.7-1.1-2.6C120.6,67,120.6,66.9,120.6,66.7 M121.1,63.2c0.1,0.7,0.1,1.4,0.2,2
		c-0.4-0.8-0.8-1.7-1.2-2.6c-0.1-0.7-0.2-1.3-0.2-2C120.3,61.5,120.7,62.4,121.1,63.2 M119.4,57.2c-0.1-0.7-0.2-1.3-0.2-1.9
		c0.5,0.9,0.9,1.9,1.3,2.8c0.1,0.5,0.1,1,0.2,1.6C120.3,58.9,119.9,58,119.4,57.2 M121,59.3c0.9,2,1.9,4,2.7,6.2
		c-0.1,0.1-0.1,0-0.1-0.1c-0.2-0.3-0.4-0.7-0.6-1c-0.5-1-1-2-1.5-3c-0.1-0.2-0.3-0.4-0.3-0.6c-0.1-0.2-0.1-0.5-0.1-0.7
		C121.1,59.8,121.1,59.6,121,59.3 M126,78.4c0.2,0.4,0.4,0.8,0.6,1.2c0,0.3-0.1,0.6-0.1,1c-0.2-0.4-0.4-0.8-0.5-1.2
		C125.9,78.9,126,78.7,126,78.4 M126.4,76.3c0-0.1-0.1-0.2-0.1-0.3c0-0.2,0.1-0.5,0.1-0.7c0-0.3,0.1-0.6,0.1-0.8
		c0.2,0.4,0.4,0.8,0.6,1.2c-0.1,0.5-0.1,1-0.2,1.6C126.7,76.9,126.6,76.6,126.4,76.3 M101.2,26c0-0.1-0.1-0.3-0.1-0.4
		c0-0.1-0.1-0.2,0.1-0.3c0.1,0,0.1,0.1,0.1,0.1c0.2,0.4,0.3,0.8,0.5,1.2c1.4,3.3,2.8,6.7,4.1,10.1C104.3,33.3,102.8,29.6,101.2,26
		 M106.2,32.4c-0.6-1.3-1.2-2.6-1.8-3.9c-0.5-1-1-2.3-1.5-3.4c0-0.1-0.1-0.2-0.1-0.2c-0.1-0.2-0.1-0.2,0.1-0.2
		c0.1,0.1,0.2,0.3,0.2,0.5c1.6,3.5,3.3,7.1,5,10.6c2.3,4.9,4.6,9.8,6.9,14.8c0.5,1,1,2.2,1.5,3.2c0.1,0.2,0.2,0.3,0.2,0.4
		c0,0.1,0,0.3,0,0.5c0,0.4,0.1,0.9,0.2,1.3C113.3,48.2,109.8,40.3,106.2,32.4 M117.4,37.4c0.1,0.2,0.1,0.5,0.1,0.8
		c0-0.6-0.1-1.2-0.2-1.8c-0.3-2.4-0.6-4.8-0.8-7.2c-0.1-0.8-0.1-1.7,0.4-2.4c0.4-0.6,1.1-1.1,1.8-1.1c1.3,0,2.3,1.6,2.7,2.7
		c0.3,0.6,0.5,1.3,0.7,2c0.2,0.7,0.4,1.3,0.6,2c0.8,2.7,1.5,5.5,2.1,8.4c0.6,2.9,1.2,5.9,1.6,8.9c0.4,2.7,0.8,5.2,1.3,7.9
		c0.1,0.4,0.2,0.8,0.2,1.1c0,0.2-0.1,0.5-0.1,0.8c-0.4,3.7-1,7.7-1.4,11.3c-1.7-3.6-3.5-7.4-5.2-11.1c-0.1-0.2-0.3-0.5-0.3-0.7
		c-0.1-0.4-0.1-0.8-0.2-1.2c-0.4-2.8-0.7-5.6-1.1-8.4c-0.5-3.3-0.9-6.6-1.3-9.9c0,0.8,0.2,1.5,0.2,2.3c0.6,5.4,1.2,10.8,1.8,16.2
		c-0.4-0.8-0.8-1.6-1.1-2.4c-0.1-0.1-0.1-0.2-0.2-0.3c0-0.2,0-0.4-0.1-0.6c-0.3-2.7-0.6-5.6-0.9-8.3C118,43.2,117.6,40.3,117.4,37.4
		 M109.6,59.1c0.2,0.3,0.4,0.9,0.5,1.2c2.9,7.1,5.8,14.1,8.8,21.2c0.4,0.9,0.8,1.9,1.2,2.9c0.1,0.1,0.1,0.3,0.2,0.4
		c0.1,0.3,0,0.5,0.1,0.9c-3.6-8.8-7.1-17.5-10.7-26.2C109.7,59.3,109.7,59.2,109.6,59.1C109.6,59.1,109.5,58.9,109.6,59.1
		 M114.5,129.1c0.3-0.3,0.7-0.7,1-1c0.3,0.1,0.5,0.2,0.8,0.2c0.1,0-0.1,0.1-0.1,0.2c-0.4,0.4-0.8,0.8-1.2,1.2
		c-0.2-0.1-0.5-0.2-0.7-0.3C114.2,129.3,114.4,129.2,114.5,129.1 M113.7,129.1c0,0-0.1,0.1-0.2,0.1
		C113.5,129.2,113.6,129.1,113.7,129.1c0.3-0.4,0.7-0.8,1.1-1.2C114.5,128.2,114.1,128.7,113.7,129.1 M109.6,58.9
		c-0.1,0-0.1-0.2-0.1-0.3c0,0,0,0,0,0C109.5,58.7,109.5,58.9,109.6,58.9 M109.4,58.5C109.4,58.5,109.4,58.6,109.4,58.5
		C109.4,58.6,109.4,58.6,109.4,58.5 M109.4,58.5C109.4,58.5,109.3,58.5,109.4,58.5C109.4,58.4,109.4,58.5,109.4,58.5 M109.3,58.2
		C109.3,58.3,109.2,58.2,109.3,58.2C109.3,58.2,109.3,58.2,109.3,58.2 M109.2,58.1C109.2,58.1,109.2,58.1,109.2,58.1
		C109.2,58.2,109.2,58.1,109.2,58.1 M109.2,58C109.2,58.1,109.2,58,109.2,58C109.2,58,109.2,58,109.2,58 M109.1,57.8
		C109.1,57.8,109.1,57.8,109.1,57.8C109.1,57.7,109.1,57.8,109.1,57.8 M109.1,57.9C109.1,57.9,109.1,57.9,109.1,57.9
		C109.1,57.8,109.1,57.9,109.1,57.9 M111.4,78.7c1.2,2.5,2.1,5.2,3.2,7.8c-0.6-1.2-1.3-2.4-1.8-3.7c-0.6-1.3-1.1-2.6-1.6-3.9
		c-1.1-2.6-2.2-5.2-3.2-7.8C109.2,73.7,110.3,76.2,111.4,78.7 M108.5,81c0.6,1.3,1.2,2.7,1.8,4c0.6,1.3,1.2,2.7,1.8,4.1
		c-2.2-3.6-4.3-7.3-6.4-11.1c-0.4-0.6-0.7-1.2-1-1.9c-0.4-0.6-0.6-1.3-0.9-2c-2.3-5.4-4.6-10.9-6.8-16.5c0-0.1,0.1,0.1,0.1,0.2
		c1.2,2.5,2.5,5,3.7,7.5c1.3,2.6,2.5,5.2,3.8,7.8C106,75.8,107.2,78.4,108.5,81 M95.7,27.5c0.8,1.9,1.5,3.9,2.3,5.8
		c0.1,0.3,0.2,0.6,0.4,0.8c-0.8-2.3-1.6-4.5-2.4-6.7l0.1,0c2.2,4.8,4.3,9.7,6.4,14.6c-0.3,0.1-0.7,0.3-1,0.4
		c-0.8-1.9-1.6-3.7-2.4-5.5c-0.3-0.6-0.5-1.2-0.8-1.9c-0.5-1.2-1.1-2.4-1.6-3.6C96.3,30.2,95.8,29,95.7,27.5L95.7,27.5z M94.9,27.8
		L94.9,27.8c2,4.6,4,9.2,6,13.9c0.1,0.1,0.2,0.5,0.3,0.7c0,0,0.1,0.1,0.1,0.1c0,0.1,0,0.1-0.1,0.1c-0.1,0.1-0.1,0-0.2-0.1
		c-0.1-0.2-0.2-0.6-0.3-0.7C98.8,37,96.8,32.4,94.9,27.8 M91.2,55.9c0.1,0.1,0.1,0.2,0.2,0.4c0.5,0.9,1,1.8,1.4,2.7
		c0.5,1.1,0.9,2.3,1.4,3.4C93.2,60.3,92.2,58.1,91.2,55.9 M93.1,59.4C93.1,59.3,93.1,59.4,93.1,59.4c1.3,2.3,2.6,4.7,3.8,7.1
		c0.2,0.4,0.5,0.8,0.6,1.2c4,9.7,8.1,19.6,12.5,29c0.4,0.8,0.7,1.5,1.1,2.3c0,0,0.1,0.1,0,0.1c-0.1,0-0.2-0.1-0.3-0.1
		C104.7,85.9,98.8,72.7,93.1,59.4 M96.3,103.2c0.7,0.3,1.4,0.6,2,0.9c3.9,1.8,8,3.7,11.9,5.5l-3.4,2.2c-0.4-0.2-0.8-0.4-1.2-0.6
		c-1.4-0.7-2.8-1.3-4.2-1.9c-1-0.4-1.9-0.8-2.9-1.3c-2.8-1.2-5.7-2.6-8.3-4c-0.7,0.1-1.3-0.1-1.9-0.3c-1.7-0.6-3.2-1.4-4.7-2.2
		c-0.1-0.1-0.3-0.1-0.4-0.2c-1.3-0.7-2.7-1.4-4.1-2.1c-0.5-0.3-1-0.5-1.6-0.7c0,0,0,0,0,0c5.7,1.2,11.2,2.5,16.6,4
		C94.9,102.6,95.6,102.9,96.3,103.2 M109.2,115.3c-0.5-0.1-1-0.4-1.5-0.6c-0.4-0.1-0.8-0.3-1.2-0.4c0.1,0,0.2-0.1,0.2-0.1
		C107.6,114.5,108.4,114.9,109.2,115.3 M82.7,93.5c0.2,0,0.4,0.1,0.6,0.2c0.2,0.1,0.4,0.1,0.6,0.2c0.1,0.1,0.2,0.2,0.4,0.3
		c0.3,0.3,0.7,0.6,1,0.9c-1.1-0.4-2.3-1-3.4-1.5C82.1,93.6,82.4,93.5,82.7,93.5 M72.2,92.1c0.9,0.4,1.9,0.9,2.9,1.3
		c2.8,1.3,5.6,2.6,8.5,3.9c-4.7-1-9.5-1.8-14.4-2.8c-0.3-0.1-0.7-0.1-0.9-0.2c-0.1,0-0.3-0.2-0.4-0.2l10,0.8c0,0-5.3-2.5-11.4-5
		c0.5,0.1,0.9,0.3,1.4,0.4c0.5,0.2,1.1,0.2,1.6,0.5C70.3,91.2,71.2,91.6,72.2,92.1 M61.2,84c2.6,0.9,5.2,1.8,7.7,2.7
		c-0.3-0.1-0.7-0.1-1.1-0.2c-1-0.3-2.1-0.6-3.1-0.9c0.1,0,0,0,0.1,0c-0.4-0.1-0.6-0.2-1-0.2c-0.4-0.1-0.9-0.1-1.2-0.2
		c-0.3-0.1-0.7-0.3-1-0.5c-0.2-0.1-0.4-0.1-0.5-0.2c-0.5-0.2-1-0.5-1.5-0.7c-0.4-0.2-0.8-0.3-1-0.5C59.5,83.2,60.5,83.7,61.2,84
		 M77.4,102.7c0.8,0.5,1.8,1,2.6,1.5c-1.8-0.7-3.5-1.5-5.2-2.2c-5.2-2.3-10.6-4.5-15.9-6.7c0.3,0,0.7,0.1,1,0.1c0,0,0,0,0,0l3.6,0.8
		c0.6,0.3,1.3,0.6,2,0.8c0.5,0.1,1.1,0.2,1.7,0.2c0.5,0,1.1,0,1.5,0.2l4.1,2.8l0.4,0.2c0,0,0,0,0,0v0l8.8,3.7l9.7,4.5
		c-4.9-2-9.9-3.9-14.7-6C77.2,102.6,77.3,102.7,77.4,102.7 M83.5,118.7c0.4,0.1,0.7,0.2,1,0.3c1,0.3,2.1,0.6,3.2,0.9
		c0,0-0.1,0-0.1,0c-0.7-0.1-1.4-0.4-2.1-0.6C84.8,119.2,84.1,118.9,83.5,118.7 M85.7,119.5c5.4,1.6,10.8,3.1,16.2,4.7
		c0.1,0,0,0.1,0,0.1c-0.2,0.2-0.5,0.5-0.8,0.7C96,123.1,90.8,121.3,85.7,119.5C85.7,119.5,85.6,119.5,85.7,119.5 M91.1,127.3
		c1.9,0.5,3.7,1,5.6,1.5c-0.1,0.1-0.2,0.2-0.3,0.3C94.7,128.5,92.8,127.9,91.1,127.3 M100.4,131.8c-6.4,5.1-12.7,10.3-19.1,15.4
		c0,0,0,0,0,0c2.1-2,4.2-4.1,6.3-6.1c0.4-0.3,0.7-0.7,1-1c0.4-0.3,0.7-0.7,1-1c1.3-1.4,2.8-2.7,4.1-4.1c1-1,2.1-2,3.2-3
		c0.3-0.3,0.7-0.7,1.1-1C98.8,131.3,99.6,131.5,100.4,131.8C100.5,131.8,100.4,131.8,100.4,131.8 M101.6,130.8
		c-0.8-0.3-1.6-0.6-2.4-0.8c0-0.2,0.3-0.3,0.4-0.4c0.9,0.2,1.8,0.5,2.7,0.8C102,130.5,101.8,130.7,101.6,130.8 M99.8,117.6
		c-7.2-2.3-14.4-4.5-21.6-6.8c9.6,2.9,19.2,5.8,28.7,8.8c-0.1,0.2-0.2,0.2-0.4,0.1c-0.4-0.1-0.9-0.3-1.4-0.4
		C103.5,118.8,101.6,118.2,99.8,117.6 M103.7,125.8c0-0.1,0.1-0.2,0.2-0.2c0.2-0.2,0.5-0.4,0.7-0.6c0,0,0,0,0,0
		c1.1,0.3,2.1,0.6,3.2,0.9c-0.4,0.3-0.8,0.7-1.2,1C105.6,126.5,104.6,126.1,103.7,125.8 M105,132c0.3-0.2,0.5-0.5,0.8-0.7
		c0.4,0.1,0.7,0.2,1.1,0.3c-0.2,0.3-0.4,0.5-0.7,0.8C105.9,132.3,105.5,132.2,105,132 M67.6,190.1c1.9-1.7,3.9-3.3,5.9-5
		c6.7-5.7,13.4-11.6,20-17.4c-0.5,0.8-1.1,1.6-1.7,2.4c-0.1,0.1-0.1,0.3-0.2,0.4c-0.1,0.1-0.3,0.3-0.5,0.4c-2.3,1.9-4.7,4-7.1,5.9
		c0.4-0.2,0.7-0.5,1.1-0.7c-1.5,1.3-3,2.5-4.5,3.8c-4.6,3.7-9.3,7.3-13.9,11C67,190.5,67.3,190.3,67.6,190.1 M70.6,188.4
		c-2,1.7-4,3.4-6,5.1c-0.1,0.1-0.1,0.1-0.2,0.2c0-0.1,0-0.2,0-0.3c0.1-0.1,0.1-0.2,0.2-0.2c0.1-0.1,0.3-0.2,0.5-0.3
		c0.1-0.1,0.3-0.2,0.4-0.3c2-1.6,4.1-3.2,6.1-4.9C71.2,187.9,70.9,188.1,70.6,188.4 M71.6,187.5C71.4,187.6,71.6,187.5,71.6,187.5
		 M84.7,177.7c-1.6,1.4-3.3,2.8-5,4.2c-2.2,1.8-4.5,3.7-6.7,5.5c0.2-0.3,0.5-0.5,0.8-0.7c0.8-0.7,1.7-1.4,2.5-2.1
		c1.1-0.9,2.2-1.9,3.3-2.8c1.1-1,2.1-1.9,3.3-2.8c1.1-0.9,2.3-1.8,3.5-2.6C85.8,176.8,85.3,177.2,84.7,177.7 M84.6,177.4
		c0.1-0.1,0.2-0.2,0.3-0.3c0.8-0.7,1.6-1.4,2.4-2.1c0.8-0.6,1.7-1.3,2.5-2c0,0.2-0.2,0.3-0.4,0.4C87.8,174.7,86.1,176.1,84.6,177.4
		 M89.1,178.6c0.3-0.5,0.6-0.9,1-1.4c0.1-0.2,0.2-0.3,0.3-0.5c0.1-0.1,0.3-0.2,0.4-0.3c1-0.8,2-1.6,2.9-2.4
		C92.3,175.5,90.6,177.1,89.1,178.6 M92.6,151c-0.1,0.1-0.4,0.4-0.4,0.4c0,0,0.2-0.2,0.2-0.3c0.6-0.6,1.2-1.3,1.8-1.9
		c0.3-0.4,0.7-0.7,1-1c1.3-1.4,2.7-2.8,4.1-4.2c1.7-1.8,3.4-3.5,5.1-5.3c0.3-0.4,0.7-0.7,1-1.1c0.3-0.4,0.7-0.7,1-1.1
		c0.5-0.5,1-1.1,1.5-1.6c0.2-0.2,0.3-0.4,0.5-0.5c0.1,0,0.2,0.1,0.2,0.1c-0.9,1.1-2,2.2-2.9,3.3c1.1-1,2.1-2.2,3.2-3.2
		c0.2,0.1,0.5,0.2,0.7,0.2c-1.1,1.1-2.2,2.2-3.2,3.4c-0.1,0.1-0.2,0.2-0.2,0.2c-0.1,0.1-0.1,0.2-0.2,0.3c-0.1,0.1-0.3,0.3-0.4,0.4
		C101.3,143.1,96.9,147,92.6,151 M111.3,127c-0.3,0.3-0.7,0.7-1,1.1c-0.1,0-0.2-0.1-0.3-0.1c0.4-0.4,0.9-0.7,1.4-1.1c0,0,0,0,0,0
		C111.5,126.9,111.4,127,111.3,127 M111.5,133.1c0,0.1-0.1,0.2-0.2,0.2c-0.2,0.2-0.5,0.4-0.7,0.6c-0.3-0.1-0.5-0.2-0.7-0.3
		c-0.1,0,0-0.1,0-0.1c0.2-0.2,0.5-0.5,0.7-0.7C111,132.9,111.2,133,111.5,133.1 M110.2,132.7c0.1,0,0.1,0,0.2,0.1
		c-0.2,0.3-0.5,0.6-0.8,0.9c-0.1,0-0.1-0.1-0.2-0.1c0-0.1,0.1-0.1,0.2-0.2C109.8,133.1,110,132.9,110.2,132.7 M102.7,161
		c-0.2,0.2-0.5,0.4-0.7,0.6c-0.7,0.6-1.5,1.3-2.2,1.9c0.1-0.2,0.3-0.5,0.5-0.7c0.1-0.1,0.1-0.2,0.2-0.3c0.1-0.1,0.4-0.3,0.6-0.4
		C101.6,161.8,102.2,161.4,102.7,161 M111.4,155.3c-4.4,3.5-8.8,7-13.3,10.5c0.3-0.5,0.6-0.9,1-1.3c1.4-1.2,2.9-2.5,4.4-3.8
		c0.5-0.5,1-0.9,1.6-1.3c2.4-1.6,4.7-3.2,7.1-4.8C112,154.8,111.7,155.1,111.4,155.3 M113,121.6c-1.2-0.3-2.4-0.7-3.6-1.1
		c-0.1,0,0.1-0.1,0.1-0.2c1.2,0.3,2.4,0.7,3.6,1.1C113.1,121.6,113,121.6,113,121.6 M113.1,114.1c0,0-0.2-0.1-0.4-0.1
		c-1-0.3-2-0.7-3-1c1.1-0.5,2.2-1,3.2-1.5c0.3,0.7,0.6,1.3,1,2c-0.1,0.1-0.2,0.2-0.3,0.4C113.4,113.9,113.2,114.1,113.1,114.1
		 M113.2,151.1C113.2,151,113.3,151,113.2,151.1c0.4-0.4,0.8-0.7,1.2-1.1c1.1-0.9,2.3-1.9,3.5-2.8c-0.2,0.3-0.5,0.5-0.8,0.7
		c2.9-2.4,5.9-5,8.8-7.5c0.4,0.1,0.8,0.3,1.2,0.4C122.6,144.3,117.9,147.6,113.2,151.1 M129.6,138.7c-0.4,0.4-0.8,0.9-1.3,1.2
		c-0.4-0.1-0.8-0.3-1.2-0.4c0.5-0.5,1-0.9,1.6-1.3c0.4,0.1,0.7,0.2,1.1,0.3C129.8,138.6,129.7,138.7,129.6,138.7 M128.7,85.8
		c-0.1-0.2-0.2-0.3-0.2-0.5c0-0.2,0-0.4,0.1-0.6c0-0.2,0-0.4,0.1-0.6c1,2.1,2,4.2,3,6.3c0,0.7,0.1,1.5,0.1,2.2
		C130.8,90.5,129.8,88.1,128.7,85.8 M139.9,151.9c0,0.8,0,1.5,0.1,2.3c-1.2-2.3-2.3-4.6-3.5-6.9c0.2,0.2,0.3,0.4,0.4,0.5
		C137.8,149.2,138.9,150.6,139.9,151.9 M136.5,140.7c0.1,0.4,0.3,0.7,0.4,1.1c-0.3-0.4-0.6-0.8-0.9-1.3
		C136.1,140.6,136.3,140.6,136.5,140.7 M134.1,89.2c0.4,0.7,0.7,1.4,1,2.1c0,0.2,0,0.5,0,0.7c-0.4-0.7-0.7-1.5-1-2.3
		C134.2,89.5,134.1,89.4,134.1,89.2 M134.6,93.8c-0.1-0.2-0.2-0.4-0.3-0.6c0-0.2,0-0.5,0-0.8c0-0.6-0.1-1.3-0.1-2
		c0.2,0.4,0.5,1.1,0.8,1.6c0.1,0.2,0.2,0.4,0.3,0.6c0,0.3,0,0.7,0,1.1c0,0.1,0,0.3,0,0.3c0,0.2-0.2,0.3-0.4,0.4
		C134.8,94.2,134.7,94,134.6,93.8 M135,145.4c0.1,0.1,0.2,0.2,0.3,0.3c0.1,0.1,0.2,0.2,0.2,0.3c0.1,0.1,0.1,0.3,0.1,0.4
		c0.1,0.3,0.3,0.7,0.4,1.1C135.6,146.8,135.3,146.1,135,145.4 M137.9,159.2c-0.3-0.5-0.8-2.1-1.5-4.1c-0.1-0.7-0.3-1.4-0.4-2.2
		c1.2,2.2,2.4,4.8,3.6,7.1c0.2,0.3,0.4,0.7,0.5,1c0,0,0,0,0,0c0.1,0.3,0,0.7,0,1.1c0,0.5,0,0.9,0,1.4
		C139.2,161.7,138.3,160,137.9,159.2 M167.3,188.9c0.4,0.5,0.8,1,1.1,1.6c1,1.4,2.1,2.7,3.1,4.1c0.5,0.7,1,1.4,1.3,2.3
		c0,0.1-0.2-0.1-0.2-0.2c-1.1-1.2-2.1-2.4-3-3.7c-1-1.4-1.8-3-2.7-4.5C167.1,188.5,167.2,188.7,167.3,188.9 M153.3,133.3
		c1.7,0.5,3.5,0.9,5.2,1.4l-0.2,0.2C156.7,134.3,155,133.8,153.3,133.3 M156,141.7c-0.7-0.2-1.4-0.4-2.2-0.6
		c-0.3-0.6-0.6-1.1-0.9-1.7c0.7,0.2,1.5,0.5,2.2,0.7C155.4,140.6,155.7,141.2,156,141.7 M156.2,130.6
		C156.2,130.6,156.3,130.6,156.2,130.6c-1.7-0.5-3.3-1-5-1.6c-0.2-0.3-0.3-0.6-0.5-0.9c0.2,0.1,0.5,0.2,0.7,0.3
		C153,129.1,154.6,129.8,156.2,130.6 M152.8,122c-0.5,0.4-0.9,0.8-1.4,1.2c-1.3-0.6-2.5-1.2-3.8-1.8c-0.4-0.9-0.8-1.8-1.3-2.7
		c0.2-0.3,0.5-0.4,0.7-0.7c2.4,0.8,4.7,1.8,7.1,2.6C153.7,121.2,153.2,121.5,152.8,122 M149.6,128.5c-0.5-0.2-1-0.3-1.6-0.5
		c0.2-0.3,0.5-0.5,0.8-0.8c0.1,0,0.1,0.1,0.2,0.1C149.2,127.7,149.4,128.1,149.6,128.5 M147.6,126.6c-0.2,0.2-0.4,0.4-0.5,0.5
		c-0.1,0-0.1,0.1-0.2,0.1c-0.1-0.4-0.3-0.8-0.5-1.2C146.8,126.2,147.2,126.4,147.6,126.6 M156.3,118.8c-2.4-0.8-4.8-1.6-7.2-2.5
		c-0.1,0,0.1-0.1,0.1-0.1c0.1-0.1,0.2-0.2,0.3-0.2c2.4,0.8,4.7,1.7,7.1,2.6C156.6,118.6,156.4,118.7,156.3,118.8 M165.3,121.2
		c5,1.7,14.6,5.1,19.7,6.8c0.2,0.1,0.3,0.1,0.5,0.2c0.1,0,0.4,0.1,0.4,0.2c-0.1,0.1-0.5,0.1-0.7,0c-0.2-0.1-0.3-0.2-0.4-0.2
		C179.8,126.4,170.3,123.1,165.3,121.2C165.3,121.2,165.3,121.2,165.3,121.2 M183.3,128.1c0.2,0.1,0.4,0.1,0.6,0.2
		c0.5,0.2,1.1,0.4,1.6,0.6c0.1,0,0.3,0.1,0.3,0.2c-2-0.7-8.5-2.9-10.5-3.6c-5.9-2.1-11.8-4.2-17.8-6.2c0.1-0.1,0.1-0.2,0.2-0.2
		C164.8,121.5,176.3,125.6,183.3,128.1 M199.2,83.1c-0.4,0.3-0.8,0.6-1.3,1c-3,2.2-5.9,4.6-8.9,6.9c-6.7,5.3-13.2,10.9-19.7,16.5
		c-3.1,2.7-6.2,5.4-9.4,8.1c-0.1,0.1-0.2,0.2-0.3,0.2c-2.4-0.8-4.7-1.7-7.1-2.5c-0.1-0.1,0.1-0.1,0.1-0.1c0.3-0.3,0.8-0.6,1.1-1
		c1.3-1.1,2.6-2.3,3.8-3.4c0.9-0.8,1.7-1.5,2.6-2.3c0.4-0.4,0.8-0.8,1.3-1.1c2.2-1.8,4.4-3.6,6.6-5.4c0.4-0.4,1-0.6,1.5-0.9
		C179.1,93.6,189.2,88.4,199.2,83.1 M202.7,78.3c-3.3,1.8-6.8,3.5-10.1,5.3c-0.5,0.2-1,0.5-1.4,0.8c-2.9,1.5-5.8,3-8.6,4.6
		c0.1-0.2,0.4-0.3,0.5-0.4c2.8-2,6-3.7,9.1-5.4c0.8-0.4,1.7-0.9,2.6-1.3c0.9-0.4,1.7-0.8,2.6-1.2C199.2,79.8,201,79.1,202.7,78.3
		C202.8,78.3,202.7,78.3,202.7,78.3 M209.4,67.2c0.3-0.1,0.6-0.1,0.9-0.2c0.6-0.1,1.2-0.1,1.8,0c0.1,0,0.3,0.1,0.4,0.1
		c0.1,0,0.3,0,0.4,0.1c0.2,0.1,0.5,0.3,0.7,0.5c0.4,0.4,0.7,0.8,1,1.2c0.1,0.2,0.3,0.5,0.4,0.8c0.1,0.4,0,0.8-0.1,1.1
		c-0.4,2-2.1,2.8-3.5,3.7c-0.1,0.1-0.2,0.2-0.4,0.2c-0.1,0.1-0.3,0.1-0.4,0.2c-0.2,0.1-0.6,0.3-0.6,0.4c-0.2-0.1-0.4-0.1-0.6-0.1
		c0.2-0.1,0.7-0.3,1-0.5c1.3-0.7,2.5-1.5,3.6-2.5c0.4-0.4,0.8-1.2,0.8-2c0-0.9-0.5-1.6-1-2.1c-0.2-0.2-0.4-0.4-0.5-0.5
		c-0.3-0.2-0.6-0.3-0.9-0.4c-0.9-0.2-1.9,0-2.8,0.1c-1.7,0.3-3.3,0.8-4.8,1.3c-2.1,0.7-4.2,1.4-6.1,2.1
		C201.6,69.5,205.5,68.1,209.4,67.2 M192.6,78.1c0.1-0.1,0.5-0.4,0.5-0.4c-0.1-0.1-0.2-0.2-0.3-0.4c1.3-0.8,2.5-1.6,4-2.2
		c1.4-0.6,3-1.1,4.5-1.7c2.3-0.8,4.6-1.6,7.1-2.2c0.6-0.1,1.1-0.3,1.7-0.4c0.3,0,0.5-0.1,0.8-0.1c0.1,0,0,0.1,0,0.1
		c-0.5,0.4-1.2,0.7-1.9,1.1c-1.4,0.7-2.7,1.4-4.2,2.1c-0.7,0.3-1.5,0.6-2.2,0.9c-0.7,0.3-1.5,0.6-2.2,0.9c-2.2,0.9-6.1,2.8-6.5,3
		c-1.6,0.8-3.1,1.6-4.7,2.5c0.5-0.5,1.2-1.1,1.9-1.7C191.5,79,192,78.5,192.6,78.1 M148.1,105.8c0.6-0.5,1.2-1,1.6-1.4
		c2.3-1.9,4.5-3.9,6.7-5.7c0.6-0.5,1.1-0.9,1.7-1.4c1.6-1.4,3.2-2.9,4.9-4.4c4.3-3.9,8.6-7.8,13-11.7c2.2-2,4.4-3.9,6.5-5.8
		c3.3-2.8,6.6-5.8,10-8.6c1.2-0.9,2.4-1.9,3.6-2.6c-1.9,3.2-4.5,5.7-7.4,8c-0.6,0.5-1.1,1-1.6,1.4c-2.1,1.8-4.1,3.6-6.2,5.3
		c-0.1,0.1-0.2,0.1-0.2,0.2c-1.1,1-2.4,2-3.5,3c-2.2,1.9-4.5,3.7-6.7,5.6c-2.2,1.9-4.4,3.8-6.6,5.7c-1.1,0.9-2.2,1.9-3.3,2.8
		c-2.2,1.9-4.4,3.8-6.6,5.7c-3.3,2.9-6.7,5.6-10,8.4c-0.1-0.1-0.6-0.1-0.8-0.2c-0.1-0.1-0.1,0,0-0.1c0.1-0.1,0.2-0.2,0.3-0.3
		C145.1,108.5,146.6,107.1,148.1,105.8 M145.9,120.6c-0.4-0.1-0.7-0.3-1.1-0.5c0.2-0.2,0.4-0.3,0.6-0.5c0,0,0,0,0,0
		C145.6,120,145.7,120.3,145.9,120.6 M148.1,100.7c-1.6,1.6-3.2,3.2-4.8,4.9c0,0-0.1,0.1-0.2,0.1c-0.1,0.1-0.1,0.1-0.1,0.1
		c0,0-0.1-0.2-0.1-0.2c0,0,0.2-0.1,0.2-0.1c3.4-3.3,6.7-6.6,10.1-9.9C151.6,97.2,149.8,99,148.1,100.7 M141.1,93c0-0.2,0-0.5,0-0.7
		c0-0.1,0.3-0.3,0.5-0.4c0.5-0.4,1-0.9,1.4-1.2c1.9-1.7,3.8-3.3,5.6-5c0.6-0.6,1.3-1.1,1.9-1.6c0.3-0.3,0.6-0.6,0.9-0.8
		c1.5-1.4,3.2-2.8,4.7-4.1c-2.5,2.6-5,5.3-7.5,8c-1.9,2-3.8,4-5.6,6c-0.6,0.7-1.2,1.3-1.9,2C141.1,94.4,141.1,93.6,141.1,93
		 M141.2,101.9c0-0.2,0.5-0.5,0.7-0.8c1.7-1.7,3.3-3.5,4.9-5.2c0.7-0.8,1.4-1.5,2.1-2.3c1.1-1.2,2.3-2.5,3.5-3.7
		c1.6-1.8,3.3-3.5,4.9-5.2c0.2-0.3,0.5-0.5,0.7-0.7c1.8-2,3.9-3.8,5.8-5.8c1-1,2-1.9,2.9-2.9c2.9-2.9,5.9-5.7,8.8-8.5
		c0.5-0.5,1-0.9,1.5-1.4c1.5-1.4,3-2.8,4.6-4.1c1-0.9,2.1-1.8,3.1-2.6c1.1-0.9,2.1-1.8,3.2-2.6c0,0,0.1,0,0,0
		c-5.7,6-11.5,11.8-17.3,17.7c-1.4,1.5-2.9,2.9-4.3,4.4c-0.2,0.2-0.5,0.5-0.7,0.7c-0.1,0.1-0.2,0.3-0.3,0.4
		c-6.9,6.9-13.8,13.8-20.8,20.8c-0.7,0.7-1.5,1.4-2.2,2.2c-0.2,0.2-0.3,0.4-0.5,0.5c-0.1,0-0.1,0.1-0.2,0.1
		C141.5,102.6,141.3,102.4,141.2,101.9C141.2,101.9,141.2,101.9,141.2,101.9 M142.7,143.1l1.7,2.5c-0.5-0.2-1.1-0.4-1.6-0.6
		C142.7,144.3,142.7,143.7,142.7,143.1 M151.7,177.2c0,0.1-0.1-0.1-0.1-0.2c-0.7-1.3-1.4-2.6-2-3.9c-0.7-1.4-1.4-2.8-2.1-4.2
		c-1.4-2.8-2.9-5.6-4.3-8.3c0-1.4-0.1-2.9-0.1-4.3C146,163.2,148.8,170.2,151.7,177.2 M155.3,166.8c-0.9-1.2-1.8-2.5-2.7-3.7
		c-2.6-3.6-5.3-7.3-8-10.9c-0.2-0.3-0.4-0.8-0.6-1.2c-0.3-0.8-0.7-1.6-1-2.4c-0.1-0.2-0.2-0.3-0.2-0.5c-0.1-0.3,0-0.7,0-1
		c0-0.4,0-0.7,0-1c0.9,0.3,1.7,0.6,2.5,0.8l7.5,10.9C153.7,160.8,154.4,163.8,155.3,166.8C155.3,166.8,155.3,166.8,155.3,166.8
		C155.3,166.8,155.3,166.8,155.3,166.8 M154.5,142.5c0,0,0-0.1-0.1-0.1c0,0,0,0,0,0c0.6,0.2,1.2,0.3,1.8,0.5c0.2,0,0.4,0.1,0.4,0.3
		C155.9,143,155.2,142.7,154.5,142.5 M165.9,180.4c-1.9-2.5-4-5-5.9-7.6c-0.1-0.2-0.3-0.3-0.4-0.5c-0.1-0.2-0.2-0.5-0.3-0.7
		c-0.9-2.2-1.7-4.6-2.5-6.9L165.9,180.4z M160.5,151.1c-0.7-0.2-1.4-0.5-2-0.7c-0.5-0.9-0.9-1.9-1.4-2.8c0.7,0.2,1.3,0.5,2,0.6
		C159.5,149.2,160,150.1,160.5,151.1 M211.7,156.4c0.1-0.2,0.3-0.1,0.4-0.2c0.1,0.3,0.1,0.8,0,1.2c-0.1,0.3-0.2,0.8-0.4,0.9
		c-0.2,0.1-0.6-0.1-0.9-0.1c-4.2-1.1-8.5-2.3-12.6-3.4c-3.4-0.9-6.7-1.9-10.1-2.8c-8.9-2.4-17.9-5-26.8-7.5
		c-0.8-0.2-1.8-0.5-2.7-0.8c0,0-0.1,0-0.1,0c-0.2-0.1-0.5,0-0.6-0.4c0,0,0,0,0,0c1.1,0.3,2.2,0.6,3.3,0.9c3.3,0.9,6.6,1.8,10,2.7
		c4.4,1.2,8.9,2.3,13.4,3.5c4.4,1.1,8.9,2.3,13.3,3.5c1.1,0.3,2.2,0.6,3.3,0.9c1.7,0.5,3.3,0.9,5,1.3c0.6,0.1,1.1,0.3,1.7,0.4
		c1.1,0.3,2.1,0.7,3.1,1c0.1-0.1,0.2-0.3,0.2-0.4c0-0.2-0.3-0.3-0.6-0.4C211,156.8,211.3,156.7,211.7,156.4 M210.4,156.7
		c0,0,0.1,0.1,0.1,0.1c0,0,0,0,0,0C210.5,156.8,210.4,156.7,210.4,156.7C210.4,156.7,210.4,156.7,210.4,156.7 M203.5,154.6
		c0.4,0.1,0.6,0.2,0.9,0.3c2,0.6,3.9,1.2,5.9,1.8c-0.3,0-0.7-0.1-1-0.1c-0.2-0.1-0.5-0.2-0.7-0.3c-1.6-0.6-3.2-1.1-4.8-1.6
		c0.4,0.2,0.8,0.3,1.3,0.5c-0.4-0.1-0.8-0.2-1.3-0.3c-2.8-0.9-5.7-1.8-8.6-2.7c-3.3-1.1-6.5-2-9.8-3.1
		C191.5,150.9,197.5,152.7,203.5,154.6 M169.8,144.4c0.4,0.1,0.8,0.3,1.3,0.4c2.1,0.7,4.3,1.5,6.4,2.1c6.9,2.2,13.9,4.3,20.8,6.5
		c-13.7-3.7-27.3-7.5-40.9-11.4c-0.1-0.1-0.1-0.3-0.2-0.4c-0.2-0.4-0.4-0.8-0.6-1.2c1.8,0.5,3.5,1,5.3,1.6
		C164.5,142.9,167.2,143.6,169.8,144.4 M175.9,135.6c0-0.3-0.2-0.7-0.4-0.9c9.8-0.3,26.4-0.7,29.8-0.4
		C208.8,134.6,187.7,135.3,175.9,135.6"/>
	<g>
		<path class="st0" d="M78,231.3c5.3,1.6,8.8,4.1,8.8,9.6c0,6.6-6.1,10.9-12.5,10.9c-5.6,0-10.8-2.3-14-6.3l4-4.7
			c3,3.6,6.3,5.2,10.1,5.2c3.1,0,5.8-1.5,5.8-4.3c0-2.3-1.2-3.4-4.1-4.3l-5.9-1.7c-4.9-1.5-8.2-3.9-8.2-9.2c0-5.6,5.1-10.4,12-10.4
			c5.2,0,9.4,1.9,12.2,4.9l-3.8,5c-2.4-2.5-5.2-4-8.5-4c-3.1,0-5.3,1.7-5.3,4c0,2,1.4,3,3.8,3.7L78,231.3z"/>
		<path class="st0" d="M96.9,231.6L96.9,231.6c1.2-1.9,3.8-3.6,7-3.6c6.1,0,10.9,4.9,10.9,11.9c0,7-4.8,11.9-10.9,11.9
			c-3.2,0-5.8-1.7-6.9-3.6h-0.1v12.1h-6.3v-31.7h6.3V231.6z M102.7,246.2c3.5,0,5.9-3,5.9-6.3c0-3.3-2.4-6.3-5.9-6.3
			c-3.5,0-5.9,3-5.9,6.3C96.8,243.2,99.1,246.2,102.7,246.2z"/>
		<path class="st0" d="M126.7,237.6l5.3-0.4c0-2.3-1.6-3.7-4.8-3.7c-2.4,0-4.9,1.1-6.6,2.3l-2.2-4.7c2-1.5,5.9-3.1,9.8-3.1
			c6.3,0,9.9,3.7,9.9,9.6v13.7h-6.1v-2.9H132c-0.7,1.5-3.4,3.5-6.7,3.5c-4.4,0-7.9-2.5-7.9-7C117.4,240.4,121.9,238,126.7,237.6z
			 M132,241.4l-4.3,0.4c-2.7,0.2-4.4,0.9-4.4,2.8c0,1.6,1.6,2.5,3.5,2.5c2.9,0,5.3-1.8,5.3-5.1V241.4z"/>
		<path class="st0" d="M149.3,239.7v11.5h-6.3v-22.7h6.3v3.9h0.1c0.9-2.4,3.2-4.3,5.8-4.3c0.5,0,1.1,0,1.5,0.1v6.5
			c-0.7-0.2-1.5-0.4-2.5-0.4C151.3,234.4,149.3,236.5,149.3,239.7z"/>
		<path class="st0" d="M166.8,239.7v11.6h-6.3v-34.6h6.3v21.8l8.8-10h7.4l-9.5,10.4l9.8,12.3h-7.6L166.8,239.7z"/>
	</g>
	<path class="st0" d="M198,238.9h9v-2.1h-5.9l5.6-6v-2.3h-8.5v2.1h5.4l-5.6,6V238.9z M186.9,238.9h2.6v-5.7c0-0.3,0.1-0.7,0.2-1
		c0.1-0.3,0.3-0.6,0.4-0.9c0.2-0.3,0.4-0.5,0.7-0.6c0.3-0.2,0.7-0.2,1.1-0.2c0.4,0,0.8,0.1,1,0.3c0.3,0.2,0.5,0.4,0.6,0.7
		c0.1,0.3,0.2,0.6,0.3,0.9c0,0.3,0.1,0.7,0.1,1v5.8h2.6v-6.5c0-0.5-0.1-1.1-0.2-1.6s-0.4-1-0.7-1.3c-0.3-0.4-0.7-0.7-1.2-0.9
		c-0.5-0.2-1.1-0.4-1.7-0.4c-0.8,0-1.5,0.2-2,0.6c-0.6,0.4-1,0.9-1.2,1.4h0v-1.7h-2.5V238.9z"/>
</g>
</svg>
