<svg xmlns="http://www.w3.org/2000/svg" xmlns:xlink="http://www.w3.org/1999/xlink" version="1.1" preserveAspectRatio="xMidYMid meet" width="523.229507581613" height="288.2786884477016"><rect id="backgroundrect" width="100%" height="100%" x="0" y="0" fill="none" stroke="none" class=""/><defs><path d="M85.07 60.29L86.01 60.38L86.93 60.5L87.84 60.66L88.73 60.84L89.6 61.07L90.45 61.32L91.28 61.61L92.09 61.93L92.89 62.28L93.66 62.66L94.41 63.07L95.13 63.51L95.84 63.98L96.52 64.47L97.18 65L97.82 65.55L98.43 66.14L99.02 66.75L99.59 67.38L100.13 68.04L100.64 68.73L101.13 69.44L101.59 70.18L102.03 70.94L102.44 71.73L102.82 72.53L103.17 73.37L103.49 74.22L103.79 75.1L104.05 75.99L104.29 76.91L104.5 77.85L104.67 78.81L104.82 79.79L104.93 80.79L105.01 81.81L105.06 82.84L105.08 83.9L105.08 83.99L105.07 84.1L105.07 84.21L105.07 84.32L105.06 84.44L105.06 84.56L105.05 84.68L105.05 84.81L105.04 84.94L105.03 85.07L105.02 85.2L105.01 85.33L105 85.47L104.99 85.6L104.98 85.74L104.97 85.87L104.96 86.01L104.95 86.14L104.94 86.27L104.93 86.4L104.92 86.53L104.91 86.65L104.9 86.78L104.89 86.89L104.88 87.01L104.87 87.12L104.86 87.23L104.85 87.33L104.84 87.43L104.83 87.52L104.82 87.6L104.81 87.68L104.81 87.75L104.8 87.82L104.79 87.87L104.79 87.92L104.78 87.96L104.78 88L104.78 88.03L104.77 88.06L104.77 88.1L104.76 88.13L104.76 88.16L104.75 88.19L104.74 88.22L104.73 88.25L104.72 88.28L104.7 88.31L104.69 88.33L104.67 88.36L104.66 88.39L104.64 88.41L104.63 88.44L104.61 88.46L104.59 88.49L104.57 88.51L104.55 88.53L104.53 88.55L104.5 88.57L104.48 88.59L104.46 88.61L104.43 88.63L104.41 88.65L104.38 88.66L104.35 88.68L104.33 88.7L104.3 88.71L104.27 88.72L104.24 88.73L104.21 88.74L104.18 88.75L104.15 88.76L104.12 88.77L104.09 88.78L104.06 88.78L104.03 88.79L104 88.79L103.97 88.79L103.93 88.79L69.29 88.79L69.37 89.57L69.48 90.33L69.61 91.06L69.77 91.77L69.95 92.45L70.15 93.11L70.38 93.75L70.63 94.36L70.9 94.95L71.18 95.51L71.49 96.05L71.82 96.57L72.16 97.07L72.52 97.55L72.9 98L73.29 98.44L73.7 98.85L74.12 99.24L74.55 99.61L74.99 99.96L75.45 100.29L75.91 100.6L76.39 100.9L76.87 101.17L77.36 101.42L77.86 101.66L78.37 101.88L78.88 102.08L79.39 102.26L79.91 102.42L80.44 102.57L80.96 102.7L81.49 102.82L82.02 102.92L82.54 103L83.07 103.06L83.59 103.12L84.12 103.15L84.64 103.17L85.15 103.18L85.74 103.17L86.33 103.14L86.9 103.09L87.47 103.03L88.02 102.95L88.57 102.85L89.11 102.74L89.63 102.62L90.15 102.48L90.66 102.34L91.15 102.18L91.63 102.01L92.1 101.84L92.56 101.66L93.01 101.47L93.44 101.28L93.86 101.08L94.27 100.88L94.66 100.68L95.04 100.47L95.4 100.27L95.75 100.07L96.08 99.87L96.4 99.67L96.7 99.48L96.98 99.29L97.25 99.11L97.5 98.93L97.73 98.76L97.94 98.6L98.14 98.45L98.32 98.32L98.47 98.19L98.61 98.08L98.73 97.98L98.83 97.89L98.91 97.83L98.97 97.77L99 97.74L99.02 97.73L99.03 97.71L99.05 97.7L99.06 97.69L99.08 97.68L99.09 97.66L99.11 97.65L99.13 97.64L99.14 97.63L99.16 97.62L99.18 97.61L99.19 97.6L99.21 97.59L99.23 97.59L99.24 97.58L99.26 97.57L99.28 97.56L99.3 97.56L99.31 97.55L99.33 97.54L99.35 97.54L99.37 97.53L99.39 97.53L99.4 97.52L99.42 97.52L99.44 97.51L99.46 97.51L99.48 97.51L99.5 97.51L99.52 97.5L99.54 97.5L99.56 97.5L99.57 97.5L99.59 97.5L99.61 97.5L99.63 97.5L99.65 97.5L99.67 97.5L99.69 97.5L99.71 97.51L99.73 97.51L99.75 97.51L99.76 97.52L99.78 97.52L99.8 97.52L99.82 97.53L99.84 97.53L99.86 97.54L99.88 97.55L99.9 97.55L99.91 97.56L99.93 97.57L99.95 97.57L99.97 97.58L99.98 97.59L100 97.6L100.02 97.61L100.04 97.62L100.05 97.63L100.07 97.64L100.08 97.65L100.1 97.66L100.11 97.67L100.13 97.68L100.14 97.69L100.16 97.71L100.17 97.72L100.19 97.73L100.2 97.74L100.21 97.76L100.23 97.77L100.24 97.79L100.25 97.8L100.26 97.82L100.28 97.83L100.29 97.85L100.3 97.86L100.31 97.88L100.32 97.9L100.33 97.91L100.34 97.93L104.19 104.77L104.21 104.8L104.22 104.82L104.23 104.85L104.24 104.88L104.25 104.9L104.26 104.93L104.27 104.96L104.28 104.98L104.29 105.01L104.29 105.04L104.29 105.06L104.3 105.09L104.3 105.12L104.3 105.15L104.3 105.17L104.3 105.2L104.3 105.23L104.3 105.26L104.3 105.28L104.29 105.31L104.29 105.34L104.28 105.37L104.28 105.39L104.27 105.42L104.26 105.44L104.25 105.47L104.24 105.5L104.23 105.52L104.22 105.55L104.21 105.57L104.2 105.6L104.18 105.62L104.17 105.65L104.15 105.67L104.14 105.69L104.12 105.72L104.1 105.74L104.08 105.76L104.06 105.78L104.04 105.8L104.01 105.84L103.94 105.89L103.86 105.97L103.74 106.07L103.6 106.19L103.44 106.33L103.25 106.49L103.04 106.66L102.8 106.85L102.54 107.05L102.25 107.26L101.94 107.48L101.61 107.71L101.25 107.95L100.87 108.2L100.47 108.45L100.05 108.71L99.6 108.97L99.13 109.24L98.64 109.5L98.13 109.76L97.59 110.02L97.04 110.28L96.46 110.54L95.86 110.78L95.25 111.03L94.61 111.26L93.95 111.48L93.27 111.7L92.57 111.9L91.86 112.09L91.12 112.26L90.37 112.42L89.59 112.56L88.8 112.68L87.99 112.78L87.16 112.87L86.32 112.93L85.45 112.96L84.57 112.98L83.42 112.96L82.29 112.9L81.17 112.79L80.07 112.65L78.99 112.47L77.93 112.25L76.89 111.99L75.87 111.7L74.87 111.37L73.89 111L72.93 110.6L72 110.17L71.09 109.7L70.2 109.19L69.34 108.66L68.51 108.09L67.7 107.49L66.92 106.86L66.17 106.2L65.44 105.52L64.75 104.8L64.08 104.05L63.45 103.28L62.84 102.48L62.27 101.66L61.73 100.81L61.22 99.93L60.74 99.03L60.3 98.11L59.9 97.16L59.53 96.19L59.19 95.21L58.9 94.19L58.64 93.16L58.42 92.11L58.23 91.04L58.09 89.96L57.99 88.85L57.93 87.73L57.9 86.59L57.92 85.44L57.98 84.3L58.08 83.18L58.21 82.08L58.38 81L58.59 79.94L58.83 78.9L59.1 77.89L59.41 76.89L59.76 75.92L60.14 74.97L60.55 74.05L60.99 73.15L61.46 72.27L61.97 71.42L62.51 70.6L63.07 69.8L63.67 69.04L64.29 68.3L64.95 67.58L65.63 66.9L66.34 66.25L67.07 65.62L67.83 65.03L68.62 64.47L69.43 63.94L70.27 63.44L71.13 62.98L72.02 62.55L72.92 62.16L73.85 61.8L74.8 61.47L75.78 61.18L76.77 60.93L77.78 60.72L78.81 60.54L79.87 60.4L80.94 60.3L82.02 60.24L83.13 60.22L84.11 60.24L85.07 60.29ZM79.45 69.73L77.85 70.21L76.37 70.88L75 71.72L73.76 72.73L72.65 73.9L71.68 75.23L70.86 76.7L70.2 78.31L69.71 80.06L93.79 80.06L93.55 78.31L93.15 76.7L92.58 75.23L91.85 73.9L90.98 72.73L89.96 71.72L88.8 70.88L87.51 70.21L86.1 69.73L84.57 69.43L82.93 69.33L81.14 69.43L79.45 69.73Z" id="c9AgO3xBeu"/><path d="M134.19 83.82C143.72 71.17 149.02 64.14 150.08 62.73C150.27 62.48 150.31 62.13 150.16 61.84C150.01 61.56 149.72 61.37 149.4 61.37C148.34 61.37 139.87 61.37 138.81 61.37C138.53 61.37 138.28 61.5 138.12 61.72C137.25 62.89 132.91 68.75 125.09 79.29L119.52 79.29C119.52 57.49 119.52 45.38 119.52 42.96C119.52 42.49 119.14 42.11 118.67 42.11C117.74 42.11 110.26 42.11 109.32 42.11C108.86 42.11 108.48 42.49 108.48 42.96C108.48 49.76 108.48 104.16 108.48 110.96C108.48 111.43 108.86 111.82 109.32 111.82C110.26 111.82 117.74 111.82 118.67 111.82C119.14 111.82 119.52 111.43 119.52 110.96C119.52 109.49 119.52 102.13 119.52 88.89L125.24 88.89C133.87 102.41 138.67 109.93 139.63 111.43C139.79 111.67 140.06 111.82 140.35 111.82C141.44 111.82 150.14 111.82 151.23 111.82C151.54 111.82 151.83 111.64 151.98 111.37C152.12 111.09 152.11 110.76 151.94 110.5" id="g1t4s8SHmg"/><path d="M216.67 42.11C211.01 42.11 207.86 42.11 207.23 42.11C206.76 42.11 206.39 42.49 206.39 42.96C206.39 43.91 206.39 51.54 206.39 52.49C206.39 52.96 206.76 53.34 207.23 53.34C208.17 53.34 215.73 53.34 216.67 53.34C217.14 53.34 217.52 52.96 217.52 52.49C217.52 51.54 217.52 43.91 217.52 42.96C217.52 42.49 217.14 42.11 216.67 42.11" id="bjtaVHkDX"/><path d="M216.67 61.37C211.06 61.37 207.95 61.37 207.32 61.37C206.86 61.37 206.48 61.75 206.48 62.23C206.48 67.1 206.48 106.09 206.48 110.96C206.48 111.43 206.86 111.82 207.32 111.82C208.26 111.82 215.74 111.82 216.67 111.82C217.14 111.82 217.52 111.43 217.52 110.96C217.52 106.09 217.52 67.1 217.52 62.23C217.52 61.75 217.14 61.37 216.67 61.37" id="d77GKydqFz"/><path d="M248.58 60.29L249.52 60.37L250.45 60.49L251.35 60.64L252.24 60.82L253.11 61.03L253.96 61.28L254.78 61.56L255.59 61.86L256.38 62.2L257.14 62.57L257.89 62.97L258.61 63.39L259.31 63.85L259.99 64.33L260.64 64.84L261.28 65.38L261.89 65.95L262.47 66.54L263.03 67.16L263.57 67.8L264.08 68.48L264.56 69.17L265.02 69.89L265.45 70.64L265.86 71.41L266.24 72.2L266.59 73.02L266.92 73.86L267.22 74.73L267.48 75.61L267.72 76.52L267.94 77.45L268.12 78.4L268.27 79.37L268.39 80.36L268.48 81.37L268.55 82.4L268.58 83.45L268.58 83.46L268.58 83.47L268.58 83.49L268.58 83.51L268.59 83.52L268.59 83.53L268.59 83.55L268.59 83.56L268.59 83.57L268.59 83.58L268.59 83.59L268.59 83.6L268.59 132.34L268.59 132.38L268.59 132.41L268.58 132.45L268.58 132.48L268.57 132.52L268.57 132.55L268.56 132.58L268.55 132.61L268.54 132.64L268.52 132.67L268.51 132.7L268.5 132.73L268.48 132.76L268.46 132.79L268.45 132.82L268.43 132.85L268.41 132.87L268.39 132.9L268.37 132.92L268.34 132.94L268.32 132.97L268.3 132.99L268.27 133.01L268.24 133.03L268.22 133.05L268.19 133.07L268.16 133.08L268.13 133.1L268.1 133.11L268.07 133.13L268.04 133.14L268.01 133.15L267.98 133.16L267.95 133.17L267.91 133.18L267.88 133.18L267.85 133.19L267.81 133.19L267.78 133.19L267.74 133.19L258.4 133.19L258.36 133.19L258.33 133.19L258.29 133.19L258.26 133.18L258.23 133.18L258.19 133.17L258.16 133.16L258.13 133.15L258.1 133.14L258.07 133.13L258.04 133.11L258.01 133.1L257.98 133.08L257.95 133.07L257.92 133.05L257.9 133.03L257.87 133.01L257.84 132.99L257.82 132.97L257.8 132.94L257.77 132.92L257.75 132.9L257.73 132.87L257.71 132.85L257.69 132.82L257.68 132.79L257.66 132.76L257.64 132.73L257.63 132.7L257.62 132.67L257.6 132.64L257.59 132.61L257.58 132.58L257.57 132.55L257.57 132.52L257.56 132.48L257.56 132.45L257.55 132.41L257.55 132.38L257.55 132.34L257.55 111.43L257.32 111.51L257.09 111.58L256.86 111.65L256.62 111.72L256.39 111.79L256.16 111.86L255.92 111.92L255.69 111.98L255.46 112.05L255.22 112.1L254.99 112.16L254.75 112.22L254.52 112.27L254.28 112.32L254.05 112.37L253.81 112.42L253.58 112.46L253.34 112.51L253.1 112.55L252.87 112.59L252.63 112.63L252.39 112.66L252.15 112.7L251.92 112.73L251.68 112.76L251.44 112.79L251.2 112.81L250.96 112.84L250.72 112.86L250.49 112.88L250.25 112.9L250.01 112.91L249.77 112.93L249.53 112.94L249.29 112.95L249.05 112.96L248.81 112.97L248.57 112.97L248.33 112.98L248.09 112.98L246.94 112.96L245.8 112.9L244.69 112.79L243.59 112.65L242.51 112.47L241.45 112.25L240.4 111.99L239.38 111.7L238.38 111.37L237.4 111L236.45 110.6L235.52 110.17L234.61 109.7L233.72 109.19L232.86 108.66L232.03 108.09L231.22 107.49L230.44 106.86L229.69 106.2L228.96 105.52L228.27 104.8L227.6 104.05L226.96 103.28L226.36 102.48L225.79 101.66L225.24 100.81L224.74 99.93L224.26 99.03L223.82 98.11L223.42 97.16L223.05 96.19L222.71 95.21L222.41 94.19L222.15 93.16L221.93 92.11L221.75 91.04L221.61 89.96L221.5 88.85L221.44 87.73L221.42 86.59L221.44 85.44L221.5 84.3L221.59 83.18L221.73 82.08L221.9 81L222.1 79.94L222.34 78.9L222.62 77.89L222.93 76.89L223.27 75.92L223.65 74.97L224.06 74.05L224.51 73.15L224.98 72.27L225.49 71.42L226.02 70.6L226.59 69.8L227.19 69.04L227.81 68.3L228.46 67.58L229.15 66.9L229.85 66.25L230.59 65.62L231.35 65.03L232.14 64.47L232.95 63.94L233.79 63.44L234.65 62.98L235.53 62.55L236.44 62.16L237.37 61.8L238.32 61.47L239.29 61.18L240.28 60.93L241.3 60.72L242.33 60.54L243.38 60.4L244.45 60.3L245.54 60.24L246.65 60.22L247.62 60.24L248.58 60.29ZM244.3 69.48L243.27 69.66L242.28 69.91L241.34 70.23L240.43 70.61L239.56 71.06L238.74 71.58L237.96 72.16L237.24 72.79L236.55 73.49L235.92 74.24L235.34 75.05L234.82 75.92L234.35 76.83L233.93 77.8L233.57 78.82L233.28 79.89L233.04 81L232.98 81.35L232.92 81.7L232.87 82.06L232.83 82.42L232.79 82.79L232.76 83.16L232.73 83.53L232.71 83.9L232.69 84.28L232.68 84.65L232.67 85.03L232.67 85.4L232.66 85.78L232.67 86.15L232.68 86.52L232.69 86.89L232.71 87.26L232.73 87.62L232.75 87.98L232.93 89.69L233.23 91.29L233.64 92.77L234.14 94.14L234.74 95.4L235.42 96.55L236.18 97.6L237.01 98.55L237.91 99.41L238.85 100.16L239.85 100.83L240.89 101.4L241.96 101.89L243.05 102.3L244.17 102.62L245.29 102.87L246.42 103.05L247.55 103.15L248.67 103.18L249.13 103.18L249.6 103.16L250.07 103.13L250.54 103.08L251 103.03L251.47 102.96L251.94 102.88L252.41 102.79L252.88 102.69L253.35 102.57L253.81 102.45L254.28 102.31L254.75 102.16L255.22 102L255.69 101.82L256.15 101.63L256.62 101.44L257.08 101.23L257.55 101L257.55 84L257.55 83.86L257.55 83.72L257.55 83.58L257.55 83.43L257.54 83.29L257.54 83.13L257.54 82.98L257.54 82.82L257.53 82.66L257.53 82.49L257.52 82.33L257.52 82.16L257.51 81.99L257.51 81.82L257.5 81.65L257.49 81.48L257.48 81.31L257.48 81.13L257.47 80.96L257.39 79.85L257.26 78.78L257.06 77.77L256.79 76.8L256.47 75.89L256.08 75.03L255.64 74.22L255.14 73.47L254.59 72.78L253.99 72.14L253.33 71.57L252.63 71.05L251.88 70.61L251.08 70.22L250.24 69.91L249.35 69.66L248.42 69.48L247.46 69.37L246.45 69.33L245.36 69.37L244.3 69.48Z" id="a1gD3f4L9L"/><path d="M179.5 60.28C174.25 60.28 169.38 61.69 165.32 64.37C165.32 64.16 165.32 62.49 165.32 62.28C165.32 61.81 164.94 61.43 164.47 61.43C163.54 61.43 156.06 61.43 155.13 61.43C154.66 61.43 154.28 61.81 154.28 62.28C154.28 67.16 154.28 106.15 154.28 111.02C154.28 111.49 154.66 111.88 155.13 111.88C156.06 111.88 163.54 111.88 164.47 111.88C164.94 111.88 165.32 111.49 165.32 111.02C165.32 111.02 165.31 91.4 165.31 88.03C165.31 84.66 165.89 81.11 165.89 81.11C167.11 73.88 172.24 69.39 179.31 69.39C185.78 69.39 190.08 74.05 190.36 80.82C190.41 82.13 190.41 82.5 190.41 84.05C190.41 86.75 190.41 108.33 190.41 111.02C190.41 111.49 190.78 111.88 191.26 111.88C192.19 111.88 199.66 111.88 200.59 111.88C201.06 111.88 201.45 111.49 201.45 111.02C201.45 108.24 201.45 85.97 201.45 83.19C201.45 83.11 201.43 83.03 201.41 82.95C201 69.17 192.41 60.28 179.5 60.28" id="b8fA0RwH9e"/><path d="M350.02 60.29L350.96 60.38L351.89 60.5L352.79 60.66L353.68 60.84L354.55 61.07L355.41 61.32L356.24 61.61L357.05 61.93L357.84 62.28L358.61 62.66L359.36 63.07L360.09 63.51L360.79 63.98L361.48 64.47L362.14 65L362.78 65.55L363.39 66.14L363.98 66.75L364.54 67.38L365.08 68.04L365.6 68.73L366.08 69.44L366.54 70.18L366.98 70.94L367.39 71.73L367.77 72.53L368.12 73.37L368.44 74.22L368.74 75.1L369.01 75.99L369.24 76.91L369.45 77.85L369.62 78.81L369.77 79.79L369.88 80.79L369.96 81.81L370.01 82.84L370.03 83.9L370.03 83.99L370.03 84.1L370.02 84.21L370.02 84.32L370.02 84.44L370.01 84.56L370 84.68L370 84.81L369.99 84.94L369.98 85.07L369.98 85.2L369.97 85.33L369.96 85.47L369.95 85.6L369.94 85.74L369.93 85.87L369.92 86.01L369.91 86.14L369.9 86.27L369.89 86.4L369.88 86.53L369.86 86.65L369.85 86.78L369.84 86.89L369.83 87.01L369.82 87.12L369.81 87.23L369.8 87.33L369.79 87.43L369.79 87.52L369.78 87.6L369.77 87.68L369.76 87.75L369.76 87.82L369.75 87.87L369.75 87.92L369.74 87.96L369.74 88L369.74 88.02L369.73 88.03L369.73 88.06L369.73 88.1L369.72 88.13L369.71 88.16L369.7 88.19L369.69 88.22L369.68 88.25L369.67 88.28L369.66 88.31L369.64 88.33L369.63 88.36L369.61 88.39L369.6 88.41L369.58 88.44L369.56 88.46L369.54 88.49L369.52 88.51L369.5 88.53L369.48 88.55L369.46 88.57L369.44 88.59L369.41 88.61L369.39 88.63L369.36 88.65L369.34 88.66L369.31 88.68L369.28 88.7L369.26 88.71L369.23 88.72L369.2 88.73L369.17 88.74L369.14 88.75L369.11 88.76L369.08 88.77L369.05 88.78L369.02 88.78L368.98 88.79L368.95 88.79L368.92 88.79L368.89 88.79L334.25 88.79L334.33 89.57L334.44 90.33L334.57 91.06L334.73 91.77L334.91 92.45L335.11 93.11L335.34 93.75L335.59 94.36L335.85 94.95L336.14 95.51L336.45 96.05L336.78 96.57L337.12 97.07L337.48 97.55L337.86 98L338.25 98.44L338.65 98.85L339.07 99.24L339.5 99.61L339.95 99.96L340.4 100.29L340.87 100.6L341.34 100.9L341.83 101.17L342.32 101.42L342.82 101.66L343.32 101.88L343.83 102.08L344.35 102.26L344.87 102.42L345.39 102.57L345.92 102.7L346.44 102.82L346.97 102.92L347.5 103L348.02 103.06L348.55 103.12L349.07 103.15L349.59 103.17L350.1 103.18L350.7 103.17L351.28 103.14L351.85 103.09L352.42 103.03L352.97 102.95L353.52 102.85L354.06 102.74L354.59 102.62L355.1 102.48L355.61 102.34L356.1 102.18L356.59 102.01L357.06 101.84L357.51 101.66L357.96 101.47L358.39 101.28L358.81 101.08L359.22 100.88L359.61 100.68L359.99 100.47L360.35 100.27L360.7 100.07L361.03 99.87L361.35 99.67L361.65 99.48L361.93 99.29L362.2 99.11L362.45 98.93L362.68 98.76L362.9 98.6L363.09 98.45L363.27 98.32L363.43 98.19L363.57 98.08L363.69 97.98L363.79 97.89L363.87 97.83L363.92 97.77L363.96 97.74L363.98 97.73L363.99 97.71L364.01 97.7L364.02 97.69L364.04 97.68L364.05 97.66L364.07 97.65L364.08 97.64L364.1 97.63L364.11 97.62L364.13 97.61L364.15 97.6L364.16 97.59L364.18 97.59L364.2 97.58L364.22 97.57L364.23 97.56L364.25 97.56L364.27 97.55L364.29 97.54L364.3 97.54L364.32 97.53L364.34 97.53L364.36 97.52L364.38 97.52L364.4 97.51L364.42 97.51L364.43 97.51L364.45 97.51L364.47 97.5L364.49 97.5L364.51 97.5L364.53 97.5L364.55 97.5L364.57 97.5L364.59 97.5L364.61 97.5L364.63 97.5L364.65 97.5L364.67 97.51L364.69 97.51L364.71 97.51L364.72 97.52L364.74 97.52L364.76 97.52L364.78 97.53L364.8 97.53L364.82 97.54L364.83 97.55L364.85 97.55L364.87 97.56L364.89 97.57L364.91 97.57L364.92 97.58L364.94 97.59L364.96 97.6L364.97 97.61L364.99 97.62L365.01 97.63L365.02 97.64L365.04 97.65L365.05 97.66L365.07 97.67L365.08 97.68L365.1 97.69L365.11 97.71L365.13 97.72L365.14 97.73L365.15 97.74L365.17 97.76L365.18 97.77L365.19 97.79L365.2 97.8L365.22 97.82L365.23 97.83L365.24 97.85L365.25 97.86L365.26 97.88L365.27 97.9L365.28 97.91L365.29 97.93L369.15 104.77L369.16 104.8L369.17 104.82L369.19 104.85L369.2 104.88L369.21 104.9L369.22 104.93L369.22 104.96L369.23 104.98L369.24 105.01L369.24 105.04L369.25 105.06L369.25 105.09L369.26 105.12L369.26 105.15L369.26 105.17L369.26 105.2L369.26 105.23L369.26 105.26L369.25 105.28L369.25 105.31L369.25 105.34L369.24 105.37L369.23 105.39L369.23 105.42L369.22 105.44L369.21 105.47L369.2 105.5L369.19 105.52L369.18 105.55L369.17 105.57L369.15 105.6L369.14 105.62L369.12 105.65L369.11 105.67L369.09 105.69L369.08 105.72L369.06 105.74L369.04 105.76L369.02 105.78L369 105.8L368.96 105.84L368.9 105.89L368.81 105.97L368.7 106.07L368.56 106.19L368.39 106.33L368.21 106.49L367.99 106.66L367.75 106.85L367.49 107.05L367.21 107.26L366.9 107.48L366.56 107.71L366.21 107.95L365.83 108.2L365.43 108.45L365 108.71L364.55 108.97L364.08 109.24L363.59 109.5L363.08 109.76L362.55 110.02L361.99 110.28L361.41 110.54L360.82 110.78L360.2 111.03L359.56 111.26L358.9 111.48L358.23 111.7L357.53 111.9L356.81 112.09L356.08 112.26L355.32 112.42L354.55 112.56L353.75 112.68L352.94 112.78L352.12 112.87L351.27 112.93L350.41 112.96L349.53 112.98L348.38 112.96L347.24 112.9L346.12 112.79L345.02 112.65L343.94 112.47L342.88 112.25L341.84 111.99L340.82 111.7L339.82 111.37L338.84 111L337.89 110.6L336.95 110.17L336.04 109.7L335.16 109.19L334.3 108.66L333.46 108.09L332.66 107.49L331.88 106.86L331.12 106.2L330.4 105.52L329.7 104.8L329.04 104.05L328.4 103.28L327.8 102.48L327.22 101.66L326.68 100.81L326.17 99.93L325.7 99.03L325.26 98.11L324.85 97.16L324.48 96.19L324.15 95.21L323.85 94.19L323.59 93.16L323.37 92.11L323.19 91.04L323.05 89.96L322.94 88.85L322.88 87.73L322.86 86.59L322.88 85.44L322.94 84.3L323.03 83.18L323.17 82.08L323.33 81L323.54 79.94L323.78 78.9L324.06 77.89L324.37 76.89L324.71 75.92L325.09 74.97L325.5 74.05L325.94 73.15L326.42 72.27L326.93 71.42L327.46 70.6L328.03 69.8L328.62 69.04L329.25 68.3L329.9 67.58L330.58 66.9L331.29 66.25L332.03 65.62L332.79 65.03L333.58 64.47L334.39 63.94L335.22 63.44L336.09 62.98L336.97 62.55L337.88 62.16L338.81 61.8L339.76 61.47L340.73 61.18L341.72 60.93L342.74 60.72L343.77 60.54L344.82 60.4L345.89 60.3L346.98 60.24L348.08 60.22L349.06 60.24L350.02 60.29ZM344.4 69.73L342.81 70.21L341.32 70.88L339.95 71.72L338.71 72.73L337.6 73.9L336.64 75.23L335.82 76.7L335.16 78.31L334.66 80.06L358.74 80.06L358.51 78.31L358.1 76.7L357.53 75.23L356.81 73.9L355.93 72.73L354.91 71.72L353.76 70.88L352.47 70.21L351.06 69.73L349.53 69.43L347.89 69.33L346.1 69.43L344.4 69.73Z" id="b1KgJMRwAn"/><path d="M318.74 61.37C313.13 61.37 310.01 61.37 309.39 61.37C308.93 61.37 308.54 61.75 308.54 62.22C308.54 64.52 308.55 82.92 308.55 85.22C308.55 85.22 308.4 89.52 307.98 92.13C306.84 99.11 301.62 103.86 294.56 103.86C288.08 103.86 283.9 99.41 283.65 92.23C283.64 92.02 283.58 91.01 283.46 89.19C283.46 73.01 283.46 64.02 283.46 62.22C283.46 61.75 283.08 61.37 282.61 61.37C281.68 61.37 274.21 61.37 273.27 61.37C272.8 61.37 272.42 61.75 272.42 62.22C272.42 65.01 272.42 87.28 272.42 90.06C272.42 90.14 272.43 90.22 272.46 90.29C272.87 104.08 281.45 112.97 294.37 112.97C299.61 112.97 304.48 111.56 308.54 108.87C308.54 109.08 308.54 110.76 308.54 110.97C308.54 111.43 308.93 111.82 309.39 111.82C310.33 111.82 317.8 111.82 318.74 111.82C319.21 111.82 319.59 111.43 319.59 110.97C319.59 106.09 319.59 67.1 319.59 62.22C319.59 61.75 319.21 61.37 318.74 61.37" id="h5VnjRexH"/><path d="M58.28 101.16C58.09 100.84 57.7 100.68 57.32 100.78C57.19 100.82 57.06 100.89 56.96 100.99C56.88 101.06 55.59 102.19 52.57 102.19C52.55 102.19 52.39 102.19 52.37 102.19C52.33 102.19 52.31 102.19 52.28 102.2C48.25 101.97 43.52 100.02 43.52 92.09C43.52 90.7 43.52 83.76 43.52 71.26C50.66 71.26 54.63 71.26 55.42 71.26C55.68 71.26 55.92 71.14 56.08 70.95C56.69 70.2 61.62 64.18 62.23 63.43C62.45 63.18 62.49 62.83 62.35 62.53C62.2 62.23 61.9 62.05 61.58 62.05C60.37 62.05 54.36 62.05 43.52 62.05C43.52 54.12 43.52 49.71 43.52 48.83C43.52 48.36 43.13 47.98 42.67 47.98C41.73 47.98 34.25 47.98 33.32 47.98C32.85 47.98 32.47 48.36 32.47 48.83C32.47 53.26 32.47 88.71 32.47 93.15C32.47 110.34 46.14 112.2 52.01 112.2C53.97 112.2 55.34 112.01 55.4 112C55.43 112 55.46 111.99 55.49 111.99C59.89 110.9 61.55 109.31 62.02 108.76C62.19 108.6 62.31 108.37 62.31 108.12C62.31 107.9 62.23 107.71 62.1 107.56" id="e34AYTneQc"/></defs><g class="currentLayer"><title>Layer 1</title><g id="svg_1" class="" opacity="1"><g id="svg_2" opacity="1"><g id="svg_3" opacity="1"><use xlink:href="#c9AgO3xBeu" opacity="1" fill="#fbfbfb" fill-opacity="1" id="svg_4" transform="matrix(1.2185404300689697,0,0,1.1979883909225464,-7.096008031112433,-8.337291262590952) " y="39.62722117766585" x="19.268543937902486"/><g id="svg_5" opacity="1"><use xlink:href="#c9AgO3xBeu" opacity="1" fill-opacity="0" stroke="#000000" stroke-width="1" stroke-opacity="0" id="svg_6" transform="matrix(1.2185404300689697,0,0,1.1979883909225464,-7.096008031112433,-8.337291262590952) " y="39.62722117766585" x="19.268543937902486"/></g></g><g id="svg_7" opacity="1"><use xlink:href="#g1t4s8SHmg" opacity="1" fill="#fbfbfb" fill-opacity="1" id="svg_8" transform="matrix(1.2185404300689697,0,0,1.1979883909225464,-7.096008031112433,-8.337291262590952) " y="39.62722117766585" x="19.268543937902486"/><g id="svg_9" opacity="1"><use xlink:href="#g1t4s8SHmg" opacity="1" fill-opacity="0" stroke="#000000" stroke-width="1" stroke-opacity="0" id="svg_10" transform="matrix(1.2185404300689697,0,0,1.1979883909225464,-7.096008031112433,-8.337291262590952) " y="39.62722117766585" x="19.268543937902486"/></g></g><g id="svg_11" opacity="1"><use xlink:href="#bjtaVHkDX" opacity="1" fill="#fbfbfb" fill-opacity="1" id="svg_12" transform="matrix(1.2185404300689697,0,0,1.1979883909225464,-7.096008031112433,-8.337291262590952) " y="39.62722117766585" x="19.268543937902486"/><g id="svg_13" opacity="1"><use xlink:href="#bjtaVHkDX" opacity="1" fill-opacity="0" stroke="#000000" stroke-width="1" stroke-opacity="0" id="svg_14" transform="matrix(1.2185404300689697,0,0,1.1979883909225464,-7.096008031112433,-8.337291262590952) " y="39.62722117766585" x="19.268543937902486"/></g></g><g id="svg_15" opacity="1"><use xlink:href="#d77GKydqFz" opacity="1" fill="#fbfbfb" fill-opacity="1" id="svg_16" transform="matrix(1.2185404300689697,0,0,1.1979883909225464,-7.096008031112433,-8.337291262590952) " y="39.62722117766585" x="19.268543937902486"/><g id="svg_17" opacity="1"><use xlink:href="#d77GKydqFz" opacity="1" fill-opacity="0" stroke="#000000" stroke-width="1" stroke-opacity="0" id="svg_18" transform="matrix(1.2185404300689697,0,0,1.1979883909225464,-7.096008031112433,-8.337291262590952) " y="39.62722117766585" x="19.268543937902486"/></g></g><g id="svg_19" opacity="1"><use xlink:href="#a1gD3f4L9L" opacity="1" fill="#fbfbfb" fill-opacity="1" id="svg_20" transform="matrix(1.2185404300689697,0,0,1.1979883909225464,-7.096008031112433,-8.337291262590952) " y="39.62722117766585" x="19.268543937902486"/><g id="svg_21" opacity="1"><use xlink:href="#a1gD3f4L9L" opacity="1" fill-opacity="0" stroke="#000000" stroke-width="1" stroke-opacity="0" id="svg_22" transform="matrix(1.2185404300689697,0,0,1.1979883909225464,-7.096008031112433,-8.337291262590952) " y="39.62722117766585" x="19.268543937902486"/></g></g><g id="svg_23" opacity="1"><use xlink:href="#b8fA0RwH9e" opacity="1" fill="#fbfbfb" fill-opacity="1" id="svg_24" transform="matrix(1.2185404300689697,0,0,1.1979883909225464,-7.096008031112433,-8.337291262590952) " y="39.62722117766585" x="19.268543937902486"/><g id="svg_25" opacity="1"><use xlink:href="#b8fA0RwH9e" opacity="1" fill-opacity="0" stroke="#000000" stroke-width="1" stroke-opacity="0" id="svg_26" transform="matrix(1.2185404300689697,0,0,1.1979883909225464,-7.096008031112433,-8.337291262590952) " y="39.62722117766585" x="19.268543937902486"/></g></g><g id="svg_27" opacity="1"><use xlink:href="#b1KgJMRwAn" opacity="1" fill="#fbfbfb" fill-opacity="1" id="svg_28" transform="matrix(1.2185404300689697,0,0,1.1979883909225464,-7.096008031112433,-8.337291262590952) " y="39.62722117766585" x="19.268543937902486"/><g id="svg_29" opacity="1"><use xlink:href="#b1KgJMRwAn" opacity="1" fill-opacity="0" stroke="#000000" stroke-width="1" stroke-opacity="0" id="svg_30" transform="matrix(1.2185404300689697,0,0,1.1979883909225464,-7.096008031112433,-8.337291262590952) " y="39.62722117766585" x="19.268543937902486"/></g></g><g id="svg_31" opacity="1"><use xlink:href="#h5VnjRexH" opacity="1" fill="#fbfbfb" fill-opacity="1" id="svg_32" transform="matrix(1.2185404300689697,0,0,1.1979883909225464,-7.096008031112433,-8.337291262590952) " y="39.62722117766585" x="19.268543937902486"/><g id="svg_33" opacity="1"><use xlink:href="#h5VnjRexH" opacity="1" fill-opacity="0" stroke="#000000" stroke-width="1" stroke-opacity="0" id="svg_34" transform="matrix(1.2185404300689697,0,0,1.1979883909225464,-7.096008031112433,-8.337291262590952) " y="39.62722117766585" x="19.268543937902486"/></g></g><g id="svg_35" opacity="1"><use xlink:href="#e34AYTneQc" opacity="1" fill="#fbfbfb" fill-opacity="1" id="svg_36" transform="matrix(1.2185404300689697,0,0,1.1979883909225464,-7.096008031112433,-8.337291262590952) " y="39.62722117766585" x="19.268543937902486"/><g id="svg_37" opacity="1"><use xlink:href="#e34AYTneQc" opacity="1" fill-opacity="0" stroke="#000000" stroke-width="1" stroke-opacity="0" id="svg_38" transform="matrix(1.2185404300689697,0,0,1.1979883909225464,-7.096008031112433,-8.337291262590952) " y="39.62722117766585" x="19.268543937902486"/></g></g></g></g></g></svg>