<svg id="Layer_1" data-name="Layer 1" xmlns="http://www.w3.org/2000/svg" viewBox="0 0 351 155"><defs><style>.cls-1{fill:#32b561;}.cls-2{fill:#fff;}</style></defs><title>Green</title><path class="cls-1" d="M298.76,0H15A15,15,0,0,0,0,15V140a15,15,0,0,0,15,15H298.76a15,15,0,0,0,13.32-8.12l37.25-62.5a15,15,0,0,0,0-13.76L312.08,8.12A15,15,0,0,0,298.76,0"/><path class="cls-2" d="M326,77.5a7.5,7.5,0,1,1-7.5-7.5,7.5,7.5,0,0,1,7.5,7.5"/><path class="cls-2" d="M73.44,61.6H84.51a1,1,0,0,1,.9,1.44l-28.72,59a1.49,1.49,0,0,1-2.69,0L25.1,63A1,1,0,0,1,26,61.6H37.08a1,1,0,0,1,.91.58L55.35,99.8,72.53,62.19a1,1,0,0,1,.91-.59"/><path class="cls-2" d="M134.34,85.34a18.37,18.37,0,0,0-5.16-10.88A15.21,15.21,0,0,0,118,70.07a17.61,17.61,0,0,0-11.91,4.1,18.22,18.22,0,0,0-6,11.17Zm3.35,18,7.47,4.34a1,1,0,0,1,.35,1.41q-10,15.72-28.3,15.72-13.36,0-21.59-9.67-8-9.42-8-25.26A32.3,32.3,0,0,1,90,78.15q4.45-11.39,15-15.85A30.89,30.89,0,0,1,117.21,60q19.23,0,25.86,16.16a34.62,34.62,0,0,1,2.86,14.44l-.09,2.67a1,1,0,0,1-1,1H99.64q0,8.66,5,14.38a17.73,17.73,0,0,0,13.88,6c7.17,0,14.15-4.68,17.77-10.79a1,1,0,0,1,1.37-.37"/><path class="cls-2" d="M157.69,61.6h9.66a1,1,0,0,1,1,1v7.72Q175.1,60,187.26,60q21.33,0,21.33,26.15v35.65a1,1,0,0,1-1,1h-9.72a1,1,0,0,1-1-1V85.85q0-7.83-2.73-11.39-3.12-4.14-10.7-4.14-15.09,0-15.09,19v32.4a1,1,0,0,1-1,1h-9.66a1,1,0,0,1-1-1V62.6a1,1,0,0,1,1-1"/><path class="cls-2" d="M267.89,92.52q0-13.23-9.16-18.77A19.34,19.34,0,0,0,248.52,71Q236.77,71,232,82.55a26.62,26.62,0,0,0-2,10.22q0,10.89,7.57,17.35a15.83,15.83,0,0,0,10.7,3.57q12.66,0,17.52-11a24.8,24.8,0,0,0,2.09-10.16m2.39-62.67H280a1,1,0,0,1,1,1v90.9a1,1,0,0,1-1,1h-9.72a1,1,0,0,1-1-1v-8.93q-7.95,12-20.88,12-14.4,0-22.48-10.75a34.55,34.55,0,0,1-7.13-21.32,38,38,0,0,1,3.56-16.67,27.42,27.42,0,0,1,11.4-12.47A28.37,28.37,0,0,1,247.89,60a25,25,0,0,1,12.41,3.43,22,22,0,0,1,9,8.91V30.85a1,1,0,0,1,1-1"/></svg>