<?xml version="1.0" encoding="UTF-8" standalone="no"?>
<!-- Generator: Adobe Illustrator 13.0.0, SVG Export Plug-In . SVG Version: 6.00 Build 14948)  -->

<svg
   xmlns:dc="http://purl.org/dc/elements/1.1/"
   xmlns:cc="http://creativecommons.org/ns#"
   xmlns:rdf="http://www.w3.org/1999/02/22-rdf-syntax-ns#"
   xmlns:svg="http://www.w3.org/2000/svg"
   xmlns="http://www.w3.org/2000/svg"
   xmlns:xlink="http://www.w3.org/1999/xlink"
   xmlns:sodipodi="http://sodipodi.sourceforge.net/DTD/sodipodi-0.dtd"
   xmlns:inkscape="http://www.inkscape.org/namespaces/inkscape"
   version="1.1"
   id="Layer_1"
   x="0px"
   y="0px"
   width="65px"
   height="65px"
   viewBox="0 0 65 65"
   enable-background="new 0 0 65 65"
   xml:space="preserve"
   inkscape:version="0.91 r13725"
   sodipodi:docname="vista.svg"><metadata
     id="metadata29"><rdf:RDF><cc:Work
         rdf:about=""><dc:format>image/svg+xml</dc:format><dc:type
           rdf:resource="http://purl.org/dc/dcmitype/StillImage" /></cc:Work></rdf:RDF></metadata><defs
     id="defs27" /><sodipodi:namedview
     pagecolor="#ffffff"
     bordercolor="#666666"
     borderopacity="1"
     objecttolerance="10"
     gridtolerance="10"
     guidetolerance="10"
     inkscape:pageopacity="0"
     inkscape:pageshadow="2"
     inkscape:window-width="1280"
     inkscape:window-height="751"
     id="namedview25"
     showgrid="false"
     showguides="true"
     inkscape:guide-bbox="true"
     inkscape:zoom="3.6307692"
     inkscape:cx="39.323513"
     inkscape:cy="38.227552"
     inkscape:window-x="0"
     inkscape:window-y="0"
     inkscape:window-maximized="1"
     inkscape:current-layer="Layer_1"><sodipodi:guide
       position="32.775424,26.440678"
       orientation="1,0"
       id="guide3407" /></sodipodi:namedview><g
     id="g3"
     transform="matrix(0.7280022,0,0,0.7280022,8.8140845,7.679857)"><defs
       id="defs5"><rect
         id="SVGID_1_"
         x="1.6289999"
         width="61.813"
         height="65"
         y="0" /></defs><clipPath
       id="SVGID_2_"><use
         xlink:href="#SVGID_1_"
         overflow="visible"
         id="use9"
         style="overflow:visible"
         x="0"
         y="0"
         width="100%"
         height="100%" /></clipPath><path
       clip-path="url(#SVGID_2_)"
       d="m 43.666,42.912 c 0.006,-0.006 0.012,-0.013 0.021,-0.019 L 62.688,23.801 c 1.008,-1.013 1.008,-2.645 0,-3.653 -1.008,-1.004 -2.642,-1.009 -3.648,-0.007 l -9.344,9.357 c -0.403,0.405 -1.064,0.407 -1.461,0 -0.409,-0.405 -0.406,-1.058 0.002,-1.465 l 13.39,-13.409 c 1.008,-1.001 1.008,-2.64 0.003,-3.653 C 60.62,9.97 58.985,9.974 57.98,10.966 L 47.067,21.897 c -0.399,0.403 -1.063,0.405 -1.461,0.002 -0.401,-0.399 -0.401,-1.06 0,-1.466 L 58.702,7.329 C 59.712,6.321 59.712,4.685 58.7,3.68 57.688,2.669 56.062,2.675 55.051,3.678 L 41.952,16.782 c -0.4,0.409 -1.053,0.409 -1.461,0.009 -0.399,-0.406 -0.403,-1.067 0,-1.466 L 51.397,4.41 C 52.404,3.4 52.398,1.765 51.395,0.758 50.387,-0.25 48.756,-0.25 47.747,0.748 L 29.621,18.902 c -0.398,0.398 -1.06,0.393 -1.466,-0.01 -0.397,-0.399 -0.397,-1.052 0.007,-1.458 L 35.68,9.908 c 1.009,-1 1.009,-2.641 -0.005,-3.652 C 34.672,5.253 33.028,5.253 32.024,6.258 L 19.228,19.07 c -0.07,0.07 -0.122,0.125 -0.165,0.189 -6.202,6.7 -6.046,17.156 0.464,23.664 6.515,6.51 16.99,6.65 23.676,0.423 0.052,-0.033 0.108,-0.076 0.171,-0.141 l 0.273,-0.271 c 0.004,-10e-4 0.01,-0.009 0.019,-0.022"
       id="path11"
       inkscape:connector-curvature="0"
       style="fill:#fffffe;fill-opacity:1" /><path
       clip-path="url(#SVGID_2_)"
       d="M 30.19,5.561 26.531,9.223 21.77,4.473 c -1.001,-1.014 -1.001,-2.64 0,-3.652 1.012,-1.015 2.644,-1.012 3.657,-0.002 L 30.19,5.561 Z M 16.258,1.875 C 15.251,0.876 13.609,0.879 12.608,1.879 11.594,2.887 11.598,4.514 12.6,5.53 l 8.815,8.811 3.651,-3.652 -8.808,-8.814 z M 17.956,17.804 19.96,15.795 8.954,4.803 C 7.942,3.796 6.306,3.795 5.299,4.806 4.293,5.814 4.293,7.457 5.302,8.461 L 16.454,19.6 c 0.386,-0.521 0.8,-1.025 1.233,-1.495 0.079,-0.107 0.175,-0.202 0.269,-0.301 M 12.814,29.11 11.021,27.318 c -1.01,-1.01 -2.646,-1.014 -3.65,0 -1.009,1.005 -1.014,2.641 -0.002,3.656 l 6.581,6.565 c -0.758,-2.008 -1.171,-4.142 -1.218,-6.343 -0.009,-0.702 0.019,-1.394 0.082,-2.086 M 6.036,12.1 C 5.03,11.101 3.391,11.113 2.384,12.108 1.378,13.118 1.378,14.747 2.379,15.753 l 10.838,10.824 c 0.423,-1.83 1.123,-3.58 2.077,-5.221 L 6.036,12.1 Z"
       id="path13"
       inkscape:connector-curvature="0"
       style="fill:#ffffff;fill-opacity:0.80113637" /><path
       clip-path="url(#SVGID_2_)"
       d="m 25.651,55.532 0,8.765 c 0,0.168 -0.42,0.463 -1.033,0.463 -1.5,0 -2.218,-0.602 -2.218,-2.698 l -0.013,-8.89 c 0,0 0.168,-0.406 1.185,-0.429 1.252,-0.037 2.079,0.382 2.079,2.789"
       id="path15"
       inkscape:connector-curvature="0"
       style="fill:#ffffff;fill-opacity:1" /><path
       clip-path="url(#SVGID_2_)"
       d="m 36.069,54.865 c 0,0.763 -0.762,1.612 -1.109,1.416 -0.727,-0.402 -1.314,-1.028 -3.048,-1.156 -1.099,-0.084 -2.148,0.582 -1.813,1.486 0.133,0.356 0.425,0.525 1.898,0.784 2.825,0.5 4.494,1.709 4.494,3.626 0,1.951 -1.53,3.96 -4.752,3.979 -3.015,0.019 -4.747,-0.985 -5.075,-2.217 -0.211,-0.787 0.652,-1.916 1.154,-1.577 1.248,0.839 2.561,1.303 3.973,1.303 1.333,0 1.755,-0.73 1.714,-1.258 -0.039,-0.566 -0.833,-0.899 -2.353,-1.157 -3.048,-0.515 -4.375,-1.746 -4.375,-3.708 0,-2.159 1.759,-3.792 4.912,-3.782 2.857,0.005 4.38,1.236 4.38,2.261"
       id="path17"
       inkscape:connector-curvature="0"
       style="fill:#ffffff;fill-opacity:1" /><path
       clip-path="url(#SVGID_2_)"
       d="m 43.359,61.727 c 0,0 -0.521,0.611 -1.495,0.484 -0.971,-0.133 -1.011,-1.085 -1.011,-2.048 0,0 -0.005,-4.221 0.003,-4.29 l 0.621,0 c 1.848,0 2.407,-0.758 2.407,-1.855 0,-0.601 -0.271,-0.864 -0.46,-0.864 l -2.494,0 c -0.085,-2.201 -0.919,-2.596 -2.145,-2.559 -1.057,0.024 -1.243,0.48 -1.243,0.48 l 0.011,9.995 c 0,2.676 1.5,3.764 3.212,3.78 2.333,0.028 3.18,-1.151 3.18,-2.19 -10e-4,-0.526 -0.26,-1.06 -0.586,-0.933"
       id="path19"
       inkscape:connector-curvature="0"
       style="fill:#ffffff;fill-opacity:1" /><path
       clip-path="url(#SVGID_2_)"
       d="m 49.596,55.101 c -0.757,0 -1.532,0.137 -2.004,0.432 -0.501,0.318 -0.777,0.637 -0.996,0.913 -0.125,0.153 -0.275,0.38 -0.352,0.397 -0.228,0.058 -0.787,-0.194 -1.068,-0.49 -0.201,-0.214 -0.311,-0.502 -0.311,-0.889 0,-0.369 0.099,-0.728 0.303,-1.072 0.2,-0.348 0.505,-0.655 0.915,-0.932 0.408,-0.271 0.921,-0.493 1.539,-0.662 0.617,-0.17 1.343,-0.254 2.177,-0.254 1.726,0 3.013,0.411 3.861,1.232 0.848,0.819 1.271,2.022 1.271,3.614 l 0,6.876 c 0,0.079 -0.122,0.26 -0.368,0.348 -0.244,0.086 -0.519,0.131 -0.815,0.131 -0.489,0 -0.899,-0.147 -1.228,-0.444 -0.329,-0.298 -0.536,-0.774 -0.623,-1.435 -0.39,0.611 -0.908,1.094 -1.562,1.447 -0.658,0.352 -1.391,0.529 -2.212,0.529 -1.145,0 -2.041,-0.311 -2.69,-0.94 -0.646,-0.626 -0.97,-1.446 -0.97,-2.46 0,-1.363 0.569,-2.366 1.708,-3.003 1.138,-0.632 2.904,-0.967 5.302,-0.999 l 0.356,0 c 10e-4,-1.561 -0.744,-2.339 -2.233,-2.339 m 2.234,4.201 0,-0.005 -0.581,0.023 c -1.249,0.034 -2.193,0.195 -2.823,0.483 -0.634,0.288 -0.949,0.758 -0.949,1.4 0,0.433 0.196,0.732 0.503,0.99 0.305,0.258 0.626,0.395 1.225,0.361 1.167,-0.062 2.625,-1.636 2.625,-3.252"
       id="path21"
       inkscape:connector-curvature="0"
       style="fill:#ffffff;fill-opacity:1" /><path
       clip-path="url(#SVGID_2_)"
       d="M 18.355,53.794 15.784,60.73 13.211,53.794 C 12.459,52.076 9.694,52.873 9.828,53.4 l 4.125,10.556 c 0.139,0.357 0.386,0.593 0.738,0.715 0.356,0.122 0.716,0.18 1.087,0.18 l 0.006,0 0.007,0 c 0.369,0 0.732,-0.058 1.085,-0.18 0.354,-0.122 0.6,-0.357 0.738,-0.715 L 21.744,53.4 c 0.13,-0.527 -2.635,-1.324 -3.389,0.394"
       id="path23"
       inkscape:connector-curvature="0"
       style="fill:#ffffff;fill-opacity:1" /></g></svg>