<?xml version="1.0" encoding="utf-8"?>
<!-- Generator: Adobe Illustrator 16.0.0, SVG Export Plug-In . SVG Version: 6.00 Build 0)  -->
<!DOCTYPE svg PUBLIC "-//W3C//DTD SVG 1.1//EN" "http://www.w3.org/Graphics/SVG/1.1/DTD/svg11.dtd">
<svg version="1.1" id="Layer_1" xmlns="http://www.w3.org/2000/svg" xmlns:xlink="http://www.w3.org/1999/xlink" x="0px" y="0px"
	 width="850.394px" height="850.394px" viewBox="0 0 850.394 850.394" enable-background="new 0 0 850.394 850.394"
	 xml:space="preserve">
<g>
	<path fill="#00B2D5" d="M424.933,719.551c162.334,0,293.932-131.598,293.932-293.933c0-162.334-131.598-293.932-293.932-293.932
		C262.598,131.686,131,263.284,131,425.618C131,587.953,262.598,719.551,424.933,719.551L424.933,719.551z"/>
	<path fill="#FFFFFF" d="M271.701,424.768l50.162-50.286c1.663-1.695,2.591-3.938,2.591-6.319c0-4.959-4.032-8.988-8.992-8.988
		c-2.416,0-4.681,0.948-6.389,2.677c-0.005,0.009-50.117,50.092-50.117,50.092l-50.341-50.168c-1.701-1.677-3.955-2.601-6.345-2.601
		c-4.954,0-8.987,4.026-8.987,8.981c0,2.417,0.965,4.685,2.697,6.395l50.155,50.148l-50.129,50.223
		c-1.762,1.734-2.723,4.008-2.723,6.436c0,4.959,4.033,8.982,8.987,8.982c2.394,0,4.65-0.93,6.345-2.625l50.263-50.195
		l50.072,50.012c1.776,1.836,4.067,2.814,6.512,2.814c4.956,0,8.987-4.029,8.987-8.988c0-2.393-0.926-4.641-2.614-6.336
		L271.701,424.768L271.701,424.768z"/>
	<path fill="#FFFFFF" d="M569.906,424.754c0,9.006,7.322,16.332,16.34,16.332c8.996,0,16.322-7.326,16.322-16.332
		c0-9.008-7.326-16.333-16.322-16.333C577.229,408.42,569.906,415.746,569.906,424.754L569.906,424.754z"/>
	<path fill="#FFFFFF" d="M520.324,424.761c0,36.334,29.564,65.895,65.904,65.895s65.92-29.561,65.92-65.895
		c0-36.339-29.58-65.908-65.92-65.908S520.324,388.422,520.324,424.761L520.324,424.761z M538.93,424.761
		c0-26.08,21.217-47.299,47.299-47.299c26.07,0,47.291,21.219,47.291,47.299c0,26.075-21.221,47.286-47.291,47.286
		C560.146,472.047,538.93,450.836,538.93,424.761L538.93,424.761z"/>
	<path fill="#FFFFFF" d="M515.646,359.98l-2.766-0.008c-8.301,0-16.307,2.618-22.994,7.771c-0.881-4.032-4.484-7.066-8.777-7.066
		c-4.941,0-8.9,3.959-8.912,8.911c0,0.018,0.029,111,0.029,111c0.014,4.941,4.045,8.959,8.988,8.959s8.973-4.018,8.986-8.971
		c0-0.021,0.004-68.25,0.004-68.25c0-22.749,2.08-31.936,21.566-34.37c1.801-0.224,3.76-0.189,3.768-0.189
		c5.332-0.182,9.121-3.846,9.121-8.799C524.66,364.013,520.615,359.98,515.646,359.98L515.646,359.98z"/>
	<path fill="#FFFFFF" d="M453.975,412.214c-3.873-18.336-13.912-33.399-29.199-43.072c-22.346-14.186-51.854-13.402-73.438,1.947
		c-17.606,12.525-27.769,33.014-27.769,54.121c0,5.292,0.638,10.634,1.966,15.892c6.648,26.152,29.13,45.949,55.934,49.23
		c7.954,0.963,15.696,0.502,23.712-1.574c6.889-1.676,13.555-4.471,19.697-8.406c6.375-4.098,11.701-9.502,16.859-15.971
		c0.104-0.119,0.209-0.225,0.313-0.35c3.58-4.439,2.916-10.754-1.018-13.768c-3.318-2.543-8.889-3.574-13.271,2.039
		c-0.941,1.342-1.993,2.723-3.15,4.104c-3.485,3.852-7.809,7.582-12.99,10.477c-6.593,3.521-14.106,5.535-22.093,5.58
		c-26.142-0.291-40.131-18.539-45.107-31.564c-0.869-2.432-1.539-4.955-2.006-7.553c-0.061-0.486-0.106-0.955-0.124-1.387
		c5.405,0,93.811-0.016,93.811-0.016C448.965,431.674,455.887,422.595,453.975,412.214L453.975,412.214z M343.072,413.911
		c0-0.246,0.019-0.502,0.031-0.755c5.218-20.627,23.899-35.891,46.147-35.891c22.517,0,41.369,15.639,46.32,36.646H343.072
		L343.072,413.911z"/>
</g>
</svg>
