<svg xmlns="http://www.w3.org/2000/svg" xmlns:xlink="http://www.w3.org/1999/xlink" viewBox="0 0 23.99 24"><defs><style>.cls-1{fill:url(#linear-gradient);}.cls-2{fill:#2684ff;}</style><linearGradient id="linear-gradient" x1="10.33" y1="13.1" x2="4.12" y2="2.34" gradientTransform="matrix(1, 0, 0, -1, 0, 26)" gradientUnits="userSpaceOnUse"><stop offset="0" stop-color="#0052cc"/><stop offset="0.92" stop-color="#2684ff"/></linearGradient></defs><g id="Layer_2" data-name="Layer 2"><g id="Layer_1-2" data-name="Layer 1"><g id="icon-gradient-blue-atlassian"><g id="Group"><g id="Group_2" data-name="Group 2"><path id="Vector" class="cls-1" d="M7.13,11.08A.69.69,0,0,0,6,11.19L.07,23a.71.71,0,0,0,.62,1H8.88a.67.67,0,0,0,.61-.4C11.28,20,10.22,14.39,7.13,11.08Z"/><path id="Vector_2" data-name="Vector 2" class="cls-2" d="M11.42.38a15.64,15.64,0,0,0-.91,15.32c2.19,4.33,3.82,7.68,4,7.9a.68.68,0,0,0,.62.4h8.19a.7.7,0,0,0,.62-1S12.88.93,12.59.38,11.75-.13,11.42.38Z"/></g></g></g></g></g></svg>