<svg xmlns="http://www.w3.org/2000/svg" viewBox="0 0 121.78 121.78"><defs><style>.cls-1,.cls-2,.cls-3{fill:#fff;}.cls-2{stroke:#000;stroke-miterlimit:10;stroke-width:3px;}.cls-2,.cls-3{isolation:isolate;}</style></defs><g id="Layer_2" data-name="Layer 2"><g id="Layer_1-2" data-name="Layer 1"><g id="Layer_2-2" data-name="Layer 2"><g id="Layer_1-2-2" data-name="Layer 1-2"><path class="cls-1" d="M1.23,60.16a60,60,0,1,1,0,.3Zm93.2,1.5C94.35,38,73,22.26,51.13,28.37a14.88,14.88,0,0,1-6.73.37c-8.17-1.69-15.7,1-20.09,7.68s-4,14.71.7,21.53a14.12,14.12,0,0,1,2.39,6.21A33.9,33.9,0,0,0,71.94,92.38a16.27,16.27,0,0,1,8.37,0C85,93.5,89,92.5,92.16,89.1c3.07-3.17,4.62-7.44,2.37-11.41s-1.62-7.45-.61-11.33A24.77,24.77,0,0,0,94.43,61.66Z"/><path class="cls-1" d="M54.56,46.75A14.83,14.83,0,0,1,39.71,61.58h-.07a15,15,0,1,1,.27-29.91A14.78,14.78,0,0,1,54.56,46.58Z"/><path class="cls-1" d="M83.64,89.33a8.1,8.1,0,0,1-8.12-8.08v-.18A8.31,8.31,0,0,1,84,73.13a8.12,8.12,0,0,1,7.79,8.07,8,8,0,0,1-7.87,8.13Z"/><path class="cls-2" d="M60.89,1.5a59.39,59.39,0,1,0,59.39,59.43A59.39,59.39,0,0,0,60.89,1.5ZM83.66,93.16a11.84,11.84,0,0,1-7.13-2.39A33.73,33.73,0,0,1,27.17,60.93v-.12a18.81,18.81,0,0,1,20.74-31,33.73,33.73,0,0,1,44.44,43.3,11.92,11.92,0,0,1-8.69,20.1Z"/><circle cx="60.89" cy="60.91" r="34.71"/><circle class="cls-3" cx="39.58" cy="46.63" r="17.52"/><circle class="cls-3" cx="83.66" cy="81.23" r="10.48"/></g></g></g></g></svg>