<svg xmlns="http://www.w3.org/2000/svg" xmlns:xlink="http://www.w3.org/1999/xlink" viewBox="0 0 97.11 97.12"><defs><style>.cls-1{fill:url(#linear-gradient);}.cls-2{fill:url(#linear-gradient-2);}.cls-3{fill:url(#linear-gradient-3);}.cls-4{fill:url(#linear-gradient-4);}.cls-5{fill:url(#linear-gradient-5);}.cls-6{fill:url(#linear-gradient-6);}.cls-7{fill:url(#linear-gradient-7);}.cls-8{fill:#606462;}</style><linearGradient id="linear-gradient" x1="-22.97" y1="108.51" x2="108.57" y2="-7.29" gradientUnits="userSpaceOnUse"><stop offset="0" stop-color="#80c342"/><stop offset="0.2" stop-color="#71bf53"/><stop offset="0.6" stop-color="#4bb47f"/><stop offset="1" stop-color="#1fa8b0"/></linearGradient><linearGradient id="linear-gradient-2" x1="5.24" y1="140.56" x2="136.79" y2="24.76" xlink:href="#linear-gradient"/><linearGradient id="linear-gradient-3" x1="-7.46" y1="126.13" x2="124.09" y2="10.34" xlink:href="#linear-gradient"/><linearGradient id="linear-gradient-4" x1="-0.61" y1="133.91" x2="130.94" y2="18.12" xlink:href="#linear-gradient"/><linearGradient id="linear-gradient-5" x1="-32.98" y1="97.14" x2="98.57" y2="-18.66" xlink:href="#linear-gradient"/><linearGradient id="linear-gradient-6" x1="-47.48" y1="80.66" x2="84.06" y2="-35.13" xlink:href="#linear-gradient"/><linearGradient id="linear-gradient-7" x1="-43.87" y1="84.76" x2="87.67" y2="-31.03" xlink:href="#linear-gradient"/></defs><g id="Layer_2" data-name="Layer 2"><g id="Layer_1-2" data-name="Layer 1"><path class="cls-1" d="M83.51,33.9l10.08-3.39A48.22,48.22,0,0,0,67.8,4L64.14,14A37.83,37.83,0,0,1,83.51,33.9Z"/><path class="cls-2" d="M55.05,85.9l1.06,10.64a48.55,48.55,0,0,0,31.6-19.29l-8.94-5.8A38,38,0,0,1,55.05,85.9Z"/><path class="cls-3" d="M49.48,86.46A37.94,37.94,0,0,1,23.41,77l-7.63,7.43A48.54,48.54,0,0,0,50.55,97.07l-1-10.6Z"/><path class="cls-4" d="M95.37,35.84,85.29,39.23a37.77,37.77,0,0,1-1.12,22.33,34.46,34.46,0,0,1-2.37,5.19l9,5.8a48.71,48.71,0,0,0,3.4-7.34A48,48,0,0,0,95.37,35.84Z"/><path class="cls-5" d="M10.7,46.61.12,45.29A48.35,48.35,0,0,0,11.88,80.37l7.63-7.44A38.1,38.1,0,0,1,10.7,46.61Z"/><path class="cls-6" d="M12.94,35.57A37.82,37.82,0,0,1,26.47,17.76L20.91,8.67a48.09,48.09,0,0,0-18,23.25,47.59,47.59,0,0,0-2.13,7.8l10.6,1.34A35.36,35.36,0,0,1,12.94,35.57Z"/><path class="cls-7" d="M58.88,12.09l3.66-10A48.34,48.34,0,0,0,25.7,5.74l5.56,9.12A37.71,37.71,0,0,1,58.88,12.09Z"/><path class="cls-8" d="M77.11,63.67c.28-.53.54-1.06.8-1.62.38-.79.7-1.59,1-2.41.19-.52.36-1.06.51-1.57a10,10,0,0,0,.39-1.32,32.66,32.66,0,0,0,.82-4.35,17.49,17.49,0,0,0,.19-2.17c0-.64.06-1.29.05-1.92,0-.45,0-.86-.06-1.3a24.4,24.4,0,0,0-.46-4c-.09-.66-.23-1.34-.39-2l-10.13,3.4a8.59,8.59,0,0,1,.14,1,6.45,6.45,0,0,1,.13,1,5.56,5.56,0,0,1,.09,1.08,20.36,20.36,0,0,1,0,2.81c0,.44-.08.87-.15,1.29a12.8,12.8,0,0,1-.26,1.46,10.82,10.82,0,0,1-.34,1.42c-.16.51-.3,1-.49,1.49a16.34,16.34,0,0,1-.81,1.91l9,5.82Z"/><path class="cls-8" d="M61.44,78.19a33.87,33.87,0,0,0,3.87-2c.53-.31,1-.64,1.55-1A32.56,32.56,0,0,0,70,72.76c.79-.69,1.52-1.4,2.26-2.18s1.26-1.42,1.83-2.16l-9-5.81c-.29.31-.56.63-.85.94s-.38.37-.55.52a12.43,12.43,0,0,1-1.07,1c-.44.37-.86.72-1.32,1.07,0,0,0,0,0,0-.48.33-1,.64-1.44.94a21.64,21.64,0,0,1-6.35,2.6l1,10.63c1-.18,1.91-.4,2.83-.66A39.94,39.94,0,0,0,61.44,78.19Z"/><path class="cls-8" d="M78.16,35.64c-.4-.86-.8-1.72-1.25-2.54a21.8,21.8,0,0,0-1.34-2.22,1.52,1.52,0,0,0-.19-.28,31.52,31.52,0,0,0-3.59-4.47,29.33,29.33,0,0,0-3.25-2.94,10.74,10.74,0,0,0-1.17-.87,13.79,13.79,0,0,0-1.21-.84,15.56,15.56,0,0,0-1.36-.85,25.24,25.24,0,0,0-2.59-1.33L58.55,29.35a12.25,12.25,0,0,1,1.38.77,1.49,1.49,0,0,1,.29.2c.46.28.89.59,1.31.89a20.76,20.76,0,0,1,3.76,3.61,10.9,10.9,0,0,1,1,1.31A20.41,20.41,0,0,1,68,39.07l10.15-3.39A0,0,0,0,0,78.16,35.64Z"/><path class="cls-8" d="M28,55.47c-.19-.55-.35-1.08-.5-1.64,0,0,0,0,0,0-.13-.55-.23-1.1-.32-1.66A14.39,14.39,0,0,1,27,50.68,4.19,4.19,0,0,1,27,50a9.32,9.32,0,0,1-.07-1.28l-10.6-1.36v0a31,31,0,0,0,1,9.37c.1.39.2.76.31,1.12s.22.71.33,1.05c.32.92.68,1.83,1.07,2.71a28.39,28.39,0,0,0,1.29,2.59,26.18,26.18,0,0,0,1.51,2.49s0,0,0,0c.55.8,1.14,1.55,1.73,2.3l7.67-7.45c-.28-.37-.54-.73-.79-1.12A20.63,20.63,0,0,1,28,55.47Z"/><path class="cls-8" d="M28.08,23.56c-.29.23-.56.48-.86.73a26.8,26.8,0,0,0-2.34,2.31,9,9,0,0,0-.88,1c-.41.48-.81,1-1.21,1.5s-.93,1.27-1.36,1.94-.84,1.34-1.21,2A26.09,26.09,0,0,0,19,35.44c-.31.66-.59,1.36-.84,2.05s-.49,1.43-.69,2.13S17.12,41,17,41.72l0,.05,10.63,1.35v0a14.66,14.66,0,0,1,.6-2c.18-.5.38-1,.58-1.45a11.76,11.76,0,0,1,.65-1.28c.22-.43.45-.82.68-1.22a.21.21,0,0,1,.07-.09A14.13,14.13,0,0,1,31,35.91a19.35,19.35,0,0,1,2.48-2.85c.23-.24.5-.47.76-.7a9,9,0,0,1,.74-.66l-5.57-9.15C29,22.9,28.51,23.21,28.08,23.56Z"/><path class="cls-8" d="M54.12,16.73a14.8,14.8,0,0,0-1.59-.22c-.47-.08-1-.11-1.47-.15s-1-.08-1.42-.1a31.59,31.59,0,0,0-4.57.18c-.93.11-1.84.25-2.74.43h0c-.91.21-1.82.41-2.7.69a.94.94,0,0,0-.33.08,24.42,24.42,0,0,0-2.45.84c-.42.17-.87.34-1.3.54s-.86.4-1.29.6c0,0,0,0,0,0l5.57,9.15c.53-.22,1-.44,1.57-.64s1.09-.35,1.65-.51l1.37-.33a22.38,22.38,0,0,1,5.44-.37c.47,0,1,.08,1.44.14a3.93,3.93,0,0,1,.6.07c.48.08,1,.18,1.45.29l3.66-10A25.7,25.7,0,0,0,54.12,16.73Z"/><path class="cls-8" d="M29.71,74.8c.4.3.78.56,1.19.82s.77.5,1.17.73a32.11,32.11,0,0,0,11.2,4.09c.45.07.9.15,1.36.2s.94.1,1.44.13a13.41,13.41,0,0,0,1.43.08c.47,0,1,0,1.43,0l-1-10.63a22.6,22.6,0,0,1-3.6-.42,12.28,12.28,0,0,1-1.48-.36c-.57-.15-1.13-.33-1.69-.53s-1.09-.43-1.62-.68a12,12,0,0,1-1.39-.69,21.68,21.68,0,0,1-3-2L27.46,73c.37.31.73.62,1.1.91S29.33,74.54,29.71,74.8Z"/></g></g></svg>