<svg xmlns="http://www.w3.org/2000/svg" viewBox="0 0 192 72"><defs><style>.cls-1{fill:#d9e2f0;}.cls-2{fill:#c8e4e2;}.cls-3{fill:#9bd3d0;}.cls-4{fill:#cddbee;}.cls-5{fill:#91cfce;}.cls-6{fill:#d0e1f0;}.cls-7{fill:#90c6ca;}.cls-8{fill:#bfd3ea;}.cls-9{fill:#9cbfe2;}.cls-10{fill:#b6cee7;}.cls-11{fill:#8fbae0;}.cls-12{fill:#b9d0e9;}.cls-13{fill:#8bb7df;}.cls-14{fill:#98bde0;}.cls-15{fill:#98bbe0;}.cls-16{fill:#a6d7d5;}.cls-17{fill:#cde7e3;}.cls-18{fill:#a4c2e3;}.cls-19{fill:#80afdc;}.cls-20{fill:#6ba3d6;}.cls-21{fill:#79a8d8;}.cls-22{fill:#bfd3e7;}.cls-23{fill:#a5c3e1;}.cls-24{fill:#8cb7dd;}.cls-25{fill:#82b0da;}.cls-26{fill:#519ad0;}.cls-27{fill:#1386c6;}.cls-28{fill:#1181c0;}.cls-29{fill:#81bfc5;}.cls-30{fill:#64b7bc;}.cls-31{fill:#42a5b2;}.cls-32{fill:#2e9ab3;}.cls-33{fill:#0888b6;}.cls-34{fill:#1881c1;}.cls-35{fill:#6cc0bd;}.cls-36{fill:#81c4c5;}.cls-37{fill:#b2cbe4;}.cls-38{fill:#9cc0e1;}.cls-39{fill:#7aa9d6;}.cls-40{fill:#619ed1;}.cls-41{fill:#0d4f90;}.cls-41,.cls-42{fill-opacity:0.2;}.cls-42,.cls-50{fill:#114d8f;}.cls-43{fill:#76a1cc;}.cls-44{fill:#6a91c2;}.cls-45{fill:#4981b3;}.cls-46{fill:#406ea7;}.cls-47{fill:#055293;}.cls-48{fill:#1c4787;}.cls-49{fill:#1f4686;}.cls-51{fill:#0492a0;}.cls-52{fill:#018188;}.cls-53{fill:#067581;}.cls-54{fill:#056b80;}.cls-55{fill:#005782;}.cls-56{fill:#204580;}.cls-57{fill:#1a4888;}.cls-58{fill:#029da2;}.cls-59{fill:#0598a6;}.cls-60{fill:#3a98bf;}.cls-61{fill:#467eb3;}.cls-62{fill:#2a5f9d;}.cls-63{fill:#19498a;}</style></defs><g id="Layer_2" data-name="Layer 2"><g id="Layer_1-2" data-name="Layer 1"><path class="cls-1" d="M12,24c6,0,9-5,12-5s5.5,5,12,5A11.84,11.84,0,0,0,48,12,11.84,11.84,0,0,0,36,0c-6.5,0-9,5-12,5S18.5,0,12,0A11.84,11.84,0,0,0,0,12,12.16,12.16,0,0,0,12,24Z"/><path class="cls-2" d="M12,48c6,0,9-5,12-5s5.5,5,12,5a12,12,0,0,0,0-24c-6.5,0-9,5-12,5s-5.5-5-12-5A11.84,11.84,0,0,0,0,36,12.16,12.16,0,0,0,12,48Z"/><path class="cls-3" d="M12,72c6,0,9-5,12-5s5.5,5,12,5a12,12,0,0,0,0-24c-6.5,0-9,5-12,5s-5.5-5-12-5A11.84,11.84,0,0,0,0,60,12.16,12.16,0,0,0,12,72Z"/><path class="cls-4" d="M36,24c6,0,9-5,12-5s5.5,5,12,5A11.84,11.84,0,0,0,72,12,11.84,11.84,0,0,0,60,0c-6.5,0-9,5-12,5S42.5,0,36,0A11.84,11.84,0,0,0,24,12,12.16,12.16,0,0,0,36,24Z"/><path class="cls-5" d="M36,48c6,0,9-5,12-5s5.5,5,12,5a12,12,0,0,0,0-24c-6.5,0-9,5-12,5s-5.5-5-12-5A11.84,11.84,0,0,0,24,36,12.16,12.16,0,0,0,36,48Z"/><path class="cls-6" d="M36,72c6,0,9-5,12-5s5.5,5,12,5a12,12,0,0,0,0-24c-6.5,0-9,5-12,5s-5.5-5-12-5A11.84,11.84,0,0,0,24,60,12.16,12.16,0,0,0,36,72Z"/><path class="cls-4" d="M60,24c6,0,9-5,12-5s5.5,5,12,5A11.84,11.84,0,0,0,96,12,11.84,11.84,0,0,0,84,0c-6.5,0-9,5-12,5S66.5,0,60,0A11.84,11.84,0,0,0,48,12,12.16,12.16,0,0,0,60,24Z"/><path class="cls-7" d="M60,48c6,0,9-5,12-5s5.5,5,12,5a12,12,0,0,0,0-24c-6.5,0-9,5-12,5s-5.5-5-12-5A11.84,11.84,0,0,0,48,36,12.16,12.16,0,0,0,60,48Z"/><path class="cls-6" d="M60,72c6,0,9-5,12-5s5.5,5,12,5a12,12,0,0,0,0-24c-6.5,0-9,5-12,5s-5.5-5-12-5A11.84,11.84,0,0,0,48,60,12.16,12.16,0,0,0,60,72Z"/><path class="cls-8" d="M84,24c6,0,9-5,12-5s5.5,5,12,5a11.84,11.84,0,0,0,12-12A11.84,11.84,0,0,0,108,0c-6.5,0-9,5-12,5S90.5,0,84,0A11.84,11.84,0,0,0,72,12,12.16,12.16,0,0,0,84,24Z"/><path class="cls-9" d="M84,48c6,0,9-5,12-5s5.5,5,12,5a12,12,0,0,0,0-24c-6.5,0-9,5-12,5s-5.5-5-12-5A11.84,11.84,0,0,0,72,36,12.16,12.16,0,0,0,84,48Z"/><path class="cls-4" d="M84,72c6,0,9-5,12-5s5.5,5,12,5a12,12,0,0,0,0-24c-6.5,0-9,5-12,5s-5.5-5-12-5A11.84,11.84,0,0,0,72,60,12.16,12.16,0,0,0,84,72Z"/><path class="cls-10" d="M108,24c6,0,9-5,12-5s5.5,5,12,5a11.84,11.84,0,0,0,12-12A11.84,11.84,0,0,0,132,0c-6.5,0-9,5-12,5s-5.5-5-12-5A11.84,11.84,0,0,0,96,12,12.16,12.16,0,0,0,108,24Z"/><path class="cls-11" d="M108,48c6,0,9-5,12-5s5.5,5,12,5a12,12,0,0,0,0-24c-6.5,0-9,5-12,5s-5.5-5-12-5A11.84,11.84,0,0,0,96,36,12.16,12.16,0,0,0,108,48Z"/><path class="cls-12" d="M108,72c6,0,9-5,12-5s5.5,5,12,5a12,12,0,0,0,0-24c-6.5,0-9,5-12,5s-5.5-5-12-5A11.84,11.84,0,0,0,96,60,12.16,12.16,0,0,0,108,72Z"/><path class="cls-13" d="M132,24c6,0,9-5,12-5s5.5,5,12,5a11.84,11.84,0,0,0,12-12A11.84,11.84,0,0,0,156,0c-6.5,0-9,5-12,5s-5.5-5-12-5a11.84,11.84,0,0,0-12,12A12.16,12.16,0,0,0,132,24Zm0,24c6,0,9-5,12-5s5.5,5,12,5a12,12,0,0,0,0-24c-6.5,0-9,5-12,5s-5.5-5-12-5a11.84,11.84,0,0,0-12,12A12.16,12.16,0,0,0,132,48Z"/><path class="cls-14" d="M132,72c6,0,9-5,12-5s5.5,5,12,5a12,12,0,0,0,0-24c-6.5,0-9,5-12,5s-5.5-5-12-5a11.84,11.84,0,0,0-12,12A12.16,12.16,0,0,0,132,72Z"/><path class="cls-13" d="M156,24c6,0,9-5,12-5s5.5,5,12,5a11.84,11.84,0,0,0,12-12A11.84,11.84,0,0,0,180,0c-6.5,0-9,5-12,5s-5.5-5-12-5a11.84,11.84,0,0,0-12,12A12.16,12.16,0,0,0,156,24Zm0,24c6,0,9-5,12-5s5.5,5,12,5a12,12,0,0,0,0-24c-6.5,0-9,5-12,5s-5.5-5-12-5a11.84,11.84,0,0,0-12,12A12.16,12.16,0,0,0,156,48Z"/><path class="cls-15" d="M156,72c6,0,9-5,12-5s5.5,5,12,5a12,12,0,0,0,0-24c-6.5,0-9,5-12,5s-5.5-5-12-5a11.84,11.84,0,0,0-12,12A12.16,12.16,0,0,0,156,72Z"/><path class="cls-1" d="M0,12c0,6,5,9,5,12S0,29.5,0,36A11.84,11.84,0,0,0,12,48,11.84,11.84,0,0,0,24,36c0-6.5-5-9-5-12s5-5.5,5-12A11.84,11.84,0,0,0,12,0,12.16,12.16,0,0,0,0,12Z"/><path class="cls-16" d="M0,36c0,6,5,9,5,12S0,53.5,0,60A11.84,11.84,0,0,0,12,72,11.84,11.84,0,0,0,24,60c0-6.5-5-9-5-12s5-5.5,5-12A11.84,11.84,0,0,0,12,24,12.16,12.16,0,0,0,0,36Z"/><path class="cls-1" d="M24,12c0,6,5,9,5,12s-5,5.5-5,12a12,12,0,0,0,24,0c0-6.5-5-9-5-12s5-5.5,5-12A11.84,11.84,0,0,0,36,0,12.16,12.16,0,0,0,24,12Z"/><path class="cls-17" d="M24,36c0,6,5,9,5,12s-5,5.5-5,12a12,12,0,0,0,24,0c0-6.5-5-9-5-12s5-5.5,5-12A11.84,11.84,0,0,0,36,24,12.16,12.16,0,0,0,24,36Z"/><path class="cls-4" d="M48,12c0,6,5,9,5,12s-5,5.5-5,12a12,12,0,0,0,24,0c0-6.5-5-9-5-12s5-5.5,5-12A11.84,11.84,0,0,0,60,0,12.16,12.16,0,0,0,48,12Z"/><path class="cls-4" d="M48,36c0,6,5,9,5,12s-5,5.5-5,12a12,12,0,0,0,24,0c0-6.5-5-9-5-12s5-5.5,5-12A11.84,11.84,0,0,0,60,24,12.16,12.16,0,0,0,48,36Z"/><path class="cls-8" d="M72,12c0,6,5,9,5,12s-5,5.5-5,12a12,12,0,0,0,24,0c0-6.5-5-9-5-12s5-5.5,5-12A11.84,11.84,0,0,0,84,0,12.16,12.16,0,0,0,72,12Z"/><path class="cls-8" d="M72,36c0,6,5,9,5,12s-5,5.5-5,12a12,12,0,0,0,24,0c0-6.5-5-9-5-12s5-5.5,5-12A11.84,11.84,0,0,0,84,24,12.16,12.16,0,0,0,72,36Z"/><path class="cls-18" d="M96,12c0,6,5,9,5,12s-5,5.5-5,12a12,12,0,0,0,24,0c0-6.5-5-9-5-12s5-5.5,5-12A11.84,11.84,0,0,0,108,0,12.16,12.16,0,0,0,96,12Z"/><path class="cls-8" d="M96,36c0,6,5,9,5,12s-5,5.5-5,12a12,12,0,0,0,24,0c0-6.5-5-9-5-12s5-5.5,5-12a11.84,11.84,0,0,0-12-12A12.16,12.16,0,0,0,96,36Z"/><path class="cls-19" d="M120,12c0,6,5,9,5,12s-5,5.5-5,12a12,12,0,0,0,24,0c0-6.5-5-9-5-12s5-5.5,5-12A11.84,11.84,0,0,0,132,0,12.16,12.16,0,0,0,120,12Z"/><path class="cls-18" d="M120,36c0,6,5,9,5,12s-5,5.5-5,12a12,12,0,0,0,24,0c0-6.5-5-9-5-12s5-5.5,5-12a11.84,11.84,0,0,0-12-12A12.16,12.16,0,0,0,120,36Z"/><path class="cls-19" d="M144,12c0,6,5,9,5,12s-5,5.5-5,12a12,12,0,0,0,24,0c0-6.5-5-9-5-12s5-5.5,5-12A11.84,11.84,0,0,0,156,0,12.16,12.16,0,0,0,144,12Z"/><path class="cls-13" d="M144,36c0,6,5,9,5,12s-5,5.5-5,12a12,12,0,0,0,24,0c0-6.5-5-9-5-12s5-5.5,5-12a11.84,11.84,0,0,0-12-12A12.16,12.16,0,0,0,144,36Z"/><path class="cls-20" d="M168,12c0,6,5,9,5,12s-5,5.5-5,12a12,12,0,0,0,24,0c0-6.5-5-9-5-12s5-5.5,5-12A11.84,11.84,0,0,0,180,0,12.16,12.16,0,0,0,168,12Z"/><path class="cls-21" d="M168,36c0,6,5,9,5,12s-5,5.5-5,12a12,12,0,0,0,24,0c0-6.5-5-9-5-12s5-5.5,5-12a11.84,11.84,0,0,0-12-12A12.16,12.16,0,0,0,168,36Z"/><path class="cls-22" d="M12,24A12,12,0,1,1,24,12,12,12,0,0,1,12,24Zm0-7.25A4.75,4.75,0,1,0,7.25,12,4.75,4.75,0,0,0,12,16.75Z"/><path class="cls-23" d="M36,24A12,12,0,1,1,48,12,12,12,0,0,1,36,24Zm0-7.25A4.75,4.75,0,1,0,31.25,12,4.75,4.75,0,0,0,36,16.75Z"/><path class="cls-24" d="M60,24A12,12,0,1,1,72,12,12,12,0,0,1,60,24Zm0-7.25A4.75,4.75,0,1,0,55.25,12,4.75,4.75,0,0,0,60,16.75Z"/><path class="cls-25" d="M84,24A12,12,0,1,1,96,12,12,12,0,0,1,84,24Zm0-7.25A4.75,4.75,0,1,0,79.25,12,4.75,4.75,0,0,0,84,16.75Z"/><path class="cls-26" d="M108,24a12,12,0,1,1,12-12A12,12,0,0,1,108,24Zm0-7.25A4.75,4.75,0,1,0,103.25,12,4.75,4.75,0,0,0,108,16.75Z"/><path class="cls-27" d="M132,24a12,12,0,1,1,12-12A12,12,0,0,1,132,24Zm0-7.25A4.75,4.75,0,1,0,127.25,12,4.75,4.75,0,0,0,132,16.75Z"/><path class="cls-28" d="M156,24a12,12,0,1,1,12-12A12,12,0,0,1,156,24Zm0-7.25A4.75,4.75,0,1,0,151.25,12,4.75,4.75,0,0,0,156,16.75Z"/><path class="cls-27" d="M180,24a12,12,0,1,1,12-12A12,12,0,0,1,180,24Zm0-7.25A4.75,4.75,0,1,0,175.25,12,4.75,4.75,0,0,0,180,16.75Z"/><path class="cls-29" d="M12,48A12,12,0,1,1,24,36,12,12,0,0,1,12,48Zm0-7.25A4.75,4.75,0,1,0,7.25,36,4.75,4.75,0,0,0,12,40.75Z"/><path class="cls-30" d="M36,48A12,12,0,1,1,48,36,12,12,0,0,1,36,48Zm0-7.25A4.75,4.75,0,1,0,31.25,36,4.75,4.75,0,0,0,36,40.75Z"/><path class="cls-31" d="M60,48A12,12,0,1,1,72,36,12,12,0,0,1,60,48Zm0-7.25A4.75,4.75,0,1,0,55.25,36,4.75,4.75,0,0,0,60,40.75Z"/><path class="cls-32" d="M84,48A12,12,0,1,1,96,36,12,12,0,0,1,84,48Zm0-7.25A4.75,4.75,0,1,0,79.25,36,4.75,4.75,0,0,0,84,40.75Z"/><path class="cls-33" d="M108,48a12,12,0,1,1,12-12A12,12,0,0,1,108,48Zm0-7.25A4.75,4.75,0,1,0,103.25,36,4.75,4.75,0,0,0,108,40.75Z"/><path class="cls-34" d="M132,48a12,12,0,1,1,12-12A12,12,0,0,1,132,48Zm0-7.25A4.75,4.75,0,1,0,127.25,36,4.75,4.75,0,0,0,132,40.75ZM156,48a12,12,0,1,1,12-12A12,12,0,0,1,156,48Zm0-7.25A4.75,4.75,0,1,0,151.25,36,4.75,4.75,0,0,0,156,40.75ZM180,48a12,12,0,1,1,12-12A12,12,0,0,1,180,48Zm0-7.25A4.75,4.75,0,1,0,175.25,36,4.75,4.75,0,0,0,180,40.75Z"/><path class="cls-35" d="M12,72A12,12,0,1,1,24,60,12,12,0,0,1,12,72Zm0-7.25A4.75,4.75,0,1,0,7.25,60,4.75,4.75,0,0,0,12,64.75Z"/><path class="cls-36" d="M36,72A12,12,0,1,1,48,60,12,12,0,0,1,36,72Zm0-7.25A4.75,4.75,0,1,0,31.25,60,4.75,4.75,0,0,0,36,64.75Z"/><path class="cls-37" d="M60,72A12,12,0,1,1,72,60,12,12,0,0,1,60,72Zm0-7.25A4.75,4.75,0,1,0,55.25,60,4.75,4.75,0,0,0,60,64.75Z"/><path class="cls-38" d="M84,72A12,12,0,1,1,96,60,12,12,0,0,1,84,72Zm0-7.25A4.75,4.75,0,1,0,79.25,60,4.75,4.75,0,0,0,84,64.75Z"/><path class="cls-39" d="M108,72a12,12,0,1,1,12-12A12,12,0,0,1,108,72Zm0-7.25A4.75,4.75,0,1,0,103.25,60,4.75,4.75,0,0,0,108,64.75Z"/><path class="cls-40" d="M132,72a12,12,0,1,1,12-12A12,12,0,0,1,132,72Zm0-7.25A4.75,4.75,0,1,0,127.25,60,4.75,4.75,0,0,0,132,64.75Z"/><path class="cls-27" d="M156,72a12,12,0,1,1,12-12A12,12,0,0,1,156,72Zm0-7.25A4.75,4.75,0,1,0,151.25,60,4.75,4.75,0,0,0,156,64.75ZM180,72a12,12,0,1,1,12-12A12,12,0,0,1,180,72Zm0-7.25A4.75,4.75,0,1,0,175.25,60,4.75,4.75,0,0,0,180,64.75Z"/><path class="cls-41" d="M12,40.75A4.77,4.77,0,0,0,16.75,36c0-2.46-3.73-9.55-3.7-12.5s3.7-8.92,3.7-11.5a4.75,4.75,0,0,0-9.5,0c0,2.58,3.73,8.55,3.7,11.5s-3.68,10-3.7,12.5A4.75,4.75,0,0,0,12,40.75Z"/><path class="cls-41" d="M12,64.75A4.77,4.77,0,0,0,16.75,60c0-2.46-3.73-9.54-3.7-12.5s3.7-8.92,3.7-11.5a4.75,4.75,0,0,0-9.5,0c0,2.58,3.73,8.54,3.7,11.5s-3.68,10-3.7,12.5A4.75,4.75,0,0,0,12,64.75Zm24-24A4.77,4.77,0,0,0,40.75,36c0-2.46-3.73-9.55-3.7-12.5s3.7-8.92,3.7-11.5a4.75,4.75,0,0,0-9.5,0c0,2.58,3.73,8.55,3.7,11.5s-3.68,10-3.7,12.5A4.75,4.75,0,0,0,36,40.75Z"/><path class="cls-41" d="M36,64.75A4.77,4.77,0,0,0,40.75,60c0-2.46-3.73-9.54-3.7-12.5s3.7-8.92,3.7-11.5a4.75,4.75,0,0,0-9.5,0c0,2.58,3.73,8.54,3.7,11.5s-3.68,10-3.7,12.5A4.75,4.75,0,0,0,36,64.75Zm24-24A4.77,4.77,0,0,0,64.75,36c0-2.46-3.73-9.55-3.7-12.5s3.7-8.92,3.7-11.5a4.75,4.75,0,0,0-9.5,0c0,2.58,3.73,8.55,3.7,11.5s-3.68,10-3.7,12.5A4.75,4.75,0,0,0,60,40.75Z"/><path class="cls-41" d="M60,64.75A4.77,4.77,0,0,0,64.75,60c0-2.46-3.73-9.54-3.7-12.5s3.7-8.92,3.7-11.5a4.75,4.75,0,0,0-9.5,0c0,2.58,3.73,8.54,3.7,11.5s-3.68,10-3.7,12.5A4.75,4.75,0,0,0,60,64.75Zm24-24A4.77,4.77,0,0,0,88.75,36c0-2.46-3.73-9.55-3.7-12.5s3.7-8.92,3.7-11.5a4.75,4.75,0,0,0-9.5,0c0,2.58,3.73,8.55,3.7,11.5s-3.68,10-3.7,12.5A4.75,4.75,0,0,0,84,40.75Z"/><path class="cls-41" d="M84,64.75A4.77,4.77,0,0,0,88.75,60c0-2.46-3.73-9.54-3.7-12.5s3.7-8.92,3.7-11.5a4.75,4.75,0,0,0-9.5,0c0,2.58,3.73,8.54,3.7,11.5s-3.68,10-3.7,12.5A4.75,4.75,0,0,0,84,64.75Zm24-24A4.77,4.77,0,0,0,112.75,36c0-2.46-3.73-9.55-3.7-12.5s3.7-8.92,3.7-11.5a4.75,4.75,0,0,0-9.5,0c0,2.58,3.73,8.55,3.7,11.5s-3.68,10-3.7,12.5A4.75,4.75,0,0,0,108,40.75Z"/><path class="cls-41" d="M108,64.75A4.77,4.77,0,0,0,112.75,60c0-2.46-3.73-9.54-3.7-12.5s3.7-8.92,3.7-11.5a4.75,4.75,0,0,0-9.5,0c0,2.58,3.73,8.54,3.7,11.5s-3.68,10-3.7,12.5A4.75,4.75,0,0,0,108,64.75Zm24-24A4.77,4.77,0,0,0,136.75,36c0-2.46-3.73-9.55-3.7-12.5s3.7-8.92,3.7-11.5a4.75,4.75,0,0,0-9.5,0c0,2.58,3.73,8.55,3.7,11.5s-3.68,10-3.7,12.5A4.75,4.75,0,0,0,132,40.75Z"/><path class="cls-41" d="M132,64.75A4.77,4.77,0,0,0,136.75,60c0-2.46-3.73-9.54-3.7-12.5s3.7-8.92,3.7-11.5a4.75,4.75,0,0,0-9.5,0c0,2.58,3.73,8.54,3.7,11.5s-3.68,10-3.7,12.5A4.75,4.75,0,0,0,132,64.75Zm24-24A4.77,4.77,0,0,0,160.75,36c0-2.46-3.73-9.55-3.7-12.5s3.7-8.92,3.7-11.5a4.75,4.75,0,0,0-9.5,0c0,2.58,3.73,8.55,3.7,11.5s-3.68,10-3.7,12.5A4.75,4.75,0,0,0,156,40.75Z"/><path class="cls-41" d="M156,64.75A4.77,4.77,0,0,0,160.75,60c0-2.46-3.73-9.54-3.7-12.5s3.7-8.92,3.7-11.5a4.75,4.75,0,0,0-9.5,0c0,2.58,3.73,8.54,3.7,11.5s-3.68,10-3.7,12.5A4.75,4.75,0,0,0,156,64.75Zm24-24A4.77,4.77,0,0,0,184.75,36c0-2.46-3.73-9.55-3.7-12.5s3.7-8.92,3.7-11.5a4.75,4.75,0,0,0-9.5,0c0,2.58,3.73,8.55,3.7,11.5s-3.68,10-3.7,12.5A4.75,4.75,0,0,0,180,40.75Z"/><path class="cls-41" d="M180,64.75A4.77,4.77,0,0,0,184.75,60c0-2.46-3.73-9.54-3.7-12.5s3.7-8.92,3.7-11.5a4.75,4.75,0,0,0-9.5,0c0,2.58,3.73,8.54,3.7,11.5s-3.68,10-3.7,12.5A4.75,4.75,0,0,0,180,64.75Z"/><path class="cls-42" d="M7.25,12A4.77,4.77,0,0,0,12,16.75c2.46,0,9.55-3.73,12.5-3.7s8.92,3.7,11.5,3.7a4.75,4.75,0,0,0,0-9.5c-2.58,0-8.55,3.73-11.5,3.7s-10-3.68-12.5-3.7A4.75,4.75,0,0,0,7.25,12Z"/><path class="cls-42" d="M31.25,12A4.77,4.77,0,0,0,36,16.75c2.46,0,9.55-3.73,12.5-3.7s8.92,3.7,11.5,3.7a4.75,4.75,0,0,0,0-9.5c-2.58,0-8.55,3.73-11.5,3.7s-10-3.68-12.5-3.7A4.75,4.75,0,0,0,31.25,12Z"/><path class="cls-42" d="M55.25,12A4.77,4.77,0,0,0,60,16.75c2.46,0,9.55-3.73,12.5-3.7s8.92,3.7,11.5,3.7a4.75,4.75,0,0,0,0-9.5c-2.58,0-8.55,3.73-11.5,3.7s-10-3.68-12.5-3.7A4.75,4.75,0,0,0,55.25,12Z"/><path class="cls-42" d="M79.25,12A4.77,4.77,0,0,0,84,16.75c2.46,0,9.55-3.73,12.5-3.7s8.92,3.7,11.5,3.7a4.75,4.75,0,0,0,0-9.5c-2.58,0-8.55,3.73-11.5,3.7s-10-3.68-12.5-3.7A4.75,4.75,0,0,0,79.25,12Z"/><path class="cls-42" d="M103.25,12A4.77,4.77,0,0,0,108,16.75c2.46,0,9.55-3.73,12.5-3.7s8.92,3.7,11.5,3.7a4.75,4.75,0,0,0,0-9.5c-2.58,0-8.54,3.73-11.5,3.7s-10-3.68-12.5-3.7A4.75,4.75,0,0,0,103.25,12Z"/><path class="cls-42" d="M127.25,12A4.77,4.77,0,0,0,132,16.75c2.46,0,9.55-3.73,12.5-3.7s8.92,3.7,11.5,3.7a4.75,4.75,0,0,0,0-9.5c-2.58,0-8.54,3.73-11.5,3.7s-10-3.68-12.5-3.7A4.75,4.75,0,0,0,127.25,12Z"/><path class="cls-42" d="M151.25,12A4.77,4.77,0,0,0,156,16.75c2.46,0,9.55-3.73,12.5-3.7s8.92,3.7,11.5,3.7a4.75,4.75,0,0,0,0-9.5c-2.58,0-8.54,3.73-11.5,3.7s-10-3.68-12.5-3.7A4.75,4.75,0,0,0,151.25,12Z"/><path class="cls-42" d="M7.25,36A4.77,4.77,0,0,0,12,40.75c2.46,0,9.55-3.73,12.5-3.7s8.92,3.7,11.5,3.7a4.75,4.75,0,0,0,0-9.5c-2.58,0-8.55,3.73-11.5,3.7s-10-3.68-12.5-3.7A4.75,4.75,0,0,0,7.25,36Z"/><path class="cls-42" d="M31.25,36A4.77,4.77,0,0,0,36,40.75c2.46,0,9.55-3.73,12.5-3.7s8.92,3.7,11.5,3.7a4.75,4.75,0,0,0,0-9.5c-2.58,0-8.55,3.73-11.5,3.7s-10-3.68-12.5-3.7A4.75,4.75,0,0,0,31.25,36Z"/><path class="cls-42" d="M55.25,36A4.77,4.77,0,0,0,60,40.75c2.46,0,9.55-3.73,12.5-3.7s8.92,3.7,11.5,3.7a4.75,4.75,0,0,0,0-9.5c-2.58,0-8.55,3.73-11.5,3.7s-10-3.68-12.5-3.7A4.75,4.75,0,0,0,55.25,36Z"/><path class="cls-42" d="M79.25,36A4.77,4.77,0,0,0,84,40.75c2.46,0,9.55-3.73,12.5-3.7s8.92,3.7,11.5,3.7a4.75,4.75,0,0,0,0-9.5c-2.58,0-8.55,3.73-11.5,3.7s-10-3.68-12.5-3.7A4.75,4.75,0,0,0,79.25,36Z"/><path class="cls-42" d="M103.25,36A4.77,4.77,0,0,0,108,40.75c2.46,0,9.55-3.73,12.5-3.7s8.92,3.7,11.5,3.7a4.75,4.75,0,0,0,0-9.5c-2.58,0-8.55,3.73-11.5,3.7s-10-3.68-12.5-3.7A4.75,4.75,0,0,0,103.25,36Z"/><path class="cls-42" d="M127.25,36A4.77,4.77,0,0,0,132,40.75c2.46,0,9.55-3.73,12.5-3.7s8.92,3.7,11.5,3.7a4.75,4.75,0,0,0,0-9.5c-2.58,0-8.55,3.73-11.5,3.7s-10-3.68-12.5-3.7A4.75,4.75,0,0,0,127.25,36Z"/><path class="cls-42" d="M151.25,36A4.77,4.77,0,0,0,156,40.75c2.46,0,9.55-3.73,12.5-3.7s8.92,3.7,11.5,3.7a4.75,4.75,0,0,0,0-9.5c-2.58,0-8.55,3.73-11.5,3.7s-10-3.68-12.5-3.7A4.75,4.75,0,0,0,151.25,36Z"/><path class="cls-42" d="M7.25,60A4.78,4.78,0,0,0,12,64.75c2.46,0,9.54-3.73,12.5-3.7s8.92,3.7,11.5,3.7a4.75,4.75,0,0,0,0-9.5c-2.58,0-8.54,3.73-11.5,3.7s-10-3.68-12.5-3.7A4.75,4.75,0,0,0,7.25,60Z"/><path class="cls-42" d="M31.25,60A4.78,4.78,0,0,0,36,64.75c2.46,0,9.54-3.73,12.5-3.7s8.92,3.7,11.5,3.7a4.75,4.75,0,0,0,0-9.5c-2.58,0-8.54,3.73-11.5,3.7s-10-3.68-12.5-3.7A4.75,4.75,0,0,0,31.25,60Z"/><path class="cls-42" d="M55.25,60A4.78,4.78,0,0,0,60,64.75c2.46,0,9.54-3.73,12.5-3.7s8.92,3.7,11.5,3.7a4.75,4.75,0,0,0,0-9.5c-2.58,0-8.54,3.73-11.5,3.7s-10-3.68-12.5-3.7A4.75,4.75,0,0,0,55.25,60Z"/><path class="cls-42" d="M79.25,60A4.78,4.78,0,0,0,84,64.75c2.46,0,9.54-3.73,12.5-3.7s8.92,3.7,11.5,3.7a4.75,4.75,0,0,0,0-9.5c-2.58,0-8.54,3.73-11.5,3.7s-10-3.68-12.5-3.7A4.75,4.75,0,0,0,79.25,60Z"/><path class="cls-42" d="M103.25,60A4.78,4.78,0,0,0,108,64.75c2.46,0,9.54-3.73,12.5-3.7s8.92,3.7,11.5,3.7a4.75,4.75,0,0,0,0-9.5c-2.58,0-8.54,3.73-11.5,3.7s-10-3.68-12.5-3.7A4.75,4.75,0,0,0,103.25,60Z"/><path class="cls-42" d="M127.25,60A4.78,4.78,0,0,0,132,64.75c2.46,0,9.54-3.73,12.5-3.7s8.92,3.7,11.5,3.7a4.75,4.75,0,0,0,0-9.5c-2.58,0-8.54,3.73-11.5,3.7s-10-3.68-12.5-3.7A4.75,4.75,0,0,0,127.25,60Z"/><path class="cls-42" d="M151.25,60A4.78,4.78,0,0,0,156,64.75c2.46,0,9.54-3.73,12.5-3.7s8.92,3.7,11.5,3.7a4.75,4.75,0,0,0,0-9.5c-2.58,0-8.54,3.73-11.5,3.7s-10-3.68-12.5-3.7A4.75,4.75,0,0,0,151.25,60Z"/><circle class="cls-43" cx="12" cy="12" r="4.75"/><circle class="cls-44" cx="36" cy="12" r="4.75"/><circle class="cls-45" cx="60" cy="12" r="4.75"/><circle class="cls-46" cx="84" cy="12" r="4.75"/><circle class="cls-47" cx="108" cy="12" r="4.75"/><circle class="cls-48" cx="132" cy="12" r="4.75"/><circle class="cls-49" cx="156" cy="12" r="4.75"/><circle class="cls-50" cx="180" cy="12" r="4.75"/><circle class="cls-51" cx="12" cy="36" r="4.75"/><circle class="cls-52" cx="36" cy="36" r="4.75"/><circle class="cls-53" cx="60" cy="36" r="4.75"/><circle class="cls-54" cx="84" cy="36" r="4.75"/><circle class="cls-55" cx="108" cy="36" r="4.75"/><circle class="cls-56" cx="132" cy="36" r="4.75"/><circle class="cls-49" cx="156" cy="36" r="4.75"/><circle class="cls-57" cx="180" cy="36" r="4.75"/><circle class="cls-58" cx="12" cy="60" r="4.75"/><circle class="cls-59" cx="36" cy="60" r="4.75"/><circle class="cls-60" cx="60" cy="60" r="4.75"/><circle class="cls-61" cx="84" cy="60" r="4.75"/><circle class="cls-62" cx="108" cy="60" r="4.75"/><circle class="cls-48" cx="132" cy="60" r="4.75"/><circle class="cls-49" cx="156" cy="60" r="4.75"/><circle class="cls-63" cx="180" cy="60" r="4.75"/></g></g></svg>