<svg xmlns="http://www.w3.org/2000/svg" viewBox="0 0 80.32 80.32"><g id="Layer_2" data-name="Layer 2"><g id="Layer_1-2" data-name="Layer 1"><path d="M80.32,40.08A40.14,40.14,0,1,1,53,2.08c1.06.35,1.47.8.95,1.9a18.8,18.8,0,0,0-1.08,2.78c-.29,1-.83.9-1.63.63a34,34,0,0,0-23.45.44A34.5,34.5,0,0,0,38.57,74.55c17.68.72,33.2-11.77,35.71-29.14C76.2,32.09,71.6,21.14,61.12,12.67c-1.31-1.06-1.34-1.07-.37-2.47a15.93,15.93,0,0,0,1.35-2c.58-1,1.19-.93,2-.29A40.35,40.35,0,0,1,78.1,27,41.11,41.11,0,0,1,80.32,40.08Z"/><path d="M40.12,8.47A31.59,31.59,0,1,1,13.28,56.79c-.59-1-.46-1.49.56-1.93a16.7,16.7,0,0,0,2.33-1.23c.92-.61,1.44-.49,2.08.49A25.48,25.48,0,0,0,36.51,65.83,26,26,0,1,0,14.35,36.49c-.08.62-.15,1.24-.19,1.87a41,41,0,0,0,.29,6.07c.07.79-.08,1.18-.88,1.34a21.5,21.5,0,0,0-3.14.78c-1.06.37-1.32-.1-1.48-1A31.6,31.6,0,0,1,34.6,9a31.17,31.17,0,0,1,3.61-.42C38.85,8.53,39.49,8.51,40.12,8.47Z"/><path d="M40.07,63.06A23,23,0,0,1,36.21,17.4C45,16,52.32,18.72,58,25.51S64.49,39.81,61.77,48c-.34,1-.76,1.37-1.77.69a14.79,14.79,0,0,0-2.63-1.41c-1-.39-.92-.94-.66-1.79,1.94-6.24.86-12-3.45-16.86-4.65-5.26-10.62-7.19-17.44-5.44S24.69,29.45,23.07,36.27A17.43,17.43,0,0,0,50.89,53.76c.92-.72,1.57-.73,2.35.1a17.7,17.7,0,0,0,2,1.77c.89.7.72,1.24-.06,1.9A22.65,22.65,0,0,1,40.07,63.06Z"/></g></g></svg>