<svg id="b9ae649f-81ae-4464-96d2-c1ee3214b3a8" data-name="teal-white" xmlns="http://www.w3.org/2000/svg" viewBox="0 0 50 50"><path d="M31.92113,42.60876a7.35587,7.35587,0,0,1-5.45592-2.08627c-3.24-3.28208-3.15687-9.76231-3.07656-16.02893.06916-5.42078.14111-11.02618-2.02073-13.21647a3.77358,3.77358,0,0,0-2.83672-1.03017,8.50145,8.50145,0,0,0-6.71812,2.72573c-4.09835,4.561-3.21934,13.25886-3.21041,13.34643a1.42759,1.42759,0,1,1-2.839.304c-.04406-.408-1.01455-10.06156,3.92546-15.55931a11.349,11.349,0,0,1,8.842-3.67251,6.566,6.566,0,0,1,4.86861,1.87962c3.0007,3.03946,2.92484,8.975,2.84453,15.25923-.07307,5.68014-.14836,11.55354,2.25331,13.98589a4.55408,4.55408,0,0,0,3.42348,1.2371,8.25677,8.25677,0,0,0,6.80066-2.84342c4.22664-5.1037,2.34255-15.35349,2.323-15.4564a1.42776,1.42776,0,0,1,2.80493-.53516c.09092.47325,2.15794,11.6623-2.92373,17.807a10.18815,10.18815,0,0,1-3.8597,2.90822A12.89307,12.89307,0,0,1,31.92113,42.60876Z" fill="#1fc7d9"/></svg>