<svg xmlns="http://www.w3.org/2000/svg" viewBox="0 0 153.78 153.78"><defs><style>.cls-1{fill:#fff;}</style></defs><g id="Layer_2" data-name="Layer 2"><g id="Layer_1-2" data-name="Layer 1"><circle cx="76.89" cy="76.89" r="76.89"/><path class="cls-1" d="M129.43,96.76c-1.18,27.4-28.25,34.9-53,34.9-24.53,0-51.45-9.85-52.06-36.78h38a12.78,12.78,0,0,0,4.8,9.24c2,1.81,5.85,3,10.66,3,5.24,0,13.48-2,13.48-8s-3.41-7.83-21.92-11C39,82.82,26.77,73.17,26.77,55.28c0-26.34,28.34-33.16,49.24-33.16,22.51,0,49.64,6.23,50.65,33H90.48a10.09,10.09,0,0,0-4.61-7.84,13.94,13.94,0,0,0-8.86-3c-5.63,0-12,1.21-12,8.05,0,3,2.41,4.41,4.61,5.42,6.62,2.82,21.71,3.61,35,8,9.31,3,17.82,7.71,22.08,16.16C126.62,81.89,129.47,86.67,129.43,96.76Z"/></g></g></svg>